<?xml version="1.0" encoding="utf-8"?>
<!-- Generator: Adobe Illustrator 25.2.0, SVG Export Plug-In . SVG Version: 6.00 Build 0)  -->
<svg version="1.1" xmlns="http://www.w3.org/2000/svg" xmlns:xlink="http://www.w3.org/1999/xlink" x="0px" y="0px"
	 viewBox="0 0 1440 249" style="enable-background:new 0 0 1440 249;" xml:space="preserve">
<style type="text/css">
	.st0{display:none;}
	.st1{display:inline;fill:#5600E7;}
	.st2{fill:url(#SVGID_1_);stroke:url(#SVGID_2_);stroke-miterlimit:10;}
</style>
<g id="Layer_2">
</g>
<g id="Layer_1">
	<g id="Layer_2_1_" class="st0">
		<rect x="-18.8" y="-68.3" class="st1" width="1529.8" height="226.7"/>
	</g>
	<linearGradient id="SVGID_1_" gradientUnits="userSpaceOnUse" x1="759.9252" y1="200.3517" x2="759.9252" y2="18.7072">
		<stop  offset="0" style="stop-color:#FFFFFF;stop-opacity:0"/>
		<stop  offset="1" style="stop-color:#FFFFFF;stop-opacity:0.2"/>
	</linearGradient>
	
		<linearGradient id="SVGID_2_" gradientUnits="userSpaceOnUse" x1="-58.0135" y1="230.8567" x2="1569.5554" y2="230.8567" gradientTransform="matrix(0.9999 -1.463851e-02 -1.936755e-02 -1.0792 8.4771 395.3269)">
		<stop  offset="0" style="stop-color:#FFFFFF;stop-opacity:0"/>
		<stop  offset="0.5239" style="stop-color:#FFFFFF"/>
		<stop  offset="1" style="stop-color:#FFFFFF;stop-opacity:0"/>
	</linearGradient>
	<path class="st2" d="M1566.8,258.4c0,0-1590.3-7.1-1590.3-7.1c-68.6-34.5,8.2-160-9.6-226.4c-1.2-4.4-2.9-8.7-2.1-12.8
		c0.9-5,189.2,45.9,205.4,49.8c71.5,17.5,144.6,31.2,219.2,35.2C583,107.5,773.2,55,963.8,30.6c8.7-1.1,17.4-2.2,26.1-3.2
		c173.5-19.9,350.5-15.4,520.5,16.3c17.7,3.3,42.7,3.5,53.5,17.8c7.6,10.1,8.2,22.9,8.6,34.7
		C1572.7,102.4,1566.8,258.4,1566.8,258.4z"/>
</g>
</svg>
