<?xml version="1.0" encoding="utf-8"?>
<!-- Generator: Adobe Illustrator 25.2.0, SVG Export Plug-In . SVG Version: 6.00 Build 0)  -->
<svg version="1.1" xmlns="http://www.w3.org/2000/svg" xmlns:xlink="http://www.w3.org/1999/xlink" x="0px" y="0px"
	 viewBox="0 0 1920 885" style="enable-background:new 0 0 1920 885;" xml:space="preserve">
<style type="text/css">
	.st0{display:none;}
	.st1{display:inline;fill:#131C2D;}
	.st2{fill:none;stroke:url(#SVGID_1_);stroke-width:2;stroke-miterlimit:10;}
	.st3{fill:none;stroke:url(#SVGID_2_);stroke-width:2;stroke-miterlimit:10;}
	.st4{fill:none;stroke:url(#SVGID_3_);stroke-width:2;stroke-miterlimit:10;}
	.st5{fill:none;stroke:url(#SVGID_4_);stroke-width:2;stroke-miterlimit:10;}
	.st6{fill:none;stroke:url(#SVGID_5_);stroke-width:2;stroke-miterlimit:10;}
	.st7{fill:none;stroke:url(#SVGID_6_);stroke-width:2;stroke-miterlimit:10;}
	.st8{fill:none;stroke:url(#SVGID_7_);stroke-width:2;stroke-miterlimit:10;}
	.st9{fill:none;stroke:url(#SVGID_8_);stroke-width:2;stroke-miterlimit:10;}
	.st10{fill:none;stroke:url(#SVGID_9_);stroke-width:2;stroke-miterlimit:10;}
	.st11{fill:none;stroke:url(#SVGID_10_);stroke-width:2;stroke-miterlimit:10;}
	.st12{fill:none;stroke:url(#SVGID_11_);stroke-width:2;stroke-miterlimit:10;}
	.st13{fill:none;stroke:url(#SVGID_12_);stroke-width:2;stroke-miterlimit:10;}
	.st14{fill:none;stroke:url(#SVGID_13_);stroke-width:2;stroke-miterlimit:10;}
	.st15{fill:none;stroke:url(#SVGID_14_);stroke-width:2;stroke-miterlimit:10;}
</style>
<g id="Layer_2" class="st0">
	<rect x="-94" y="0" class="st1" width="2168" height="926"/>
</g>
<g id="Layer_4">
	<g>
		<g id="Layer_3_3_">
			<g>
				
					<linearGradient id="SVGID_1_" gradientUnits="userSpaceOnUse" x1="-335.7901" y1="2373.5017" x2="1939.7074" y2="2373.5017" gradientTransform="matrix(-0.9973 7.395528e-02 7.395528e-02 0.9973 1720.4639 -1603.3365)">
					<stop  offset="0" style="stop-color:#E9002D"/>
					<stop  offset="0.5" style="stop-color:#2ABAFF;stop-opacity:0"/>
					<stop  offset="0.9149" style="stop-color:#FF2E7A;stop-opacity:0.9016"/>
				</linearGradient>
				<path class="st2" d="M-44.8,815.6c76.5-40.7,165.6-62.7,251.8-46.4c44.6,8.4,87.5,23.9,130.5,38.6
					C440,842.6,540,866.3,648.1,846.9c108.8-19.5,212.9-53.9,318-87.5c91.6-29.3,211.3-54.9,305-20.3c92.9,34.2,212.6,105.1,350,84
					c269.7-41.3,548,71,619,43"/>
			</g>
		</g>
		
			<linearGradient id="SVGID_2_" gradientUnits="userSpaceOnUse" x1="-348.8496" y1="2332.5044" x2="1933.5806" y2="2332.5044" gradientTransform="matrix(-0.9965 5.605401e-02 5.605401e-02 0.9965 1753.4299 -1585.0909)">
			<stop  offset="0" style="stop-color:#E9002D"/>
			<stop  offset="0.5" style="stop-color:#2ABAFF;stop-opacity:0"/>
			<stop  offset="0.9149" style="stop-color:#FF2E7A;stop-opacity:0.9016"/>
		</linearGradient>
		<path class="st3" d="M-47.9,747.7c43.4-20.5,90.8-33.5,138.5-38.8c38.1-4.1,76.8-2.6,114.9,5.9c44.6,10,87.5,26.6,130.6,42.4
			c27.4,10.1,54.7,19.4,82,27.3c75,21.8,150.2,32.8,229.9,21.3c35.4-5.1,70.4-11.8,105.3-19.7c73.2-16.6,145.2-38.1,217.5-60.3
			c18-5.5,37.1-11,56.7-16c45.1-11.6,93.4-21,140.2-23.7c38.5-2.2,75.6,0.1,110.4,10.8c4.6,1.4,9.3,3,14.1,4.6
			c94,31.7,210.3,96.3,339.5,82.3c175.5-19,353.5,25.7,476.8,52.1c59.9,12.8,106.4,20.1,130.4,13.9"/>
		
			<linearGradient id="SVGID_3_" gradientUnits="userSpaceOnUse" x1="-360.5722" y1="2291.1836" x2="1929.2162" y2="2291.1836" gradientTransform="matrix(-0.9957 3.815274e-02 3.815274e-02 0.9957 1786.3961 -1566.8453)">
			<stop  offset="0" style="stop-color:#E9002D"/>
			<stop  offset="0.5" style="stop-color:#2ABAFF;stop-opacity:0"/>
			<stop  offset="0.9149" style="stop-color:#FF2E7A;stop-opacity:0.9016"/>
		</linearGradient>
		<path class="st4" d="M-51,680c44.1-18.3,92.3-27.6,140-30.3c38.3-2.2,77,1.2,115.1,10.9c44.6,11.5,87.6,29.2,130.7,46.2
			c27.4,10.8,54.7,20.8,82.1,29.6c75.3,24.1,150.9,37.2,231.2,28.5c35.7-3.8,71.2-9.4,106.7-16.3c74.2-14.6,147.6-34.5,221-56.1
			c18.4-5.4,37.7-10.8,57.4-15.9c45.8-11.8,94.3-22,141.2-26.6c38.6-3.8,75.5-3.9,110.9,5.1c4.7,1.2,9.5,2.6,14.3,3.9
			c97.3,27.7,215.1,93.8,342.8,85.9c171.8-10.6,344.9,38.4,468,69.3c57.4,14.4,103.1,22.7,127.3,19.6"/>
		
			<linearGradient id="SVGID_4_" gradientUnits="userSpaceOnUse" x1="-370.7946" y1="2258.6943" x2="1926.8132" y2="2258.6943" gradientTransform="matrix(-0.995 2.025147e-02 2.025147e-02 0.995 1819.3622 -1548.5997)">
			<stop  offset="0" style="stop-color:#E9002D"/>
			<stop  offset="0.5" style="stop-color:#2ABAFF;stop-opacity:0"/>
			<stop  offset="0.9149" style="stop-color:#FF2E7A;stop-opacity:0.9016"/>
		</linearGradient>
		<path class="st5" d="M-54.1,621.3c44.9-16.1,93.9-21.6,141.5-21.8c38.5-0.2,77.2,4.9,115.2,16c44.6,13,87.6,31.9,130.8,50
			c27.4,11.5,54.8,22.3,82.2,31.9c75.6,26.5,151.7,41.6,232.5,35.6c36-2.6,72-7,108.1-13c75.3-12.5,150-30.9,224.5-51.9
			c18.7-5.3,38.3-10.6,58.2-15.8c46.4-12,95.2-23.1,142.3-29.6c38.7-5.4,75.2-7.8,111.4-0.6c4.8,1,9.6,2.1,14.6,3.3
			c100.6,23.7,219.9,91.2,346.2,89.5c168-2.3,336.3,50.9,459.2,86.5c54.9,15.9,99.8,25.3,124.2,25.3"/>
		
			<linearGradient id="SVGID_5_" gradientUnits="userSpaceOnUse" x1="-380.1365" y1="2226.8325" x2="1925.8805" y2="2226.8325" gradientTransform="matrix(-0.9942 2.350197e-03 2.350197e-03 0.9942 1852.3284 -1530.3542)">
			<stop  offset="0" style="stop-color:#E9002D"/>
			<stop  offset="0.5" style="stop-color:#2ABAFF;stop-opacity:0"/>
			<stop  offset="0.9149" style="stop-color:#FF2E7A;stop-opacity:0.9016"/>
		</linearGradient>
		<path class="st6" d="M-57.2,563.8c45.6-13.9,95.4-15.5,143-13.4c38.7,1.7,77.3,8.7,115.3,21C245.8,586,288.8,606,332,625.2
			c27.4,12.2,54.8,23.8,82.3,34.2c75.9,28.8,152.4,46,233.8,42.8c36.4-1.3,72.8-4.7,109.5-9.6c76.4-10.5,152.4-27.2,228-47.7
			c19.1-5.1,38.9-10.5,59-15.7c47.1-12.2,96.1-24.1,143.3-32.6c38.8-6.9,75-11.8,111.8-6.3c4.8,0.7,9.8,1.7,14.8,2.6
			c104,19.6,224.7,88.6,349.5,93.1c164.2,5.9,327.6,63.2,450.5,103.8c52.4,17.3,96.6,27.9,121.1,31.1"/>
		
			<linearGradient id="SVGID_6_" gradientUnits="userSpaceOnUse" x1="-388.4508" y1="2195.2754" x2="1926.366" y2="2195.2754" gradientTransform="matrix(-0.9934 -1.555107e-02 -1.555107e-02 0.9934 1885.2944 -1512.1086)">
			<stop  offset="0" style="stop-color:#E9002D"/>
			<stop  offset="0.5" style="stop-color:#2ABAFF;stop-opacity:0"/>
			<stop  offset="0.9149" style="stop-color:#FF2E7A;stop-opacity:0.9016"/>
		</linearGradient>
		<path class="st7" d="M-60.3,507.4c46.4-11.8,97-9.4,144.5-4.9c38.9,3.7,77.5,12.5,115.5,26.1c44.6,16.1,87.7,37.1,131,57.6
			c27.4,12.9,54.8,25.3,82.4,36.5c76.1,31.1,153.1,50.4,235,49.9c36.7-0.1,73.6-2.3,110.9-6.3c77.5-8.4,154.8-23.6,231.5-43.5
			c19.4-5,39.5-10.3,59.8-15.6c47.7-12.4,97-25.2,144.4-35.5c38.9-8.5,74.8-15.7,112.3-12c4.9,0.5,9.9,1.2,15,1.9
			c107.4,15.4,229.4,85.9,352.8,96.7c160.4,14,319,75.3,441.7,121c49.9,18.6,93.3,30.5,118.1,36.8"/>
		
			<linearGradient id="SVGID_7_" gradientUnits="userSpaceOnUse" x1="-395.7674" y1="2163.9734" x2="1928.2212" y2="2163.9734" gradientTransform="matrix(-0.9927 -3.345235e-02 -3.345235e-02 0.9927 1918.2606 -1493.863)">
			<stop  offset="0" style="stop-color:#E9002D"/>
			<stop  offset="0.5" style="stop-color:#2ABAFF;stop-opacity:0"/>
			<stop  offset="0.9149" style="stop-color:#FF2E7A;stop-opacity:0.9016"/>
		</linearGradient>
		<path class="st8" d="M-63.3,451.9c47.1-9.6,98.6-3.4,146,3.6c39.1,5.7,77.7,16.2,115.6,31.1c44.6,17.6,87.7,39.8,131.1,61.4
			c27.4,13.6,54.9,26.7,82.5,38.8c76.4,33.4,153.8,54.8,236.3,57.1c37,1.1,74.4,0.1,112.3-2.9c78.6-6.4,157.2-20,234.9-39.3
			c19.8-4.9,40.1-10.1,60.6-15.5c48.4-12.6,97.9-26.2,145.4-38.5c39-10.1,74.6-19.6,112.8-17.7c5,0.2,10.1,0.7,15.3,1.3
			c110.8,11.2,234.1,83.1,356.2,100.3c156.5,22,310.4,87.2,432.9,138.2c47.4,19.7,90.1,33.1,115,42.6"/>
		
			<linearGradient id="SVGID_8_" gradientUnits="userSpaceOnUse" x1="-402.1057" y1="2132.8423" x2="1931.4082" y2="2132.8423" gradientTransform="matrix(-0.9919 -5.135361e-02 -5.135361e-02 0.9919 1951.2267 -1475.6174)">
			<stop  offset="0" style="stop-color:#E9002D"/>
			<stop  offset="0.5" style="stop-color:#2ABAFF;stop-opacity:0"/>
			<stop  offset="0.9149" style="stop-color:#FF2E7A;stop-opacity:0.9016"/>
		</linearGradient>
		<path class="st9" d="M-66.4,397.1c47.9-7.4,100.1,2.7,147.5,12.1c39.3,7.7,77.9,20,115.7,36.2c44.6,19.1,87.8,42.4,131.2,65.2
			c27.4,14.3,54.9,28.2,82.6,41.1c76.7,35.7,154.5,59.1,237.6,64.2c37.3,2.4,75.1,2.4,113.7,0.4c79.7-4.4,159.6-16.3,238.4-35.1
			c20.1-4.8,40.7-9.9,61.4-15.3c49-12.8,98.8-27.3,146.4-41.4c39.1-11.6,74.4-23.8,113.3-23.4c5.1,0,10.2,0.3,15.5,0.6
			c114.2,6.8,238.8,80.3,359.5,103.9c152.7,29.9,301.8,98.9,424.1,155.4c44.9,20.8,86.8,35.7,111.9,48.3"/>
		
			<linearGradient id="SVGID_9_" gradientUnits="userSpaceOnUse" x1="-407.4755" y1="2101.8494" x2="1935.899" y2="2101.8494" gradientTransform="matrix(-0.9911 -6.925489e-02 -6.925489e-02 0.9911 1984.1929 -1457.3718)">
			<stop  offset="0" style="stop-color:#E9002D"/>
			<stop  offset="0.5" style="stop-color:#2ABAFF;stop-opacity:0"/>
			<stop  offset="0.9149" style="stop-color:#FF2E7A;stop-opacity:0.9016"/>
		</linearGradient>
		<path class="st10" d="M-69.5,342.7c48.6-5.2,101.7,8.8,148.9,20.5c39.5,9.8,78,23.8,115.9,41.2c44.6,20.6,87.8,45.1,131.3,69
			c27.4,15,54.9,29.7,82.7,43.4c77,38.1,155.2,63.5,238.9,71.3c37.7,3.6,75.9,4.8,115.1,3.8c80.8-2.3,162-12.7,241.9-30.9
			c20.5-4.6,41.3-9.7,62.2-15.2c49.6-13,99.8-28.3,147.5-44.4c39.2-13.2,74.2-27.4,113.7-29.1c5.1-0.2,10.4-0.2,15.7-0.1
			c117.6,2.5,243.6,77.3,362.8,107.5c148.9,37.6,293.4,110.3,415.4,172.7c42.5,21.7,83.5,38.3,108.8,54"/>
		
			<linearGradient id="SVGID_10_" gradientUnits="userSpaceOnUse" x1="-411.8822" y1="2071.0005" x2="1941.6694" y2="2071.0005" gradientTransform="matrix(-0.9904 -8.715615e-02 -8.715615e-02 0.9904 2017.1589 -1439.1262)">
			<stop  offset="0" style="stop-color:#E9002D"/>
			<stop  offset="0.5" style="stop-color:#2ABAFF;stop-opacity:0"/>
			<stop  offset="0.9149" style="stop-color:#FF2E7A;stop-opacity:0.9016"/>
		</linearGradient>
		<path class="st11" d="M-72.6,288.7c49.4-3,103.2,15,150.4,29c39.7,11.8,78.2,27.6,116,46.3c44.6,22.2,87.9,47.7,131.4,72.8
			c27.4,15.8,54.9,31.2,82.8,45.7c77.3,40.4,156,67.9,240.2,78.5c38,4.8,76.7,7.2,116.5,7.1c81.9-0.3,164.4-9.1,245.4-26.7
			c20.8-4.5,41.9-9.6,63-15.1c50.3-13.2,100.7-29.4,148.5-47.4c39.3-14.8,73.9-31.2,114.2-34.8c5.2-0.5,10.5-0.7,16-0.7
			c121-2,248.3,74.3,366.2,111c145.1,45.3,285.2,121.5,406.6,189.9c40.2,22.6,80.3,40.9,105.7,59.8"/>
		
			<linearGradient id="SVGID_11_" gradientUnits="userSpaceOnUse" x1="-415.3305" y1="2040.3226" x2="1948.6952" y2="2040.3226" gradientTransform="matrix(-0.9896 -0.1051 -0.1051 0.9896 2050.125 -1420.8806)">
			<stop  offset="0" style="stop-color:#E9002D"/>
			<stop  offset="0.5" style="stop-color:#2ABAFF;stop-opacity:0"/>
			<stop  offset="0.9149" style="stop-color:#FF2E7A;stop-opacity:0.9016"/>
		</linearGradient>
		<path class="st12" d="M-75.7,234.9c50.1-0.8,104.8,21.1,151.9,37.5c39.9,13.9,78.4,31.3,116.2,51.3
			c44.6,23.7,87.9,50.4,131.5,76.6c27.4,16.5,55,32.6,82.9,48c77.6,42.7,156.7,72.3,241.4,85.6c38.3,6.1,77.5,9.5,117.9,10.5
			c83,1.7,166.8-5.4,248.9-22.5c21.2-4.4,42.5-9.4,63.7-15c50.9-13.4,101.6-30.4,149.6-50.3c39.4-16.4,73.7-35.1,114.7-40.5
			c5.3-0.7,10.7-1.1,16.2-1.4c124.3-6.5,253.2,71.2,369.5,114.6c141.4,52.9,277.1,132.4,397.8,207.1c37.9,23.4,77,43.6,102.6,65.5"
			/>
		
			<linearGradient id="SVGID_12_" gradientUnits="userSpaceOnUse" x1="-417.8222" y1="2009.8257" x2="1956.9541" y2="2009.8257" gradientTransform="matrix(-0.9888 -0.123 -0.123 0.9888 2083.0913 -1402.635)">
			<stop  offset="0" style="stop-color:#E9002D"/>
			<stop  offset="0.5" style="stop-color:#2ABAFF;stop-opacity:0"/>
			<stop  offset="0.9149" style="stop-color:#FF2E7A;stop-opacity:0.9016"/>
		</linearGradient>
		<path class="st13" d="M-78.8,181.3c50.8,1.4,106.3,27.3,153.4,46c40,15.9,78.6,35.1,116.3,56.4c44.6,25.2,87.9,53,131.6,80.4
			c27.5,17.2,55,34.1,83,50.3c77.9,45,157.4,76.7,242.7,92.8c38.6,7.3,78.3,11.9,119.3,13.8c84.1,3.8,169.2-1.8,252.3-18.3
			c21.5-4.2,43.1-9.2,64.5-14.9c51.6-13.6,102.5-31.5,150.6-53.3c39.5-17.9,73.5-38.9,115.2-46.3c5.3-0.9,10.8-1.6,16.5-2.1
			c127.7-11,258.1,68,372.9,118.2c137.8,60.3,269.3,143,389.1,224.3c35.7,24.2,73.8,46.2,99.6,71.2"/>
		
			<linearGradient id="SVGID_13_" gradientUnits="userSpaceOnUse" x1="-419.3503" y1="1979.4652" x2="1966.432" y2="1979.4652" gradientTransform="matrix(-0.9881 -0.1409 -0.1409 0.9881 2116.0574 -1384.3894)">
			<stop  offset="0" style="stop-color:#E9002D"/>
			<stop  offset="0.5" style="stop-color:#2ABAFF;stop-opacity:0"/>
			<stop  offset="0.9149" style="stop-color:#FF2E7A;stop-opacity:0.9016"/>
		</linearGradient>
		<path class="st14" d="M-81.9,127.6c51.6,3.6,107.8,33.5,154.9,54.5c40.2,18,78.7,38.9,116.4,61.4c44.6,26.7,88,55.6,131.7,84.2
			c27.5,17.9,55,35.6,83.1,52.6c78.2,47.3,158.1,81.1,244,99.9c39,8.6,79.1,14.3,120.7,17.1c85.2,5.8,171.6,1.8,255.8-14
			c21.9-4.1,43.7-9,65.3-14.8c52.2-13.8,103.4-32.5,151.6-56.2c39.6-19.5,73.3-42.8,115.7-52c5.4-1.2,11-2.1,16.7-2.8
			c131-15.6,263,64.7,376.2,121.8c134.3,67.8,261.8,153.4,380.3,241.6c33.5,24.9,70.5,48.8,96.5,77"/>
		<g id="Layer_3_2_">
			<g>
				
					<linearGradient id="SVGID_14_" gradientUnits="userSpaceOnUse" x1="-419.9214" y1="1949.308" x2="1977.0999" y2="1949.308" gradientTransform="matrix(-0.9873 -0.1588 -0.1588 0.9873 2149.0234 -1366.1438)">
					<stop  offset="0" style="stop-color:#E9002D"/>
					<stop  offset="0.5" style="stop-color:#2ABAFF;stop-opacity:0"/>
					<stop  offset="0.9149" style="stop-color:#FF2E7A;stop-opacity:0.9016"/>
				</linearGradient>
				<path class="st15" d="M-85,74c52.3,5.8,109.3,39.6,156.4,62.9C189.6,195.6,292,276.1,403,346.3
					c114.2,72.2,232.2,115.3,367.4,127.6c108.7,9.9,219.7,3.6,325.4-24.5c52.9-14,104.3-33.6,152.7-59.2
					c44.8-23.8,81.5-53.3,133.1-61.1c134.3-20.2,268.1,61.4,379.5,125.4c130.8,75.1,254.7,163.5,371.5,258.8
					c31.4,25.6,67.2,51.4,93.4,82.7"/>
			</g>
		</g>
	</g>
</g>
</svg>
