<?xml version="1.0" encoding="utf-8"?>
<!-- Generator: Adobe Illustrator 25.2.0, SVG Export Plug-In . SVG Version: 6.00 Build 0)  -->
<svg version="1.1" xmlns="http://www.w3.org/2000/svg" xmlns:xlink="http://www.w3.org/1999/xlink" x="0px" y="0px"
	 viewBox="0 0 1920 622" style="enable-background:new 0 0 1920 622;" xml:space="preserve">
<style type="text/css">
	.st0{display:none;}
	.st1{display:inline;fill:#131C2D;}
	.st2{fill:none;stroke:url(#SVGID_1_);stroke-width:2;stroke-miterlimit:10;}
	.st3{fill:none;stroke:url(#SVGID_2_);stroke-width:2;stroke-miterlimit:10;}
	.st4{fill:none;stroke:url(#SVGID_3_);stroke-width:2;stroke-miterlimit:10;}
	.st5{fill:none;stroke:url(#SVGID_4_);stroke-width:2;stroke-miterlimit:10;}
	.st6{fill:none;stroke:url(#SVGID_5_);stroke-width:2;stroke-miterlimit:10;}
	.st7{fill:none;stroke:url(#SVGID_6_);stroke-width:2;stroke-miterlimit:10;}
	.st8{fill:none;stroke:url(#SVGID_7_);stroke-width:2;stroke-miterlimit:10;}
	.st9{fill:none;stroke:url(#SVGID_8_);stroke-width:2;stroke-miterlimit:10;}
	.st10{fill:none;stroke:url(#SVGID_9_);stroke-width:2;stroke-miterlimit:10;}
	.st11{fill:none;stroke:url(#SVGID_10_);stroke-width:2;stroke-miterlimit:10;}
	.st12{fill:none;stroke:url(#SVGID_11_);stroke-width:2;stroke-miterlimit:10;}
	.st13{fill:none;stroke:url(#SVGID_12_);stroke-width:2;stroke-miterlimit:10;}
	.st14{fill:none;stroke:url(#SVGID_13_);stroke-width:2;stroke-miterlimit:10;}
	.st15{fill:none;stroke:url(#SVGID_14_);stroke-width:2;stroke-miterlimit:10;}
</style>
<g id="Layer_2" class="st0">
	<rect x="-94" y="-263" class="st1" width="2168" height="926"/>
</g>
<g id="Layer_3">
	<g>
		<linearGradient id="SVGID_1_" gradientUnits="userSpaceOnUse" x1="-51.941" y1="479.2944" x2="1990.0645" y2="479.2944">
			<stop  offset="0" style="stop-color:#E9002D"/>
			<stop  offset="0.5" style="stop-color:#2ABAFF;stop-opacity:0"/>
			<stop  offset="0.9149" style="stop-color:#FF2E7A;stop-opacity:0.9016"/>
		</linearGradient>
		<path class="st2" d="M1989.7,479.3c-128.9,45.5-423.4,96.7-557,104.3c-164.5,9.4-329.8-1.1-492.2-34.6
			c-81.8-16.8-162.8-39.4-242.3-68c-77.8-28-152.1-66.1-231.6-86.3c-6.7-1.7-13.4-3.3-20.2-4.8C344.9,367,238.8,363.1,138,393.5
			C73.3,413,8.9,447.9-51.4,482.7"/>
		<linearGradient id="SVGID_2_" gradientUnits="userSpaceOnUse" x1="-57.1396" y1="447.3604" x2="1997.6328" y2="447.3604">
			<stop  offset="0" style="stop-color:#E9002D"/>
			<stop  offset="0.5" style="stop-color:#2ABAFF;stop-opacity:0"/>
			<stop  offset="0.9149" style="stop-color:#FF2E7A;stop-opacity:0.9016"/>
		</linearGradient>
		<path class="st3" d="M1997.3,453.6c-36.7,13.4-82.2,25.3-133.8,36.9c-55.3,12.4-118.2,22.1-176,30.2
			c-79.2,11.2-156.6,17.9-216.1,21.2c-11.1,0.6-21.5,1.1-31.2,1.4c-75.6,2.3-151.5,1.4-227.4-2.3c-89.1-4.3-177.8-13.1-265.5-28.1
			c-36.8-6.3-73.5-13.6-110-22.2c-44.7-10.5-89.1-22.6-133.1-36.8c-8.3-2.7-16.5-5.5-24.8-8.3c-70.6-24.3-137.1-54.8-208.4-72.5
			c-6.7-1.7-13.5-3.3-20.2-4.8c-25.9-5.7-52.2-10.3-78.8-13.5c-77-9.1-155.1-5.7-230.2,17c-66,20-138.2,60.9-198.3,98.2"/>
		<linearGradient id="SVGID_3_" gradientUnits="userSpaceOnUse" x1="-62.3367" y1="415.817" x2="2005.2002" y2="415.817">
			<stop  offset="0" style="stop-color:#E9002D"/>
			<stop  offset="0.5" style="stop-color:#2ABAFF;stop-opacity:0"/>
			<stop  offset="0.9149" style="stop-color:#FF2E7A;stop-opacity:0.9016"/>
		</linearGradient>
		<path class="st4" d="M2004.8,427.8c-38.7,14.5-83.1,25.7-134,36.9c-55.9,12-120.6,19.3-176.3,25.3
			c-78.3,8.4-154.9,11.2-215.5,12.4c-11,0.2-21.4,0.5-31.1,0.5c-75.5,0.3-151.5-1.6-227.7-4.6c-89.4-3.5-178.1-9.7-266-21.6
			c-36.9-5-73.7-11-110.3-18.1c-44.8-8.8-89.4-19.2-133.7-31.7c-8.4-2.4-16.7-4.9-25-7.4c-72.3-21.8-138.4-50.5-209.8-67.8
			c-6.7-1.6-13.5-3.2-20.3-4.7c-25.8-5.6-52.1-10.2-79-13.4c-77.1-9.2-155.5-5.9-230.7,16.9C78.2,370.8-1.9,417.7-61.8,457.6"/>
		<linearGradient id="SVGID_4_" gradientUnits="userSpaceOnUse" x1="-67.5325" y1="385.3884" x2="2012.7667" y2="385.3884">
			<stop  offset="0" style="stop-color:#E9002D"/>
			<stop  offset="0.5" style="stop-color:#2ABAFF;stop-opacity:0"/>
			<stop  offset="0.9149" style="stop-color:#FF2E7A;stop-opacity:0.9016"/>
		</linearGradient>
		<path class="st5" d="M2012.4,402c-40.7,15.6-83.9,26.3-134.3,36.8c-56.4,11.8-123.1,16.5-176.7,20.4
			c-77.4,5.6-153.3,4.5-214.9,3.7c-10.9-0.1-21.3-0.2-31.1-0.4c-75.4-1.9-151.5-4.6-227.9-6.9c-89.7-2.6-178.5-6.3-266.5-15.2
			c-37-3.7-73.8-8.3-110.5-14.1c-45-7.1-89.8-15.8-134.4-26.7c-8.4-2.1-16.8-4.3-25.1-6.5c-74-19.4-139.7-46.2-211.2-63.1
			c-6.7-1.6-13.5-3.1-20.3-4.6c-25.7-5.5-52-10-79.2-13.3c-77.2-9.3-155.8-6.2-231.2,16.7C80.7,349.7-7.4,402.6-67,445"/>
		<linearGradient id="SVGID_5_" gradientUnits="userSpaceOnUse" x1="-72.7268" y1="359.0098" x2="2020.3324" y2="359.0098">
			<stop  offset="0" style="stop-color:#E9002D"/>
			<stop  offset="0.5" style="stop-color:#2ABAFF;stop-opacity:0"/>
			<stop  offset="0.9149" style="stop-color:#FF2E7A;stop-opacity:0.9016"/>
		</linearGradient>
		<path class="st6" d="M2020,376.2c-42.8,16.7-84.8,26.7-134.6,36.8c-57,11.5-125.6,13.6-177,15.4c-76.6,2.7-151.6-2.2-214.2-5
			c-10.9-0.5-21.3-0.8-31.1-1.3c-75.3-3.9-151.5-7.7-228.2-9.1c-89.9-1.8-178.9-2.9-267-8.7c-37-2.4-73.9-5.7-110.8-10.1
			c-45.1-5.4-90.1-12.4-135-21.7c-8.5-1.8-16.9-3.7-25.3-5.6c-75.8-16.9-140.9-42-212.7-58.5c-6.8-1.6-13.6-3.1-20.4-4.5
			c-25.6-5.4-51.9-9.9-79.4-13.2c-77.4-9.4-156.2-6.4-231.6,16.6C83.2,328.6-12.8,387.5-72.1,432.5"/>
		<linearGradient id="SVGID_6_" gradientUnits="userSpaceOnUse" x1="-77.9197" y1="341.9808" x2="2027.8975" y2="341.9808">
			<stop  offset="0" style="stop-color:#E9002D"/>
			<stop  offset="0.5" style="stop-color:#2ABAFF;stop-opacity:0"/>
			<stop  offset="0.9149" style="stop-color:#FF2E7A;stop-opacity:0.9016"/>
		</linearGradient>
		<path class="st7" d="M2027.5,350.4c-44.8,17.9-85.7,27.1-134.8,36.7c-57.5,11.2-128.2,10.7-177.4,10.5
			c-75.8-0.2-150-8.8-213.6-13.7c-10.8-0.8-21.2-1.4-31-2.2c-75.3-6-151.5-10.7-228.4-11.4c-90.2-0.9-179.3,0.5-267.4-2.3
			c-37.1-1.1-74-3-111-6c-45.2-3.7-90.5-9-135.6-16.7c-8.5-1.4-17-3.1-25.5-4.7c-77.5-14.4-142.2-37.7-214.1-53.8
			c-6.8-1.5-13.6-3-20.5-4.4c-25.5-5.3-51.8-9.8-79.5-13.2c-77.5-9.5-156.5-6.7-232.1,16.5C85.7,307.5-18.2,372.4-77.3,419.9"/>
		<linearGradient id="SVGID_7_" gradientUnits="userSpaceOnUse" x1="-83.1113" y1="324.9514" x2="2035.462" y2="324.9514">
			<stop  offset="0" style="stop-color:#E9002D"/>
			<stop  offset="0.5" style="stop-color:#2ABAFF;stop-opacity:0"/>
			<stop  offset="0.9149" style="stop-color:#FF2E7A;stop-opacity:0.9016"/>
		</linearGradient>
		<path class="st8" d="M2035.1,324.7c-46.8,19-86.6,27.6-135.1,36.7c-58.1,10.9-130.7,7.6-177.7,5.6c-75.1-3.3-148.3-15.4-213-22.4
			c-10.7-1.2-21.1-2.1-31-3.1c-75.2-8-151.4-13.7-228.7-13.7c-90.5-0.1-179.7,3.9-267.9,4.2c-37.1,0.1-74.1-0.3-111.2-2
			c-45.4-2-90.8-5.6-136.2-11.6c-8.6-1.1-17.1-2.5-25.7-3.8c-79.3-11.8-143.5-33.4-215.5-49.2c-6.8-1.5-13.6-2.9-20.5-4.3
			c-25.4-5.1-51.8-9.6-79.7-13.1c-77.7-9.6-156.8-6.9-232.6,16.3c-72,22.1-183.9,93-242.7,143.1"/>
		<linearGradient id="SVGID_8_" gradientUnits="userSpaceOnUse" x1="-88.3017" y1="307.9216" x2="2043.0261" y2="307.9216">
			<stop  offset="0" style="stop-color:#E9002D"/>
			<stop  offset="0.5" style="stop-color:#2ABAFF;stop-opacity:0"/>
			<stop  offset="0.9149" style="stop-color:#FF2E7A;stop-opacity:0.9016"/>
		</linearGradient>
		<path class="st9" d="M2042.6,298.9c-48.8,20.1-87.5,28-135.4,36.7c-58.6,10.6-133.2,4.6-178.1,0.7
			c-74.3-6.5-146.7-21.9-212.4-31.1c-10.6-1.5-21-2.7-31-4c-75.1-10-151.4-16.7-229-16c-90.8,0.8-180,7.3-268.4,10.7
			c-37.2,1.4-74.3,2.3-111.5,2.1c-45.5-0.3-91.1-2.1-136.9-6.6c-8.6-0.8-17.2-1.9-25.8-2.9c-81-9.2-144.7-29.2-216.9-44.5
			c-6.8-1.4-13.6-2.9-20.6-4.2c-25.3-5-51.7-9.5-79.9-13c-77.8-9.7-157.2-7.1-233,16.2c-73.2,22.6-193,99.5-251.5,152.1"/>
		<linearGradient id="SVGID_9_" gradientUnits="userSpaceOnUse" x1="-93.4908" y1="290.8914" x2="2050.5896" y2="290.8914">
			<stop  offset="0" style="stop-color:#E9002D"/>
			<stop  offset="0.5" style="stop-color:#2ABAFF;stop-opacity:0"/>
			<stop  offset="0.9149" style="stop-color:#FF2E7A;stop-opacity:0.9016"/>
		</linearGradient>
		<path class="st10" d="M2050.2,273.1c-50.9,21.2-88.4,28.4-135.7,36.6c-59.2,10.3-135.8,1.4-178.4-4.3
			c-73.6-9.7-145-28.4-211.8-39.8c-10.6-1.8-20.9-3.3-30.9-4.9c-75-12-151.4-19.7-229.2-18.3c-91.1,1.6-180.4,10.7-268.9,17.1
			c-37.2,2.7-74.4,5-111.7,6.1c-45.7,1.4-91.5,1.3-137.5-1.6c-8.7-0.5-17.3-1.3-26-2c-82.8-6.5-146-24.9-218.4-39.8
			c-6.8-1.4-13.7-2.8-20.7-4.1c-25.2-4.9-51.6-9.3-80.1-12.9c-77.9-9.8-157.5-7.4-233.5,16c-74.5,23-202.1,105.9-260.4,161.1"/>
		<linearGradient id="SVGID_10_" gradientUnits="userSpaceOnUse" x1="-98.6788" y1="273.8609" x2="2058.1528" y2="273.8609">
			<stop  offset="0" style="stop-color:#E9002D"/>
			<stop  offset="0.5" style="stop-color:#2ABAFF;stop-opacity:0"/>
			<stop  offset="0.9149" style="stop-color:#FF2E7A;stop-opacity:0.9016"/>
		</linearGradient>
		<path class="st11" d="M2057.8,247.3c-52.9,22.4-89.4,28.8-135.9,36.6c-59.7,9.9-138.3-1.9-178.7-9.2
			c-72.8-13.2-143.4-34.9-211.2-48.5c-10.5-2.1-20.8-4-30.9-5.8c-74.9-14-151.4-22.7-229.5-20.6c-91.3,2.5-180.8,14.2-269.3,23.6
			c-37.3,4-74.5,7.7-111.9,10.2c-45.8,3.1-91.8,4.7-138.1,3.4c-8.7-0.2-17.4-0.7-26.2-1.1c-84.6-3.8-147.2-20.6-219.8-35.2
			c-6.8-1.4-13.7-2.7-20.7-4c-25.1-4.8-51.5-9.2-80.3-12.8c-78.1-9.8-157.8-7.6-234,15.9C95.6,223.1-40,312-98,369.7"/>
		<linearGradient id="SVGID_11_" gradientUnits="userSpaceOnUse" x1="-103.8657" y1="256.7231" x2="2065.7158" y2="256.7231">
			<stop  offset="0" style="stop-color:#E9002D"/>
			<stop  offset="0.5" style="stop-color:#2ABAFF;stop-opacity:0"/>
			<stop  offset="0.9149" style="stop-color:#FF2E7A;stop-opacity:0.9016"/>
		</linearGradient>
		<path class="st12" d="M2065.3,221.5c-54.9,23.5-90.3,29.2-136.2,36.5c-60.3,9.6-140.8-5.2-179.1-14.1
			c-72-16.8-141.8-41.2-210.6-57.2c-10.4-2.4-20.7-4.6-30.9-6.8c-74.9-15.9-151.4-25.7-229.7-22.9c-91.6,3.3-181.2,17.6-269.8,30
			c-37.3,5.3-74.6,10.3-112.2,14.2c-45.9,4.8-92.2,8.1-138.7,8.5c-8.8,0.1-17.6,0-26.3-0.2c-86.3-1.1-148.5-16.4-221.2-30.5
			c-6.8-1.3-13.7-2.7-20.8-4c-25-4.7-51.5-9.1-80.4-12.8c-78.2-9.9-158.2-7.9-234.4,15.8C98.1,202-45.4,296.9-103.1,357.2"/>
		<linearGradient id="SVGID_12_" gradientUnits="userSpaceOnUse" x1="-109.0515" y1="229.0203" x2="2073.2786" y2="229.0203">
			<stop  offset="0" style="stop-color:#E9002D"/>
			<stop  offset="0.5" style="stop-color:#2ABAFF;stop-opacity:0"/>
			<stop  offset="0.9149" style="stop-color:#FF2E7A;stop-opacity:0.9016"/>
		</linearGradient>
		<path class="st13" d="M2072.9,195.8c-56.9,24.6-91.2,29.5-136.5,36.5c-60.9,9.1-143.3-8.6-179.4-19.1
			c-71.1-20.5-140.2-47.6-210-66c-10.3-2.7-20.6-5.2-30.8-7.7c-74.8-17.8-151.4-28.8-230-25.2c-91.9,4.2-181.6,21-270.3,36.5
			c-37.4,6.6-74.8,13-112.4,18.3c-46.1,6.4-92.5,11.5-139.4,13.5c-8.8,0.4-17.7,0.6-26.5,0.7c-88.1,1.7-149.8-12.1-222.6-25.8
			c-6.8-1.3-13.8-2.6-20.8-3.9c-24.9-4.5-51.4-8.9-80.6-12.7c-78.3-10-158.5-8.1-234.9,15.6c-78.1,24.3-229.5,125.2-287,188"/>
		<linearGradient id="SVGID_13_" gradientUnits="userSpaceOnUse" x1="-114.2364" y1="201.3098" x2="2080.8408" y2="201.3098">
			<stop  offset="0" style="stop-color:#E9002D"/>
			<stop  offset="0.5" style="stop-color:#2ABAFF;stop-opacity:0"/>
			<stop  offset="0.9149" style="stop-color:#FF2E7A;stop-opacity:0.9016"/>
		</linearGradient>
		<path class="st14" d="M2080.4,170c-59,25.7-92.1,30-136.7,36.4c-61.4,8.8-145.7-12.1-179.8-24c-70.1-24.4-138.6-53.9-209.3-74.7
			c-10.3-3-20.5-5.8-30.8-8.6c-74.7-19.8-151.4-31.8-230.2-27.5c-92.2,5-182,24.4-270.7,43c-37.5,7.8-74.9,15.7-112.6,22.3
			c-46.2,8.1-92.9,14.9-140,18.5c-8.9,0.7-17.8,1.2-26.7,1.6c-89.8,4.5-151-7.8-224.1-21.2c-6.9-1.3-13.8-2.5-20.9-3.8
			c-24.8-4.4-51.3-8.8-80.8-12.6c-78.5-10.1-158.9-8.4-235.4,15.5c-79.3,24.7-238.7,131.6-295.9,197"/>
		<linearGradient id="SVGID_14_" gradientUnits="userSpaceOnUse" x1="-119.4203" y1="173.5959" x2="2088.4031" y2="173.5959">
			<stop  offset="0" style="stop-color:#E9002D"/>
			<stop  offset="0.5" style="stop-color:#2ABAFF;stop-opacity:0"/>
			<stop  offset="0.9149" style="stop-color:#FF2E7A;stop-opacity:0.9016"/>
		</linearGradient>
		<path class="st15" d="M2088,144.2c-61,26.9-93,30.4-137,36.4c-62,8.5-148-15.6-180.1-28.9c-68.9-28.6-137-60.2-208.7-83.4
			c-84.3-27.3-171.2-45-261.2-39.2c-92.5,5.9-182.3,27.8-271.2,49.4c-37.5,9.1-75,18.3-112.9,26.4c-55.1,11.7-110.9,21.5-167.5,26.1
			C619.4,141.4,551.4,115,421.9,98.2c-78.6-10.2-159.2-8.6-235.8,15.3c-80.5,25.1-247.8,138.1-304.7,206"/>
	</g>
</g>
</svg>
