<?xml version="1.0" encoding="utf-8"?>
<!-- Generator: Adobe Illustrator 25.2.0, SVG Export Plug-In . SVG Version: 6.00 Build 0)  -->
<svg version="1.1" id="Layer_1" xmlns="http://www.w3.org/2000/svg" xmlns:xlink="http://www.w3.org/1999/xlink" x="0px" y="0px"
	 viewBox="0 0 612 792" style="enable-background:new 0 0 612 792;" xml:space="preserve">
<style type="text/css">
	.st0{fill:#BA3636;}
	.st1{fill:#F46B47;}
	.st2{enable-background:new    ;}
	.st3{fill:#373449;}
	.st4{fill:#5B5877;}
</style>
<g id="Layer_2_1_">
</g>
<g id="Layer_3">
	<g>
		<path class="st0" d="M319.95,289.44c-4.14-2.41-8.07-4.71-12.03-6.99c-13.64-7.87-27.29-15.73-40.93-23.61
			c-13.03-7.53-26.04-15.09-39.09-22.58c-1.14-0.65-1.6-1.33-1.6-2.66c0.04-34.81,0.03-69.63,0.03-104.44
			c0-0.56,0.05-1.12,0.09-2.02c2.33,1.32,4.45,2.51,6.56,3.72c20.41,11.77,40.82,23.54,61.23,35.31c8.14,4.7,16.26,9.44,24.43,14.07
			c1.34,0.76,1.38,1.77,1.38,3.01c-0.01,34.43-0.01,68.86-0.01,103.29c0,0.81,0,1.62,0,2.92c2.49-1.41,4.62-2.6,6.74-3.82
			c15.74-9.07,31.48-18.15,47.2-27.23c12.82-7.41,25.63-14.82,38.42-22.27c1.05-0.61,1.81-0.65,2.92-0.01
			c20.98,12.18,42,24.3,63.01,36.43c9.24,5.33,18.49,10.65,27.74,15.98c0.44,0.25,0.85,0.55,1.49,0.96
			c-3.14,1.83-6.15,3.61-9.18,5.35c-13.81,7.97-27.63,15.93-41.44,23.9c-13.92,8.03-27.82,16.1-41.77,24.07
			c-0.66,0.38-1.9,0.38-2.56,0c-27.36-15.75-54.68-31.56-82.01-47.36c-3.34-1.93-6.71-3.82-10.38-5.9
			c-0.07,1.11-0.17,1.95-0.17,2.79c-0.01,34.3-0.02,68.61,0.04,102.91c0,1.89-0.54,2.93-2.21,3.88
			c-15.22,8.7-30.38,17.5-45.56,26.26c-14.91,8.61-29.81,17.21-44.73,25.81c-0.27,0.15-0.57,0.24-1.12,0.47
			c-0.05-0.82-0.11-1.48-0.11-2.15c-0.01-34.69,0.02-69.37-0.07-104.06c-0.01-2.2,1.36-2.59,2.68-3.36
			c14.35-8.3,28.69-16.6,43.04-24.9c15.45-8.93,30.91-17.85,46.37-26.78C318.84,290.2,319.29,289.87,319.95,289.44z"/>
	</g>
	<path class="st1" d="M280.05,312.42c4.14,2.41,8.07,4.71,12.03,6.99c13.64,7.87,27.29,15.73,40.93,23.61
		c13.03,7.53,26.04,15.09,39.09,22.58c1.14,0.65,1.6,1.33,1.6,2.66c-0.04,34.81-0.03,69.63-0.03,104.44c0,0.56-0.05,1.12-0.09,2.02
		c-2.33-1.32-4.45-2.51-6.56-3.72c-20.41-11.77-40.82-23.54-61.23-35.31c-8.14-4.7-16.26-9.44-24.43-14.07
		c-1.34-0.76-1.38-1.77-1.38-3.01c0.01-34.43,0.01-68.86,0.01-103.29c0-0.81,0-1.62,0-2.92c-2.49,1.41-4.62,2.6-6.74,3.82
		c-15.74,9.07-31.48,18.15-47.2,27.23c-12.82,7.41-25.63,14.82-38.42,22.27c-1.05,0.61-1.81,0.65-2.92,0.01
		c-20.98-12.18-42-24.3-63.01-36.43c-9.24-5.33-18.49-10.65-27.74-15.98c-0.44-0.25-0.85-0.55-1.49-0.96
		c3.14-1.83,6.15-3.61,9.18-5.35c13.81-7.97,27.63-15.93,41.44-23.9c13.92-8.03,27.82-16.1,41.77-24.07c0.66-0.38,1.9-0.38,2.56,0
		c27.36,15.75,54.68,31.56,82.01,47.36c3.34,1.93,6.71,3.82,10.38,5.9c0.07-1.11,0.17-1.95,0.17-2.79
		c0.01-34.3,0.02-68.61-0.04-102.91c0-1.89,0.54-2.93,2.21-3.88c15.22-8.7,30.38-17.5,45.56-26.26
		c14.91-8.61,29.81-17.21,44.73-25.81c0.27-0.15,0.57-0.24,1.12-0.47c0.05,0.82,0.11,1.48,0.11,2.15
		c0.01,34.69-0.02,69.37,0.07,104.06c0.01,2.2-1.36,2.59-2.68,3.36c-14.35,8.3-28.69,16.6-43.04,24.9
		c-15.45,8.93-30.91,17.85-46.37,26.78C281.16,311.66,280.71,311.98,280.05,312.42z"/>
	<g class="st2">
		<path class="st3" d="M186.32,593.46v-43.41h13.08v33.18h14.96v10.23H186.32z"/>
		<path class="st3" d="M285.96,571.63c0,4.36-0.94,8.26-2.82,11.7s-4.5,6.12-7.87,8.02c-3.37,1.91-7.14,2.86-11.32,2.86
			c-4.08,0-7.79-0.92-11.13-2.77c-3.34-1.85-5.94-4.44-7.8-7.78c-1.86-3.34-2.79-7.12-2.79-11.34c0-4.42,0.94-8.4,2.82-11.93
			s4.51-6.26,7.9-8.19s7.25-2.89,11.56-2.89c4.16,0,7.88,0.92,11.16,2.77c3.28,1.85,5.81,4.48,7.6,7.9
			C285.06,563.41,285.96,567.29,285.96,571.63z M272.09,571.99c0-3.57-0.69-6.39-2.06-8.45c-1.37-2.06-3.25-3.09-5.63-3.09
			c-2.6,0-4.63,0.99-6.08,2.97s-2.18,4.77-2.18,8.38c0,3.53,0.72,6.29,2.16,8.27c1.44,1.98,3.41,2.97,5.89,2.97
			c1.51,0,2.88-0.44,4.09-1.33s2.15-2.16,2.82-3.81S272.09,574.28,272.09,571.99z"/>
		<path class="st3" d="M354.92,590.61c-1.63,0.93-4.08,1.76-7.33,2.5c-3.25,0.74-6.35,1.1-9.29,1.1c-7.61,0-13.48-1.9-17.62-5.71
			c-4.14-3.8-6.21-9.14-6.21-16c0-4.6,1.04-8.69,3.13-12.26s5.03-6.29,8.82-8.14s8.26-2.79,13.41-2.79c3.77,0,7.8,0.54,12.08,1.6
			v11.41c-2-0.91-3.92-1.54-5.75-1.89s-3.84-0.53-6.02-0.53c-3.59,0-6.45,1.08-8.58,3.24c-2.13,2.16-3.19,5.13-3.19,8.9
			c0,3.61,0.89,6.44,2.68,8.48c1.79,2.04,4.28,3.06,7.49,3.06c1.49,0,2.59-0.08,3.3-0.24v-6.21h-8.33v-9.9h21.4V590.61z"/>
		<path class="st3" d="M428.07,571.63c0,4.36-0.94,8.26-2.82,11.7s-4.5,6.12-7.87,8.02c-3.37,1.91-7.14,2.86-11.32,2.86
			c-4.08,0-7.79-0.92-11.12-2.77c-3.34-1.85-5.94-4.44-7.8-7.78c-1.86-3.34-2.79-7.12-2.79-11.34c0-4.42,0.94-8.4,2.82-11.93
			s4.51-6.26,7.9-8.19s7.25-2.89,11.56-2.89c4.16,0,7.88,0.92,11.16,2.77c3.28,1.85,5.81,4.48,7.6,7.9
			C427.18,563.41,428.07,567.29,428.07,571.63z M414.21,571.99c0-3.57-0.69-6.39-2.06-8.45s-3.25-3.09-5.63-3.09
			c-2.6,0-4.63,0.99-6.08,2.97s-2.18,4.77-2.18,8.38c0,3.53,0.72,6.29,2.17,8.27c1.44,1.98,3.41,2.97,5.89,2.97
			c1.51,0,2.88-0.44,4.09-1.33s2.15-2.16,2.82-3.81S414.21,574.28,414.21,571.99z"/>
		<path class="st4" d="M145.68,640.26v-27.31h13.31v2.32h-10.78v10.02h9.98v2.29h-9.98v10.38h11.39v2.3H145.68z"/>
		<path class="st4" d="M166.05,630.95c0.01,1.2,0.17,2.27,0.48,3.22c0.3,0.95,0.74,1.76,1.31,2.42c0.57,0.66,1.27,1.17,2.08,1.52
			c0.82,0.35,1.74,0.52,2.77,0.52c2.2,0,4.27-0.77,6.23-2.3v2.4c-1.87,1.33-4.13,2-6.78,2c-1.31,0-2.49-0.23-3.56-0.69
			s-1.97-1.12-2.72-1.99c-0.75-0.87-1.33-1.94-1.73-3.21c-0.41-1.27-0.61-2.71-0.61-4.34c0-1.46,0.22-2.81,0.67-4.05
			s1.06-2.32,1.85-3.23s1.72-1.62,2.8-2.13s2.26-0.77,3.54-0.77c1.26,0,2.37,0.22,3.33,0.66c0.96,0.44,1.77,1.06,2.43,1.88
			c0.65,0.81,1.15,1.8,1.49,2.97s0.51,2.47,0.51,3.92v1.22H166.05z M177.63,628.81c-0.04-2.03-0.52-3.6-1.45-4.72
			c-0.93-1.12-2.22-1.68-3.87-1.68c-0.83,0-1.59,0.15-2.29,0.44c-0.71,0.29-1.32,0.71-1.86,1.27s-0.97,1.22-1.32,2.02
			c-0.35,0.79-0.59,1.68-0.73,2.67H177.63z"/>
		<path class="st4" d="M198.08,640.26v-11.23c0-4.41-1.6-6.61-4.8-6.61c-0.85,0-1.64,0.17-2.36,0.51s-1.35,0.8-1.88,1.4
			c-0.53,0.6-0.94,1.3-1.24,2.12c-0.3,0.82-0.45,1.7-0.45,2.66v11.16h-2.44v-19.5h2.44v3.39h0.08c1.45-2.56,3.62-3.85,6.53-3.85
			c2.13,0,3.76,0.69,4.88,2.08c1.12,1.38,1.68,3.38,1.68,6v11.88H198.08z"/>
		<path class="st4" d="M224.02,640.26h-2.32l-7.46-19.5h2.69l5.39,14.85c0.33,0.9,0.54,1.7,0.63,2.38h0.08
			c0.15-0.91,0.35-1.68,0.59-2.3l5.58-14.93h2.61L224.02,640.26z"/>
		<path class="st4" d="M242.99,640.71c-1.45,0-2.75-0.24-3.89-0.72s-2.13-1.17-2.94-2.05c-0.81-0.88-1.43-1.94-1.87-3.17
			c-0.43-1.23-0.65-2.6-0.65-4.09c0-1.62,0.23-3.08,0.69-4.36c0.46-1.28,1.11-2.37,1.95-3.27s1.86-1.58,3.06-2.05
			c1.19-0.47,2.53-0.71,4-0.71c1.41,0,2.68,0.23,3.81,0.7s2.09,1.13,2.88,2.01c0.79,0.88,1.39,1.94,1.81,3.2
			c0.42,1.26,0.63,2.68,0.63,4.28c0,1.52-0.22,2.91-0.66,4.16c-0.44,1.25-1.06,2.33-1.88,3.23c-0.81,0.9-1.8,1.6-2.97,2.1
			C245.78,640.47,244.46,640.71,242.99,640.71z M243.18,622.41c-1.07,0-2.03,0.19-2.89,0.55c-0.86,0.37-1.6,0.9-2.22,1.61
			s-1.09,1.57-1.42,2.59s-0.5,2.18-0.5,3.47c0,1.22,0.17,2.32,0.5,3.29c0.33,0.98,0.8,1.82,1.4,2.51c0.6,0.7,1.34,1.23,2.2,1.61
			s1.83,0.56,2.89,0.56c1.09,0,2.06-0.18,2.89-0.54s1.55-0.89,2.13-1.58c0.58-0.69,1.02-1.54,1.32-2.54c0.3-1,0.45-2.14,0.45-3.43
			c0-2.63-0.58-4.64-1.75-6.03S245.35,622.41,243.18,622.41z"/>
		<path class="st4" d="M265.34,640.71c-1.45,0-2.75-0.24-3.89-0.72s-2.13-1.17-2.94-2.05c-0.81-0.88-1.43-1.94-1.87-3.17
			c-0.43-1.23-0.65-2.6-0.65-4.09c0-1.62,0.23-3.08,0.69-4.36c0.46-1.28,1.11-2.37,1.95-3.27s1.86-1.58,3.06-2.05
			c1.19-0.47,2.53-0.71,4-0.71c1.41,0,2.68,0.23,3.81,0.7s2.09,1.13,2.88,2.01c0.79,0.88,1.39,1.94,1.81,3.2
			c0.42,1.26,0.63,2.68,0.63,4.28c0,1.52-0.22,2.91-0.66,4.16c-0.44,1.25-1.06,2.33-1.88,3.23c-0.81,0.9-1.8,1.6-2.97,2.1
			C268.14,640.47,266.82,640.71,265.34,640.71z M265.53,622.41c-1.07,0-2.03,0.19-2.89,0.55c-0.86,0.37-1.6,0.9-2.22,1.61
			s-1.09,1.57-1.42,2.59s-0.5,2.18-0.5,3.47c0,1.22,0.17,2.32,0.5,3.29c0.33,0.98,0.8,1.82,1.4,2.51c0.6,0.7,1.34,1.23,2.2,1.61
			s1.83,0.56,2.89,0.56c1.09,0,2.06-0.18,2.89-0.54s1.55-0.89,2.13-1.58c0.58-0.69,1.02-1.54,1.32-2.54c0.3-1,0.45-2.14,0.45-3.43
			c0-2.63-0.58-4.64-1.75-6.03S267.7,622.41,265.53,622.41z"/>
		<path class="st4" d="M289.39,623.25c-0.57-0.42-1.31-0.63-2.21-0.63c-0.65,0-1.22,0.12-1.71,0.37s-0.93,0.58-1.3,1
			c-0.38,0.42-0.69,0.9-0.95,1.46c-0.26,0.55-0.47,1.13-0.63,1.72c-0.16,0.6-0.27,1.2-0.34,1.81s-0.1,1.19-0.1,1.73v9.54h-2.42
			v-19.5h2.42v4.17h0.08c0.23-0.71,0.52-1.35,0.87-1.91c0.35-0.57,0.75-1.04,1.21-1.43c0.46-0.39,0.96-0.68,1.49-0.88
			s1.11-0.3,1.7-0.3c0.39,0,0.75,0.03,1.06,0.08c0.31,0.05,0.59,0.13,0.85,0.23V623.25z"/>
		<path class="st4" d="M295.37,637.12v3.14h-2.44v-28.87h2.44v13.1h0.08c0.72-1.36,1.69-2.4,2.9-3.11s2.58-1.08,4.1-1.08
			c1.24,0,2.36,0.23,3.34,0.68c0.98,0.45,1.81,1.1,2.49,1.93c0.68,0.84,1.2,1.85,1.56,3.03c0.36,1.18,0.54,2.49,0.54,3.94
			c0,1.61-0.21,3.08-0.62,4.41c-0.41,1.33-1,2.46-1.76,3.42c-0.76,0.95-1.68,1.69-2.77,2.22c-1.08,0.53-2.3,0.79-3.65,0.79
			c-2.75,0-4.81-1.2-6.15-3.6H295.37z M295.37,632.15c0,0.89,0.15,1.72,0.45,2.5c0.3,0.78,0.71,1.47,1.25,2.06s1.18,1.06,1.93,1.4
			c0.76,0.34,1.59,0.52,2.5,0.52c0.98,0,1.86-0.21,2.65-0.62s1.46-1,2.01-1.76c0.55-0.76,0.98-1.68,1.28-2.76
			c0.3-1.08,0.45-2.29,0.45-3.62c0-1.14-0.14-2.17-0.42-3.1c-0.28-0.92-0.68-1.7-1.19-2.35c-0.51-0.65-1.14-1.14-1.87-1.48
			c-0.73-0.34-1.55-0.52-2.45-0.52c-1.02,0-1.93,0.19-2.74,0.56s-1.5,0.88-2.08,1.53c-0.57,0.65-1.01,1.41-1.31,2.28
			s-0.46,1.79-0.46,2.77V632.15z"/>
		<path class="st4" d="M316.47,630.95c0.01,1.2,0.17,2.27,0.48,3.22c0.3,0.95,0.74,1.76,1.31,2.42c0.57,0.66,1.27,1.17,2.08,1.52
			c0.82,0.35,1.74,0.52,2.77,0.52c2.2,0,4.27-0.77,6.23-2.3v2.4c-1.87,1.33-4.13,2-6.78,2c-1.31,0-2.49-0.23-3.56-0.69
			s-1.97-1.12-2.72-1.99c-0.75-0.87-1.33-1.94-1.73-3.21c-0.41-1.27-0.61-2.71-0.61-4.34c0-1.46,0.22-2.81,0.67-4.05
			s1.06-2.32,1.85-3.23s1.72-1.62,2.8-2.13s2.26-0.77,3.54-0.77c1.26,0,2.37,0.22,3.33,0.66c0.96,0.44,1.77,1.06,2.43,1.88
			c0.65,0.81,1.15,1.8,1.5,2.97s0.51,2.47,0.51,3.92v1.22H316.47z M328.05,628.81c-0.04-2.03-0.52-3.6-1.45-4.72
			c-0.93-1.12-2.21-1.68-3.87-1.68c-0.83,0-1.59,0.15-2.29,0.44c-0.71,0.29-1.32,0.71-1.86,1.27s-0.97,1.22-1.32,2.02
			c-0.35,0.79-0.59,1.68-0.73,2.67H328.05z"/>
		<path class="st4" d="M336.51,630.95c0.01,1.2,0.17,2.27,0.48,3.22c0.3,0.95,0.74,1.76,1.31,2.42c0.57,0.66,1.27,1.17,2.08,1.52
			c0.82,0.35,1.74,0.52,2.77,0.52c2.2,0,4.27-0.77,6.23-2.3v2.4c-1.87,1.33-4.13,2-6.78,2c-1.31,0-2.49-0.23-3.56-0.69
			s-1.97-1.12-2.72-1.99c-0.75-0.87-1.33-1.94-1.73-3.21c-0.41-1.27-0.61-2.71-0.61-4.34c0-1.46,0.22-2.81,0.67-4.05
			s1.06-2.32,1.85-3.23s1.72-1.62,2.8-2.13s2.26-0.77,3.54-0.77c1.26,0,2.37,0.22,3.33,0.66c0.96,0.44,1.77,1.06,2.43,1.88
			c0.65,0.81,1.15,1.8,1.5,2.97s0.51,2.47,0.51,3.92v1.22H336.51z M348.08,628.81c-0.04-2.03-0.52-3.6-1.45-4.72
			c-0.93-1.12-2.21-1.68-3.87-1.68c-0.83,0-1.59,0.15-2.29,0.44c-0.71,0.29-1.32,0.71-1.86,1.27s-0.97,1.22-1.32,2.02
			c-0.35,0.79-0.59,1.68-0.73,2.67H348.08z"/>
		<path class="st4" d="M355.38,640.26v-28.87h2.44v28.87H355.38z"/>
		<path class="st4" d="M377.77,640.26v-3.43h-0.08c-0.65,1.23-1.57,2.19-2.77,2.87c-1.2,0.68-2.56,1.02-4.08,1.02
			c-1.22,0-2.33-0.22-3.32-0.68c-1-0.45-1.85-1.1-2.56-1.95c-0.71-0.85-1.26-1.88-1.65-3.09c-0.39-1.21-0.58-2.57-0.58-4.09
			c0-1.57,0.21-3.01,0.64-4.31c0.42-1.3,1.03-2.42,1.81-3.35c0.78-0.93,1.72-1.66,2.82-2.17c1.1-0.51,2.32-0.77,3.67-0.77
			c2.81,0,4.82,1.12,6.04,3.37h0.08v-12.28h2.44v28.87H377.77z M377.77,628.49c0-0.85-0.15-1.64-0.44-2.38s-0.7-1.38-1.22-1.92
			c-0.52-0.54-1.15-0.98-1.88-1.29c-0.73-0.32-1.53-0.48-2.41-0.48c-0.96,0-1.85,0.19-2.67,0.57s-1.51,0.93-2.09,1.65
			c-0.58,0.72-1.03,1.59-1.35,2.62c-0.32,1.03-0.49,2.2-0.49,3.5c0,1.23,0.15,2.34,0.44,3.31c0.29,0.98,0.71,1.8,1.25,2.48
			c0.54,0.67,1.18,1.19,1.93,1.54s1.58,0.53,2.49,0.53c0.99,0,1.88-0.18,2.68-0.53c0.79-0.36,1.47-0.84,2.02-1.47
			c0.55-0.62,0.98-1.35,1.28-2.19c0.3-0.84,0.45-1.73,0.45-2.69V628.49z"/>
		<path class="st4" d="M397.18,640.26v-28.87h2.44v28.87H397.18z"/>
		<path class="st4" d="M413.88,640.71c-1.45,0-2.75-0.24-3.89-0.72c-1.15-0.48-2.13-1.17-2.94-2.05c-0.81-0.88-1.43-1.94-1.87-3.17
			c-0.43-1.23-0.65-2.6-0.65-4.09c0-1.62,0.23-3.08,0.69-4.36c0.46-1.28,1.11-2.37,1.95-3.27c0.84-0.89,1.86-1.58,3.06-2.05
			c1.19-0.47,2.53-0.71,4-0.71c1.41,0,2.68,0.23,3.81,0.7s2.09,1.13,2.88,2.01c0.79,0.88,1.39,1.94,1.81,3.2
			c0.42,1.26,0.63,2.68,0.63,4.28c0,1.52-0.22,2.91-0.66,4.16c-0.44,1.25-1.06,2.33-1.88,3.23c-0.81,0.9-1.8,1.6-2.97,2.1
			C416.67,640.47,415.35,640.71,413.88,640.71z M414.07,622.41c-1.07,0-2.03,0.19-2.89,0.55c-0.86,0.37-1.6,0.9-2.22,1.61
			c-0.62,0.71-1.09,1.57-1.42,2.59s-0.5,2.18-0.5,3.47c0,1.22,0.17,2.32,0.5,3.29c0.33,0.98,0.8,1.82,1.4,2.51
			c0.6,0.7,1.34,1.23,2.2,1.61s1.83,0.56,2.89,0.56c1.09,0,2.06-0.18,2.89-0.54s1.55-0.89,2.13-1.58c0.58-0.69,1.02-1.54,1.32-2.54
			c0.3-1,0.45-2.14,0.45-3.43c0-2.63-0.58-4.64-1.75-6.03S416.24,622.41,414.07,622.41z"/>
		<path class="st4" d="M444.37,638.75c0,3.62-0.82,6.3-2.47,8.04c-1.64,1.75-4.18,2.62-7.61,2.62c-2.13,0-4.15-0.48-6.06-1.43v-2.48
			c2.12,1.18,4.14,1.77,6.06,1.77c5.09,0,7.64-2.69,7.64-8.07v-2.34h-0.08c-1.5,2.56-3.78,3.85-6.86,3.85
			c-1.21,0-2.31-0.22-3.3-0.67c-1-0.44-1.85-1.09-2.56-1.92s-1.26-1.86-1.66-3.06c-0.39-1.2-0.59-2.55-0.59-4.06
			c0-1.6,0.21-3.06,0.63-4.37s1.02-2.44,1.79-3.38c0.77-0.94,1.71-1.67,2.81-2.18c1.1-0.51,2.33-0.77,3.7-0.77
			c2.75,0,4.77,1.12,6.04,3.35h0.08v-2.89h2.44V638.75z M441.93,628.41c0-0.81-0.15-1.58-0.44-2.3c-0.29-0.72-0.7-1.36-1.22-1.9
			c-0.52-0.54-1.14-0.98-1.86-1.3c-0.72-0.32-1.51-0.49-2.37-0.49c-1.02,0-1.93,0.2-2.75,0.59c-0.82,0.39-1.52,0.95-2.09,1.68
			c-0.58,0.72-1.02,1.6-1.33,2.64c-0.31,1.04-0.47,2.2-0.47,3.49c0,1.19,0.15,2.27,0.44,3.24s0.7,1.78,1.24,2.46
			c0.53,0.67,1.18,1.2,1.93,1.56c0.75,0.37,1.6,0.55,2.52,0.55c0.96,0,1.84-0.18,2.63-0.52c0.79-0.35,1.46-0.83,2.02-1.45
			c0.56-0.62,0.99-1.34,1.29-2.17s0.46-1.73,0.46-2.7V628.41z"/>
		<path class="st4" d="M458.63,640.71c-1.45,0-2.75-0.24-3.89-0.72c-1.15-0.48-2.13-1.17-2.94-2.05c-0.81-0.88-1.43-1.94-1.87-3.17
			c-0.43-1.23-0.65-2.6-0.65-4.09c0-1.62,0.23-3.08,0.69-4.36c0.46-1.28,1.11-2.37,1.95-3.27c0.84-0.89,1.86-1.58,3.06-2.05
			c1.19-0.47,2.53-0.71,4-0.71c1.41,0,2.68,0.23,3.81,0.7s2.09,1.13,2.88,2.01c0.79,0.88,1.39,1.94,1.81,3.2
			c0.42,1.26,0.63,2.68,0.63,4.28c0,1.52-0.22,2.91-0.66,4.16c-0.44,1.25-1.06,2.33-1.88,3.23c-0.81,0.9-1.8,1.6-2.97,2.1
			C461.42,640.47,460.1,640.71,458.63,640.71z M458.82,622.41c-1.07,0-2.03,0.19-2.89,0.55c-0.86,0.37-1.6,0.9-2.22,1.61
			c-0.62,0.71-1.09,1.57-1.42,2.59s-0.5,2.18-0.5,3.47c0,1.22,0.17,2.32,0.5,3.29c0.33,0.98,0.8,1.82,1.4,2.51
			c0.6,0.7,1.34,1.23,2.2,1.61s1.83,0.56,2.89,0.56c1.09,0,2.06-0.18,2.89-0.54s1.55-0.89,2.13-1.58c0.58-0.69,1.02-1.54,1.32-2.54
			c0.3-1,0.45-2.14,0.45-3.43c0-2.63-0.58-4.64-1.75-6.03S460.99,622.41,458.82,622.41z"/>
	</g>
</g>
</svg>
