<?xml version="1.0" encoding="utf-8"?>
<!-- Generator: Adobe Illustrator 25.2.0, SVG Export Plug-In . SVG Version: 6.00 Build 0)  -->
<svg version="1.1" id="Layer_1" xmlns="http://www.w3.org/2000/svg" xmlns:xlink="http://www.w3.org/1999/xlink" x="0px" y="0px"
	 viewBox="0 0 612 792" style="enable-background:new 0 0 612 792;" xml:space="preserve">
<style type="text/css">
	.st0{fill:#FFFFFF;}
	.st1{fill:url(#SVGID_1_);}
	.st2{fill:url(#SVGID_2_);}
	.st3{fill:url(#SVGID_3_);}
	.st4{fill:url(#SVGID_4_);}
	.st5{fill:url(#SVGID_5_);}
	.st6{fill:url(#SVGID_6_);}
	.st7{fill:url(#SVGID_7_);}
	.st8{fill:url(#SVGID_8_);}
	.st9{fill:url(#SVGID_9_);}
	.st10{fill:url(#SVGID_10_);}
	.st11{fill:url(#SVGID_11_);}
	.st12{fill:url(#SVGID_12_);}
	.st13{fill:url(#SVGID_13_);}
	.st14{fill:url(#SVGID_14_);}
	.st15{fill:url(#SVGID_15_);}
</style>
<g id="Layer_2_1_">
</g>
<g id="Layer_3">
	<g>
		<g>
			<path class="st0" d="M489.8,242.8c-3.9-29-17.8-46.6-38-55.5c-32.3-14.1-65.6-28.7-100-34.7c-60-10.6-98.4,11.6-126.8,65.8
				c-37.8,72.1-34.5,143.1,10.1,210.8c22.8,34.6,49.6,66.5,77.9,104c17.3-33.7,35-63.7,48.4-95.4c22.7-54,30.9-108.3-1.2-163.4
				c-16.1-27.5-2.5-46.7,29.8-50C423.9,220.8,457,220.2,489.8,242.8z"/>
			
				<linearGradient id="SVGID_1_" gradientUnits="userSpaceOnUse" x1="289.5495" y1="670.9408" x2="389.5141" y2="360.2398" gradientTransform="matrix(1 0 0 -1 0 792)">
				<stop  offset="0" style="stop-color:#4154A4"/>
				<stop  offset="1" style="stop-color:#1F1E58"/>
			</linearGradient>
			<path class="st1" d="M489.8,242.8c-32.8-22.6-66-22-99.6-18.5c-32.4,3.4-45.9,22.5-29.8,50c32.1,55.1,23.9,109.3,1.2,163.4
				c-13.4,31.8-31.1,61.7-48.4,95.4c-28.3-37.5-55.1-69.4-77.9-104c-44.6-67.6-47.9-138.7-10.1-210.8
				c28.4-54.2,66.7-76.4,126.8-65.8c34.4,6.1,67.7,20.6,100,34.7C472,196.2,485.9,213.8,489.8,242.8z M351.9,317.7
				c-11.8,50.9-20.5,102.6-75.4,130.8c11.1,13.3,21,25.3,32.4,39C338.7,432.3,374.4,382.3,351.9,317.7z"/>
			<path class="st0" d="M351.9,317.7c22.5,64.5-13.2,114.6-43,169.8c-11.4-13.7-21.3-25.7-32.4-39
				C331.4,420.3,340.1,368.6,351.9,317.7z"/>
		</g>
		<circle class="st0" cx="299.7" cy="185" r="13.4"/>
	</g>
</g>
<g>
	<linearGradient id="SVGID_2_" gradientUnits="userSpaceOnUse" x1="63.4398" y1="528.6113" x2="63.4398" y2="649.8246">
		<stop  offset="0" style="stop-color:#4154A4"/>
		<stop  offset="1" style="stop-color:#1F1E58"/>
	</linearGradient>
	<path class="st2" d="M58.5,584.7v18.8c0,1.7,0.4,3.1,1.2,4c0.8,0.9,2,1.4,3.7,1.4c1.7,0,2.9-0.5,3.7-1.4c0.8-1,1.3-2.3,1.3-4v-18.8
		h9v18.8c0,3-0.6,5.5-1.9,7.6c-1.3,2.1-3,3.7-5.1,4.7c-2.2,1.1-4.6,1.6-7.2,1.6c-2.6,0-5-0.5-7.1-1.6c-2.1-1.1-3.7-2.6-4.9-4.7
		c-1.2-2.1-1.8-4.6-1.8-7.6v-18.8H58.5z"/>
	<linearGradient id="SVGID_3_" gradientUnits="userSpaceOnUse" x1="109.0761" y1="528.6113" x2="109.0761" y2="649.8246">
		<stop  offset="0" style="stop-color:#4154A4"/>
		<stop  offset="1" style="stop-color:#1F1E58"/>
	</linearGradient>
	<path class="st3" d="M132.5,584.7l-7.9,32.4h-11.1l-4.5-19.8l-4.5,19.8H93.5l-7.9-32.4h9.7l3.8,22.1l5.1-22.1h9.9l5,22l3.8-22
		H132.5z"/>
	<linearGradient id="SVGID_4_" gradientUnits="userSpaceOnUse" x1="167.7581" y1="528.6113" x2="167.7581" y2="649.8246">
		<stop  offset="0" style="stop-color:#4154A4"/>
		<stop  offset="1" style="stop-color:#1F1E58"/>
	</linearGradient>
	<path class="st4" d="M179.5,603.3c1.1,1.5,1.7,3.1,1.7,5c0,2.8-0.9,4.9-2.8,6.5c-1.9,1.6-4.6,2.3-8,2.3h-16v-32.4h15.5
		c3.3,0,5.9,0.7,7.8,2.2c1.9,1.5,2.8,3.5,2.8,6.2c0,1.9-0.5,3.5-1.5,4.8c-1,1.3-2.3,2.1-4,2.6C176.9,600.9,178.4,601.9,179.5,603.3z
		 M163.3,597.6h4.5c2.3,0,3.4-0.9,3.4-2.8c0-1.9-1.1-2.9-3.4-2.9h-4.5V597.6z M172,607c0-1-0.3-1.7-0.9-2.3
		c-0.6-0.5-1.4-0.8-2.5-0.8h-5.2v5.9h5.2C170.8,609.9,172,608.9,172,607z"/>
	<linearGradient id="SVGID_5_" gradientUnits="userSpaceOnUse" x1="200.0961" y1="528.6113" x2="200.0961" y2="649.8246">
		<stop  offset="0" style="stop-color:#4154A4"/>
		<stop  offset="1" style="stop-color:#1F1E58"/>
	</linearGradient>
	<path class="st5" d="M198.7,591.9v5.3h10.3v6.8h-10.3v5.8h11.7v7.2h-20.7v-32.4h20.7v7.2H198.7z"/>
	<linearGradient id="SVGID_6_" gradientUnits="userSpaceOnUse" x1="234.3639" y1="528.6113" x2="234.3639" y2="649.8246">
		<stop  offset="0" style="stop-color:#4154A4"/>
		<stop  offset="1" style="stop-color:#1F1E58"/>
	</linearGradient>
	<path class="st6" d="M241.3,586.8c2.6,1.4,4.5,3.3,5.9,5.7c1.4,2.4,2.1,5.3,2.1,8.4c0,3.1-0.7,5.9-2.1,8.4
		c-1.4,2.4-3.4,4.4-5.9,5.8c-2.6,1.4-5.5,2.1-8.9,2.1h-12.8v-32.4h12.8C235.7,584.7,238.7,585.4,241.3,586.8z M237.8,607
		c1.5-1.4,2.3-3.5,2.3-6.1c0-2.7-0.8-4.7-2.3-6.2c-1.5-1.5-3.6-2.2-6.2-2.2h-3.1v16.6h3.1C234.3,609.2,236.3,608.5,237.8,607z"/>
	<linearGradient id="SVGID_7_" gradientUnits="userSpaceOnUse" x1="271.0886" y1="528.6113" x2="271.0886" y2="649.8246">
		<stop  offset="0" style="stop-color:#4154A4"/>
		<stop  offset="1" style="stop-color:#1F1E58"/>
	</linearGradient>
	<path class="st7" d="M274.3,617.1l-6.4-11.9h-1v11.9h-9v-32.4h14.2c2.6,0,4.8,0.5,6.6,1.4c1.8,0.9,3.2,2.1,4.1,3.7
		c0.9,1.6,1.4,3.3,1.4,5.3c0,2.2-0.6,4.1-1.8,5.8c-1.2,1.7-3,2.9-5.3,3.6l7.3,12.6H274.3z M266.9,599h4.5c1.2,0,2.1-0.3,2.8-0.9
		c0.6-0.6,0.9-1.4,0.9-2.5c0-1-0.3-1.9-0.9-2.5c-0.6-0.6-1.5-0.9-2.7-0.9h-4.5V599z"/>
	<linearGradient id="SVGID_8_" gradientUnits="userSpaceOnUse" x1="297.3174" y1="528.6113" x2="297.3174" y2="649.8246">
		<stop  offset="0" style="stop-color:#4154A4"/>
		<stop  offset="1" style="stop-color:#1F1E58"/>
	</linearGradient>
	<path class="st8" d="M301.8,584.7v32.4h-9v-32.4H301.8z"/>
	<linearGradient id="SVGID_9_" gradientUnits="userSpaceOnUse" x1="321.4104" y1="528.6113" x2="321.4104" y2="649.8246">
		<stop  offset="0" style="stop-color:#4154A4"/>
		<stop  offset="1" style="stop-color:#1F1E58"/>
	</linearGradient>
	<path class="st9" d="M333,584.7v21.5c0,3.6-1,6.4-3,8.4c-2,1.9-4.7,2.9-8.2,2.9c-3.7,0-6.6-1-8.8-3.1s-3.3-5-3.3-8.9h8.9
		c0,2.5,1,3.8,2.8,3.8c1.7,0,2.5-1,2.5-3.1v-21.5H333z"/>
	<linearGradient id="SVGID_10_" gradientUnits="userSpaceOnUse" x1="353.9561" y1="528.6113" x2="353.9561" y2="649.8246">
		<stop  offset="0" style="stop-color:#4154A4"/>
		<stop  offset="1" style="stop-color:#1F1E58"/>
	</linearGradient>
	<path class="st10" d="M364.9,584.7v7.2h-13v5.7h9.6v6.8H352v12.7h-9v-32.4H364.9z"/>
	<linearGradient id="SVGID_11_" gradientUnits="userSpaceOnUse" x1="385.0077" y1="528.6113" x2="385.0077" y2="649.8246">
		<stop  offset="0" style="stop-color:#4154A4"/>
		<stop  offset="1" style="stop-color:#1F1E58"/>
	</linearGradient>
	<path class="st11" d="M376.3,614.8c-2.4-1.8-3.7-4.4-3.9-7.7h9.6c0.1,1.1,0.4,2,1,2.5c0.6,0.5,1.3,0.8,2.3,0.8c0.8,0,1.5-0.2,2-0.6
		c0.5-0.4,0.8-1,0.8-1.7c0-0.9-0.4-1.7-1.3-2.2c-0.9-0.5-2.3-1.1-4.3-1.7c-2.1-0.7-3.8-1.4-5.1-2c-1.3-0.7-2.4-1.6-3.4-2.9
		c-1-1.3-1.4-2.9-1.4-5c0-2.1,0.5-3.9,1.6-5.4c1-1.5,2.5-2.6,4.3-3.4c1.8-0.8,3.9-1.1,6.2-1.1c3.8,0,6.8,0.9,9,2.6
		c2.3,1.8,3.5,4.2,3.6,7.4h-9.8c0-1-0.3-1.7-0.9-2.2c-0.6-0.5-1.3-0.7-2.2-0.7c-0.7,0-1.2,0.2-1.7,0.6c-0.4,0.4-0.6,1-0.6,1.7
		c0,0.6,0.2,1.1,0.7,1.6c0.5,0.4,1.1,0.8,1.8,1.1c0.7,0.3,1.7,0.7,3.1,1.2c2.1,0.7,3.7,1.4,5.1,2.1c1.3,0.7,2.5,1.7,3.4,2.9
		c1,1.2,1.4,2.8,1.4,4.7c0,1.9-0.5,3.7-1.4,5.2c-1,1.5-2.4,2.7-4.2,3.6c-1.8,0.9-4,1.3-6.5,1.3C381.8,617.4,378.7,616.5,376.3,614.8
		z"/>
	<linearGradient id="SVGID_12_" gradientUnits="userSpaceOnUse" x1="421.4107" y1="528.6113" x2="421.4107" y2="649.8246">
		<stop  offset="0" style="stop-color:#4154A4"/>
		<stop  offset="1" style="stop-color:#1F1E58"/>
	</linearGradient>
	<path class="st12" d="M436.4,617.1h-9l-12-18.1v18.1h-9v-32.4h9l12,18.3v-18.3h9V617.1z"/>
	<linearGradient id="SVGID_13_" gradientUnits="userSpaceOnUse" x1="460.916" y1="528.6113" x2="460.916" y2="649.8246">
		<stop  offset="0" style="stop-color:#4154A4"/>
		<stop  offset="1" style="stop-color:#1F1E58"/>
	</linearGradient>
	<path class="st13" d="M466.6,611.8h-11.5l-1.7,5.3h-9.5l11.8-32.4h10.4l11.8,32.4h-9.5L466.6,611.8z M464.4,604.9l-3.5-10.5
		l-3.4,10.5H464.4z"/>
	<linearGradient id="SVGID_14_" gradientUnits="userSpaceOnUse" x1="500.1905" y1="528.6113" x2="500.1905" y2="649.8246">
		<stop  offset="0" style="stop-color:#4154A4"/>
		<stop  offset="1" style="stop-color:#1F1E58"/>
	</linearGradient>
	<path class="st14" d="M505.9,611.8h-11.5l-1.7,5.3h-9.5l11.8-32.4h10.4l11.8,32.4h-9.5L505.9,611.8z M503.7,604.9l-3.5-10.5
		l-3.4,10.5H503.7z"/>
	<linearGradient id="SVGID_15_" gradientUnits="userSpaceOnUse" x1="543.5992" y1="528.6113" x2="543.5992" y2="649.8246">
		<stop  offset="0" style="stop-color:#4154A4"/>
		<stop  offset="1" style="stop-color:#1F1E58"/>
	</linearGradient>
	<path class="st15" d="M562.5,584.7v32.4h-9v-17.9l-6.1,17.9h-7.5l-6.2-18v18h-9v-32.4h10.9l8.1,21l7.9-21H562.5z"/>
</g>
</svg>
