<?xml version="1.0" encoding="utf-8"?>
<!-- Generator: Adobe Illustrator 25.2.0, SVG Export Plug-In . SVG Version: 6.00 Build 0)  -->
<svg version="1.1" xmlns="http://www.w3.org/2000/svg" xmlns:xlink="http://www.w3.org/1999/xlink" x="0px" y="0px"
	 viewBox="0 0 612 792" style="enable-background:new 0 0 612 792;" xml:space="preserve">
<style type="text/css">
	.st0{fill:#4272B6;}
	.st1{fill:#87D2EB;}
	.st2{fill:#22406D;}
</style>
<g id="Layer_2">
</g>
<g id="Layer_3">
	<path class="st0" d="M311.82,117.48c8.43,14.04,16.34,26.45,23.26,39.39c1.33,2.49-0.3,7.58-2.08,10.58
		c-29.46,49.61-59.31,98.99-88.75,148.61c-27.98,47.16-4.51,105.41,48.1,118.59c32.65,8.18,60.7-1.56,81.26-27.73
		c20.79-26.46,23.78-56.28,7.62-86.26c-12.66-23.48-26.92-46.11-40.84-68.89c-3.13-5.12-3.54-9.02-0.2-14.17
		c7.31-11.29,14.02-22.98,21.83-35.91c7.07,11.72,13.52,22.27,19.83,32.9c13.17,22.16,27.19,43.87,39.25,66.62
		c43.58,82.24-18.82,183.09-111.22,180.44c-95.88-2.76-152.54-103.68-104.3-186.78c33.12-57.05,67.51-113.36,101.34-169.99
		C308.15,122.82,309.55,120.89,311.82,117.48z"/>
	<path class="st1" d="M311.61,421.53c-35.74,0.04-63.68-27.85-63.65-63.55c0.02-35.4,28.7-63.98,63.89-63.68
		c34.72,0.29,63.48,29.02,63.54,63.47C375.44,393.1,347.05,421.49,311.61,421.53z"/>
	<g>
		<path class="st2" d="M228.44,574.36l-8.88-32h5.08l6.23,24.78h0.3l6.48-24.78h5.03l6.48,24.8h0.3l6.22-24.8h5.09l-8.89,32h-4.86
			l-6.73-23.97h-0.25l-6.73,23.97H228.44z"/>
		<path class="st2" d="M273.96,574.36h-5.12l11.52-32h5.58l11.52,32h-5.12l-9.05-26.19h-0.25L273.96,574.36z M274.82,561.83h16.62
			v4.06h-16.62V561.83z"/>
		<path class="st2" d="M305.46,546.51v-4.16h24.77v4.16h-9.98v27.84h-4.81v-27.84H305.46z"/>
		<path class="st2" d="M344.48,574.36v-32h20.06v4.16h-15.23v9.75h14.19v4.14h-14.19v9.8h15.42v4.16H344.48z"/>
		<path class="st2" d="M379.81,574.36v-32h11.41c2.48,0,4.54,0.43,6.18,1.28c1.64,0.85,2.87,2.03,3.68,3.54
			c0.81,1.51,1.22,3.24,1.22,5.21c0,1.96-0.41,3.68-1.23,5.16c-0.82,1.48-2.05,2.64-3.69,3.46c-1.64,0.82-3.7,1.23-6.18,1.23h-8.64
			v-4.16h8.2c1.56,0,2.84-0.22,3.82-0.67c0.98-0.45,1.71-1.1,2.16-1.95c0.46-0.85,0.69-1.88,0.69-3.08c0-1.21-0.23-2.25-0.7-3.14
			c-0.46-0.88-1.19-1.56-2.17-2.04c-0.98-0.47-2.27-0.71-3.87-0.71h-6.06v27.86H379.81z M395.61,559.92l7.91,14.44h-5.5l-7.75-14.44
			H395.61z"/>
		<path class="st2" d="M170.17,603.56c-0.17-1.48-0.85-2.63-2.06-3.45c-1.21-0.82-2.73-1.23-4.56-1.23c-1.31,0-2.45,0.21-3.41,0.62
			c-0.96,0.41-1.7,0.97-2.23,1.69c-0.53,0.71-0.79,1.52-0.79,2.43c0,0.76,0.18,1.42,0.54,1.97c0.36,0.55,0.83,1.01,1.42,1.38
			c0.59,0.37,1.22,0.68,1.9,0.92c0.68,0.25,1.33,0.45,1.95,0.6l3.12,0.81c1.02,0.25,2.07,0.59,3.14,1.02
			c1.07,0.43,2.07,0.99,2.98,1.69c0.92,0.7,1.66,1.56,2.23,2.59c0.57,1.03,0.85,2.27,0.85,3.7c0,1.81-0.47,3.42-1.4,4.83
			c-0.93,1.41-2.28,2.52-4.05,3.33s-3.9,1.22-6.4,1.22c-2.4,0-4.47-0.38-6.22-1.14s-3.12-1.84-4.11-3.24
			c-0.99-1.4-1.54-3.06-1.64-4.99h4.84c0.09,1.16,0.47,2.12,1.13,2.88c0.66,0.77,1.51,1.33,2.55,1.7c1.04,0.37,2.17,0.55,3.41,0.55
			c1.36,0,2.58-0.22,3.65-0.65c1.07-0.43,1.91-1.04,2.52-1.81c0.61-0.78,0.92-1.68,0.92-2.73c0-0.95-0.27-1.72-0.8-2.33
			c-0.54-0.6-1.26-1.1-2.17-1.5c-0.91-0.4-1.94-0.74-3.09-1.05l-3.78-1.03c-2.56-0.7-4.59-1.72-6.09-3.08
			c-1.5-1.35-2.24-3.15-2.24-5.38c0-1.84,0.5-3.45,1.5-4.83s2.35-2.45,4.06-3.21c1.71-0.77,3.64-1.15,5.78-1.15
			c2.17,0,4.08,0.38,5.74,1.14c1.66,0.76,2.97,1.8,3.93,3.13c0.96,1.33,1.46,2.85,1.5,4.57H170.17z"/>
		<path class="st2" d="M217.63,611.16c0,3.42-0.62,6.35-1.88,8.8s-2.96,4.34-5.13,5.66c-2.17,1.32-4.64,1.98-7.4,1.98
			c-2.77,0-5.24-0.66-7.41-1.98c-2.17-1.32-3.88-3.21-5.13-5.66c-1.25-2.46-1.88-5.39-1.88-8.8c0-3.42,0.62-6.35,1.88-8.8
			s2.96-4.34,5.13-5.66c2.17-1.32,4.64-1.98,7.41-1.98c2.76,0,5.23,0.66,7.4,1.98c2.17,1.32,3.88,3.2,5.13,5.66
			S217.63,607.74,217.63,611.16z M212.84,611.16c0-2.6-0.42-4.8-1.26-6.59c-0.84-1.79-1.98-3.14-3.44-4.06s-3.1-1.38-4.93-1.38
			c-1.84,0-3.49,0.46-4.94,1.38c-1.45,0.92-2.59,2.28-3.43,4.06c-0.84,1.79-1.26,3.98-1.26,6.59c0,2.6,0.42,4.8,1.26,6.59
			c0.84,1.79,1.98,3.14,3.43,4.06c1.45,0.92,3.09,1.38,4.94,1.38c1.83,0,3.48-0.46,4.93-1.38s2.6-2.28,3.44-4.06
			C212.42,615.96,212.84,613.76,212.84,611.16z"/>
		<path class="st2" d="M232.43,627.16v-32h4.83V623h14.5v4.16H232.43z"/>
		<path class="st2" d="M286.63,595.16h4.84v21.05c0,2.24-0.53,4.22-1.58,5.95c-1.05,1.72-2.53,3.08-4.44,4.06s-4.14,1.48-6.7,1.48
			c-2.55,0-4.78-0.49-6.69-1.48s-3.39-2.34-4.44-4.06c-1.05-1.72-1.58-3.71-1.58-5.95v-21.05h4.83v20.66c0,1.45,0.32,2.73,0.96,3.86
			s1.55,2.01,2.73,2.65c1.18,0.64,2.57,0.96,4.19,0.96c1.62,0,3.03-0.32,4.21-0.96c1.18-0.64,2.09-1.52,2.72-2.65
			c0.63-1.12,0.95-2.41,0.95-3.86V595.16z"/>
		<path class="st2" d="M324.76,603.56c-0.17-1.48-0.85-2.63-2.06-3.45c-1.21-0.82-2.73-1.23-4.56-1.23c-1.31,0-2.45,0.21-3.41,0.62
			c-0.96,0.41-1.7,0.97-2.23,1.69c-0.53,0.71-0.79,1.52-0.79,2.43c0,0.76,0.18,1.42,0.54,1.97c0.36,0.55,0.83,1.01,1.42,1.38
			c0.59,0.37,1.22,0.68,1.9,0.92c0.68,0.25,1.33,0.45,1.95,0.6l3.12,0.81c1.02,0.25,2.07,0.59,3.14,1.02
			c1.07,0.43,2.07,0.99,2.98,1.69c0.92,0.7,1.66,1.56,2.23,2.59c0.57,1.03,0.85,2.27,0.85,3.7c0,1.81-0.47,3.42-1.4,4.83
			c-0.93,1.41-2.28,2.52-4.05,3.33s-3.9,1.22-6.4,1.22c-2.4,0-4.47-0.38-6.22-1.14s-3.12-1.84-4.11-3.24
			c-0.99-1.4-1.54-3.06-1.64-4.99h4.84c0.09,1.16,0.47,2.12,1.13,2.88c0.66,0.77,1.51,1.33,2.55,1.7c1.04,0.37,2.17,0.55,3.41,0.55
			c1.36,0,2.58-0.22,3.65-0.65c1.07-0.43,1.91-1.04,2.52-1.81c0.61-0.78,0.92-1.68,0.92-2.73c0-0.95-0.27-1.72-0.8-2.33
			c-0.54-0.6-1.26-1.1-2.17-1.5c-0.91-0.4-1.94-0.74-3.09-1.05l-3.78-1.03c-2.56-0.7-4.59-1.72-6.09-3.08
			c-1.49-1.35-2.24-3.15-2.24-5.38c0-1.84,0.5-3.45,1.5-4.83c1-1.38,2.35-2.45,4.06-3.21c1.71-0.77,3.63-1.15,5.78-1.15
			c2.17,0,4.08,0.38,5.74,1.14c1.66,0.76,2.97,1.8,3.93,3.13c0.96,1.33,1.46,2.85,1.5,4.57H324.76z"/>
		<path class="st2" d="M349.25,595.16v32h-4.83v-32H349.25z"/>
		<path class="st2" d="M392.87,611.16c0,3.42-0.62,6.35-1.88,8.8s-2.96,4.34-5.13,5.66c-2.17,1.32-4.64,1.98-7.4,1.98
			c-2.77,0-5.24-0.66-7.41-1.98c-2.17-1.32-3.88-3.21-5.13-5.66c-1.25-2.46-1.88-5.39-1.88-8.8c0-3.42,0.62-6.35,1.88-8.8
			s2.96-4.34,5.13-5.66c2.17-1.32,4.64-1.98,7.41-1.98c2.76,0,5.23,0.66,7.4,1.98c2.17,1.32,3.88,3.2,5.13,5.66
			S392.87,607.74,392.87,611.16z M388.09,611.16c0-2.6-0.42-4.8-1.26-6.59c-0.84-1.79-1.98-3.14-3.44-4.06s-3.1-1.38-4.93-1.38
			c-1.84,0-3.49,0.46-4.94,1.38c-1.45,0.92-2.59,2.28-3.43,4.06c-0.84,1.79-1.26,3.98-1.26,6.59c0,2.6,0.42,4.8,1.26,6.59
			c0.84,1.79,1.98,3.14,3.43,4.06c1.45,0.92,3.09,1.38,4.94,1.38c1.83,0,3.48-0.46,4.93-1.38s2.6-2.28,3.44-4.06
			C387.67,615.96,388.09,613.76,388.09,611.16z"/>
		<path class="st2" d="M433.5,595.16v32h-4.44l-16.27-23.47h-0.3v23.47h-4.83v-32h4.47l16.28,23.5h0.3v-23.5H433.5z"/>
		<path class="st2" d="M466.79,603.56c-0.17-1.48-0.85-2.63-2.06-3.45c-1.21-0.82-2.73-1.23-4.56-1.23c-1.31,0-2.45,0.21-3.41,0.62
			c-0.96,0.41-1.7,0.97-2.23,1.69c-0.53,0.71-0.79,1.52-0.79,2.43c0,0.76,0.18,1.42,0.54,1.97c0.36,0.55,0.83,1.01,1.42,1.38
			c0.59,0.37,1.22,0.68,1.9,0.92c0.68,0.25,1.33,0.45,1.95,0.6l3.12,0.81c1.02,0.25,2.07,0.59,3.14,1.02
			c1.07,0.43,2.07,0.99,2.98,1.69c0.92,0.7,1.66,1.56,2.23,2.59c0.57,1.03,0.85,2.27,0.85,3.7c0,1.81-0.47,3.42-1.4,4.83
			c-0.93,1.41-2.28,2.52-4.05,3.33s-3.9,1.22-6.4,1.22c-2.4,0-4.47-0.38-6.22-1.14s-3.12-1.84-4.11-3.24
			c-0.99-1.4-1.54-3.06-1.64-4.99h4.84c0.09,1.16,0.47,2.12,1.13,2.88c0.66,0.77,1.51,1.33,2.55,1.7c1.04,0.37,2.17,0.55,3.41,0.55
			c1.36,0,2.58-0.22,3.65-0.65c1.07-0.43,1.91-1.04,2.52-1.81c0.61-0.78,0.92-1.68,0.92-2.73c0-0.95-0.27-1.72-0.8-2.33
			c-0.54-0.6-1.26-1.1-2.17-1.5c-0.91-0.4-1.94-0.74-3.09-1.05l-3.78-1.03c-2.56-0.7-4.59-1.72-6.09-3.08
			c-1.5-1.35-2.24-3.15-2.24-5.38c0-1.84,0.5-3.45,1.5-4.83s2.35-2.45,4.06-3.21c1.71-0.77,3.63-1.15,5.78-1.15
			c2.17,0,4.08,0.38,5.74,1.14c1.66,0.76,2.97,1.8,3.93,3.13c0.96,1.33,1.46,2.85,1.5,4.57H466.79z"/>
	</g>
</g>
</svg>
