<?xml version="1.0" encoding="utf-8"?>
<!-- Generator: Adobe Illustrator 25.2.0, SVG Export Plug-In . SVG Version: 6.00 Build 0)  -->
<svg version="1.1" id="Layer_1" xmlns="http://www.w3.org/2000/svg" xmlns:xlink="http://www.w3.org/1999/xlink" x="0px" y="0px"
	 viewBox="0 0 612 792" style="enable-background:new 0 0 612 792;" xml:space="preserve">
<style type="text/css">
	.st0{fill:url(#SVGID_1_);stroke:#226FA8;stroke-width:2;stroke-miterlimit:10;}
	.st1{fill:url(#SVGID_2_);stroke:#226FA8;stroke-width:2;stroke-miterlimit:10;}
	.st2{fill:url(#SVGID_3_);stroke:#226FA8;stroke-width:2;stroke-miterlimit:10;}
	.st3{fill:url(#SVGID_4_);stroke:#226FA8;stroke-width:2;stroke-miterlimit:10;}
	.st4{fill:url(#SVGID_5_);stroke:#226FA8;stroke-width:2;stroke-miterlimit:10;}
	.st5{fill:url(#SVGID_6_);stroke:#226FA8;stroke-width:2;stroke-miterlimit:10;}
	.st6{fill:url(#SVGID_7_);stroke:#226FA8;stroke-width:2;stroke-miterlimit:10;}
	.st7{fill:url(#SVGID_8_);stroke:#226FA8;stroke-width:2;stroke-miterlimit:10;}
	.st8{fill:url(#SVGID_9_);stroke:#226FA8;stroke-width:2;stroke-miterlimit:10;}
	.st9{fill:url(#SVGID_10_);stroke:#226FA8;stroke-width:2;stroke-miterlimit:10;}
	.st10{fill:url(#SVGID_11_);}
	.st11{fill:url(#SVGID_12_);}
	.st12{fill:url(#SVGID_13_);}
	.st13{fill:url(#SVGID_14_);}
	.st14{fill:url(#SVGID_15_);}
	.st15{fill:url(#SVGID_16_);}
	.st16{fill:url(#SVGID_17_);}
	.st17{fill:url(#SVGID_18_);}
	.st18{fill:url(#SVGID_19_);}
	.st19{fill:url(#SVGID_20_);}
	.st20{fill:url(#SVGID_21_);}
	.st21{fill:url(#SVGID_22_);}
</style>
<g id="Layer_2_1_">
</g>
<g id="Layer_3">
	<g>
		
			<linearGradient id="SVGID_1_" gradientUnits="userSpaceOnUse" x1="67.1439" y1="164.9374" x2="67.1439" y2="234.3351" gradientTransform="matrix(1 0 0 -1 0 792)">
			<stop  offset="0" style="stop-color:#4E91CC"/>
			<stop  offset="1" style="stop-color:#5496CD"/>
		</linearGradient>
		<path class="st0" d="M62.55,582.55v13.85c0,3.04,0.34,4.91,1,5.62c0.91,1.01,2.26,1.52,4.04,1.52h1.84v1.3H49.02v-1.3h1.78
			c2,0,3.42-0.64,4.3-1.93c0.49-0.77,0.74-2.5,0.74-5.19v-30.79c0-2.98-0.32-4.82-0.95-5.56c-0.95-1.04-2.3-1.58-4.1-1.58H49v-1.3
			h17.47c4.19,0,7.55,0.46,10.07,1.37c1.23,0.41,2.36,1.01,3.44,1.77c1.06,0.75,2,1.64,2.78,2.67c0.78,1.03,1.41,2.16,1.86,3.41
			c0.46,1.24,0.68,2.58,0.68,4.01c0,1.92-0.34,3.68-1,5.3c-0.66,1.61-1.63,2.99-2.89,4.14c-1.26,1.15-2.79,2.06-4.62,2.7
			c-1.83,0.64-3.9,0.97-6.25,0.97C68.31,583.48,65.64,583.18,62.55,582.55z M62.55,580.49c1.26,0.25,2.36,0.43,3.3,0.55
			c0.94,0.12,1.77,0.18,2.47,0.18c1.23,0,2.38-0.26,3.47-0.77c1.09-0.51,2.04-1.21,2.86-2.1c0.83-0.89,1.47-1.96,1.93-3.22
			c0.46-1.26,0.71-2.62,0.71-4.1c0-1.75-0.26-3.3-0.78-4.67c-0.52-1.37-1.24-2.52-2.15-3.47c-0.91-0.95-1.98-1.66-3.19-2.15
			c-1.23-0.49-2.55-0.74-3.99-0.74c-1.18,0-2.73,0.21-4.62,0.63V580.49z"/>
		
			<linearGradient id="SVGID_2_" gradientUnits="userSpaceOnUse" x1="126.4953" y1="164.9374" x2="126.4953" y2="234.3351" gradientTransform="matrix(1 0 0 -1 0 792)">
			<stop  offset="0" style="stop-color:#4E91CC"/>
			<stop  offset="1" style="stop-color:#5496CD"/>
		</linearGradient>
		<path class="st1" d="M129.85,600.22c-1.67,1.26-3.04,2.27-4.07,3.01c-1.03,0.75-1.77,1.21-2.18,1.4c-1.29,0.6-2.64,0.89-4.04,0.89
			c-1.12,0-2.15-0.2-3.07-0.6s-1.73-0.97-2.41-1.67c-0.68-0.72-1.21-1.58-1.6-2.59c-0.38-1.01-0.58-2.15-0.58-3.41
			c0-1.47,0.29-2.78,0.86-3.93c0.57-1.15,1.47-2.21,2.67-3.18c1.21-0.97,2.78-1.84,4.7-2.66c3.01-1.4,6.25-2.73,9.7-3.99v-1.26
			c0-1.61-0.14-2.95-0.4-4.04c-0.26-1.09-0.66-1.95-1.18-2.59c-0.52-0.64-1.15-1.11-1.89-1.37c-0.74-0.26-1.58-0.4-2.52-0.4
			c-1.5,0-2.69,0.4-3.56,1.21c-0.87,0.8-1.3,1.72-1.3,2.73l0.11,2.04c0,1.09-0.28,1.92-0.81,2.49c-0.54,0.58-1.27,0.86-2.18,0.86
			c-0.87,0-1.6-0.31-2.15-0.92c-0.55-0.61-0.84-1.44-0.84-2.49c0-0.98,0.26-1.95,0.78-2.92c0.52-0.97,1.29-1.83,2.3-2.59
			c1.01-0.77,2.24-1.4,3.7-1.86c1.46-0.48,3.12-0.71,5-0.71c2.49,0,4.59,0.37,6.32,1.11c1.73,0.74,2.98,2,3.75,3.78
			c0.41,1.01,0.63,3.09,0.63,6.19v10.91c0,1.86,0.03,3.28,0.08,4.28c0.05,1,0.15,1.72,0.29,2.18c0.14,0.46,0.32,0.72,0.52,0.81
			c0.21,0.09,0.48,0.14,0.78,0.14c0.25,0,0.48-0.03,0.68-0.11c0.21-0.06,0.46-0.21,0.74-0.41c0.28-0.21,0.6-0.49,0.97-0.86
			c0.37-0.37,0.84-0.84,1.44-1.44v2c-2.62,3.5-5.13,5.25-7.51,5.25c-1.12,0-2.03-0.4-2.73-1.18
			C130.2,603.5,129.85,602.15,129.85,600.22z M129.85,597.91v-12.28c-2.46,0.98-5.25,2.24-8.4,3.78c-1.15,0.6-2.06,1.43-2.7,2.52
			c-0.64,1.09-0.97,2.29-0.97,3.62c0,0.84,0.14,1.61,0.41,2.33c0.28,0.72,0.64,1.34,1.11,1.86c0.46,0.52,0.98,0.94,1.6,1.23
			c0.61,0.29,1.24,0.45,1.92,0.45C124.6,601.43,126.95,600.26,129.85,597.91z"/>
		
			<linearGradient id="SVGID_3_" gradientUnits="userSpaceOnUse" x1="179.4149" y1="164.9374" x2="179.4149" y2="234.3351" gradientTransform="matrix(1 0 0 -1 0 792)">
			<stop  offset="0" style="stop-color:#4E91CC"/>
			<stop  offset="1" style="stop-color:#5496CD"/>
		</linearGradient>
		<path class="st2" d="M162.73,575.82l9.92-3.99h1.3v7.51c1.67-2.84,3.35-4.82,5-5.96c1.66-1.14,3.42-1.7,5.28-1.7
			c1.81,0,3.47,0.41,4.96,1.26s2.75,1.98,3.81,3.44c1.04,1.46,1.86,3.15,2.44,5.07c0.58,1.92,0.86,3.98,0.86,6.14
			c0,2.46-0.34,4.77-1.03,6.98c-0.69,2.21-1.66,4.14-2.93,5.82c-1.27,1.67-2.82,3.01-4.64,3.99c-1.83,0.98-3.85,1.47-6.08,1.47
			c-0.8,0-1.54-0.03-2.18-0.11s-1.27-0.21-1.86-0.41c-0.6-0.21-1.18-0.51-1.77-0.89c-0.58-0.38-1.2-0.87-1.86-1.47v9.81
			c0,1.15,0.03,2.06,0.11,2.73c0.08,0.66,0.17,1.18,0.32,1.58c0.14,0.38,0.32,0.66,0.55,0.84c0.23,0.17,0.49,0.35,0.81,0.52
			c0.66,0.35,1.89,0.52,3.67,0.52v1.26h-16.9v-1.26h0.89c0.77,0,1.46-0.03,2.04-0.11c0.6-0.08,1.09-0.32,1.47-0.74
			c0.38-0.41,0.68-1.06,0.89-1.92c0.21-0.86,0.32-2.07,0.32-3.65v-30.42c0-1.23-0.05-2.21-0.14-2.96c-0.09-0.75-0.23-1.34-0.45-1.73
			c-0.21-0.4-0.49-0.66-0.86-0.78c-0.37-0.12-0.83-0.18-1.4-0.18c-0.28,0-0.6,0.05-0.97,0.12c-0.37,0.09-0.77,0.21-1.18,0.4
			L162.73,575.82z M173.95,581.44v12.02c0,2.59,0.11,4.3,0.32,5.14c0.14,0.71,0.41,1.35,0.84,1.96c0.43,0.61,0.95,1.15,1.58,1.63
			c0.63,0.48,1.35,0.84,2.18,1.14c0.83,0.28,1.7,0.41,2.66,0.41c1.37,0,2.58-0.32,3.65-0.97c1.06-0.64,1.96-1.53,2.7-2.67
			c0.74-1.14,1.29-2.49,1.66-4.07c0.37-1.58,0.55-3.28,0.55-5.14c0-2.03-0.2-3.9-0.6-5.62c-0.4-1.72-0.98-3.19-1.73-4.47
			c-0.75-1.26-1.66-2.24-2.73-2.96c-1.07-0.72-2.24-1.07-3.55-1.07c-0.52,0-1.01,0.03-1.47,0.08c-0.46,0.05-0.95,0.21-1.47,0.49
			c-0.52,0.28-1.15,0.74-1.86,1.4C175.95,579.38,175.04,580.29,173.95,581.44z"/>
		
			<linearGradient id="SVGID_4_" gradientUnits="userSpaceOnUse" x1="236.5483" y1="164.9374" x2="236.5483" y2="234.3351" gradientTransform="matrix(1 0 0 -1 0 792)">
			<stop  offset="0" style="stop-color:#4E91CC"/>
			<stop  offset="1" style="stop-color:#5496CD"/>
		</linearGradient>
		<path class="st3" d="M227.92,584.74c0,2.41,0.32,4.56,0.97,6.45c0.64,1.89,1.5,3.5,2.56,4.82c1.06,1.34,2.3,2.35,3.73,3.04
			c1.41,0.71,2.92,1.04,4.48,1.04c2.1,0,3.93-0.58,5.48-1.73c1.55-1.15,2.86-3.15,3.91-5.99l1.11,0.68
			c-0.25,1.58-0.74,3.12-1.47,4.65c-0.74,1.52-1.67,2.89-2.81,4.1c-1.14,1.21-2.46,2.18-3.96,2.92c-1.5,0.74-3.15,1.11-4.93,1.11
			c-1.92,0-3.73-0.4-5.43-1.18c-1.7-0.78-3.18-1.9-4.47-3.36c-1.27-1.46-2.29-3.21-3.04-5.25c-0.75-2.04-1.12-4.34-1.12-6.91
			c0-2.76,0.38-5.23,1.15-7.4c0.77-2.16,1.81-4.01,3.15-5.51c1.34-1.5,2.9-2.64,4.7-3.41s3.75-1.15,5.85-1.15
			c1.78,0,3.42,0.31,4.93,0.92c1.5,0.61,2.81,1.49,3.91,2.62c1.11,1.14,1.96,2.52,2.59,4.11c0.63,1.61,0.95,3.41,0.95,5.4h-22.24
			V584.74z M227.92,582.75h14.9c-0.17-2.98-0.89-5.14-2.12-6.52c-1.24-1.38-2.86-2.07-4.85-2.07c-0.95,0-1.87,0.2-2.78,0.58
			c-0.91,0.38-1.72,0.95-2.44,1.67c-0.72,0.74-1.32,1.64-1.81,2.7C228.32,580.17,228.03,581.38,227.92,582.75z"/>
		
			<linearGradient id="SVGID_5_" gradientUnits="userSpaceOnUse" x1="286.1599" y1="164.9374" x2="286.1599" y2="234.3351" gradientTransform="matrix(1 0 0 -1 0 792)">
			<stop  offset="0" style="stop-color:#4E91CC"/>
			<stop  offset="1" style="stop-color:#5496CD"/>
		</linearGradient>
		<path class="st4" d="M285.35,571.68v7.25c2.73-4.82,5.51-7.25,8.34-7.25c0.63,0,1.21,0.11,1.77,0.32
			c0.54,0.21,1.01,0.49,1.41,0.86c0.4,0.37,0.72,0.78,0.95,1.26c0.23,0.48,0.34,0.97,0.34,1.49c0,0.91-0.31,1.67-0.92,2.3
			c-0.61,0.63-1.34,0.95-2.18,0.95c-0.38,0-0.83-0.12-1.34-0.37s-1-0.52-1.47-0.84c-0.48-0.32-0.91-0.6-1.3-0.84
			s-0.71-0.37-0.92-0.37c-0.63,0-1.37,0.51-2.21,1.52s-1.66,2.3-2.47,3.88v15.47c0,0.95,0.06,1.8,0.18,2.56s0.37,1.43,0.77,1.96
			c0.38,0.54,0.95,0.97,1.7,1.26c0.75,0.29,1.77,0.45,3.02,0.45v1.26h-16.53v-1.26c1.04,0,1.9-0.06,2.55-0.21
			c0.64-0.14,1.17-0.41,1.55-0.84c0.38-0.41,0.64-1.03,0.78-1.81c0.14-0.78,0.21-1.83,0.21-3.12v-12.48c0-1.89-0.03-3.38-0.08-4.47
			s-0.11-1.81-0.18-2.21c-0.35-1.4-1.14-2.1-2.36-2.1c-0.38,0-0.77,0.05-1.15,0.12c-0.38,0.09-0.83,0.21-1.3,0.4l-0.32-1.26
			l9.7-3.93h1.47V571.68z"/>
		
			<linearGradient id="SVGID_6_" gradientUnits="userSpaceOnUse" x1="338.5039" y1="164.9374" x2="338.5039" y2="234.3351" gradientTransform="matrix(1 0 0 -1 0 792)">
			<stop  offset="0" style="stop-color:#4E91CC"/>
			<stop  offset="1" style="stop-color:#5496CD"/>
		</linearGradient>
		<path class="st5" d="M333.91,582.55v13.85c0,3.04,0.34,4.91,1,5.62c0.91,1.01,2.26,1.52,4.04,1.52h1.84v1.3h-20.42v-1.3h1.78
			c2,0,3.42-0.64,4.3-1.93c0.49-0.77,0.74-2.5,0.74-5.19v-30.79c0-2.98-0.32-4.82-0.95-5.56c-0.95-1.04-2.3-1.58-4.1-1.58h-1.78
			v-1.3h17.47c4.19,0,7.55,0.46,10.07,1.37c1.23,0.41,2.36,1.01,3.44,1.77c1.06,0.75,2,1.64,2.78,2.67s1.41,2.16,1.86,3.41
			c0.45,1.24,0.68,2.58,0.68,4.01c0,1.92-0.34,3.68-1,5.3c-0.66,1.61-1.63,2.99-2.89,4.14c-1.26,1.15-2.79,2.06-4.62,2.7
			c-1.83,0.64-3.9,0.97-6.25,0.97C339.67,583.48,336.98,583.18,333.91,582.55z M333.91,580.49c1.26,0.25,2.36,0.43,3.3,0.55
			s1.77,0.18,2.47,0.18c1.23,0,2.38-0.26,3.47-0.77c1.09-0.51,2.04-1.21,2.86-2.1c0.83-0.89,1.47-1.96,1.93-3.22
			c0.46-1.26,0.71-2.62,0.71-4.1c0-1.75-0.26-3.3-0.78-4.67c-0.52-1.37-1.24-2.52-2.15-3.47c-0.91-0.95-1.98-1.66-3.19-2.15
			c-1.23-0.49-2.55-0.74-3.99-0.74c-1.18,0-2.73,0.21-4.62,0.63L333.91,580.49L333.91,580.49z"/>
		
			<linearGradient id="SVGID_7_" gradientUnits="userSpaceOnUse" x1="391.0322" y1="164.9374" x2="391.0322" y2="234.3351" gradientTransform="matrix(1 0 0 -1 0 792)">
			<stop  offset="0" style="stop-color:#4E91CC"/>
			<stop  offset="1" style="stop-color:#5496CD"/>
		</linearGradient>
		<path class="st6" d="M394.03,554.84v42.7c0,1.47,0.08,2.61,0.23,3.41c0.15,0.8,0.43,1.41,0.84,1.81c0.4,0.4,0.94,0.64,1.6,0.71
			c0.66,0.08,1.5,0.11,2.52,0.11v1.26h-15.8v-1.26c1.04,0,1.89-0.08,2.52-0.23c0.63-0.15,1.11-0.46,1.44-0.92
			c0.34-0.46,0.55-1.07,0.66-1.86c0.11-0.78,0.15-1.8,0.15-3.02v-29.23c0-2.21-0.05-3.91-0.12-5.11c-0.09-1.21-0.23-2.09-0.41-2.66
			c-0.2-0.55-0.45-0.89-0.77-0.97c-0.32-0.09-0.71-0.12-1.15-0.12c-0.66,0-1.43,0.2-2.3,0.58l-0.58-1.26l9.59-3.93h1.58V554.84z"/>
		
			<linearGradient id="SVGID_8_" gradientUnits="userSpaceOnUse" x1="439.3314" y1="164.9374" x2="439.3314" y2="234.3351" gradientTransform="matrix(1 0 0 -1 0 792)">
			<stop  offset="0" style="stop-color:#4E91CC"/>
			<stop  offset="1" style="stop-color:#5496CD"/>
		</linearGradient>
		<path class="st7" d="M442.69,600.22c-1.67,1.26-3.04,2.27-4.07,3.01c-1.03,0.75-1.75,1.21-2.18,1.4c-1.29,0.6-2.64,0.89-4.04,0.89
			c-1.12,0-2.15-0.2-3.07-0.6s-1.73-0.97-2.41-1.67c-0.69-0.72-1.21-1.58-1.6-2.59s-0.58-2.15-0.58-3.41c0-1.47,0.29-2.78,0.86-3.93
			c0.58-1.15,1.47-2.21,2.67-3.18c1.21-0.97,2.76-1.84,4.7-2.66c3.01-1.4,6.25-2.73,9.7-3.99v-1.26c0-1.61-0.12-2.95-0.4-4.04
			c-0.26-1.09-0.66-1.95-1.18-2.59c-0.52-0.64-1.15-1.11-1.89-1.37c-0.74-0.26-1.58-0.4-2.52-0.4c-1.5,0-2.69,0.4-3.56,1.21
			c-0.87,0.8-1.3,1.72-1.3,2.73l0.11,2.04c0,1.09-0.28,1.92-0.81,2.49c-0.54,0.58-1.27,0.86-2.18,0.86c-0.87,0-1.6-0.31-2.15-0.92
			c-0.57-0.61-0.84-1.44-0.84-2.49c0-0.98,0.26-1.95,0.78-2.92c0.52-0.97,1.29-1.83,2.3-2.59c1.01-0.77,2.24-1.4,3.7-1.86
			c1.46-0.48,3.12-0.71,5-0.71c2.49,0,4.59,0.37,6.32,1.11c1.73,0.74,2.98,2,3.75,3.78c0.41,1.01,0.63,3.09,0.63,6.19v10.91
			c0,1.86,0.03,3.28,0.08,4.28c0.05,1,0.15,1.72,0.29,2.18c0.14,0.46,0.32,0.72,0.52,0.81c0.21,0.09,0.48,0.14,0.78,0.14
			c0.25,0,0.48-0.03,0.68-0.11c0.21-0.06,0.46-0.21,0.74-0.41c0.28-0.21,0.6-0.49,0.97-0.86c0.37-0.37,0.84-0.84,1.44-1.44v2
			c-2.62,3.5-5.13,5.25-7.51,5.25c-1.12,0-2.03-0.4-2.73-1.18C443.04,603.5,442.69,602.15,442.69,600.22z M442.69,597.91v-12.28
			c-2.46,0.98-5.25,2.24-8.4,3.78c-1.15,0.6-2.06,1.43-2.7,2.52c-0.64,1.09-0.97,2.29-0.97,3.62c0,0.84,0.14,1.61,0.41,2.33
			c0.28,0.72,0.64,1.34,1.11,1.86c0.46,0.52,0.98,0.94,1.6,1.23c0.61,0.29,1.24,0.45,1.92,0.45
			C437.44,601.43,439.78,600.26,442.69,597.91z"/>
		
			<linearGradient id="SVGID_9_" gradientUnits="userSpaceOnUse" x1="493.6634" y1="164.9374" x2="493.6634" y2="234.3351" gradientTransform="matrix(1 0 0 -1 0 792)">
			<stop  offset="0" style="stop-color:#4E91CC"/>
			<stop  offset="1" style="stop-color:#5496CD"/>
		</linearGradient>
		<path class="st8" d="M487.26,578.49c3.75-4.54,7.32-6.82,10.76-6.82c1.18,0,2.29,0.2,3.3,0.6c1.01,0.4,1.9,1.07,2.66,2
			c0.75,0.92,1.34,2.16,1.75,3.73s0.63,3.48,0.63,5.8v13.75c0,1.4,0.08,2.5,0.23,3.3c0.15,0.8,0.41,1.41,0.78,1.81
			c0.37,0.4,0.86,0.66,1.49,0.77c0.63,0.11,1.43,0.15,2.41,0.15v1.26h-15.9v-1.26H496c1.04,0,1.87-0.09,2.49-0.29
			c0.61-0.18,1.06-0.52,1.37-0.97c0.29-0.46,0.49-1.07,0.58-1.86c0.09-0.78,0.14-1.77,0.14-2.92v-13.17c0-2.98-0.38-5.11-1.12-6.4
			c-0.75-1.29-2.04-1.93-3.85-1.93c-2.84,0-5.62,1.52-8.34,4.56v16.95c0,1.37,0.05,2.44,0.14,3.22c0.09,0.78,0.31,1.4,0.66,1.81
			c0.35,0.41,0.87,0.69,1.58,0.81c0.71,0.12,1.66,0.18,2.89,0.18v1.26h-15.95v-1.26h0.68c0.84,0,1.54-0.09,2.07-0.29
			c0.54-0.18,0.97-0.52,1.29-0.97c0.32-0.46,0.54-1.07,0.66-1.86c0.12-0.78,0.18-1.77,0.18-2.92v-11.91c0-2.3-0.03-4.1-0.11-5.36
			c-0.08-1.26-0.2-2.18-0.4-2.75c-0.18-0.58-0.46-0.92-0.78-1.03c-0.34-0.11-0.75-0.15-1.23-0.15c-0.35,0-0.71,0.05-1.07,0.12
			c-0.37,0.09-0.8,0.21-1.29,0.4l-0.52-1.26l9.7-3.93h1.52v6.8H487.26z"/>
		
			<linearGradient id="SVGID_10_" gradientUnits="userSpaceOnUse" x1="549.3845" y1="164.9374" x2="549.3845" y2="234.3351" gradientTransform="matrix(1 0 0 -1 0 792)">
			<stop  offset="0" style="stop-color:#4E91CC"/>
			<stop  offset="1" style="stop-color:#5496CD"/>
		</linearGradient>
		<path class="st9" d="M540.76,584.74c0,2.41,0.32,4.56,0.97,6.45c0.64,1.89,1.5,3.5,2.56,4.82c1.07,1.34,2.3,2.35,3.73,3.04
			c1.41,0.71,2.92,1.04,4.48,1.04c2.1,0,3.93-0.58,5.48-1.73c1.55-1.15,2.86-3.15,3.91-5.99l1.11,0.68
			c-0.25,1.58-0.74,3.12-1.47,4.65c-0.74,1.52-1.67,2.89-2.81,4.1c-1.14,1.21-2.46,2.18-3.96,2.92c-1.5,0.74-3.15,1.11-4.93,1.11
			c-1.92,0-3.73-0.4-5.43-1.18c-1.7-0.78-3.18-1.9-4.45-3.36c-1.27-1.46-2.29-3.21-3.04-5.25c-0.75-2.04-1.14-4.34-1.14-6.91
			c0-2.76,0.38-5.23,1.15-7.4c0.77-2.16,1.81-4.01,3.15-5.51c1.34-1.5,2.89-2.64,4.7-3.41c1.8-0.77,3.75-1.15,5.85-1.15
			c1.78,0,3.42,0.31,4.93,0.92c1.5,0.61,2.81,1.49,3.91,2.62c1.11,1.14,1.96,2.52,2.59,4.11c0.63,1.61,0.95,3.41,0.95,5.4h-22.24
			V584.74z M540.76,582.75h14.91c-0.17-2.98-0.89-5.14-2.12-6.52s-2.86-2.07-4.85-2.07c-0.95,0-1.87,0.2-2.78,0.58
			c-0.91,0.38-1.72,0.95-2.44,1.67c-0.72,0.72-1.32,1.64-1.81,2.7C541.16,580.17,540.87,581.38,540.76,582.75z"/>
	</g>
	
		<linearGradient id="SVGID_11_" gradientUnits="userSpaceOnUse" x1="218.66" y1="545.655" x2="356.624" y2="545.655" gradientTransform="matrix(1 0 0 -1 0 792)">
		<stop  offset="0" style="stop-color:#4A8CCA"/>
		<stop  offset="1" style="stop-color:#91D5E2"/>
	</linearGradient>
	<path class="st10" d="M237.37,387.38c0.71,0.07,1.41,0.13,2.12,0.2c0.75-0.8,1.59-1.53,2.22-2.42
		c37.68-52.84,75.32-105.71,113.07-158.5c2.83-3.96,2.42-6.25-1.35-9.42c-40.69-34.28-81.22-68.76-121.81-103.17
		c-3.63-3.07-7.4-5.98-11.11-8.96c-0.62,0.31-1.24,0.62-1.85,0.93C224.9,199.82,231.14,293.6,237.37,387.38z"/>
	
		<linearGradient id="SVGID_12_" gradientUnits="userSpaceOnUse" x1="240.07" y1="456.9793" x2="365.8587" y2="456.9793" gradientTransform="matrix(1 0 0 -1 0 792)">
		<stop  offset="0" style="stop-color:#4A8CCA"/>
		<stop  offset="1" style="stop-color:#91D5E2"/>
	</linearGradient>
	<path class="st11" d="M240.07,397.17c3.38,1.38,5.18,2.24,7.07,2.86c36.28,11.94,72.56,23.87,108.85,35.74
		c9.28,3.04,10.25,2.07,9.77-7.96c-0.85-17.93-1.73-35.87-2.21-53.81c-1.16-42.87-2.08-85.74-3.19-128.61
		c-0.11-4.1-0.8-8.19-1.22-12.29c-0.55-0.12-1.11-0.23-1.66-0.35C318.56,287.25,279.64,341.76,240.07,397.17z"/>
	
		<linearGradient id="SVGID_13_" gradientUnits="userSpaceOnUse" x1="88.26" y1="511.37" x2="230.9462" y2="511.37" gradientTransform="matrix(1 0 0 -1 0 792)">
		<stop  offset="0" style="stop-color:#4A8CCA"/>
		<stop  offset="1" style="stop-color:#91D5E2"/>
	</linearGradient>
	<path class="st12" d="M89.49,176.06c-0.41,0.58-0.82,1.16-1.23,1.74c46.94,69.13,93.88,138.26,140.83,207.4
		c0.59-0.3,1.18-0.6,1.78-0.89c0-3.3,0.19-6.6-0.03-9.89c-2.55-38.48-5.15-76.97-7.78-115.45c-1.12-16.33-2.56-32.64-3.42-48.98
		c-0.31-5.95-3.13-7.87-8.54-8.96c-33.89-6.84-67.71-14.01-101.56-21.04C102.88,178.6,96.18,177.37,89.49,176.06z"/>
	
		<linearGradient id="SVGID_14_" gradientUnits="userSpaceOnUse" x1="127.89" y1="348.614" x2="352.94" y2="348.614" gradientTransform="matrix(1 0 0 -1 0 792)">
		<stop  offset="0" style="stop-color:#4A8CCA"/>
		<stop  offset="1" style="stop-color:#91D5E2"/>
	</linearGradient>
	<path class="st13" d="M352.94,442.82c0-0.51,0-1.02,0-1.53c-0.97-0.47-1.91-1.06-2.93-1.4c-36.47-12.02-72.91-24.12-109.48-35.8
		c-2.79-0.89-7.19,0.19-9.69,1.97c-27.41,19.56-54.61,39.42-81.82,59.25c-7.11,5.18-14.09,10.54-21.13,15.82
		c0.29,0.62,0.58,1.25,0.88,1.87C203.5,469.61,278.22,456.21,352.94,442.82z"/>
	
		<linearGradient id="SVGID_15_" gradientUnits="userSpaceOnUse" x1="368.3115" y1="417.0006" x2="449.81" y2="417.0006" gradientTransform="matrix(1 0 0 -1 0 792)">
		<stop  offset="0" style="stop-color:#4A8CCA"/>
		<stop  offset="1" style="stop-color:#91D5E2"/>
	</linearGradient>
	<path class="st14" d="M371.64,430.3c0.65,0.29,1.31,0.58,1.96,0.86c25.15-36.01,50.3-72.01,76.21-109.11
		c-3.87-0.37-5.62-0.63-7.38-0.7c-22.21-0.82-44.43-1.51-66.63-2.49c-5.56-0.25-7.64,1.68-7.48,7.3
		c0.73,24.69,1.11,49.39,1.79,74.08C370.39,410.27,371.12,420.28,371.64,430.3z"/>
	
		<linearGradient id="SVGID_16_" gradientUnits="userSpaceOnUse" x1="427.71" y1="442.46" x2="480.97" y2="442.46" gradientTransform="matrix(1 0 0 -1 0 792)">
		<stop  offset="0" style="stop-color:#4A8CCA"/>
		<stop  offset="1" style="stop-color:#91D5E2"/>
	</linearGradient>
	<path class="st15" d="M479.63,374.7c0.45-0.56,0.89-1.12,1.34-1.68c-8.32-15.72-16.64-31.43-25.75-48.64
		c-9.78,13.98-18.25,26.09-27.51,39.32C446.24,367.63,462.93,371.17,479.63,374.7z"/>
	
		<linearGradient id="SVGID_17_" gradientUnits="userSpaceOnUse" x1="218.67" y1="545.655" x2="356.634" y2="545.655" gradientTransform="matrix(1 0 0 -1 0 792)">
		<stop  offset="0" style="stop-color:#4A8CCA"/>
		<stop  offset="1" style="stop-color:#91D5E2"/>
	</linearGradient>
	<path class="st16" d="M237.37,387.38c-6.23-93.78-12.47-187.56-18.7-281.34c0.62-0.31,1.24-0.62,1.85-0.93
		c3.71,2.98,7.48,5.89,11.11,8.96c40.59,34.4,81.12,68.88,121.81,103.17c3.77,3.18,4.18,5.46,1.35,9.42
		c-37.75,52.79-75.39,105.66-113.07,158.5c-0.63,0.88-1.48,1.62-2.22,2.42C238.78,387.52,238.08,387.45,237.37,387.38z"/>
	
		<linearGradient id="SVGID_18_" gradientUnits="userSpaceOnUse" x1="240.07" y1="456.9893" x2="365.8587" y2="456.9893" gradientTransform="matrix(1 0 0 -1 0 792)">
		<stop  offset="0" style="stop-color:#4A8CCA"/>
		<stop  offset="1" style="stop-color:#91D5E2"/>
	</linearGradient>
	<path class="st17" d="M240.07,397.17c39.57-55.41,78.49-109.92,117.41-164.43c0.55,0.12,1.11,0.23,1.66,0.35
		c0.42,4.1,1.11,8.19,1.22,12.29c1.1,42.87,2.02,85.75,3.19,128.61c0.49,17.94,1.36,35.88,2.21,53.81c0.48,10.03-0.49,11-9.77,7.96
		c-36.3-11.87-72.58-23.8-108.85-35.74C245.26,399.41,243.45,398.55,240.07,397.17z"/>
	
		<linearGradient id="SVGID_19_" gradientUnits="userSpaceOnUse" x1="88.26" y1="511.37" x2="230.9462" y2="511.37" gradientTransform="matrix(1 0 0 -1 0 792)">
		<stop  offset="0" style="stop-color:#4A8CCA"/>
		<stop  offset="1" style="stop-color:#91D5E2"/>
	</linearGradient>
	<path class="st18" d="M89.49,176.06c6.69,1.3,13.39,2.54,20.05,3.93c33.85,7.03,67.67,14.19,101.56,21.04
		c5.41,1.09,8.23,3.01,8.54,8.96c0.86,16.34,2.3,32.65,3.42,48.98c2.63,38.48,5.22,76.96,7.78,115.45c0.22,3.28,0.03,6.59,0.03,9.89
		c-0.59,0.3-1.18,0.6-1.78,0.89c-46.94-69.13-93.88-138.26-140.83-207.4C88.67,177.22,89.08,176.64,89.49,176.06z"/>
	
		<linearGradient id="SVGID_20_" gradientUnits="userSpaceOnUse" x1="127.9" y1="348.614" x2="352.95" y2="348.614" gradientTransform="matrix(1 0 0 -1 0 792)">
		<stop  offset="0" style="stop-color:#4A8CCA"/>
		<stop  offset="1" style="stop-color:#91D5E2"/>
	</linearGradient>
	<path class="st19" d="M352.94,442.82C278.22,456.21,203.5,469.61,128.78,483c-0.29-0.62-0.58-1.25-0.88-1.87
		c7.04-5.28,14.02-10.64,21.13-15.82c27.22-19.83,54.41-39.69,81.82-59.25c2.5-1.78,6.91-2.86,9.69-1.97
		c36.57,11.69,73.01,23.79,109.48,35.8c1.02,0.34,1.95,0.93,2.93,1.4C352.95,441.8,352.94,442.31,352.94,442.82z"/>
	
		<linearGradient id="SVGID_21_" gradientUnits="userSpaceOnUse" x1="368.3204" y1="416.9906" x2="449.82" y2="416.9906" gradientTransform="matrix(1 0 0 -1 0 792)">
		<stop  offset="0" style="stop-color:#4A8CCA"/>
		<stop  offset="1" style="stop-color:#91D5E2"/>
	</linearGradient>
	<path class="st20" d="M371.64,430.3c-0.52-10.02-1.24-20.03-1.52-30.05c-0.68-24.69-1.06-49.39-1.79-74.08
		c-0.17-5.62,1.91-7.55,7.48-7.3c22.2,0.98,44.42,1.67,66.63,2.49c1.76,0.06,3.51,0.33,7.38,0.7
		c-25.92,37.1-51.06,73.11-76.21,109.11C372.94,430.87,372.29,430.59,371.64,430.3z"/>
	
		<linearGradient id="SVGID_22_" gradientUnits="userSpaceOnUse" x1="427.71" y1="442.455" x2="480.97" y2="442.455" gradientTransform="matrix(1 0 0 -1 0 792)">
		<stop  offset="0" style="stop-color:#4A8CCA"/>
		<stop  offset="1" style="stop-color:#91D5E2"/>
	</linearGradient>
	<path class="st21" d="M479.63,374.7c-16.7-3.54-33.4-7.07-51.92-10.99c9.26-13.23,17.73-25.34,27.51-39.32
		c9.11,17.2,17.43,32.92,25.75,48.64C480.52,373.59,480.08,374.15,479.63,374.7z"/>
</g>
</svg>
