<?xml version="1.0" encoding="utf-8"?>
<!-- Generator: Adobe Illustrator 25.2.0, SVG Export Plug-In . SVG Version: 6.00 Build 0)  -->
<svg version="1.1" id="Layer_1" xmlns="http://www.w3.org/2000/svg" xmlns:xlink="http://www.w3.org/1999/xlink" x="0px" y="0px"
	 viewBox="0 0 612 792" style="enable-background:new 0 0 612 792;" xml:space="preserve">
<style type="text/css">
	.st0{fill:none;stroke:#FFFFFF;stroke-width:2;stroke-miterlimit:10;}
	.st1{fill:url(#SVGID_1_);}
	.st2{fill:url(#SVGID_2_);}
	.st3{fill:url(#SVGID_3_);}
	.st4{fill:url(#SVGID_4_);}
	.st5{fill:url(#SVGID_5_);}
	.st6{fill:url(#SVGID_6_);}
	.st7{fill:url(#SVGID_7_);}
	.st8{fill:url(#SVGID_8_);}
	.st9{fill:url(#SVGID_9_);}
	.st10{fill:url(#SVGID_10_);}
	.st11{fill:url(#SVGID_11_);}
	.st12{fill:url(#SVGID_12_);}
	.st13{fill:url(#SVGID_13_);}
	.st14{fill:url(#SVGID_14_);}
	.st15{fill:url(#SVGID_15_);}
	.st16{fill:url(#SVGID_16_);}
	.st17{fill:url(#SVGID_17_);}
	.st18{fill:url(#SVGID_18_);}
	.st19{fill:url(#SVGID_19_);}
	.st20{fill:url(#SVGID_20_);}
	.st21{fill:url(#SVGID_21_);}
	.st22{fill:url(#SVGID_22_);}
	.st23{fill:url(#SVGID_23_);}
	.st24{fill:url(#SVGID_24_);}
</style>
<g id="Layer_2_1_">
</g>
<g id="Layer_3">
	<g>
		<path class="st0" d="M62.5,582.5v13.8c0,3,0.3,4.9,1,5.6c0.9,1,2.3,1.5,4,1.5h1.8v1.3H49v-1.3h1.8c2,0,3.4-0.6,4.3-1.9
			c0.5-0.8,0.7-2.5,0.7-5.2v-30.8c0-3-0.3-4.8-1-5.6c-1-1-2.3-1.6-4.1-1.6H49v-1.3h17.5c4.2,0,7.6,0.5,10.1,1.4
			c1.2,0.4,2.4,1,3.4,1.8c1.1,0.8,2,1.6,2.8,2.7c0.8,1,1.4,2.2,1.9,3.4c0.5,1.2,0.7,2.6,0.7,4c0,1.9-0.3,3.7-1,5.3
			c-0.7,1.6-1.6,3-2.9,4.1s-2.8,2.1-4.6,2.7s-3.9,1-6.2,1C68.3,583.5,65.6,583.2,62.5,582.5z M62.5,580.5c1.3,0.2,2.4,0.4,3.3,0.5
			s1.8,0.2,2.5,0.2c1.2,0,2.4-0.3,3.5-0.8c1.1-0.5,2-1.2,2.9-2.1c0.8-0.9,1.5-2,1.9-3.2c0.5-1.3,0.7-2.6,0.7-4.1
			c0-1.8-0.3-3.3-0.8-4.7s-1.2-2.5-2.2-3.5c-0.9-1-2-1.7-3.2-2.2c-1.2-0.5-2.6-0.7-4-0.7c-1.2,0-2.7,0.2-4.6,0.6L62.5,580.5
			L62.5,580.5z"/>
		<path class="st0" d="M129.9,600.2c-1.7,1.3-3,2.3-4.1,3c-1,0.8-1.8,1.2-2.2,1.4c-1.3,0.6-2.6,0.9-4,0.9c-1.1,0-2.2-0.2-3.1-0.6
			s-1.7-1-2.4-1.7c-0.7-0.7-1.2-1.6-1.6-2.6c-0.4-1-0.6-2.2-0.6-3.4c0-1.5,0.3-2.8,0.9-3.9c0.6-1.2,1.5-2.2,2.7-3.2
			c1.2-1,2.8-1.8,4.7-2.7c3-1.4,6.2-2.7,9.7-4v-1.3c0-1.6-0.1-3-0.4-4c-0.3-1.1-0.7-2-1.2-2.6c-0.5-0.6-1.2-1.1-1.9-1.4
			s-1.6-0.4-2.5-0.4c-1.5,0-2.7,0.4-3.6,1.2c-0.9,0.8-1.3,1.7-1.3,2.7l0.1,2c0,1.1-0.3,1.9-0.8,2.5c-0.5,0.6-1.3,0.9-2.2,0.9
			c-0.9,0-1.6-0.3-2.2-0.9s-0.8-1.4-0.8-2.5c0-1,0.3-2,0.8-2.9s1.3-1.8,2.3-2.6c1-0.8,2.2-1.4,3.7-1.9c1.5-0.5,3.1-0.7,5-0.7
			c2.5,0,4.6,0.4,6.3,1.1s3,2,3.8,3.8c0.4,1,0.6,3.1,0.6,6.2v10.9c0,1.9,0,3.3,0.1,4.3s0.1,1.7,0.3,2.2s0.3,0.7,0.5,0.8
			c0.2,0.1,0.5,0.1,0.8,0.1c0.2,0,0.5,0,0.7-0.1c0.2-0.1,0.5-0.2,0.7-0.4c0.3-0.2,0.6-0.5,1-0.9s0.8-0.8,1.4-1.4v2
			c-2.6,3.5-5.1,5.2-7.5,5.2c-1.1,0-2-0.4-2.7-1.2C130.2,603.5,129.9,602.2,129.9,600.2z M129.9,597.9v-12.3c-2.5,1-5.2,2.2-8.4,3.8
			c-1.2,0.6-2.1,1.4-2.7,2.5s-1,2.3-1,3.6c0,0.8,0.1,1.6,0.4,2.3c0.3,0.7,0.6,1.3,1.1,1.9c0.5,0.5,1,0.9,1.6,1.2
			c0.6,0.3,1.2,0.5,1.9,0.5C124.6,601.4,126.9,600.3,129.9,597.9z"/>
		<path class="st0" d="M162.7,575.8l9.9-4h1.3v7.5c1.7-2.8,3.4-4.8,5-6c1.7-1.1,3.4-1.7,5.3-1.7c1.8,0,3.5,0.4,5,1.3s2.8,2,3.8,3.4
			c1,1.5,1.9,3.2,2.4,5.1s0.9,4,0.9,6.1c0,2.5-0.3,4.8-1,7c-0.7,2.2-1.7,4.1-2.9,5.8c-1.3,1.7-2.8,3-4.6,4c-1.8,1-3.9,1.5-6.1,1.5
			c-0.8,0-1.5,0-2.2-0.1s-1.3-0.2-1.9-0.4c-0.6-0.2-1.2-0.5-1.8-0.9c-0.6-0.4-1.2-0.9-1.9-1.5v9.8c0,1.2,0,2.1,0.1,2.7
			c0.1,0.7,0.2,1.2,0.3,1.6c0.1,0.4,0.3,0.7,0.6,0.8c0.2,0.2,0.5,0.3,0.8,0.5c0.7,0.3,1.9,0.5,3.7,0.5v1.3h-16.9V619h0.9
			c0.8,0,1.5,0,2-0.1c0.6-0.1,1.1-0.3,1.5-0.7c0.4-0.4,0.7-1.1,0.9-1.9s0.3-2.1,0.3-3.7v-30.4c0-1.2-0.1-2.2-0.1-3s-0.2-1.3-0.4-1.7
			c-0.2-0.4-0.5-0.7-0.9-0.8c-0.4-0.1-0.8-0.2-1.4-0.2c-0.3,0-0.6,0-1,0.1c-0.4,0.1-0.8,0.2-1.2,0.4L162.7,575.8z M173.9,581.4v12
			c0,2.6,0.1,4.3,0.3,5.1c0.1,0.7,0.4,1.3,0.8,2c0.4,0.6,0.9,1.2,1.6,1.6s1.4,0.8,2.2,1.1c0.8,0.3,1.7,0.4,2.7,0.4
			c1.4,0,2.6-0.3,3.6-1c1.1-0.6,2-1.5,2.7-2.7c0.7-1.1,1.3-2.5,1.7-4.1c0.4-1.6,0.6-3.3,0.6-5.1c0-2-0.2-3.9-0.6-5.6
			c-0.4-1.7-1-3.2-1.7-4.5c-0.8-1.3-1.7-2.2-2.7-3c-1.1-0.7-2.2-1.1-3.6-1.1c-0.5,0-1,0-1.5,0.1s-0.9,0.2-1.5,0.5
			c-0.5,0.3-1.1,0.7-1.9,1.4C175.9,579.4,175,580.3,173.9,581.4z"/>
		<path class="st0" d="M227.9,584.7c0,2.4,0.3,4.6,1,6.5c0.6,1.9,1.5,3.5,2.6,4.8c1.1,1.3,2.3,2.3,3.7,3c1.4,0.7,2.9,1,4.5,1
			c2.1,0,3.9-0.6,5.5-1.7c1.6-1.2,2.9-3.2,3.9-6l1.1,0.7c-0.2,1.6-0.7,3.1-1.5,4.7c-0.7,1.5-1.7,2.9-2.8,4.1c-1.1,1.2-2.5,2.2-4,2.9
			s-3.1,1.1-4.9,1.1c-1.9,0-3.7-0.4-5.4-1.2c-1.7-0.8-3.2-1.9-4.5-3.4c-1.3-1.5-2.3-3.2-3-5.2s-1.1-4.3-1.1-6.9
			c0-2.8,0.4-5.2,1.1-7.4c0.8-2.2,1.8-4,3.1-5.5s2.9-2.6,4.7-3.4s3.8-1.2,5.9-1.2c1.8,0,3.4,0.3,4.9,0.9c1.5,0.6,2.8,1.5,3.9,2.6
			c1.1,1.1,2,2.5,2.6,4.1c0.6,1.6,0.9,3.4,0.9,5.4L227.9,584.7L227.9,584.7L227.9,584.7z M227.9,582.8h14.9c-0.2-3-0.9-5.1-2.1-6.5
			c-1.2-1.4-2.9-2.1-4.9-2.1c-0.9,0-1.9,0.2-2.8,0.6s-1.7,1-2.4,1.7c-0.7,0.7-1.3,1.6-1.8,2.7C228.3,580.2,228,581.4,227.9,582.8z"
			/>
		<path class="st0" d="M285.4,571.7v7.2c2.7-4.8,5.5-7.2,8.3-7.2c0.6,0,1.2,0.1,1.8,0.3c0.5,0.2,1,0.5,1.4,0.9s0.7,0.8,1,1.3
			s0.3,1,0.3,1.5c0,0.9-0.3,1.7-0.9,2.3c-0.6,0.6-1.3,1-2.2,1c-0.4,0-0.8-0.1-1.3-0.4s-1-0.5-1.5-0.8c-0.5-0.3-0.9-0.6-1.3-0.8
			s-0.7-0.4-0.9-0.4c-0.6,0-1.4,0.5-2.2,1.5s-1.7,2.3-2.5,3.9v15.5c0,1,0.1,1.8,0.2,2.6s0.4,1.4,0.8,2c0.4,0.5,1,1,1.7,1.3
			c0.8,0.3,1.8,0.5,3,0.5v1.3h-16.5v-1.3c1,0,1.9-0.1,2.5-0.2c0.6-0.1,1.2-0.4,1.5-0.8c0.4-0.4,0.6-1,0.8-1.8
			c0.1-0.8,0.2-1.8,0.2-3.1v-12.5c0-1.9,0-3.4-0.1-4.5s-0.1-1.8-0.2-2.2c-0.4-1.4-1.1-2.1-2.4-2.1c-0.4,0-0.8,0-1.1,0.1
			c-0.4,0.1-0.8,0.2-1.3,0.4l-0.3-1.3l9.7-3.9L285.4,571.7L285.4,571.7L285.4,571.7z"/>
		<path class="st0" d="M333.9,582.5v13.8c0,3,0.3,4.9,1,5.6c0.9,1,2.3,1.5,4,1.5h1.8v1.3h-20.4v-1.3h1.8c2,0,3.4-0.6,4.3-1.9
			c0.5-0.8,0.7-2.5,0.7-5.2v-30.8c0-3-0.3-4.8-1-5.6c-1-1-2.3-1.6-4.1-1.6h-1.8v-1.3h17.5c4.2,0,7.5,0.5,10.1,1.4
			c1.2,0.4,2.4,1,3.4,1.8c1.1,0.8,2,1.6,2.8,2.7s1.4,2.2,1.9,3.4c0.5,1.2,0.7,2.6,0.7,4c0,1.9-0.3,3.7-1,5.3c-0.7,1.6-1.6,3-2.9,4.1
			s-2.8,2.1-4.6,2.7s-3.9,1-6.2,1C339.7,583.5,337,583.2,333.9,582.5z M333.9,580.5c1.3,0.2,2.4,0.4,3.3,0.5s1.8,0.2,2.5,0.2
			c1.2,0,2.4-0.3,3.5-0.8s2-1.2,2.9-2.1c0.8-0.9,1.5-2,1.9-3.2c0.5-1.3,0.7-2.6,0.7-4.1c0-1.8-0.3-3.3-0.8-4.7s-1.2-2.5-2.1-3.5
			c-0.9-1-2-1.7-3.2-2.2c-1.2-0.5-2.5-0.7-4-0.7c-1.2,0-2.7,0.2-4.6,0.6L333.9,580.5L333.9,580.5z"/>
		<path class="st0" d="M394,554.8v42.7c0,1.5,0.1,2.6,0.2,3.4c0.1,0.8,0.4,1.4,0.8,1.8c0.4,0.4,0.9,0.6,1.6,0.7
			c0.7,0.1,1.5,0.1,2.5,0.1v1.3h-15.8v-1.3c1,0,1.9-0.1,2.5-0.2c0.6-0.2,1.1-0.5,1.4-0.9c0.3-0.5,0.5-1.1,0.7-1.9
			c0.1-0.8,0.1-1.8,0.1-3v-29.2c0-2.2,0-3.9-0.1-5.1c-0.1-1.2-0.2-2.1-0.4-2.7c-0.2-0.5-0.5-0.9-0.8-1c-0.3-0.1-0.7-0.1-1.1-0.1
			c-0.7,0-1.4,0.2-2.3,0.6l-0.6-1.3l9.6-3.9L394,554.8L394,554.8L394,554.8z"/>
		<path class="st0" d="M442.7,600.2c-1.7,1.3-3,2.3-4.1,3c-1,0.8-1.8,1.2-2.2,1.4c-1.3,0.6-2.6,0.9-4,0.9c-1.1,0-2.1-0.2-3.1-0.6
			s-1.7-1-2.4-1.7c-0.7-0.7-1.2-1.6-1.6-2.6s-0.6-2.2-0.6-3.4c0-1.5,0.3-2.8,0.9-3.9c0.6-1.2,1.5-2.2,2.7-3.2c1.2-1,2.8-1.8,4.7-2.7
			c3-1.4,6.2-2.7,9.7-4v-1.3c0-1.6-0.1-3-0.4-4c-0.3-1.1-0.7-2-1.2-2.6s-1.1-1.1-1.9-1.4c-0.7-0.3-1.6-0.4-2.5-0.4
			c-1.5,0-2.7,0.4-3.6,1.2c-0.9,0.8-1.3,1.7-1.3,2.7l0.1,2c0,1.1-0.3,1.9-0.8,2.5c-0.5,0.6-1.3,0.9-2.2,0.9c-0.9,0-1.6-0.3-2.1-0.9
			c-0.6-0.6-0.8-1.4-0.8-2.5c0-1,0.3-2,0.8-2.9s1.3-1.8,2.3-2.6c1-0.8,2.2-1.4,3.7-1.9c1.5-0.5,3.1-0.7,5-0.7c2.5,0,4.6,0.4,6.3,1.1
			s3,2,3.8,3.8c0.4,1,0.6,3.1,0.6,6.2v10.9c0,1.9,0,3.3,0.1,4.3s0.1,1.7,0.3,2.2s0.3,0.7,0.5,0.8c0.2,0.1,0.5,0.1,0.8,0.1
			c0.2,0,0.5,0,0.7-0.1c0.2-0.1,0.5-0.2,0.7-0.4c0.3-0.2,0.6-0.5,1-0.9s0.8-0.8,1.4-1.4v2c-2.6,3.5-5.1,5.2-7.5,5.2
			c-1.1,0-2-0.4-2.7-1.2C443,603.5,442.7,602.2,442.7,600.2z M442.7,597.9v-12.3c-2.5,1-5.2,2.2-8.4,3.8c-1.1,0.6-2.1,1.4-2.7,2.5
			s-1,2.3-1,3.6c0,0.8,0.1,1.6,0.4,2.3c0.3,0.7,0.6,1.3,1.1,1.9c0.5,0.5,1,0.9,1.6,1.2c0.6,0.3,1.2,0.5,1.9,0.5
			C437.4,601.4,439.8,600.3,442.7,597.9z"/>
		<path class="st0" d="M487.3,578.5c3.8-4.5,7.3-6.8,10.8-6.8c1.2,0,2.3,0.2,3.3,0.6c1,0.4,1.9,1.1,2.7,2c0.8,0.9,1.3,2.2,1.8,3.7
			s0.6,3.5,0.6,5.8v13.8c0,1.4,0.1,2.5,0.2,3.3c0.1,0.8,0.4,1.4,0.8,1.8s0.9,0.7,1.5,0.8c0.6,0.1,1.4,0.2,2.4,0.2v1.3h-15.9v-1.3
			h0.6c1,0,1.9-0.1,2.5-0.3c0.6-0.2,1.1-0.5,1.4-1c0.3-0.5,0.5-1.1,0.6-1.9c0.1-0.8,0.1-1.8,0.1-2.9v-13.2c0-3-0.4-5.1-1.1-6.4
			c-0.8-1.3-2-1.9-3.9-1.9c-2.8,0-5.6,1.5-8.3,4.6v17c0,1.4,0,2.4,0.1,3.2c0.1,0.8,0.3,1.4,0.7,1.8s0.9,0.7,1.6,0.8s1.7,0.2,2.9,0.2
			v1.3h-16v-1.3h0.7c0.8,0,1.5-0.1,2.1-0.3c0.5-0.2,1-0.5,1.3-1c0.3-0.5,0.5-1.1,0.7-1.9c0.1-0.8,0.2-1.8,0.2-2.9v-11.9
			c0-2.3,0-4.1-0.1-5.4s-0.2-2.2-0.4-2.8c-0.2-0.6-0.5-0.9-0.8-1c-0.3-0.1-0.8-0.2-1.2-0.2c-0.4,0-0.7,0-1.1,0.1
			c-0.4,0.1-0.8,0.2-1.3,0.4l-0.5-1.3l9.7-3.9h1.5L487.3,578.5L487.3,578.5L487.3,578.5z"/>
		<path class="st0" d="M540.8,584.7c0,2.4,0.3,4.6,1,6.5c0.6,1.9,1.5,3.5,2.6,4.8c1.1,1.3,2.3,2.3,3.7,3c1.4,0.7,2.9,1,4.5,1
			c2.1,0,3.9-0.6,5.5-1.7c1.5-1.2,2.9-3.2,3.9-6l1.1,0.7c-0.2,1.6-0.7,3.1-1.5,4.7c-0.7,1.5-1.7,2.9-2.8,4.1c-1.1,1.2-2.5,2.2-4,2.9
			s-3.2,1.1-4.9,1.1c-1.9,0-3.7-0.4-5.4-1.2c-1.7-0.8-3.2-1.9-4.5-3.4c-1.3-1.5-2.3-3.2-3-5.2s-1.1-4.3-1.1-6.9
			c0-2.8,0.4-5.2,1.2-7.4c0.8-2.2,1.8-4,3.2-5.5s2.9-2.6,4.7-3.4c1.8-0.8,3.8-1.2,5.8-1.2c1.8,0,3.4,0.3,4.9,0.9
			c1.5,0.6,2.8,1.5,3.9,2.6c1.1,1.1,2,2.5,2.6,4.1c0.6,1.6,1,3.4,1,5.4L540.8,584.7L540.8,584.7L540.8,584.7z M540.8,582.8h14.9
			c-0.2-3-0.9-5.1-2.1-6.5s-2.9-2.1-4.8-2.1c-1,0-1.9,0.2-2.8,0.6c-0.9,0.4-1.7,1-2.4,1.7c-0.7,0.7-1.3,1.6-1.8,2.7
			C541.2,580.2,540.9,581.4,540.8,582.8z"/>
	</g>
	<linearGradient id="SVGID_1_" gradientUnits="userSpaceOnUse" x1="405.0703" y1="355.3306" x2="492.9068" y2="355.3306">
		<stop  offset="0" style="stop-color:#FFFFFF"/>
		<stop  offset="1" style="stop-color:#FFFFFF;stop-opacity:0.5"/>
	</linearGradient>
	<path class="st1" d="M417,445.1c0.5,0,0.9,0.1,1.3,0.1c0.5-0.5,1-1,1.4-1.5c24-33.6,48-67.3,72-100.9c1.8-2.5,1.5-4-0.9-6
		C465,315,439.2,293,413.3,271.1c-2.3-2-4.7-3.8-7.1-5.7c-0.4,0.2-0.8,0.4-1.2,0.6C409,325.7,413,385.4,417,445.1z"/>
	<linearGradient id="SVGID_2_" gradientUnits="userSpaceOnUse" x1="418.7012" y1="411.7871" x2="498.7862" y2="411.7871">
		<stop  offset="0" style="stop-color:#FFFFFF"/>
		<stop  offset="1" style="stop-color:#FFFFFF;stop-opacity:0.5"/>
	</linearGradient>
	<path class="st2" d="M418.7,451.4c2.2,0.9,3.3,1.4,4.5,1.8c23.1,7.6,46.2,15.2,69.3,22.8c5.9,1.9,6.5,1.3,6.2-5.1
		c-0.5-11.4-1.1-22.8-1.4-34.3c-0.7-27.3-1.3-54.6-2-81.9c-0.1-2.6-0.5-5.2-0.8-7.8c-0.4-0.1-0.7-0.1-1.1-0.2
		C468.7,381.4,443.9,416.1,418.7,451.4z"/>
	<linearGradient id="SVGID_3_" gradientUnits="userSpaceOnUse" x1="322.0495" y1="377.1586" x2="412.8925" y2="377.1586">
		<stop  offset="0" style="stop-color:#FFFFFF"/>
		<stop  offset="1" style="stop-color:#FFFFFF;stop-opacity:0.5"/>
	</linearGradient>
	<path class="st3" d="M322.8,310.6c-0.3,0.4-0.5,0.7-0.8,1.1c29.9,44,59.8,88,89.7,132c0.4-0.2,0.8-0.4,1.1-0.6c0-2.1,0.1-4.2,0-6.3
		c-1.6-24.5-3.3-49-5-73.5c-0.7-10.4-1.6-20.8-2.2-31.2c-0.2-3.8-2-5-5.4-5.7c-21.6-4.4-43.1-8.9-64.7-13.4
		C331.4,312.2,327.1,311.4,322.8,310.6z"/>
	<linearGradient id="SVGID_4_" gradientUnits="userSpaceOnUse" x1="347.2804" y1="480.7792" x2="490.5613" y2="480.7792">
		<stop  offset="0" style="stop-color:#FFFFFF"/>
		<stop  offset="1" style="stop-color:#FFFFFF;stop-opacity:0.5"/>
	</linearGradient>
	<path class="st4" d="M490.6,480.4c0-0.3,0-0.6,0-1c-0.6-0.3-1.2-0.7-1.9-0.9c-23.2-7.7-46.4-15.4-69.7-22.8
		c-1.8-0.6-4.6,0.1-6.2,1.3c-17.5,12.5-34.8,25.1-52.1,37.7c-4.5,3.3-9,6.7-13.5,10.1c0.2,0.4,0.4,0.8,0.6,1.2
		C395.4,497.5,443,488.9,490.6,480.4z"/>
	<linearGradient id="SVGID_5_" gradientUnits="userSpaceOnUse" x1="500.3478" y1="437.2401" x2="552.2349" y2="437.2401">
		<stop  offset="0" style="stop-color:#FFFFFF"/>
		<stop  offset="1" style="stop-color:#FFFFFF;stop-opacity:0.5"/>
	</linearGradient>
	<path class="st5" d="M502.5,472.4c0.4,0.2,0.8,0.4,1.2,0.5c16-22.9,32-45.8,48.5-69.5c-2.5-0.2-3.6-0.4-4.7-0.4
		c-14.1-0.5-28.3-1-42.4-1.6c-3.5-0.2-4.9,1.1-4.8,4.6c0.5,15.7,0.7,31.4,1.1,47.2C501.7,459.7,502.1,466.1,502.5,472.4z"/>
	<linearGradient id="SVGID_6_" gradientUnits="userSpaceOnUse" x1="538.1646" y1="421.031" x2="572.0732" y2="421.031">
		<stop  offset="0" style="stop-color:#FFFFFF"/>
		<stop  offset="1" style="stop-color:#FFFFFF;stop-opacity:0.5"/>
	</linearGradient>
	<path class="st6" d="M571.2,437c0.3-0.4,0.6-0.7,0.9-1.1c-5.3-10-10.6-20-16.4-31c-6.2,8.9-11.6,16.6-17.5,25
		C550,432.5,560.6,434.8,571.2,437z"/>
	<linearGradient id="SVGID_7_" gradientUnits="userSpaceOnUse" x1="405.0767" y1="355.3306" x2="492.9132" y2="355.3306">
		<stop  offset="0" style="stop-color:#FFFFFF"/>
		<stop  offset="1" style="stop-color:#FFFFFF;stop-opacity:0.5"/>
	</linearGradient>
	<path class="st7" d="M417,445.1c-4-59.7-7.9-119.4-11.9-179.1c0.4-0.2,0.8-0.4,1.2-0.6c2.4,1.9,4.8,3.7,7.1,5.7
		c25.8,21.9,51.6,43.9,77.6,65.7c2.4,2,2.7,3.5,0.9,6c-24,33.6-48,67.3-72,100.9c-0.4,0.6-0.9,1-1.4,1.5
		C417.9,445.2,417.4,445.2,417,445.1z"/>
	<linearGradient id="SVGID_8_" gradientUnits="userSpaceOnUse" x1="418.7012" y1="411.7807" x2="498.7862" y2="411.7807">
		<stop  offset="0" style="stop-color:#FFFFFF"/>
		<stop  offset="1" style="stop-color:#FFFFFF;stop-opacity:0.5"/>
	</linearGradient>
	<path class="st8" d="M418.7,451.4c25.2-35.3,50-70,74.8-104.7c0.4,0.1,0.7,0.1,1.1,0.2c0.3,2.6,0.7,5.2,0.8,7.8
		c0.7,27.3,1.3,54.6,2,81.9c0.3,11.4,0.9,22.8,1.4,34.3c0.3,6.4-0.3,7-6.2,5.1c-23.1-7.6-46.2-15.2-69.3-22.8
		C422,452.8,420.9,452.2,418.7,451.4z"/>
	<linearGradient id="SVGID_9_" gradientUnits="userSpaceOnUse" x1="322.0495" y1="377.1586" x2="412.8925" y2="377.1586">
		<stop  offset="0" style="stop-color:#FFFFFF"/>
		<stop  offset="1" style="stop-color:#FFFFFF;stop-opacity:0.5"/>
	</linearGradient>
	<path class="st9" d="M322.8,310.6c4.3,0.8,8.5,1.6,12.8,2.5c21.6,4.5,43.1,9,64.7,13.4c3.4,0.7,5.2,1.9,5.4,5.7
		c0.5,10.4,1.5,20.8,2.2,31.2c1.7,24.5,3.3,49,5,73.5c0.1,2.1,0,4.2,0,6.3c-0.4,0.2-0.8,0.4-1.1,0.6c-29.9-44-59.8-88-89.7-132
		C322.3,311.3,322.6,311,322.8,310.6z"/>
	<linearGradient id="SVGID_10_" gradientUnits="userSpaceOnUse" x1="347.2868" y1="480.7792" x2="490.5677" y2="480.7792">
		<stop  offset="0" style="stop-color:#FFFFFF"/>
		<stop  offset="1" style="stop-color:#FFFFFF;stop-opacity:0.5"/>
	</linearGradient>
	<path class="st10" d="M490.6,480.4c-47.6,8.5-95.1,17.1-142.7,25.6c-0.2-0.4-0.4-0.8-0.6-1.2c4.5-3.4,8.9-6.8,13.5-10.1
		c17.3-12.6,34.6-25.3,52.1-37.7c1.6-1.1,4.4-1.8,6.2-1.3c23.3,7.4,46.5,15.1,69.7,22.8c0.6,0.2,1.2,0.6,1.9,0.9
		C490.6,479.8,490.6,480.1,490.6,480.4z"/>
	<linearGradient id="SVGID_11_" gradientUnits="userSpaceOnUse" x1="500.3535" y1="437.2464" x2="552.2413" y2="437.2464">
		<stop  offset="0" style="stop-color:#FFFFFF"/>
		<stop  offset="1" style="stop-color:#FFFFFF;stop-opacity:0.5"/>
	</linearGradient>
	<path class="st11" d="M502.5,472.4c-0.3-6.4-0.8-12.8-1-19.1c-0.4-15.7-0.7-31.4-1.1-47.2c-0.1-3.6,1.2-4.8,4.8-4.6
		c14.1,0.6,28.3,1.1,42.4,1.6c1.1,0,2.2,0.2,4.7,0.4c-16.5,23.6-32.5,46.5-48.5,69.5C503.3,472.8,502.9,472.6,502.5,472.4z"/>
	<linearGradient id="SVGID_12_" gradientUnits="userSpaceOnUse" x1="538.1646" y1="421.0342" x2="572.0733" y2="421.0342">
		<stop  offset="0" style="stop-color:#FFFFFF"/>
		<stop  offset="1" style="stop-color:#FFFFFF;stop-opacity:0.5"/>
	</linearGradient>
	<path class="st12" d="M571.2,437c-10.6-2.3-21.3-4.5-33.1-7c5.9-8.4,11.3-16.1,17.5-25c5.8,11,11.1,21,16.4,31
		C571.8,436.3,571.5,436.7,571.2,437z"/>
</g>
<linearGradient id="SVGID_13_" gradientUnits="userSpaceOnUse" x1="-445.4894" y1="219.5865" x2="-357.6529" y2="219.5865" gradientTransform="matrix(-1.4378 0 0 1 -379.0512 0)">
	<stop  offset="0" style="stop-color:#FFFFFF"/>
	<stop  offset="1" style="stop-color:#FFFFFF;stop-opacity:0.5"/>
</linearGradient>
<path class="st13" d="M244.4,346.7c-0.6,0.1-1.3,0.1-1.9,0.2c-0.7-0.7-1.5-1.4-2-2.2c-34.5-47.6-68.9-95.3-103.5-142.8
	c-2.6-3.6-2.2-5.6,1.2-8.5c37.2-30.9,74.3-62,111.5-93c3.3-2.8,6.8-5.4,10.2-8.1c0.6,0.3,1.1,0.6,1.7,0.8
	C255.8,177.7,250.1,262.2,244.4,346.7z"/>
<linearGradient id="SVGID_14_" gradientUnits="userSpaceOnUse" x1="-431.8585" y1="299.5017" x2="-351.7735" y2="299.5017" gradientTransform="matrix(-1.4378 0 0 1 -379.0512 0)">
	<stop  offset="0" style="stop-color:#FFFFFF"/>
	<stop  offset="1" style="stop-color:#FFFFFF;stop-opacity:0.5"/>
</linearGradient>
<path class="st14" d="M241.9,355.5c-3.1,1.2-4.7,2-6.5,2.6c-33.2,10.8-66.4,21.5-99.6,32.2c-8.5,2.7-9.4,1.9-8.9-7.2
	c0.8-16.2,1.6-32.3,2-48.5c1.1-38.6,1.9-77.3,2.9-115.9c0.1-3.7,0.7-7.4,1.1-11.1c0.5-0.1,1-0.2,1.5-0.3
	C170,256.5,205.7,305.6,241.9,355.5z"/>
<linearGradient id="SVGID_15_" gradientUnits="userSpaceOnUse" x1="-528.5103" y1="250.4844" x2="-437.6672" y2="250.4844" gradientTransform="matrix(-1.4378 0 0 1 -379.0512 0)">
	<stop  offset="0" style="stop-color:#FFFFFF"/>
	<stop  offset="1" style="stop-color:#FFFFFF;stop-opacity:0.5"/>
</linearGradient>
<path class="st15" d="M379.7,156.2c0.4,0.5,0.8,1,1.1,1.6c-43,62.3-85.9,124.6-128.9,186.9c-0.5-0.3-1.1-0.5-1.6-0.8
	c0-3-0.2-5.9,0-8.9c2.3-34.7,4.7-69.4,7.1-104c1-14.7,2.3-29.4,3.1-44.1c0.3-5.4,2.9-7.1,7.8-8.1c31-6.2,62-12.6,93-19
	C367.5,158.5,373.6,157.4,379.7,156.2z"/>
<linearGradient id="SVGID_16_" gradientUnits="userSpaceOnUse" x1="-503.2793" y1="397.1614" x2="-359.9984" y2="397.1614" gradientTransform="matrix(-1.4378 0 0 1 -379.0512 0)">
	<stop  offset="0" style="stop-color:#FFFFFF"/>
	<stop  offset="1" style="stop-color:#FFFFFF;stop-opacity:0.5"/>
</linearGradient>
<path class="st16" d="M138.6,396.7c0-0.5,0-0.9,0-1.4c0.9-0.4,1.7-1,2.7-1.3c33.4-10.8,66.7-21.7,100.2-32.3
	c2.6-0.8,6.6,0.2,8.9,1.8c25.1,17.6,50,35.5,74.9,53.4c6.5,4.7,12.9,9.5,19.3,14.3c-0.3,0.6-0.5,1.1-0.8,1.7
	C275.4,420.8,207,408.7,138.6,396.7z"/>
<linearGradient id="SVGID_17_" gradientUnits="userSpaceOnUse" x1="-350.2119" y1="335.5308" x2="-298.3248" y2="335.5308" gradientTransform="matrix(-1.4378 0 0 1 -379.0512 0)">
	<stop  offset="0" style="stop-color:#FFFFFF"/>
	<stop  offset="1" style="stop-color:#FFFFFF;stop-opacity:0.5"/>
</linearGradient>
<path class="st17" d="M121.4,385.4c-0.6,0.3-1.2,0.5-1.8,0.8c-23-32.5-46-64.9-69.8-98.3c3.5-0.3,5.1-0.6,6.8-0.6
	c20.3-0.7,40.7-1.4,61-2.2c5.1-0.2,7,1.5,6.8,6.6c-0.7,22.3-1,44.5-1.6,66.8C122.6,367.3,121.9,376.3,121.4,385.4z"/>
<linearGradient id="SVGID_18_" gradientUnits="userSpaceOnUse" x1="-312.3951" y1="312.5866" x2="-278.4864" y2="312.5866" gradientTransform="matrix(-1.4378 0 0 1 -379.0512 0)">
	<stop  offset="0" style="stop-color:#FFFFFF"/>
	<stop  offset="1" style="stop-color:#FFFFFF;stop-opacity:0.5"/>
</linearGradient>
<path class="st18" d="M22.6,335.3c-0.4-0.5-0.8-1-1.2-1.5c7.6-14.2,15.2-28.3,23.6-43.8c9,12.6,16.7,23.5,25.2,35.4
	C53.2,328.9,37.9,332.1,22.6,335.3z"/>
<linearGradient id="SVGID_19_" gradientUnits="userSpaceOnUse" x1="-445.483" y1="219.5865" x2="-357.6465" y2="219.5865" gradientTransform="matrix(-1.4378 0 0 1 -379.0512 0)">
	<stop  offset="0" style="stop-color:#FFFFFF"/>
	<stop  offset="1" style="stop-color:#FFFFFF;stop-opacity:0.5"/>
</linearGradient>
<path class="st19" d="M244.4,346.7c5.7-84.5,11.4-169,17.1-253.5c-0.6-0.3-1.1-0.6-1.7-0.8c-3.4,2.7-6.8,5.3-10.2,8.1
	c-37.2,31-74.3,62.1-111.5,93c-3.5,2.9-3.8,4.9-1.2,8.5c34.6,47.6,69,95.2,103.5,142.8c0.6,0.8,1.4,1.5,2,2.2
	C243.1,346.8,243.7,346.8,244.4,346.7z"/>
<linearGradient id="SVGID_20_" gradientUnits="userSpaceOnUse" x1="-431.8585" y1="299.4927" x2="-351.7735" y2="299.4927" gradientTransform="matrix(-1.4378 0 0 1 -379.0512 0)">
	<stop  offset="0" style="stop-color:#FFFFFF"/>
	<stop  offset="1" style="stop-color:#FFFFFF;stop-opacity:0.5"/>
</linearGradient>
<path class="st20" d="M241.9,355.5c-36.2-49.9-71.9-99.1-107.5-148.2c-0.5,0.1-1,0.2-1.5,0.3c-0.4,3.7-1,7.4-1.1,11.1
	c-1,38.6-1.8,77.3-2.9,115.9c-0.4,16.2-1.2,32.3-2,48.5c-0.4,9,0.4,9.9,8.9,7.2c33.2-10.7,66.4-21.4,99.6-32.2
	C237.1,357.5,238.8,356.8,241.9,355.5z"/>
<linearGradient id="SVGID_21_" gradientUnits="userSpaceOnUse" x1="-528.5103" y1="250.4844" x2="-437.6672" y2="250.4844" gradientTransform="matrix(-1.4378 0 0 1 -379.0512 0)">
	<stop  offset="0" style="stop-color:#FFFFFF"/>
	<stop  offset="1" style="stop-color:#FFFFFF;stop-opacity:0.5"/>
</linearGradient>
<path class="st21" d="M379.7,156.2c-6.1,1.2-12.3,2.3-18.4,3.5c-31,6.3-61.9,12.8-93,19c-5,1-7.5,2.7-7.8,8.1
	c-0.8,14.7-2.1,29.4-3.1,44.1c-2.4,34.7-4.8,69.4-7.1,104c-0.2,3,0,5.9,0,8.9c0.5,0.3,1.1,0.5,1.6,0.8
	c43-62.3,85.9-124.6,128.9-186.9C380.5,157.3,380.1,156.8,379.7,156.2z"/>
<linearGradient id="SVGID_22_" gradientUnits="userSpaceOnUse" x1="-503.2729" y1="397.1613" x2="-359.992" y2="397.1613" gradientTransform="matrix(-1.4378 0 0 1 -379.0512 0)">
	<stop  offset="0" style="stop-color:#FFFFFF"/>
	<stop  offset="1" style="stop-color:#FFFFFF;stop-opacity:0.5"/>
</linearGradient>
<path class="st22" d="M138.6,396.7c68.4,12.1,136.8,24.1,205.2,36.2c0.3-0.6,0.5-1.1,0.8-1.7c-6.4-4.8-12.8-9.6-19.3-14.3
	c-24.9-17.9-49.8-35.8-74.9-53.4c-2.3-1.6-6.3-2.6-8.9-1.8c-33.5,10.5-66.8,21.4-100.2,32.3c-0.9,0.3-1.8,0.8-2.7,1.3
	C138.6,395.7,138.6,396.2,138.6,396.7z"/>
<linearGradient id="SVGID_23_" gradientUnits="userSpaceOnUse" x1="-350.2062" y1="335.5398" x2="-298.3185" y2="335.5398" gradientTransform="matrix(-1.4378 0 0 1 -379.0512 0)">
	<stop  offset="0" style="stop-color:#FFFFFF"/>
	<stop  offset="1" style="stop-color:#FFFFFF;stop-opacity:0.5"/>
</linearGradient>
<path class="st23" d="M121.4,385.4c0.5-9,1.1-18.1,1.4-27.1c0.6-22.3,1-44.5,1.6-66.8c0.2-5.1-1.7-6.8-6.8-6.6
	c-20.3,0.9-40.7,1.5-61,2.2c-1.6,0.1-3.2,0.3-6.8,0.6c23.7,33.4,46.7,65.9,69.8,98.3C120.3,385.9,120.8,385.6,121.4,385.4z"/>
<linearGradient id="SVGID_24_" gradientUnits="userSpaceOnUse" x1="-312.3951" y1="312.5912" x2="-278.4864" y2="312.5912" gradientTransform="matrix(-1.4378 0 0 1 -379.0512 0)">
	<stop  offset="0" style="stop-color:#FFFFFF"/>
	<stop  offset="1" style="stop-color:#FFFFFF;stop-opacity:0.5"/>
</linearGradient>
<path class="st24" d="M22.6,335.3c15.3-3.2,30.6-6.4,47.5-9.9c-8.5-11.9-16.2-22.8-25.2-35.4c-8.3,15.5-16,29.7-23.6,43.8
	C21.8,334.3,22.2,334.8,22.6,335.3z"/>
</svg>
