<?xml version="1.0" encoding="utf-8"?>
<!-- Generator: Adobe Illustrator 25.2.0, SVG Export Plug-In . SVG Version: 6.00 Build 0)  -->
<svg version="1.1" id="Layer_1" xmlns="http://www.w3.org/2000/svg" xmlns:xlink="http://www.w3.org/1999/xlink" x="0px" y="0px"
	 viewBox="0 0 612 792" style="enable-background:new 0 0 612 792;" xml:space="preserve">
<style type="text/css">
	.st0{opacity:0.7;}
	.st1{fill:#FFFFFF;}
</style>
<g id="Layer_2_1_">
</g>
<g id="Layer_3">
	<g class="st0">
		<path class="st1" d="M571.1,418.5c0,0.1,0,0.3,0.1,0.4c-11.4-15.1-30-23.2-48.6-26.1c-18.6-2.9-37.6-1-56.5,0.4
			c-18.8,1.4-38,2.4-56.3-2.1c16.6-3.3,32.3-10.6,45.6-21.1c-31.5-19-73.1-28.1-109.5-27.4c-34.1,0.7-73.8,12.8-99.9,35.7
			c37.9,8,76.5,12.9,115.2,14.5c-53.2,11.3-109.6,1.1-163.3-1.3c-51.9-2.3-112.7-1.9-158.8,25.6c-0.5,0.3-0.9,0.5-1.4,0.7
			c-0.2,0.1-0.4,0.1-0.6,0.1c-0.5-0.5,0-0.7,0.2-1c41.4-35.8,101.8-41.3,154.3-40.8c6.5,0.1,13.1,0.2,19.4-1.6
			c5.3-1.5,10.2-4.3,15-7c39.6-22.5,82.1-43.9,127.7-44.2c34.4-0.3,67.8,11.6,98.8,26.7c18.2,8.9,35.8,19,55,25.4
			c20.2,6.8,38,5.8,58.9,4.1C567.6,392.6,569.2,405.5,571.1,418.5z"/>
	</g>
	<g>
		<path class="st1" d="M59.8,476.3c-1.1,1.5-2.6,2.7-4.5,3.4c-1.9,0.8-4.2,1.1-6.7,1.1c-2.6,0-4.9-0.6-6.9-1.8
			c-2-1.2-3.5-2.9-4.6-5.2c-1.1-2.2-1.7-4.8-1.7-7.8v-2.8c0-4.8,1.1-8.5,3.3-11.1s5.3-3.9,9.4-3.9c3.3,0,6,0.8,8,2.5
			s3.2,4.1,3.7,7.2h-4.2c-0.8-4.2-3.3-6.3-7.5-6.3c-2.8,0-4.9,1-6.3,3c-1.4,2-2.2,4.8-2.2,8.5v2.6c0,3.5,0.8,6.4,2.4,8.5
			c1.6,2.1,3.8,3.1,6.6,3.1c1.6,0,2.9-0.2,4.1-0.5c1.2-0.4,2.1-0.9,2.9-1.8v-7.1h-7.3v-3.4h11.5V476.3L59.8,476.3z"/>
		<path class="st1" d="M108.7,472.1H95.5l-3,8.3h-4.3l12.1-31.6h3.7l12.1,31.6h-4.3L108.7,472.1z M96.7,468.7h10.8l-5.4-14.8
			L96.7,468.7z"/>
		<path class="st1" d="M156.3,467.6h-7.4v12.8h-4.2v-31.6h10.5c3.6,0,6.3,0.8,8.2,2.4s2.9,4,2.9,7.1c0,2-0.5,3.7-1.6,5.1
			c-1.1,1.5-2.5,2.6-4.4,3.3l7.4,13.4v0.3h-4.5L156.3,467.6z M148.9,464.2h6.4c2.1,0,3.7-0.5,4.9-1.6s1.8-2.5,1.8-4.3
			c0-2-0.6-3.5-1.8-4.5c-1.2-1.1-2.8-1.6-5.1-1.6h-6.4L148.9,464.2L148.9,464.2z"/>
		<path class="st1" d="M214.1,472.1h-13.3l-3,8.3h-4.3l12.1-31.6h3.7l12.1,31.6h-4.3L214.1,472.1z M202.1,468.7h10.8l-5.4-14.8
			L202.1,468.7z"/>
		<path class="st1" d="M273.2,476.3c-1.1,1.5-2.6,2.7-4.5,3.4c-1.9,0.8-4.2,1.1-6.7,1.1c-2.6,0-4.9-0.6-6.9-1.8
			c-2-1.2-3.5-2.9-4.6-5.2c-1.1-2.2-1.7-4.8-1.7-7.8v-2.8c0-4.8,1.1-8.5,3.3-11.1s5.3-3.9,9.4-3.9c3.3,0,6,0.8,8,2.5
			s3.2,4.1,3.7,7.2H269c-0.8-4.2-3.3-6.3-7.5-6.3c-2.8,0-4.9,1-6.3,3c-1.4,2-2.2,4.8-2.2,8.5v2.6c0,3.5,0.8,6.4,2.4,8.5
			c1.6,2.1,3.8,3.1,6.6,3.1c1.6,0,2.9-0.2,4.1-0.5c1.2-0.4,2.1-0.9,2.9-1.8v-7.1h-7.3v-3.4h11.5V476.3L273.2,476.3z"/>
		<path class="st1" d="M322.5,465.8h-13.7V477h15.9v3.4h-20.1v-31.6h19.9v3.4h-15.7v10.2h13.7L322.5,465.8L322.5,465.8L322.5,465.8z
			"/>
		<path class="st1" d="M394.1,477h15v3.4h-19.2v-31.6h4.2V477L394.1,477z"/>
		<path class="st1" d="M461.3,465.6c0,3.1-0.5,5.8-1.6,8.1c-1,2.3-2.5,4.1-4.4,5.3c-1.9,1.2-4.1,1.8-6.7,1.8c-2.5,0-4.7-0.6-6.6-1.8
			c-1.9-1.2-3.4-3-4.5-5.2c-1.1-2.3-1.6-4.9-1.6-7.9v-2.3c0-3,0.5-5.7,1.6-8.1c1.1-2.3,2.6-4.1,4.5-5.4c1.9-1.2,4.1-1.9,6.6-1.9
			s4.8,0.6,6.7,1.8c1.9,1.2,3.4,3,4.5,5.3c1,2.3,1.6,5,1.6,8.1L461.3,465.6L461.3,465.6z M457.1,463.6c0-3.7-0.8-6.6-2.3-8.6
			s-3.6-3-6.3-3c-2.6,0-4.7,1-6.2,3s-2.3,4.8-2.3,8.4v2.3c0,3.6,0.8,6.5,2.3,8.6s3.6,3.1,6.3,3.1s4.8-1,6.3-2.9
			c1.5-2,2.2-4.8,2.3-8.4L457.1,463.6L457.1,463.6z"/>
		<path class="st1" d="M515.3,476.3c-1.1,1.5-2.6,2.7-4.5,3.4c-1.9,0.8-4.2,1.1-6.7,1.1c-2.6,0-4.9-0.6-6.9-1.8
			c-2-1.2-3.5-2.9-4.6-5.2c-1.1-2.2-1.6-4.8-1.7-7.8v-2.8c0-4.8,1.1-8.5,3.3-11.1c2.2-2.6,5.3-3.9,9.4-3.9c3.3,0,6,0.8,8,2.5
			c2,1.7,3.2,4.1,3.7,7.2h-4.2c-0.8-4.2-3.3-6.3-7.5-6.3c-2.8,0-4.9,1-6.3,3s-2.2,4.8-2.2,8.5v2.6c0,3.5,0.8,6.4,2.4,8.5
			s3.8,3.1,6.6,3.1c1.6,0,2.9-0.2,4.1-0.5s2.1-0.9,2.9-1.8v-7.1h-7.3v-3.4h11.5L515.3,476.3L515.3,476.3L515.3,476.3z"/>
		<path class="st1" d="M571.1,465.6c0,3.1-0.5,5.8-1.6,8.1c-1,2.3-2.5,4.1-4.4,5.3c-1.9,1.2-4.1,1.8-6.7,1.8c-2.5,0-4.7-0.6-6.6-1.8
			c-1.9-1.2-3.4-3-4.5-5.2c-1.1-2.3-1.6-4.9-1.6-7.9v-2.3c0-3,0.5-5.7,1.6-8.1c1.1-2.3,2.6-4.1,4.5-5.4c1.9-1.2,4.1-1.9,6.6-1.9
			s4.8,0.6,6.7,1.8c1.9,1.2,3.4,3,4.5,5.3c1,2.3,1.6,5,1.6,8.1L571.1,465.6L571.1,465.6z M567,463.6c0-3.7-0.8-6.6-2.3-8.6
			s-3.6-3-6.3-3c-2.6,0-4.7,1-6.2,3s-2.3,4.8-2.3,8.4v2.3c0,3.6,0.8,6.5,2.3,8.6s3.6,3.1,6.3,3.1s4.8-1,6.3-2.9
			c1.5-2,2.2-4.8,2.3-8.4L567,463.6L567,463.6z"/>
	</g>
</g>
</svg>
