<?xml version="1.0" encoding="utf-8"?>
<!-- Generator: Adobe Illustrator 25.2.0, SVG Export Plug-In . SVG Version: 6.00 Build 0)  -->
<svg version="1.1" xmlns="http://www.w3.org/2000/svg" xmlns:xlink="http://www.w3.org/1999/xlink" x="0px" y="0px"
	 viewBox="0 0 612 792" style="enable-background:new 0 0 612 792;" xml:space="preserve">
<style type="text/css">
	.st0{fill:#FFFFFF;}
	.st1{fill:#5CBB6A;}
	.st2{fill:#71C7B6;}
	.st3{fill:#83C782;}
	.st4{fill:url(#SVGID_1_);}
	.st5{fill:url(#SVGID_2_);}
	.st6{fill:url(#SVGID_3_);}
	.st7{fill:url(#SVGID_4_);}
	.st8{fill:url(#SVGID_5_);}
	.st9{fill:url(#SVGID_6_);}
	.st10{fill:url(#SVGID_7_);}
	.st11{fill:url(#SVGID_8_);}
	.st12{fill:url(#SVGID_9_);}
	.st13{fill:url(#SVGID_10_);}
	.st14{fill:url(#SVGID_11_);}
</style>
<g id="Layer_2">
</g>
<g id="Layer_3">
	<g>
		<path class="st0" d="M203.58,270.16c2.91-0.45,4.35-0.49,5.67-0.9c87.46-27.07,174.9-54.21,262.39-81.19
			c4.69-1.44,6.24-3.86,6.34-8.57c0.36-18.69,1.07-37.37,1.57-56.05c0.03-0.98-0.66-1.97-1.21-3.5
			c-90.36,16.37-180.36,32.67-270.78,49.05C206.24,202.49,204.93,235.76,203.58,270.16z M396.88,238.47
			c-4.93,1.64-11.13,3.62-17.28,5.75c-75.97,26.21-151.92,52.5-227.95,78.56c-5.46,1.87-7.88,4.3-7.79,10.3
			c0.18,11.78-0.38,23.58-0.76,35.36c-0.23,7.3-0.68,14.59-1.05,22.13c2.2,0,3.09,0.16,3.9-0.02
			c81.38-18.89,162.75-37.77,244.06-56.97c2.22-0.52,4.96-4.34,5.19-6.84c1.01-10.87,1.47-21.81,1.61-32.73
			C397.04,275.66,396.88,257.31,396.88,238.47z"/>
		<path class="st1" d="M203.58,270.16c1.35-34.4,2.65-67.66,3.97-101.17c90.43-16.38,180.42-32.68,270.78-49.05
			c0.55,1.53,1.24,2.52,1.21,3.5c-0.5,18.69-1.21,37.37-1.57,56.05c-0.09,4.71-1.65,7.12-6.34,8.57
			c-87.49,26.98-174.93,54.12-262.39,81.19C207.93,269.66,206.49,269.71,203.58,270.16z"/>
		<path class="st2" d="M396.88,238.47c0,18.84,0.17,37.19-0.06,55.54c-0.14,10.92-0.6,21.86-1.61,32.73
			c-0.23,2.49-2.97,6.31-5.19,6.84c-81.3,19.19-162.68,38.07-244.06,56.97c-0.81,0.19-1.69,0.02-3.9,0.02
			c0.36-7.53,0.81-14.83,1.05-22.13c0.37-11.79,0.93-23.58,0.76-35.36c-0.09-6,2.33-8.43,7.79-10.3
			c76.03-26.05,151.97-52.34,227.95-78.56C385.75,242.1,391.95,240.11,396.88,238.47z"/>
		<path class="st3" d="M249.8,500.74c0-16.05-0.22-32,0.06-47.93c0.28-15.78,1.09-31.55,1.63-47.33
			c0.49-14.29,0.44-14.45,14.42-16.8c26.49-4.45,53.01-8.71,80.78-13.26c0,11.79,0.19,22.58-0.06,33.36
			c-0.2,8.6-0.67,17.23-1.6,25.78c-0.3,2.79-1.68,6.51-3.82,7.9c-29.76,19.5-59.74,38.67-89.68,57.89
			C250.91,500.77,249.97,500.71,249.8,500.74z"/>
	</g>
	<g>
		<linearGradient id="SVGID_1_" gradientUnits="userSpaceOnUse" x1="593.3584" y1="631.1159" x2="64.0397" y2="569.4016">
			<stop  offset="0" style="stop-color:#008B67"/>
			<stop  offset="1" style="stop-color:#5CBB6A"/>
		</linearGradient>
		<path class="st4" d="M114.79,589.27c-1.55,1.81-3.8,3.21-6.76,4.2c-2.96,0.99-6.24,1.46-9.84,1.4c-3.45-0.04-6.36-0.9-8.74-2.6
			c-2.38-1.7-4.07-4.06-5.09-7.1c-1.02-3.03-1.29-6.46-0.82-10.26l0.23-1.7c0.87-6.39,3.11-11.45,6.74-15.18
			c3.63-3.73,8.07-5.55,13.33-5.46c4.6,0.08,8.13,1.31,10.6,3.7c2.47,2.39,3.85,5.85,4.13,10.38l-9.27-0.03
			c-0.13-2.2-0.67-3.8-1.63-4.81c-0.95-1.01-2.3-1.55-4.06-1.6c-2.6-0.09-4.75,0.93-6.45,3.07c-1.7,2.14-2.86,5.19-3.48,9.17
			c-0.53,3.39-0.72,6.03-0.57,7.91c0.28,4.54,2.33,6.84,6.14,6.89c2.3,0.04,4.32-0.52,6.05-1.67l1.27-6.42h-6.7l1.19-6.81h16.37
			L114.79,589.27z"/>
		<linearGradient id="SVGID_2_" gradientUnits="userSpaceOnUse" x1="593.3179" y1="631.463" x2="63.9992" y2="569.7487">
			<stop  offset="0" style="stop-color:#008B67"/>
			<stop  offset="1" style="stop-color:#5CBB6A"/>
		</linearGradient>
		<path class="st5" d="M152.47,572.36c-1-0.15-1.96-0.24-2.88-0.28c-2.79-0.08-4.92,0.89-6.39,2.88l-3.45,19.37h-9.3l5.32-30.59
			l8.68-0.03l-0.71,4.02c2-3.09,4.35-4.64,7.07-4.64c0.77,0,1.73,0.13,2.88,0.4L152.47,572.36z"/>
		<linearGradient id="SVGID_3_" gradientUnits="userSpaceOnUse" x1="593.7994" y1="627.3329" x2="64.4808" y2="565.6187">
			<stop  offset="0" style="stop-color:#008B67"/>
			<stop  offset="1" style="stop-color:#5CBB6A"/>
		</linearGradient>
		<path class="st6" d="M178.22,594.9c-2.73-0.02-5.17-0.66-7.31-1.94c-2.14-1.27-3.76-3.04-4.85-5.32c-1.09-2.27-1.53-4.77-1.3-7.51
			l0.08-0.79c0.51-5.03,2.26-9.02,5.25-11.95c2.99-2.93,6.65-4.34,10.99-4.23c2.62,0.04,4.86,0.7,6.73,2
			c1.87,1.29,3.23,3.08,4.1,5.35c0.87,2.28,1.15,4.83,0.85,7.66l-0.54,3.88H174c0.04,1.6,0.49,2.9,1.36,3.9
			c0.87,1,2.13,1.53,3.79,1.58c2.7,0.08,5.12-0.96,7.27-3.11l3.9,5.16c-1.15,1.64-2.76,2.92-4.82,3.85
			c-2.06,0.93-4.32,1.41-6.77,1.45H178.22z M180.48,570.52c-1.32-0.04-2.46,0.37-3.44,1.24c-0.97,0.86-1.81,2.31-2.53,4.33h9.3
			l0.17-0.82c0.11-0.66,0.13-1.27,0.06-1.86C183.72,571.55,182.53,570.58,180.48,570.52z"/>
		<linearGradient id="SVGID_4_" gradientUnits="userSpaceOnUse" x1="594.3689" y1="622.4489" x2="65.0502" y2="560.7346">
			<stop  offset="0" style="stop-color:#008B67"/>
			<stop  offset="1" style="stop-color:#5CBB6A"/>
		</linearGradient>
		<path class="st7" d="M220.68,594.9c-2.73-0.02-5.17-0.66-7.31-1.94c-2.14-1.27-3.76-3.04-4.85-5.32c-1.09-2.27-1.53-4.77-1.3-7.51
			l0.08-0.79c0.51-5.03,2.26-9.02,5.25-11.95c2.99-2.93,6.65-4.34,10.99-4.23c2.62,0.04,4.86,0.7,6.73,2
			c1.87,1.29,3.23,3.08,4.1,5.35c0.87,2.28,1.15,4.83,0.85,7.66l-0.54,3.88h-18.21c0.04,1.6,0.49,2.9,1.36,3.9
			c0.87,1,2.13,1.53,3.79,1.58c2.7,0.08,5.12-0.96,7.27-3.11l3.9,5.16c-1.15,1.64-2.76,2.92-4.82,3.85
			c-2.06,0.93-4.32,1.41-6.77,1.45H220.68z M222.94,570.52c-1.32-0.04-2.46,0.37-3.44,1.24c-0.97,0.86-1.81,2.31-2.53,4.33h9.3
			l0.17-0.82c0.11-0.66,0.13-1.27,0.06-1.86C226.18,571.55,224.99,570.58,222.94,570.52z"/>
		<linearGradient id="SVGID_5_" gradientUnits="userSpaceOnUse" x1="594.8997" y1="617.8958" x2="65.5811" y2="556.1815">
			<stop  offset="0" style="stop-color:#008B67"/>
			<stop  offset="1" style="stop-color:#5CBB6A"/>
		</linearGradient>
		<path class="st8" d="M261.72,563.71l-0.65,3.68c2.45-2.9,5.4-4.32,8.85-4.24c2.83,0.06,4.93,1.11,6.32,3.15
			c1.38,2.05,1.89,4.97,1.51,8.78l-3.22,19.26h-9.33l3.25-19.34c0.08-0.66,0.09-1.27,0.06-1.81c-0.13-1.79-1.19-2.69-3.17-2.69
			c-1.64-0.04-3.14,0.69-4.5,2.18l-3.82,21.66h-9.3l5.32-30.59L261.72,563.71z"/>
		<linearGradient id="SVGID_6_" gradientUnits="userSpaceOnUse" x1="596.4884" y1="604.2703" x2="67.1697" y2="542.556">
			<stop  offset="0" style="stop-color:#008B67"/>
			<stop  offset="1" style="stop-color:#5CBB6A"/>
		</linearGradient>
		<path class="st9" d="M345.79,577.93h-15.52l-2.86,16.4h-9.67l7.13-41.17h26.78l-1.33,7.66h-17.08l-1.64,9.47h15.52L345.79,577.93z
			"/>
		<linearGradient id="SVGID_7_" gradientUnits="userSpaceOnUse" x1="597.0248" y1="599.6691" x2="67.7062" y2="537.9548">
			<stop  offset="0" style="stop-color:#008B67"/>
			<stop  offset="1" style="stop-color:#5CBB6A"/>
		</linearGradient>
		<path class="st10" d="M369.7,594.33h-9.33l5.32-30.59h9.33L369.7,594.33z M366.51,556.02c-0.04-1.38,0.45-2.53,1.46-3.45
			c1.01-0.92,2.23-1.39,3.66-1.39c1.45,0,2.66,0.42,3.63,1.24c0.97,0.83,1.47,1.91,1.51,3.25c0.04,1.4-0.44,2.55-1.44,3.46
			c-1,0.92-2.22,1.37-3.68,1.37c-1.41,0-2.62-0.41-3.61-1.23C367.06,558.46,366.54,557.38,366.51,556.02z"/>
		<linearGradient id="SVGID_8_" gradientUnits="userSpaceOnUse" x1="596.8062" y1="601.5446" x2="67.4875" y2="539.8303">
			<stop  offset="0" style="stop-color:#008B67"/>
			<stop  offset="1" style="stop-color:#5CBB6A"/>
		</linearGradient>
		<path class="st11" d="M402.41,594.9c-2.73-0.02-5.17-0.66-7.31-1.94c-2.14-1.27-3.76-3.04-4.85-5.32
			c-1.09-2.27-1.53-4.77-1.3-7.51l0.08-0.79c0.51-5.03,2.26-9.02,5.24-11.95c2.99-2.93,6.65-4.34,10.99-4.23
			c2.62,0.04,4.86,0.7,6.73,2c1.87,1.29,3.23,3.08,4.1,5.35c0.87,2.28,1.15,4.83,0.85,7.66l-0.54,3.88h-18.21
			c0.04,1.6,0.49,2.9,1.36,3.9c0.87,1,2.13,1.53,3.79,1.58c2.7,0.08,5.12-0.96,7.27-3.11l3.9,5.16c-1.15,1.64-2.76,2.92-4.82,3.85
			c-2.06,0.93-4.32,1.41-6.77,1.45H402.41z M404.67,570.52c-1.32-0.04-2.46,0.37-3.44,1.24c-0.97,0.86-1.81,2.31-2.53,4.33h9.3
			l0.17-0.82c0.11-0.66,0.13-1.27,0.06-1.86C407.91,571.55,406.72,570.58,404.67,570.52z"/>
		<linearGradient id="SVGID_9_" gradientUnits="userSpaceOnUse" x1="598.0115" y1="591.2067" x2="68.6928" y2="529.4924">
			<stop  offset="0" style="stop-color:#008B67"/>
			<stop  offset="1" style="stop-color:#5CBB6A"/>
		</linearGradient>
		<path class="st12" d="M439.47,594.33h-9.33l7.52-43.43h9.33L439.47,594.33z"/>
		<linearGradient id="SVGID_10_" gradientUnits="userSpaceOnUse" x1="598.5212" y1="586.8348" x2="69.2025" y2="525.1205">
			<stop  offset="0" style="stop-color:#008B67"/>
			<stop  offset="1" style="stop-color:#5CBB6A"/>
		</linearGradient>
		<path class="st13" d="M458.48,578.98c0.58-4.83,2.05-8.69,4.41-11.59c2.36-2.9,5.43-4.31,9.22-4.21c2.6,0.08,4.76,1.17,6.48,3.28
			l2.97-15.55h9.33l-7.52,43.43h-8.28l0.4-3.31c-2.28,2.68-4.82,3.98-7.61,3.9c-2.94-0.04-5.25-1.13-6.91-3.27
			c-1.67-2.14-2.56-5.01-2.67-8.61c-0.04-1.19,0-2.35,0.11-3.48L458.48,578.98z M467.76,579.63c-0.15,1.21-0.22,2.26-0.2,3.17
			c0,3.13,1.06,4.72,3.17,4.78c1.83,0.06,3.46-0.82,4.89-2.63l2.09-11.73c-0.62-1.73-1.87-2.63-3.73-2.69
			c-1.73-0.04-3.13,0.71-4.2,2.25C468.72,574.31,468.04,576.59,467.76,579.63z"/>
		<linearGradient id="SVGID_11_" gradientUnits="userSpaceOnUse" x1="598.2944" y1="588.78" x2="68.9757" y2="527.0657">
			<stop  offset="0" style="stop-color:#008B67"/>
			<stop  offset="1" style="stop-color:#5CBB6A"/>
		</linearGradient>
		<path class="st14" d="M517.66,585.57c0.24-1.24-0.72-2.18-2.88-2.8l-2.01-0.51c-3.28-0.87-5.68-2.08-7.21-3.65
			c-1.53-1.56-2.24-3.42-2.15-5.57c0.09-2.94,1.4-5.33,3.92-7.17c2.52-1.84,5.58-2.74,9.2-2.7c3.6,0.04,6.52,0.95,8.75,2.74
			c2.23,1.79,3.37,4.2,3.41,7.24l-9.27-0.03c0.08-2.41-0.99-3.62-3.2-3.62c-0.94,0-1.82,0.28-2.63,0.83
			c-0.81,0.56-1.29,1.3-1.44,2.22c-0.32,1.53,1.03,2.57,4.04,3.14c2.62,0.62,4.65,1.34,6.08,2.16c1.43,0.82,2.53,1.83,3.28,3.04
			c0.75,1.21,1.1,2.66,1.05,4.35c-0.06,1.85-0.66,3.5-1.81,4.95c-1.15,1.45-2.81,2.61-4.99,3.48c-2.18,0.87-4.54,1.27-7.08,1.22
			c-2.21-0.02-4.26-0.48-6.15-1.39c-1.9-0.9-3.38-2.14-4.44-3.69c-1.06-1.56-1.62-3.34-1.65-5.36l8.65,0.06
			c0.04,2.71,1.39,4.05,4.07,4.02c1.15,0,2.13-0.26,2.94-0.78C516.94,587.24,517.45,586.51,517.66,585.57z"/>
	</g>
</g>
</svg>
