<?xml version="1.0" encoding="utf-8"?>
<!-- Generator: Adobe Illustrator 25.2.0, SVG Export Plug-In . SVG Version: 6.00 Build 0)  -->
<svg version="1.1" id="Layer_1" xmlns="http://www.w3.org/2000/svg" xmlns:xlink="http://www.w3.org/1999/xlink" x="0px" y="0px"
	 viewBox="0 0 612 792" style="enable-background:new 0 0 612 792;" xml:space="preserve">
<style type="text/css">
	.st0{opacity:0.4;fill:#FFFFFF;}
	.st1{fill:#FFFFFF;}
	.st2{enable-background:new    ;}
	.st3{opacity:0.76;enable-background:new    ;}
</style>
<g id="Layer_1_1_">
	<g id="Layer_2_2_">
	</g>
	<g id="Layer_3">
		<path class="st0" d="M421.9,208.2c-7.5-22.6-19-42.5-37.6-57.9c-15.7-13-33.4-21.3-53.8-23.5c-11.6-1.2-23.2-1.6-34.8-0.9
			c-16.2,1-32.4,2.5-48.2,6.5c-27.2,6.8-50,20.7-67.2,43c-12.9,16.7-20.9,35.6-25,56.2c-2.9,14.5-4.3,29,0.4,43.5
			c1.5,4.5,0.7,9-1.3,13.5c-6.1,13.3-13.8,25.7-22.8,37.2c-2.5,3.2-4.6,7-6,10.9c-1.7,4.5-0.2,7.9,3.9,10.3c3,1.7,6.2,3.2,9.4,4.1
			c5.9,1.7,8.2,5.8,6,11.5c-0.5,1.3-1.2,2.5-2,3.7c-3.3,5.4-2.3,9.8,3.1,13c1.9,1.1,3.9,1.9,6,2.9c-0.3,0.3-0.5,0.5-0.7,0.8
			c-6.2,5.5-5.6,11.6,1.3,16.3c1.7,1.1,3.2,2.6,4.4,4.3c3,4.2,4.5,9.1,5.3,14.2c0.5,3.4,1.2,6.8,2.4,10c2.7,6.9,8,10.7,15.4,10.6
			c11.3-0.1,22.5-2.8,33.3-6.1c7.2-2.2,21.8-11.1,28.7-5.2c4,3.5,5.6,9.5,7.3,14.3c2.4,6.7,3.7,13.8,3.8,20.9
			c0.1,13.5-4.3,26.4-8.6,39c-4.6,13.4,42.7,0.3,52.2-5.1c14.8-8.4,44.4-16.8,71.1-9.7c3.5,0.9,6.8,2.4,10.2,3.6
			c-7.7-8.5-13.4-18-16.5-28.9c-4.5-15.7-3.3-31.4,0.8-46.9c6.5-24.5,18.4-46.3,33.6-66.4c7.9-10.4,14.7-21.4,20.9-33
			c8.3-15.6,12.9-32.2,13.5-49.9C430.9,245.5,428,226.6,421.9,208.2z"/>
		<path class="st1" d="M374.7,192.8c-10.6-13-25.7-21.7-41.8-26.5c-11.5-3.4-24.8-5.6-38.4-6c-26.9-0.9-55.1,5.1-74.3,21.2
			c-23,19.3-37.5,52.6-37.3,82.3c0,4,0.3,8,0.8,12c4.1,31.2,24,60.8,52.1,75.2c25.8,13.2,56.5,13,83.7,4.3
			c16.4-5.3,31.8-13.7,45-24.8c19.4-16.4,26.4-40.8,28.1-65.3C394.4,240.1,391.2,213,374.7,192.8z M367.9,264.4
			c-1.4,18.7-6.7,37.3-21.5,49.8c-10,8.5-21.8,14.9-34.3,18.9c-20.7,6.6-44.2,6.8-63.8-3.3c-21.5-11-36.7-33.6-39.8-57.4
			c-0.4-3.1-0.6-6.1-0.6-9.2c-0.2-22.7,10.9-48,28.4-62.8c14.7-12.3,36.2-16.8,56.7-16.2c10.3,0.3,20.5,1.9,29.4,4.8
			c12.3,3.6,23.8,10.3,31.9,20.2C366.8,224.6,369.2,245.2,367.9,264.4z"/>
		<path class="st1" d="M332.8,225.7c-5.5-6.7-13.3-11.2-21.5-13.6c-6.1-1.7-12.9-2.9-19.9-3.1c-13.9-0.4-28.4,2.6-38.3,10.9
			c-11.9,10-19.3,27.1-19.2,42.4c0,2.1,0.1,4.1,0.4,6.2c2.1,16.1,12.4,31.3,26.9,38.8c13.3,6.8,29.1,6.7,43.1,2.2
			c8.5-2.7,16.4-7,23.2-12.8c10-8.5,13.6-21,14.5-33.7C342.9,250,341.3,236.1,332.8,225.7z M319.7,262.8c-0.6,7.9-2.8,15.8-9.1,21.1
			c-4.2,3.6-9.2,6.3-14.5,8c-8.8,2.8-18.7,2.9-27-1.4c-9.1-4.7-15.5-14.2-16.8-24.3c-0.2-1.3-0.3-2.6-0.3-3.9
			c-0.1-9.5,4.6-20.3,12-26.5c6.2-5.3,15.3-7.2,24-6.9c4.4,0.1,8.6,0.8,12.4,2c5.2,1.5,10.1,4.3,13.5,8.5
			C319.2,245.9,320.3,254.7,319.7,262.8z"/>
	</g>
	<g class="st2">
		<path class="st1" d="M102.3,608.4H91.1v-26.1h-28v26.1H52v-59.6h11.2v25.7h28v-25.7h11.2V608.4z"/>
		<path class="st1" d="M152,548.7v8.8h-26.4v16.5h20.8v8.5h-20.8v16.9H152v8.9h-37.6v-59.6H152z"/>
		<path class="st1" d="M214,608.4h-8.6c-1,0-1.8-0.2-2.4-0.7c-0.6-0.5-1.1-1.1-1.3-1.8l-4.5-12.2h-24.7l-4.5,12.2
			c-0.2,0.6-0.7,1.2-1.3,1.7c-0.6,0.5-1.4,0.8-2.4,0.8h-8.6l23.4-59.6h11.3L214,608.4z M175.4,585.9h19l-7.3-19.8
			c-0.3-0.9-0.7-1.9-1.1-3.1s-0.8-2.5-1.2-3.9c-0.4,1.4-0.8,2.7-1.1,3.9c-0.4,1.2-0.7,2.3-1.1,3.2L175.4,585.9z"/>
		<path class="st1" d="M273.1,578.6c0,4.4-0.7,8.4-2.2,12c-1.5,3.7-3.5,6.8-6.1,9.4c-2.6,2.6-5.8,4.7-9.5,6.1
			c-3.7,1.5-7.8,2.2-12.3,2.2h-22.8v-59.6h22.8c4.5,0,8.6,0.7,12.3,2.2c3.7,1.5,6.9,3.5,9.5,6.1c2.6,2.6,4.7,5.8,6.1,9.4
			C272.4,570.2,273.1,574.2,273.1,578.6z M261.8,578.6c0-3.3-0.4-6.2-1.3-8.8c-0.9-2.6-2.1-4.8-3.8-6.6c-1.6-1.8-3.6-3.2-5.9-4.1
			c-2.3-1-4.9-1.4-7.9-1.4h-11.6v42h11.6c2.9,0,5.5-0.5,7.9-1.4c2.3-1,4.3-2.3,5.9-4.1c1.6-1.8,2.9-4,3.8-6.6
			C261.3,584.8,261.8,581.8,261.8,578.6z"/>
		<path class="st1" d="M313.8,559.6c-0.3,0.6-0.7,1-1.1,1.3c-0.4,0.2-0.9,0.4-1.4,0.4c-0.6,0-1.2-0.2-1.9-0.6
			c-0.7-0.4-1.5-0.9-2.4-1.4c-0.9-0.5-2-1-3.3-1.4c-1.3-0.4-2.7-0.6-4.4-0.6c-1.5,0-2.9,0.2-4,0.6c-1.1,0.4-2.1,0.9-2.9,1.5
			c-0.8,0.7-1.4,1.4-1.8,2.4c-0.4,0.9-0.6,1.9-0.6,3c0,1.4,0.4,2.6,1.2,3.5c0.8,0.9,1.8,1.7,3.1,2.4c1.3,0.7,2.8,1.3,4.4,1.8
			s3.3,1.1,5.1,1.7c1.7,0.6,3.4,1.3,5.1,2.1c1.6,0.8,3.1,1.8,4.4,3c1.3,1.2,2.3,2.7,3.1,4.4c0.8,1.7,1.2,3.8,1.2,6.3
			c0,2.7-0.5,5.2-1.4,7.6c-0.9,2.4-2.3,4.4-4,6.1c-1.8,1.7-3.9,3.1-6.5,4.1c-2.6,1-5.5,1.5-8.8,1.5c-1.9,0-3.8-0.2-5.6-0.6
			c-1.8-0.4-3.6-0.9-5.3-1.6c-1.7-0.7-3.3-1.5-4.7-2.5c-1.5-1-2.8-2-3.9-3.2l3.2-5.3c0.3-0.4,0.7-0.7,1.1-1c0.4-0.3,0.9-0.4,1.4-0.4
			c0.7,0,1.4,0.3,2.2,0.8c0.8,0.6,1.7,1.2,2.8,1.9c1.1,0.7,2.4,1.3,3.8,1.9c1.5,0.6,3.2,0.8,5.3,0.8c3.2,0,5.6-0.7,7.3-2.2
			c1.7-1.5,2.6-3.7,2.6-6.5c0-1.6-0.4-2.8-1.2-3.8c-0.8-1-1.8-1.8-3.1-2.5c-1.3-0.7-2.8-1.2-4.4-1.7c-1.6-0.5-3.3-1-5-1.5
			c-1.7-0.6-3.4-1.2-5-2c-1.6-0.8-3.1-1.8-4.4-3c-1.3-1.2-2.3-2.8-3.1-4.6c-0.8-1.9-1.2-4.1-1.2-6.9c0-2.2,0.4-4.3,1.3-6.4
			c0.9-2.1,2.1-3.9,3.8-5.5c1.7-1.6,3.7-2.9,6.1-3.8c2.4-1,5.2-1.4,8.3-1.4c3.5,0,6.8,0.6,9.7,1.6c3,1.1,5.5,2.6,7.6,4.6
			L313.8,559.6z"/>
	</g>
	<g class="st2">
		<path class="st1" d="M348.8,604.8h27.7v3.6h-31.9V550h4.2V604.8z"/>
		<path class="st1" d="M435.5,579.2c0,4.5-0.7,8.6-2,12.3c-1.3,3.7-3.2,6.8-5.7,9.4c-2.4,2.6-5.4,4.6-8.8,6
			c-3.4,1.4-7.2,2.1-11.3,2.1c-4.1,0-7.8-0.7-11.3-2.1c-3.4-1.4-6.3-3.4-8.8-6c-2.4-2.6-4.4-5.7-5.7-9.4c-1.4-3.7-2-7.8-2-12.3
			c0-4.5,0.7-8.6,2-12.2c1.4-3.7,3.3-6.8,5.7-9.4c2.4-2.6,5.4-4.6,8.8-6c3.4-1.4,7.2-2.1,11.3-2.1c4.2,0,7.9,0.7,11.3,2.1
			c3.4,1.4,6.3,3.4,8.8,6c2.4,2.6,4.3,5.8,5.7,9.4C434.8,570.6,435.5,574.7,435.5,579.2z M431.1,579.2c0-4.1-0.6-7.7-1.7-11
			s-2.7-6-4.8-8.2c-2-2.3-4.5-4-7.4-5.2c-2.9-1.2-6.1-1.8-9.6-1.8c-3.5,0-6.6,0.6-9.5,1.8c-2.9,1.2-5.3,2.9-7.4,5.2
			c-2.1,2.3-3.7,5-4.8,8.2s-1.7,6.9-1.7,11c0,4.1,0.6,7.8,1.7,11c1.1,3.2,2.7,6,4.8,8.2c2.1,2.3,4.5,4,7.4,5.2
			c2.9,1.2,6,1.8,9.5,1.8c3.5,0,6.7-0.6,9.6-1.8c2.9-1.2,5.4-2.9,7.4-5.2c2-2.3,3.6-5,4.8-8.2C430.5,586.9,431.1,583.3,431.1,579.2z
			"/>
		<path class="st1" d="M474.3,605.6c2,0,3.8-0.1,5.5-0.3c1.6-0.2,3.2-0.5,4.6-0.9c1.4-0.4,2.8-0.9,4-1.5c1.3-0.6,2.6-1.3,3.9-2
			v-15.7h-11.2c-0.3,0-0.6-0.1-0.8-0.3s-0.3-0.4-0.3-0.7v-2.3h16.1v20.7c-1.5,1-3,1.9-4.5,2.7c-1.6,0.8-3.2,1.5-5,2
			c-1.8,0.5-3.7,0.9-5.8,1.2c-2.1,0.3-4.3,0.4-6.8,0.4c-4.2,0-8-0.7-11.5-2.1c-3.5-1.4-6.5-3.4-8.9-6c-2.5-2.6-4.4-5.7-5.8-9.4
			c-1.4-3.7-2.1-7.8-2.1-12.3c0-4.5,0.7-8.6,2.1-12.3c1.4-3.7,3.3-6.8,5.9-9.4c2.5-2.6,5.6-4.6,9.2-6c3.6-1.4,7.7-2.1,12.1-2.1
			c2.2,0,4.3,0.2,6.2,0.5c1.9,0.3,3.6,0.7,5.3,1.3c1.6,0.6,3.1,1.3,4.5,2.2c1.4,0.9,2.7,1.9,4,3l-1.1,1.8c-0.2,0.4-0.6,0.6-1,0.6
			c-0.2,0-0.5-0.1-0.7-0.2c-0.4-0.2-1-0.6-1.8-1.2c-0.8-0.6-1.8-1.2-3.2-1.9c-1.3-0.7-3-1.3-5-1.8c-2-0.5-4.4-0.8-7.3-0.8
			c-3.8,0-7.2,0.6-10.3,1.8c-3.1,1.2-5.7,2.9-7.8,5.2c-2.2,2.3-3.8,5-5,8.2c-1.2,3.2-1.8,6.9-1.8,10.9c0,4.1,0.6,7.8,1.8,11.1
			c1.2,3.3,2.8,6,5,8.3c2.1,2.3,4.7,4,7.7,5.2C467.4,605,470.7,605.6,474.3,605.6z"/>
		<path class="st1" d="M563,579.2c0,4.5-0.7,8.6-2,12.3c-1.3,3.7-3.2,6.8-5.7,9.4c-2.4,2.6-5.4,4.6-8.8,6c-3.4,1.4-7.2,2.1-11.3,2.1
			c-4.1,0-7.8-0.7-11.3-2.1c-3.4-1.4-6.3-3.4-8.8-6c-2.4-2.6-4.4-5.7-5.7-9.4c-1.4-3.7-2-7.8-2-12.3c0-4.5,0.7-8.6,2-12.2
			c1.4-3.7,3.3-6.8,5.7-9.4c2.4-2.6,5.4-4.6,8.8-6c3.4-1.4,7.2-2.1,11.3-2.1c4.2,0,7.9,0.7,11.3,2.1c3.4,1.4,6.3,3.4,8.8,6
			c2.4,2.6,4.3,5.8,5.7,9.4C562.3,570.6,563,574.7,563,579.2z M558.6,579.2c0-4.1-0.6-7.7-1.7-11s-2.7-6-4.8-8.2
			c-2-2.3-4.5-4-7.4-5.2c-2.9-1.2-6.1-1.8-9.6-1.8c-3.5,0-6.6,0.6-9.5,1.8c-2.9,1.2-5.3,2.9-7.4,5.2c-2.1,2.3-3.7,5-4.8,8.2
			s-1.7,6.9-1.7,11c0,4.1,0.6,7.8,1.7,11c1.1,3.2,2.7,6,4.8,8.2c2.1,2.3,4.5,4,7.4,5.2c2.9,1.2,6,1.8,9.5,1.8c3.5,0,6.7-0.6,9.6-1.8
			c2.9-1.2,5.4-2.9,7.4-5.2c2-2.3,3.6-5,4.8-8.2C558.1,586.9,558.6,583.3,558.6,579.2z"/>
	</g>
	<g class="st3">
		<path class="st1" d="M54.9,664.3v16.2H52v-40.1h10.3c4.7,0,8.3,1,10.6,3.1c2.4,2.1,3.6,5,3.6,8.8c0,1.8-0.3,3.4-1,4.8
			c-0.7,1.5-1.6,2.7-2.8,3.8c-1.2,1.1-2.7,1.9-4.5,2.5s-3.7,0.9-6,0.9H54.9z M54.9,661.9h7.5c1.8,0,3.4-0.2,4.8-0.7
			c1.4-0.5,2.6-1.2,3.6-2c1-0.9,1.7-1.9,2.2-3.1c0.5-1.2,0.8-2.5,0.8-3.9c0-3.1-0.9-5.5-2.8-7.1c-1.9-1.7-4.7-2.5-8.5-2.5h-7.5
			V661.9z"/>
		<path class="st1" d="M91.5,680.4v-28.2h1.4c0.3,0,0.6,0.1,0.7,0.2c0.1,0.1,0.2,0.4,0.2,0.7l0.2,6c0.9-2.3,2.1-4.1,3.6-5.4
			c1.5-1.3,3.4-1.9,5.6-1.9c0.9,0,1.6,0.1,2.4,0.3c0.7,0.2,1.4,0.4,2,0.8l-0.4,1.9c-0.1,0.3-0.2,0.5-0.6,0.5c-0.1,0-0.3,0-0.5-0.1
			c-0.2-0.1-0.5-0.2-0.8-0.3c-0.3-0.1-0.7-0.2-1.1-0.3c-0.5-0.1-1-0.1-1.6-0.1c-2.1,0-3.9,0.7-5.3,2s-2.5,3.2-3.3,5.7v18.3H91.5z"/>
		<path class="st1" d="M138.6,680.4c-0.6,0-0.9-0.3-1-0.8l-0.4-3.6c-0.8,0.8-1.5,1.4-2.3,2c-0.8,0.6-1.6,1.1-2.4,1.5
			c-0.8,0.4-1.7,0.7-2.7,1c-1,0.2-2,0.3-3.2,0.3c-1,0-1.9-0.1-2.8-0.4c-0.9-0.3-1.7-0.7-2.4-1.3c-0.7-0.6-1.3-1.3-1.7-2.3
			c-0.4-0.9-0.6-2-0.6-3.3c0-1.2,0.3-2.3,1-3.3c0.7-1,1.7-1.9,3.2-2.7s3.3-1.4,5.6-1.8c2.3-0.5,5-0.7,8.2-0.8v-2.9
			c0-2.6-0.6-4.6-1.7-6c-1.1-1.4-2.8-2.1-5-2.1c-1.4,0-2.5,0.2-3.5,0.6c-1,0.4-1.8,0.8-2.4,1.2c-0.7,0.5-1.2,0.9-1.6,1.2
			s-0.8,0.6-1,0.6c-0.4,0-0.7-0.2-0.9-0.5l-0.5-0.8c1.5-1.5,3-2.6,4.6-3.3c1.6-0.8,3.5-1.1,5.5-1.1c1.5,0,2.8,0.2,4,0.7
			c1.1,0.5,2.1,1.2,2.8,2.1c0.7,0.9,1.3,2,1.7,3.3c0.4,1.3,0.6,2.7,0.6,4.3v18.4H138.6z M127.3,678.9c1.1,0,2.1-0.1,3-0.4
			c0.9-0.2,1.8-0.6,2.6-1c0.8-0.4,1.5-0.9,2.2-1.5c0.7-0.6,1.4-1.2,2-1.9v-7.3c-2.7,0.1-5,0.3-6.9,0.6c-1.9,0.3-3.5,0.8-4.8,1.3
			c-1.3,0.6-2.2,1.2-2.8,2c-0.6,0.8-0.9,1.7-0.9,2.7c0,0.9,0.2,1.8,0.5,2.5c0.3,0.7,0.7,1.3,1.2,1.7c0.5,0.4,1.1,0.8,1.8,1
			C125.8,678.8,126.5,678.9,127.3,678.9z"/>
		<path class="st1" d="M159.2,639.2v25.1h1.3c0.3,0,0.5,0,0.8-0.1c0.2-0.1,0.5-0.3,0.8-0.5l11.3-10.7c0.2-0.2,0.4-0.4,0.6-0.5
			c0.2-0.1,0.5-0.2,0.8-0.2h2.4L164.8,664c-0.2,0.2-0.4,0.4-0.5,0.5c-0.2,0.2-0.4,0.3-0.6,0.4c0.3,0.2,0.6,0.3,0.8,0.5
			c0.2,0.2,0.4,0.4,0.7,0.7l13.1,14.2h-2.4c-0.3,0-0.5-0.1-0.7-0.2c-0.2-0.1-0.4-0.3-0.6-0.5l-11.8-12.7c-0.3-0.3-0.6-0.6-0.9-0.7
			c-0.3-0.1-0.7-0.2-1.2-0.2h-1.3v14.2h-2.7v-41.2H159.2z"/>
		<path class="st1" d="M199.9,680.9c-1.9,0-3.4-0.5-4.5-1.6c-1.1-1.1-1.6-2.7-1.6-4.9v-19.3h-4.1c-0.2,0-0.4-0.1-0.5-0.2
			c-0.1-0.1-0.2-0.3-0.2-0.5v-1l4.8-0.3l0.7-10.1c0-0.2,0.1-0.3,0.2-0.5c0.1-0.1,0.3-0.2,0.5-0.2h1.3v10.8h8.9v2h-8.9v19.1
			c0,0.8,0.1,1.4,0.3,2c0.2,0.6,0.5,1,0.8,1.4c0.3,0.4,0.8,0.6,1.2,0.8c0.5,0.2,1,0.3,1.5,0.3c0.7,0,1.3-0.1,1.8-0.3
			c0.5-0.2,0.9-0.4,1.3-0.7c0.4-0.2,0.7-0.5,0.9-0.7c0.2-0.2,0.4-0.3,0.5-0.3c0.2,0,0.3,0.1,0.5,0.3l0.7,1.2
			c-0.7,0.8-1.6,1.4-2.7,1.9C202.2,680.6,201.1,680.9,199.9,680.9z"/>
		<path class="st1" d="M225.1,642.5c0,0.3-0.1,0.7-0.2,1c-0.1,0.3-0.3,0.6-0.6,0.8c-0.2,0.2-0.5,0.4-0.8,0.5c-0.3,0.1-0.6,0.2-1,0.2
			s-0.7-0.1-1-0.2c-0.3-0.1-0.6-0.3-0.8-0.5c-0.2-0.2-0.4-0.5-0.5-0.8c-0.1-0.3-0.2-0.6-0.2-1c0-0.3,0.1-0.7,0.2-1
			c0.1-0.3,0.3-0.6,0.5-0.8c0.2-0.2,0.5-0.4,0.8-0.5c0.3-0.1,0.6-0.2,1-0.2s0.7,0.1,1,0.2c0.3,0.1,0.6,0.3,0.8,0.5
			c0.2,0.2,0.4,0.5,0.6,0.8C225,641.8,225.1,642.2,225.1,642.5z M223.9,652.2v28.2h-2.7v-28.2H223.9z"/>
		<path class="st1" d="M245.4,652.2V684c0,1-0.1,1.9-0.4,2.7c-0.3,0.8-0.7,1.6-1.3,2.2c-0.6,0.6-1.3,1.1-2.1,1.4
			c-0.8,0.3-1.8,0.5-3,0.5c-0.5,0-1,0-1.5-0.1c-0.4-0.1-0.9-0.2-1.3-0.5l0.1-1.4c0-0.2,0.2-0.3,0.4-0.3c0.2,0,0.4,0,0.6,0.1
			c0.3,0.1,0.6,0.1,1.1,0.1c1.5,0,2.7-0.4,3.4-1.2c0.7-0.8,1.1-2,1.1-3.5v-31.8H245.4z M246.6,642.5c0,0.3-0.1,0.7-0.2,1
			s-0.3,0.6-0.6,0.8c-0.2,0.2-0.5,0.4-0.8,0.5c-0.3,0.1-0.6,0.2-1,0.2c-0.3,0-0.7-0.1-1-0.2c-0.3-0.1-0.6-0.3-0.8-0.5
			c-0.2-0.2-0.4-0.5-0.5-0.8c-0.1-0.3-0.2-0.6-0.2-1c0-0.3,0.1-0.7,0.2-1c0.1-0.3,0.3-0.6,0.5-0.8c0.2-0.2,0.5-0.4,0.8-0.5
			c0.3-0.1,0.6-0.2,1-0.2c0.3,0,0.7,0.1,1,0.2c0.3,0.1,0.6,0.3,0.8,0.5c0.2,0.2,0.4,0.5,0.6,0.8S246.6,642.2,246.6,642.5z"/>
		<path class="st1" d="M266.3,639.2v25.1h1.3c0.3,0,0.5,0,0.8-0.1c0.2-0.1,0.5-0.3,0.8-0.5l11.3-10.7c0.2-0.2,0.4-0.4,0.6-0.5
			c0.2-0.1,0.5-0.2,0.8-0.2h2.4L271.9,664c-0.2,0.2-0.4,0.4-0.5,0.5c-0.2,0.2-0.4,0.3-0.6,0.4c0.3,0.2,0.6,0.3,0.8,0.5
			c0.2,0.2,0.4,0.4,0.7,0.7l13.1,14.2h-2.4c-0.3,0-0.5-0.1-0.7-0.2c-0.2-0.1-0.4-0.3-0.6-0.5l-11.8-12.7c-0.3-0.3-0.6-0.6-0.9-0.7
			c-0.3-0.1-0.7-0.2-1.2-0.2h-1.3v14.2h-2.7v-41.2H266.3z"/>
		<path class="st1" d="M336.3,680.4c-0.6,0-0.9-0.3-1-0.8l-0.4-3.6c-0.8,0.8-1.5,1.4-2.3,2s-1.6,1.1-2.4,1.5c-0.8,0.4-1.7,0.7-2.7,1
			c-1,0.2-2,0.3-3.2,0.3c-1,0-1.9-0.1-2.8-0.4c-0.9-0.3-1.7-0.7-2.4-1.3c-0.7-0.6-1.3-1.3-1.7-2.3c-0.4-0.9-0.6-2-0.6-3.3
			c0-1.2,0.3-2.3,1-3.3c0.7-1,1.7-1.9,3.2-2.7c1.4-0.8,3.3-1.4,5.6-1.8c2.3-0.5,5-0.7,8.2-0.8v-2.9c0-2.6-0.6-4.6-1.7-6
			c-1.1-1.4-2.8-2.1-5-2.1c-1.4,0-2.5,0.2-3.5,0.6c-1,0.4-1.8,0.8-2.4,1.2c-0.7,0.5-1.2,0.9-1.6,1.2c-0.4,0.4-0.8,0.6-1,0.6
			c-0.4,0-0.7-0.2-0.9-0.5l-0.5-0.8c1.5-1.5,3-2.6,4.6-3.3c1.6-0.8,3.5-1.1,5.5-1.1c1.5,0,2.8,0.2,4,0.7c1.1,0.5,2.1,1.2,2.8,2.1
			c0.7,0.9,1.3,2,1.7,3.3c0.4,1.3,0.6,2.7,0.6,4.3v18.4H336.3z M324.9,678.9c1.1,0,2.1-0.1,3-0.4c0.9-0.2,1.8-0.6,2.6-1
			c0.8-0.4,1.5-0.9,2.2-1.5c0.7-0.6,1.4-1.2,2-1.9v-7.3c-2.7,0.1-5,0.3-6.9,0.6c-1.9,0.3-3.5,0.8-4.8,1.3s-2.2,1.2-2.8,2
			c-0.6,0.8-0.9,1.7-0.9,2.7c0,0.9,0.2,1.8,0.5,2.5s0.7,1.3,1.2,1.7c0.5,0.4,1.1,0.8,1.8,1C323.5,678.8,324.2,678.9,324.9,678.9z"/>
		<path class="st1" d="M371.9,680.4c-0.6,0-0.9-0.3-1-0.8l-0.4-3.6c-0.8,0.8-1.5,1.4-2.3,2s-1.6,1.1-2.4,1.5c-0.8,0.4-1.7,0.7-2.7,1
			c-1,0.2-2,0.3-3.2,0.3c-1,0-1.9-0.1-2.8-0.4c-0.9-0.3-1.7-0.7-2.4-1.3c-0.7-0.6-1.3-1.3-1.7-2.3c-0.4-0.9-0.6-2-0.6-3.3
			c0-1.2,0.3-2.3,1-3.3c0.7-1,1.7-1.9,3.2-2.7c1.4-0.8,3.3-1.4,5.6-1.8c2.3-0.5,5-0.7,8.2-0.8v-2.9c0-2.6-0.6-4.6-1.7-6
			c-1.1-1.4-2.8-2.1-5-2.1c-1.4,0-2.5,0.2-3.5,0.6c-1,0.4-1.8,0.8-2.4,1.2c-0.7,0.5-1.2,0.9-1.6,1.2s-0.8,0.6-1,0.6
			c-0.4,0-0.7-0.2-0.9-0.5l-0.5-0.8c1.5-1.5,3-2.6,4.6-3.3c1.6-0.8,3.5-1.1,5.5-1.1c1.5,0,2.8,0.2,4,0.7c1.1,0.5,2.1,1.2,2.8,2.1
			c0.7,0.9,1.3,2,1.7,3.3c0.4,1.3,0.6,2.7,0.6,4.3v18.4H371.9z M360.6,678.9c1.1,0,2.1-0.1,3-0.4c0.9-0.2,1.8-0.6,2.6-1
			c0.8-0.4,1.5-0.9,2.2-1.5c0.7-0.6,1.4-1.2,2-1.9v-7.3c-2.7,0.1-5,0.3-6.9,0.6c-1.9,0.3-3.5,0.8-4.8,1.3c-1.3,0.6-2.2,1.2-2.8,2
			c-0.6,0.8-0.9,1.7-0.9,2.7c0,0.9,0.2,1.8,0.5,2.5c0.3,0.7,0.7,1.3,1.2,1.7c0.5,0.4,1.1,0.8,1.8,1
			C359.1,678.8,359.8,678.9,360.6,678.9z"/>
		<path class="st1" d="M389.5,680.4v-28.2h1.5c0.5,0,0.8,0.2,0.9,0.7l0.3,4.3c1.3-1.6,2.8-2.9,4.5-3.9c1.7-1,3.6-1.5,5.7-1.5
			c1.6,0,2.9,0.2,4.1,0.7c1.2,0.5,2.2,1.2,2.9,2.1c0.8,0.9,1.4,2,1.8,3.3c0.4,1.3,0.6,2.8,0.6,4.4v18H409v-18c0-2.6-0.6-4.7-1.8-6.2
			c-1.2-1.5-3.1-2.3-5.6-2.3c-1.9,0-3.6,0.5-5.2,1.4c-1.6,1-3,2.3-4.3,3.9v21.1H389.5z"/>
		<path class="st1" d="M447.2,680.4v-41.2h2.7V657c1.3-1.6,2.8-2.9,4.5-3.8c1.7-1,3.5-1.4,5.6-1.4c1.6,0,2.9,0.2,4.1,0.7
			c1.2,0.5,2.2,1.2,2.9,2.1c0.8,0.9,1.4,2,1.8,3.3c0.4,1.3,0.6,2.8,0.6,4.4v18h-2.7v-18c0-2.6-0.6-4.7-1.8-6.2
			c-1.2-1.5-3.1-2.3-5.6-2.3c-1.9,0-3.6,0.5-5.2,1.4s-3,2.3-4.3,3.9v21.1H447.2z"/>
		<path class="st1" d="M487.9,652.2v18c0,2.6,0.6,4.7,1.8,6.2c1.2,1.5,3.1,2.3,5.5,2.3c1.8,0,3.6-0.5,5.1-1.4c1.6-0.9,3-2.2,4.3-3.9
			v-21.2h2.7v28.2H506c-0.5,0-0.8-0.2-0.8-0.7l-0.3-4.2c-1.3,1.6-2.8,2.9-4.5,3.9c-1.7,1-3.6,1.5-5.7,1.5c-1.6,0-2.9-0.2-4.1-0.7
			c-1.2-0.5-2.1-1.2-2.9-2.1c-0.8-0.9-1.4-2-1.8-3.3c-0.4-1.3-0.6-2.8-0.6-4.4v-18H487.9z"/>
		<path class="st1" d="M529.4,642.5c0,0.3-0.1,0.7-0.2,1c-0.1,0.3-0.3,0.6-0.6,0.8c-0.2,0.2-0.5,0.4-0.8,0.5c-0.3,0.1-0.6,0.2-1,0.2
			s-0.7-0.1-1-0.2c-0.3-0.1-0.6-0.3-0.8-0.5c-0.2-0.2-0.4-0.5-0.5-0.8s-0.2-0.6-0.2-1c0-0.3,0.1-0.7,0.2-1s0.3-0.6,0.5-0.8
			c0.2-0.2,0.5-0.4,0.8-0.5c0.3-0.1,0.6-0.2,1-0.2s0.7,0.1,1,0.2c0.3,0.1,0.6,0.3,0.8,0.5c0.2,0.2,0.4,0.5,0.6,0.8
			C529.3,641.8,529.4,642.2,529.4,642.5z M528.2,652.2v28.2h-2.7v-28.2H528.2z"/>
		<path class="st1" d="M561.7,655.7c-0.1,0.3-0.3,0.4-0.6,0.4c-0.2,0-0.5-0.1-0.8-0.4c-0.3-0.2-0.8-0.5-1.3-0.8
			c-0.5-0.3-1.2-0.6-2-0.8c-0.8-0.2-1.7-0.4-2.9-0.4c-1,0-2,0.1-2.8,0.4c-0.8,0.3-1.6,0.7-2.2,1.2c-0.6,0.5-1.1,1.1-1.4,1.7
			c-0.3,0.7-0.5,1.3-0.5,2.1c0,0.9,0.2,1.6,0.7,2.2c0.5,0.6,1,1.1,1.8,1.5c0.7,0.4,1.6,0.8,2.5,1.1c0.9,0.3,1.9,0.6,2.9,0.9
			c1,0.3,1.9,0.6,2.9,1c0.9,0.4,1.8,0.8,2.5,1.4c0.7,0.5,1.3,1.2,1.8,2c0.5,0.8,0.7,1.8,0.7,2.9c0,1.2-0.2,2.4-0.7,3.4
			c-0.4,1.1-1.1,2-1.9,2.7c-0.8,0.8-1.9,1.4-3.1,1.8c-1.2,0.5-2.6,0.7-4.2,0.7c-2,0-3.7-0.3-5.1-0.9c-1.4-0.6-2.7-1.5-3.9-2.5l0.7-1
			c0.1-0.2,0.2-0.3,0.3-0.3c0.1-0.1,0.3-0.1,0.5-0.1c0.2,0,0.5,0.2,0.9,0.5c0.4,0.3,0.8,0.6,1.4,1c0.6,0.3,1.3,0.7,2.2,1
			c0.9,0.3,1.9,0.5,3.2,0.5c1.2,0,2.2-0.2,3.1-0.5c0.9-0.3,1.7-0.8,2.3-1.3c0.6-0.6,1.1-1.2,1.4-2c0.3-0.8,0.5-1.6,0.5-2.4
			c0-0.9-0.2-1.7-0.7-2.4c-0.5-0.6-1-1.2-1.8-1.6c-0.7-0.4-1.6-0.8-2.5-1.1s-1.9-0.6-2.9-0.9c-1-0.3-2-0.6-2.9-1
			c-0.9-0.4-1.8-0.8-2.5-1.4c-0.7-0.5-1.3-1.2-1.8-2c-0.5-0.8-0.7-1.8-0.7-2.9c0-1,0.2-2,0.7-2.9c0.4-0.9,1.1-1.7,1.9-2.4
			c0.8-0.7,1.8-1.3,2.9-1.7c1.2-0.4,2.4-0.6,3.9-0.6c1.7,0,3.2,0.2,4.6,0.7c1.3,0.5,2.6,1.3,3.7,2.3L561.7,655.7z"/>
	</g>
</g>
</svg>
