<?xml version="1.0" encoding="utf-8"?>
<!-- Generator: Adobe Illustrator 25.2.0, SVG Export Plug-In . SVG Version: 6.00 Build 0)  -->
<svg version="1.1" id="Layer_1" xmlns="http://www.w3.org/2000/svg" xmlns:xlink="http://www.w3.org/1999/xlink" x="0px" y="0px"
	 viewBox="0 0 612 792" style="enable-background:new 0 0 612 792;" xml:space="preserve">
<style type="text/css">
	.st0{fill:url(#SVGID_1_);}
	.st1{fill:#87D4ED;}
	.st2{fill:url(#SVGID_2_);}
	.st3{fill:url(#SVGID_3_);}
	.st4{enable-background:new    ;}
	.st5{opacity:0.76;enable-background:new    ;}
</style>
<g id="Layer_2_1_">
</g>
<g id="Layer_3">
	
		<linearGradient id="SVGID_1_" gradientUnits="userSpaceOnUse" x1="162.6684" y1="-483.7271" x2="417.428" y2="-82.3797" gradientTransform="matrix(1 0 0 1 0 592)">
		<stop  offset="0" style="stop-color:#4361AC"/>
		<stop  offset="1" style="stop-color:#224E8D"/>
	</linearGradient>
	<path class="st0" d="M421.9,208.2c-7.5-22.6-19-42.5-37.6-57.9c-15.7-13-33.4-21.3-53.8-23.5c-11.6-1.2-23.2-1.6-34.8-0.9
		c-16.2,1-32.4,2.5-48.2,6.5c-27.2,6.8-50,20.7-67.2,43c-12.9,16.7-20.9,35.6-25,56.2c-2.9,14.5-4.3,29,0.4,43.5
		c1.5,4.5,0.7,9-1.3,13.5c-6.1,13.3-13.8,25.7-22.8,37.2c-2.5,3.2-4.6,7-6,10.9c-1.7,4.5-0.2,7.9,3.9,10.3c3,1.7,6.2,3.2,9.4,4.1
		c5.9,1.7,8.2,5.8,6,11.5c-0.5,1.3-1.2,2.5-2,3.7c-3.3,5.4-2.3,9.8,3.1,13c1.9,1.1,3.9,1.9,6,2.9c-0.3,0.3-0.5,0.5-0.7,0.8
		c-6.2,5.5-5.6,11.6,1.3,16.3c1.7,1.1,3.2,2.6,4.4,4.3c3,4.2,4.5,9.1,5.3,14.2c0.5,3.4,1.2,6.8,2.4,10c2.7,6.9,8,10.7,15.4,10.6
		c11.3-0.1,22.5-2.8,33.3-6.1c7.2-2.2,21.8-11.1,28.7-5.2c4,3.5,5.6,9.5,7.3,14.3c2.4,6.7,3.7,13.8,3.8,20.9
		c0.1,13.5-4.3,26.4-8.6,39c-4.6,13.4,42.7,0.3,52.2-5.1c14.8-8.4,44.4-16.8,71.1-9.7c3.5,0.9,6.8,2.4,10.2,3.6
		c-7.7-8.5-13.4-18-16.5-28.9c-4.5-15.7-3.3-31.4,0.8-46.9c6.5-24.5,18.4-46.3,33.6-66.4c7.9-10.4,14.7-21.4,20.9-33
		c8.3-15.6,12.9-32.2,13.5-49.9C430.9,245.5,428,226.6,421.9,208.2z"/>
	<path class="st1" d="M294.5,160.3c-26.9-0.9-55.1,5.1-74.3,21.2c-23,19.3-37.5,52.6-37.3,82.3c0,4,0.3,8,0.8,12
		c4.1,31.2,24,60.8,52.1,75.2c25.8,13.2,56.5,13,83.7,4.3c16.4-5.3,31.8-13.7,45-24.8c19.4-16.4,26.4-40.8,28.1-65.3
		c1.8-25.1-1.4-52.2-17.9-72.4c-10.6-13-25.7-21.7-41.8-26.5C321.4,162.9,308.1,160.7,294.5,160.3z"/>
	
		<linearGradient id="SVGID_2_" gradientUnits="userSpaceOnUse" x1="207.8974" y1="-331.0428" x2="368.214" y2="-331.0428" gradientTransform="matrix(1 0 0 1 0 592)">
		<stop  offset="0" style="stop-color:#4361AC"/>
		<stop  offset="1" style="stop-color:#224E8D"/>
	</linearGradient>
	<path class="st2" d="M293,184.2c-20.5-0.6-42,3.9-56.7,16.2c-17.5,14.8-28.6,40.1-28.4,62.8c0,3.1,0.2,6.1,0.6,9.2
		c3.1,23.8,18.3,46.4,39.8,57.4c19.6,10.1,43.1,9.9,63.8,3.3c12.5-4,24.3-10.4,34.3-18.9c14.8-12.5,20.1-31.1,21.5-49.8
		c1.3-19.2-1.1-39.8-13.6-55.2c-8.1-9.9-19.6-16.6-31.9-20.2C313.5,186.1,303.3,184.5,293,184.2z"/>
	<path class="st1" d="M291.4,209c-13.9-0.4-28.4,2.6-38.3,10.9c-11.9,10-19.3,27.1-19.2,42.4c0,2.1,0.1,4.1,0.4,6.2
		c2.1,16.1,12.4,31.3,26.9,38.8c13.3,6.8,29.1,6.7,43.1,2.2c8.5-2.7,16.4-7,23.2-12.8c10-8.5,13.6-21,14.5-33.7
		c0.9-13-0.7-26.9-9.2-37.3c-5.5-6.7-13.3-11.2-21.5-13.6C305.2,210.4,298.4,209.2,291.4,209z"/>
	
		<linearGradient id="SVGID_3_" gradientUnits="userSpaceOnUse" x1="251.9984" y1="-330.6227" x2="319.8472" y2="-330.6227" gradientTransform="matrix(1 0 0 1 0 592)">
		<stop  offset="0" style="stop-color:#4361AC"/>
		<stop  offset="1" style="stop-color:#224E8D"/>
	</linearGradient>
	<path class="st3" d="M288,228.9c-8.7-0.3-17.8,1.6-24,6.9c-7.4,6.2-12.1,17-12,26.5c0,1.3,0.1,2.6,0.3,3.9
		c1.3,10.1,7.7,19.6,16.8,24.3c8.3,4.3,18.2,4.2,27,1.4c5.3-1.7,10.3-4.4,14.5-8c6.3-5.3,8.5-13.2,9.1-21.1
		c0.6-8.1-0.5-16.9-5.8-23.4c-3.4-4.2-8.3-7-13.5-8.5C296.6,229.7,292.4,229,288,228.9z"/>
</g>
<g id="Layer_1_1_">
	<g id="Layer_2_2_">
	</g>
	<g class="st4">
		<path d="M100.8,615.8H89.6v-26.1h-28v26.1H50.5v-59.6h11.2v25.7h28v-25.7h11.2V615.8z"/>
		<path d="M150.5,556.2v8.8H124v16.5h20.8v8.5H124V607h26.4v8.9h-37.6v-59.6H150.5z"/>
		<path d="M212.5,615.8h-8.6c-1,0-1.8-0.2-2.4-0.7c-0.6-0.5-1.1-1.1-1.3-1.8l-4.5-12.2H171l-4.5,12.2c-0.2,0.6-0.7,1.2-1.3,1.7
			c-0.6,0.5-1.4,0.8-2.4,0.8h-8.6l23.4-59.6h11.3L212.5,615.8z M173.9,593.3h19l-7.3-19.8c-0.3-0.9-0.7-1.9-1.1-3.1
			s-0.8-2.5-1.2-3.9c-0.4,1.4-0.8,2.7-1.1,3.9c-0.4,1.2-0.7,2.3-1.1,3.2L173.9,593.3z"/>
		<path d="M271.6,586c0,4.4-0.7,8.4-2.2,12c-1.5,3.7-3.5,6.8-6.1,9.4c-2.6,2.6-5.8,4.7-9.5,6.1c-3.7,1.5-7.8,2.2-12.3,2.2h-22.8
			v-59.6h22.8c4.5,0,8.6,0.7,12.3,2.2c3.7,1.5,6.9,3.5,9.5,6.1c2.6,2.6,4.7,5.8,6.1,9.4C270.9,577.6,271.6,581.6,271.6,586z
			 M260.3,586c0-3.3-0.4-6.2-1.3-8.8c-0.9-2.6-2.1-4.8-3.8-6.6c-1.6-1.8-3.6-3.2-5.9-4.1c-2.3-1-4.9-1.4-7.9-1.4h-11.6v42h11.6
			c2.9,0,5.5-0.5,7.9-1.4c2.3-1,4.3-2.3,5.9-4.1c1.6-1.8,2.9-4,3.8-6.6C259.8,592.2,260.3,589.3,260.3,586z"/>
		<path d="M312.3,567c-0.3,0.6-0.7,1-1.1,1.3c-0.4,0.2-0.9,0.4-1.4,0.4c-0.6,0-1.2-0.2-1.9-0.6c-0.7-0.4-1.5-0.9-2.4-1.4
			c-0.9-0.5-2-1-3.3-1.4c-1.3-0.4-2.7-0.6-4.4-0.6c-1.5,0-2.9,0.2-4,0.6c-1.1,0.4-2.1,0.9-2.9,1.5c-0.8,0.7-1.4,1.4-1.8,2.4
			c-0.4,0.9-0.6,1.9-0.6,3c0,1.4,0.4,2.6,1.2,3.5c0.8,0.9,1.8,1.7,3.1,2.4c1.3,0.7,2.8,1.3,4.4,1.8s3.3,1.1,5.1,1.7
			c1.7,0.6,3.4,1.3,5.1,2.1c1.6,0.8,3.1,1.8,4.4,3c1.3,1.2,2.3,2.7,3.1,4.4c0.8,1.7,1.2,3.8,1.2,6.3c0,2.7-0.5,5.2-1.4,7.6
			c-0.9,2.4-2.3,4.4-4,6.1c-1.8,1.7-3.9,3.1-6.5,4.1c-2.6,1-5.5,1.5-8.8,1.5c-1.9,0-3.8-0.2-5.6-0.6c-1.8-0.4-3.6-0.9-5.3-1.6
			c-1.7-0.7-3.3-1.5-4.7-2.5c-1.5-1-2.8-2-3.9-3.2l3.2-5.3c0.3-0.4,0.7-0.7,1.1-1c0.4-0.3,0.9-0.4,1.4-0.4c0.7,0,1.4,0.3,2.2,0.8
			c0.8,0.6,1.7,1.2,2.8,1.9c1.1,0.7,2.4,1.3,3.8,1.9c1.5,0.6,3.2,0.8,5.3,0.8c3.2,0,5.6-0.7,7.3-2.2c1.7-1.5,2.6-3.7,2.6-6.5
			c0-1.6-0.4-2.8-1.2-3.8c-0.8-1-1.8-1.8-3.1-2.5c-1.3-0.7-2.8-1.2-4.4-1.7c-1.6-0.5-3.3-1-5-1.5c-1.7-0.6-3.4-1.2-5-2
			c-1.6-0.8-3.1-1.8-4.4-3c-1.3-1.2-2.3-2.8-3.1-4.6s-1.2-4.1-1.2-6.9c0-2.2,0.4-4.3,1.3-6.4c0.9-2.1,2.1-3.9,3.8-5.5
			c1.7-1.6,3.7-2.9,6.1-3.8c2.4-1,5.2-1.4,8.3-1.4c3.5,0,6.8,0.6,9.7,1.6c3,1.1,5.5,2.6,7.6,4.6L312.3,567z"/>
	</g>
	<g class="st4">
		<path d="M347.3,612.2h27.7v3.6H343v-58.4h4.2V612.2z"/>
		<path d="M434,586.6c0,4.5-0.7,8.6-2,12.3c-1.3,3.7-3.2,6.8-5.7,9.4c-2.4,2.6-5.4,4.6-8.8,6c-3.4,1.4-7.2,2.1-11.3,2.1
			c-4.1,0-7.8-0.7-11.3-2.1c-3.4-1.4-6.3-3.4-8.8-6c-2.4-2.6-4.4-5.7-5.7-9.4c-1.4-3.7-2-7.8-2-12.3c0-4.5,0.7-8.6,2-12.2
			c1.4-3.7,3.3-6.8,5.7-9.4c2.4-2.6,5.4-4.6,8.8-6c3.4-1.4,7.2-2.1,11.3-2.1c4.2,0,7.9,0.7,11.3,2.1c3.4,1.4,6.3,3.4,8.8,6
			c2.4,2.6,4.3,5.8,5.7,9.4C433.3,578.1,434,582.2,434,586.6z M429.6,586.6c0-4.1-0.6-7.7-1.7-11s-2.7-6-4.8-8.2
			c-2-2.3-4.5-4-7.4-5.2c-2.9-1.2-6.1-1.8-9.6-1.8c-3.5,0-6.6,0.6-9.5,1.8c-2.9,1.2-5.3,2.9-7.4,5.2c-2.1,2.3-3.7,5-4.8,8.2
			s-1.7,6.9-1.7,11c0,4.1,0.6,7.8,1.7,11c1.1,3.2,2.7,6,4.8,8.2c2.1,2.3,4.5,4,7.4,5.2c2.9,1.2,6,1.8,9.5,1.8c3.5,0,6.7-0.6,9.6-1.8
			c2.9-1.2,5.4-2.9,7.4-5.2c2-2.3,3.6-5,4.8-8.2C429,594.4,429.6,590.7,429.6,586.6z"/>
		<path d="M472.8,613.1c2,0,3.8-0.1,5.5-0.3c1.6-0.2,3.2-0.5,4.6-0.9c1.4-0.4,2.8-0.9,4-1.5c1.3-0.6,2.6-1.3,3.9-2v-15.7h-11.2
			c-0.3,0-0.6-0.1-0.8-0.3s-0.3-0.4-0.3-0.7v-2.3h16.1v20.7c-1.5,1-3,1.9-4.5,2.7c-1.6,0.8-3.2,1.5-5,2c-1.8,0.5-3.7,0.9-5.8,1.2
			c-2.1,0.3-4.3,0.4-6.8,0.4c-4.2,0-8-0.7-11.5-2.1c-3.5-1.4-6.5-3.4-8.9-6c-2.5-2.6-4.4-5.7-5.8-9.4c-1.4-3.7-2.1-7.8-2.1-12.3
			c0-4.5,0.7-8.6,2.1-12.3c1.4-3.7,3.3-6.8,5.9-9.4c2.5-2.6,5.6-4.6,9.2-6c3.6-1.4,7.7-2.1,12.1-2.1c2.2,0,4.3,0.2,6.2,0.5
			c1.9,0.3,3.6,0.7,5.3,1.3c1.6,0.6,3.1,1.3,4.5,2.2c1.4,0.9,2.7,1.9,4,3l-1.1,1.8c-0.2,0.4-0.6,0.6-1,0.6c-0.2,0-0.5-0.1-0.7-0.2
			c-0.4-0.2-1-0.6-1.8-1.2c-0.8-0.6-1.8-1.2-3.2-1.9c-1.3-0.7-3-1.3-5-1.8c-2-0.5-4.4-0.8-7.3-0.8c-3.8,0-7.2,0.6-10.3,1.8
			c-3.1,1.2-5.7,2.9-7.8,5.2c-2.2,2.3-3.8,5-5,8.2c-1.2,3.2-1.8,6.9-1.8,10.9c0,4.1,0.6,7.8,1.8,11.1c1.2,3.3,2.8,6,5,8.3
			c2.1,2.3,4.7,4,7.7,5.2C465.9,612.5,469.2,613.1,472.8,613.1z"/>
		<path d="M561.5,586.6c0,4.5-0.7,8.6-2,12.3c-1.3,3.7-3.2,6.8-5.7,9.4c-2.4,2.6-5.4,4.6-8.8,6c-3.4,1.4-7.2,2.1-11.3,2.1
			c-4.1,0-7.8-0.7-11.3-2.1c-3.4-1.4-6.3-3.4-8.8-6c-2.4-2.6-4.4-5.7-5.7-9.4c-1.4-3.7-2-7.8-2-12.3c0-4.5,0.7-8.6,2-12.2
			c1.4-3.7,3.3-6.8,5.7-9.4c2.4-2.6,5.4-4.6,8.8-6c3.4-1.4,7.2-2.1,11.3-2.1c4.2,0,7.9,0.7,11.3,2.1c3.4,1.4,6.3,3.4,8.8,6
			c2.4,2.6,4.3,5.8,5.7,9.4C560.8,578.1,561.5,582.2,561.5,586.6z M557.1,586.6c0-4.1-0.6-7.7-1.7-11s-2.7-6-4.8-8.2
			c-2-2.3-4.5-4-7.4-5.2c-2.9-1.2-6.1-1.8-9.6-1.8c-3.5,0-6.6,0.6-9.5,1.8c-2.9,1.2-5.3,2.9-7.4,5.2c-2.1,2.3-3.7,5-4.8,8.2
			c-1.1,3.2-1.7,6.9-1.7,11c0,4.1,0.6,7.8,1.7,11c1.1,3.2,2.7,6,4.8,8.2c2.1,2.3,4.5,4,7.4,5.2c2.9,1.2,6,1.8,9.5,1.8
			c3.5,0,6.7-0.6,9.6-1.8c2.9-1.2,5.4-2.9,7.4-5.2c2-2.3,3.6-5,4.8-8.2C556.6,594.4,557.1,590.7,557.1,586.6z"/>
	</g>
	<g class="st5">
		<path d="M53.4,671.7v16.2h-2.9v-40.1h10.3c4.7,0,8.3,1,10.6,3.1c2.4,2.1,3.6,5,3.6,8.8c0,1.8-0.3,3.4-1,4.8
			c-0.7,1.5-1.6,2.7-2.8,3.8c-1.2,1.1-2.7,1.9-4.5,2.5s-3.7,0.9-6,0.9H53.4z M53.4,669.4h7.5c1.8,0,3.4-0.2,4.8-0.7
			c1.4-0.5,2.6-1.2,3.6-2c1-0.9,1.7-1.9,2.2-3.1c0.5-1.2,0.8-2.5,0.8-3.9c0-3.1-0.9-5.5-2.8-7.1c-1.9-1.7-4.7-2.5-8.5-2.5h-7.5
			V669.4z"/>
		<path d="M90,687.9v-28.2h1.4c0.3,0,0.6,0.1,0.7,0.2c0.1,0.1,0.2,0.4,0.2,0.7l0.2,6c0.9-2.3,2.1-4.1,3.6-5.4
			c1.5-1.3,3.4-1.9,5.6-1.9c0.9,0,1.6,0.1,2.4,0.3c0.7,0.2,1.4,0.4,2,0.8l-0.4,1.9c-0.1,0.3-0.2,0.5-0.6,0.5c-0.1,0-0.3,0-0.5-0.1
			c-0.2-0.1-0.5-0.2-0.8-0.3c-0.3-0.1-0.7-0.2-1.1-0.3c-0.5-0.1-1-0.1-1.6-0.1c-2.1,0-3.9,0.7-5.3,2s-2.5,3.2-3.3,5.7v18.3H90z"/>
		<path d="M137.1,687.9c-0.6,0-0.9-0.3-1-0.8l-0.4-3.6c-0.8,0.8-1.5,1.4-2.3,2c-0.8,0.6-1.6,1.1-2.4,1.5c-0.8,0.4-1.7,0.7-2.7,1
			c-1,0.2-2,0.3-3.2,0.3c-1,0-1.9-0.1-2.8-0.4c-0.9-0.3-1.7-0.7-2.4-1.3c-0.7-0.6-1.3-1.3-1.7-2.3c-0.4-0.9-0.6-2-0.6-3.3
			c0-1.2,0.3-2.3,1-3.3c0.7-1,1.7-1.9,3.2-2.7s3.3-1.4,5.6-1.8c2.3-0.5,5-0.7,8.2-0.8v-2.9c0-2.6-0.6-4.6-1.7-6
			c-1.1-1.4-2.8-2.1-5-2.1c-1.4,0-2.5,0.2-3.5,0.6c-1,0.4-1.8,0.8-2.4,1.2c-0.7,0.5-1.2,0.9-1.6,1.2s-0.8,0.6-1,0.6
			c-0.4,0-0.7-0.2-0.9-0.5l-0.5-0.8c1.5-1.5,3-2.6,4.6-3.3c1.6-0.8,3.5-1.1,5.5-1.1c1.5,0,2.8,0.2,4,0.7c1.1,0.5,2.1,1.2,2.8,2.1
			c0.7,0.9,1.3,2,1.7,3.3c0.4,1.3,0.6,2.7,0.6,4.3v18.4H137.1z M125.8,686.4c1.1,0,2.1-0.1,3-0.4c0.9-0.2,1.8-0.6,2.6-1
			c0.8-0.4,1.5-0.9,2.2-1.5c0.7-0.6,1.4-1.2,2-1.9v-7.3c-2.7,0.1-5,0.3-6.9,0.6c-1.9,0.3-3.5,0.8-4.8,1.3c-1.3,0.6-2.2,1.2-2.8,2
			s-0.9,1.7-0.9,2.7c0,0.9,0.2,1.8,0.5,2.5c0.3,0.7,0.7,1.3,1.2,1.7c0.5,0.4,1.1,0.8,1.8,1C124.3,686.3,125,686.4,125.8,686.4z"/>
		<path d="M157.7,646.6v25.1h1.3c0.3,0,0.5,0,0.8-0.1c0.2-0.1,0.5-0.3,0.8-0.5l11.3-10.7c0.2-0.2,0.4-0.4,0.6-0.5
			c0.2-0.1,0.5-0.2,0.8-0.2h2.4l-12.4,11.8c-0.2,0.2-0.4,0.4-0.5,0.5s-0.4,0.3-0.6,0.4c0.3,0.2,0.6,0.3,0.8,0.5
			c0.2,0.2,0.4,0.4,0.7,0.7l13.1,14.2h-2.4c-0.3,0-0.5-0.1-0.7-0.2c-0.2-0.1-0.4-0.3-0.6-0.5l-11.8-12.7c-0.3-0.3-0.6-0.6-0.9-0.7
			c-0.3-0.1-0.7-0.2-1.2-0.2h-1.3v14.2H155v-41.2H157.7z"/>
		<path d="M198.4,688.3c-1.9,0-3.4-0.5-4.5-1.6c-1.1-1.1-1.6-2.7-1.6-4.9v-19.3h-4.1c-0.2,0-0.4-0.1-0.5-0.2
			c-0.1-0.1-0.2-0.3-0.2-0.5v-1l4.8-0.3l0.7-10.1c0-0.2,0.1-0.3,0.2-0.5c0.1-0.1,0.3-0.2,0.5-0.2h1.3v10.8h8.9v2H195v19.1
			c0,0.8,0.1,1.4,0.3,2c0.2,0.6,0.5,1,0.8,1.4c0.3,0.4,0.8,0.6,1.2,0.8c0.5,0.2,1,0.3,1.5,0.3c0.7,0,1.3-0.1,1.8-0.3
			c0.5-0.2,0.9-0.4,1.3-0.7c0.4-0.2,0.7-0.5,0.9-0.7c0.2-0.2,0.4-0.3,0.5-0.3c0.2,0,0.3,0.1,0.5,0.3l0.7,1.2
			c-0.7,0.8-1.6,1.4-2.7,1.9C200.7,688.1,199.6,688.3,198.4,688.3z"/>
		<path d="M223.6,650c0,0.3-0.1,0.7-0.2,1c-0.1,0.3-0.3,0.6-0.6,0.8c-0.2,0.2-0.5,0.4-0.8,0.5c-0.3,0.1-0.6,0.2-1,0.2
			s-0.7-0.1-1-0.2c-0.3-0.1-0.6-0.3-0.8-0.5c-0.2-0.2-0.4-0.5-0.5-0.8c-0.1-0.3-0.2-0.6-0.2-1c0-0.3,0.1-0.7,0.2-1
			c0.1-0.3,0.3-0.6,0.5-0.8c0.2-0.2,0.5-0.4,0.8-0.5c0.3-0.1,0.6-0.2,1-0.2s0.7,0.1,1,0.2c0.3,0.1,0.6,0.3,0.8,0.5
			c0.2,0.2,0.4,0.5,0.6,0.8C223.5,649.3,223.6,649.6,223.6,650z M222.4,659.7v28.2h-2.7v-28.2H222.4z"/>
		<path d="M243.9,659.7v31.8c0,1-0.1,1.9-0.4,2.7c-0.3,0.8-0.7,1.6-1.3,2.2c-0.6,0.6-1.3,1.1-2.1,1.4c-0.8,0.3-1.8,0.5-3,0.5
			c-0.5,0-1,0-1.5-0.1c-0.4-0.1-0.9-0.2-1.3-0.5l0.1-1.4c0-0.2,0.2-0.3,0.4-0.3c0.2,0,0.4,0,0.6,0.1c0.3,0.1,0.6,0.1,1.1,0.1
			c1.5,0,2.7-0.4,3.4-1.2c0.7-0.8,1.1-2,1.1-3.5v-31.8H243.9z M245.1,650c0,0.3-0.1,0.7-0.2,1c-0.1,0.3-0.3,0.6-0.6,0.8
			c-0.2,0.2-0.5,0.4-0.8,0.5c-0.3,0.1-0.6,0.2-1,0.2c-0.3,0-0.7-0.1-1-0.2c-0.3-0.1-0.6-0.3-0.8-0.5c-0.2-0.2-0.4-0.5-0.5-0.8
			c-0.1-0.3-0.2-0.6-0.2-1c0-0.3,0.1-0.7,0.2-1c0.1-0.3,0.3-0.6,0.5-0.8c0.2-0.2,0.5-0.4,0.8-0.5c0.3-0.1,0.6-0.2,1-0.2
			c0.3,0,0.7,0.1,1,0.2c0.3,0.1,0.6,0.3,0.8,0.5c0.2,0.2,0.4,0.5,0.6,0.8S245.1,649.6,245.1,650z"/>
		<path d="M264.8,646.6v25.1h1.3c0.3,0,0.5,0,0.8-0.1c0.2-0.1,0.5-0.3,0.8-0.5l11.3-10.7c0.2-0.2,0.4-0.4,0.6-0.5
			c0.2-0.1,0.5-0.2,0.8-0.2h2.4l-12.4,11.8c-0.2,0.2-0.4,0.4-0.5,0.5s-0.4,0.3-0.6,0.4c0.3,0.2,0.6,0.3,0.8,0.5
			c0.2,0.2,0.4,0.4,0.7,0.7l13.1,14.2h-2.4c-0.3,0-0.5-0.1-0.7-0.2c-0.2-0.1-0.4-0.3-0.6-0.5l-11.8-12.7c-0.3-0.3-0.6-0.6-0.9-0.7
			c-0.3-0.1-0.7-0.2-1.2-0.2h-1.3v14.2h-2.7v-41.2H264.8z"/>
		<path d="M334.8,687.9c-0.6,0-0.9-0.3-1-0.8l-0.4-3.6c-0.8,0.8-1.5,1.4-2.3,2s-1.6,1.1-2.4,1.5c-0.8,0.4-1.7,0.7-2.7,1
			c-1,0.2-2,0.3-3.2,0.3c-1,0-1.9-0.1-2.8-0.4c-0.9-0.3-1.7-0.7-2.4-1.3c-0.7-0.6-1.3-1.3-1.7-2.3c-0.4-0.9-0.6-2-0.6-3.3
			c0-1.2,0.3-2.3,1-3.3c0.7-1,1.7-1.9,3.2-2.7c1.4-0.8,3.3-1.4,5.6-1.8c2.3-0.5,5-0.7,8.2-0.8v-2.9c0-2.6-0.6-4.6-1.7-6
			c-1.1-1.4-2.8-2.1-5-2.1c-1.4,0-2.5,0.2-3.5,0.6c-1,0.4-1.8,0.8-2.4,1.2c-0.7,0.5-1.2,0.9-1.6,1.2c-0.4,0.4-0.8,0.6-1,0.6
			c-0.4,0-0.7-0.2-0.9-0.5l-0.5-0.8c1.5-1.5,3-2.6,4.6-3.3c1.6-0.8,3.5-1.1,5.5-1.1c1.5,0,2.8,0.2,4,0.7c1.1,0.5,2.1,1.2,2.8,2.1
			c0.7,0.9,1.3,2,1.7,3.3c0.4,1.3,0.6,2.7,0.6,4.3v18.4H334.8z M323.4,686.4c1.1,0,2.1-0.1,3-0.4c0.9-0.2,1.8-0.6,2.6-1
			c0.8-0.4,1.5-0.9,2.2-1.5c0.7-0.6,1.4-1.2,2-1.9v-7.3c-2.7,0.1-5,0.3-6.9,0.6c-1.9,0.3-3.5,0.8-4.8,1.3c-1.3,0.6-2.2,1.2-2.8,2
			c-0.6,0.8-0.9,1.7-0.9,2.7c0,0.9,0.2,1.8,0.5,2.5s0.7,1.3,1.2,1.7c0.5,0.4,1.1,0.8,1.8,1C322,686.3,322.7,686.4,323.4,686.4z"/>
		<path d="M370.4,687.9c-0.6,0-0.9-0.3-1-0.8l-0.4-3.6c-0.8,0.8-1.5,1.4-2.3,2s-1.6,1.1-2.4,1.5c-0.8,0.4-1.7,0.7-2.7,1
			c-1,0.2-2,0.3-3.2,0.3c-1,0-1.9-0.1-2.8-0.4c-0.9-0.3-1.7-0.7-2.4-1.3c-0.7-0.6-1.3-1.3-1.7-2.3c-0.4-0.9-0.6-2-0.6-3.3
			c0-1.2,0.3-2.3,1-3.3c0.7-1,1.7-1.9,3.2-2.7c1.4-0.8,3.3-1.4,5.6-1.8c2.3-0.5,5-0.7,8.2-0.8v-2.9c0-2.6-0.6-4.6-1.7-6
			c-1.1-1.4-2.8-2.1-5-2.1c-1.4,0-2.5,0.2-3.5,0.6c-1,0.4-1.8,0.8-2.4,1.2c-0.7,0.5-1.2,0.9-1.6,1.2s-0.8,0.6-1,0.6
			c-0.4,0-0.7-0.2-0.9-0.5l-0.5-0.8c1.5-1.5,3-2.6,4.6-3.3c1.6-0.8,3.5-1.1,5.5-1.1c1.5,0,2.8,0.2,4,0.7c1.1,0.5,2.1,1.2,2.8,2.1
			c0.7,0.9,1.3,2,1.7,3.3c0.4,1.3,0.6,2.7,0.6,4.3v18.4H370.4z M359.1,686.4c1.1,0,2.1-0.1,3-0.4c0.9-0.2,1.8-0.6,2.6-1
			c0.8-0.4,1.5-0.9,2.2-1.5c0.7-0.6,1.4-1.2,2-1.9v-7.3c-2.7,0.1-5,0.3-6.9,0.6c-1.9,0.3-3.5,0.8-4.8,1.3c-1.3,0.6-2.2,1.2-2.8,2
			c-0.6,0.8-0.9,1.7-0.9,2.7c0,0.9,0.2,1.8,0.5,2.5c0.3,0.7,0.7,1.3,1.2,1.7c0.5,0.4,1.1,0.8,1.8,1
			C357.6,686.3,358.3,686.4,359.1,686.4z"/>
		<path d="M388,687.9v-28.2h1.5c0.5,0,0.8,0.2,0.9,0.7l0.3,4.3c1.3-1.6,2.8-2.9,4.5-3.9c1.7-1,3.6-1.5,5.7-1.5
			c1.6,0,2.9,0.2,4.1,0.7c1.2,0.5,2.2,1.2,2.9,2.1c0.8,0.9,1.4,2,1.8,3.3c0.4,1.3,0.6,2.8,0.6,4.4v18h-2.7v-18
			c0-2.6-0.6-4.7-1.8-6.2c-1.2-1.5-3.1-2.3-5.6-2.3c-1.9,0-3.6,0.5-5.2,1.4c-1.6,1-3,2.3-4.3,3.9v21.1H388z"/>
		<path d="M445.7,687.9v-41.2h2.7v17.9c1.3-1.6,2.8-2.9,4.5-3.8c1.7-1,3.5-1.4,5.6-1.4c1.6,0,2.9,0.2,4.1,0.7
			c1.2,0.5,2.2,1.2,2.9,2.1c0.8,0.9,1.4,2,1.8,3.3c0.4,1.3,0.6,2.8,0.6,4.4v18h-2.7v-18c0-2.6-0.6-4.7-1.8-6.2
			c-1.2-1.5-3.1-2.3-5.6-2.3c-1.9,0-3.6,0.5-5.2,1.4s-3,2.3-4.3,3.9v21.1H445.7z"/>
		<path d="M486.4,659.7v18c0,2.6,0.6,4.7,1.8,6.2c1.2,1.5,3.1,2.3,5.5,2.3c1.8,0,3.6-0.5,5.1-1.4c1.6-0.9,3-2.2,4.3-3.9v-21.2h2.7
			v28.2h-1.5c-0.5,0-0.8-0.2-0.8-0.7l-0.3-4.2c-1.3,1.6-2.8,2.9-4.5,3.9c-1.7,1-3.6,1.5-5.7,1.5c-1.6,0-2.9-0.2-4.1-0.7
			c-1.2-0.5-2.1-1.2-2.9-2.1c-0.8-0.9-1.4-2-1.8-3.3c-0.4-1.3-0.6-2.8-0.6-4.4v-18H486.4z"/>
		<path d="M527.9,650c0,0.3-0.1,0.7-0.2,1c-0.1,0.3-0.3,0.6-0.6,0.8c-0.2,0.2-0.5,0.4-0.8,0.5c-0.3,0.1-0.6,0.2-1,0.2
			s-0.7-0.1-1-0.2c-0.3-0.1-0.6-0.3-0.8-0.5c-0.2-0.2-0.4-0.5-0.5-0.8c-0.1-0.3-0.2-0.6-0.2-1c0-0.3,0.1-0.7,0.2-1s0.3-0.6,0.5-0.8
			c0.2-0.2,0.5-0.4,0.8-0.5c0.3-0.1,0.6-0.2,1-0.2s0.7,0.1,1,0.2s0.6,0.3,0.8,0.5c0.2,0.2,0.4,0.5,0.6,0.8
			C527.8,649.3,527.9,649.6,527.9,650z M526.7,659.7v28.2H524v-28.2H526.7z"/>
		<path d="M560.2,663.2c-0.1,0.3-0.3,0.4-0.6,0.4c-0.2,0-0.5-0.1-0.8-0.4c-0.3-0.2-0.8-0.5-1.3-0.8c-0.5-0.3-1.2-0.6-2-0.8
			c-0.8-0.2-1.7-0.4-2.9-0.4c-1,0-2,0.1-2.8,0.4c-0.8,0.3-1.6,0.7-2.2,1.2c-0.6,0.5-1.1,1.1-1.4,1.7c-0.3,0.7-0.5,1.3-0.5,2.1
			c0,0.9,0.2,1.6,0.7,2.2c0.5,0.6,1,1.1,1.8,1.5c0.7,0.4,1.6,0.8,2.5,1.1c0.9,0.3,1.9,0.6,2.9,0.9c1,0.3,1.9,0.6,2.9,1
			c0.9,0.4,1.8,0.8,2.5,1.4c0.7,0.5,1.3,1.2,1.8,2c0.5,0.8,0.7,1.8,0.7,2.9c0,1.2-0.2,2.4-0.7,3.4c-0.4,1.1-1.1,2-1.9,2.7
			c-0.8,0.8-1.9,1.4-3.1,1.8c-1.2,0.5-2.6,0.7-4.2,0.7c-2,0-3.7-0.3-5.1-0.9c-1.4-0.6-2.7-1.5-3.9-2.5l0.7-1
			c0.1-0.2,0.2-0.3,0.3-0.3c0.1-0.1,0.3-0.1,0.5-0.1c0.2,0,0.5,0.2,0.9,0.5c0.4,0.3,0.8,0.6,1.4,1c0.6,0.3,1.3,0.7,2.2,1
			c0.9,0.3,1.9,0.5,3.2,0.5c1.2,0,2.2-0.2,3.1-0.5c0.9-0.3,1.7-0.8,2.3-1.3c0.6-0.6,1.1-1.2,1.4-2c0.3-0.8,0.5-1.6,0.5-2.4
			c0-0.9-0.2-1.7-0.7-2.4c-0.5-0.6-1-1.2-1.8-1.6c-0.7-0.4-1.6-0.8-2.5-1.1s-1.9-0.6-2.9-0.9c-1-0.3-2-0.6-2.9-1
			c-0.9-0.4-1.8-0.8-2.5-1.4c-0.7-0.5-1.3-1.2-1.8-2c-0.5-0.8-0.7-1.8-0.7-2.9c0-1,0.2-2,0.7-2.9c0.4-0.9,1.1-1.7,1.9-2.4
			c0.8-0.7,1.8-1.3,2.9-1.7c1.2-0.4,2.4-0.6,3.9-0.6c1.7,0,3.2,0.2,4.6,0.7c1.3,0.5,2.6,1.3,3.7,2.3L560.2,663.2z"/>
	</g>
</g>
</svg>
