<?xml version="1.0" encoding="utf-8"?>
<!-- Generator: Adobe Illustrator 25.2.0, SVG Export Plug-In . SVG Version: 6.00 Build 0)  -->
<svg version="1.1" xmlns="http://www.w3.org/2000/svg" xmlns:xlink="http://www.w3.org/1999/xlink" x="0px" y="0px"
	 viewBox="0 0 612 792" style="enable-background:new 0 0 612 792;" xml:space="preserve">
<style type="text/css">
	.st0{fill:url(#SVGID_1_);}
	.st1{fill:url(#SVGID_2_);}
	.st2{fill:url(#SVGID_3_);}
	.st3{fill:url(#SVGID_4_);}
	.st4{fill:#2D3138;}
</style>
<g id="Layer_2">
</g>
<g id="Layer_3">
	<linearGradient id="SVGID_1_" gradientUnits="userSpaceOnUse" x1="121.8095" y1="364.4846" x2="344.0917" y2="364.4846">
		<stop  offset="0" style="stop-color:#4E4F51"/>
		<stop  offset="0.9867" style="stop-color:#231F20"/>
	</linearGradient>
	<path class="st0" d="M121.89,498.35c7.95-10.86,15.12-21.54,23.2-31.5c17.07-21.04,39.35-34.95,64.74-43.43
		c20.58-6.87,41.88-11.6,62.49-18.39c11.98-3.95,23.85-9.06,34.66-15.5c19.2-11.44,28.13-30.33,31.97-51.52
		c2.54-13.98,3.7-28.23,5.1-42.4c0.23-2.31-0.9-5.27-2.39-7.16c-28.35-36.04-63.84-57.42-111.32-57.82
		c-18.44-0.15-30.34,6.06-40.55,20.62c-17.73,25.31-30.07,52.94-39.03,82.27c-13.06,42.76-19.65,86.78-25.32,130.98
		c-1.17,9.13-2.42,18.26-3.52,27.4C121.68,493.91,121.89,495.98,121.89,498.35z M258.36,277.28c18.32-0.3,31,9.89,41.74,22.91
		c12.26,14.87,11.18,30.3-2.17,44.25c-14.58,15.24-33.15,23.78-52.75,29.7c-16.95,5.12-34.45,8.51-51.81,12.19
		c-7.47,1.58-8.63-0.04-7.33-7.42c0.61-3.45,1.11-6.93,1.81-10.37c5.13-25.16,12.7-49.34,29.5-69.5
		C227.99,286.28,241.04,277.66,258.36,277.28z"/>
	<linearGradient id="SVGID_2_" gradientUnits="userSpaceOnUse" x1="215.8129" y1="235.6569" x2="402.4589" y2="235.6569">
		<stop  offset="0" style="stop-color:#FFE45C"/>
		<stop  offset="0.9867" style="stop-color:#CF4E27"/>
	</linearGradient>
	<path class="st1" d="M402.46,198.18c-10.15-2.03-19.9-4.18-29.72-5.9c-29.37-5.14-58.81-6.56-88.27-0.8
		c-23.15,4.53-44.44,13.42-63.24,27.86c-1.84,1.41-3.56,2.99-5.41,5.54c53.08-3.79,94.95,16.88,129.03,58.69
		c1.02-6.73,1.52-11.57,2.52-16.3c1.72-8.13,3.11-16.42,5.79-24.25c6.94-20.23,21.24-33.31,41.34-40.25
		c2.27-0.78,4.51-1.66,6.73-2.57C401.54,200.07,401.67,199.51,402.46,198.18z M297.26,212.49c-0.1-5.22,4.01-9.76,8.17-9.32
		c4.63,0.49,7.69,3.19,8.16,8.01c0.43,4.42-3.55,8.27-8.34,8.2C300.25,219.31,297.69,216.55,297.26,212.49z"/>
	<linearGradient id="SVGID_3_" gradientUnits="userSpaceOnUse" x1="379.7267" y1="364.1894" x2="481.127" y2="364.1894">
		<stop  offset="0" style="stop-color:#4E4F51"/>
		<stop  offset="0.9867" style="stop-color:#231F20"/>
	</linearGradient>
	<path class="st2" d="M481.09,425.25c-3.63-4.95-6.9-9.83-10.58-14.37c-7.79-9.6-17.95-15.94-29.53-19.81
		c-9.39-3.14-19.1-5.29-28.51-8.39c-5.46-1.8-10.88-4.13-15.81-7.07c-8.76-5.22-12.83-13.84-14.58-23.5
		c-1.16-6.38-1.69-12.88-2.33-19.34c-0.1-1.05,0.41-2.4,1.09-3.27c12.93-16.44,29.12-26.19,50.78-26.38
		c8.41-0.07,13.84,2.76,18.5,9.41c8.09,11.54,13.72,24.15,17.8,37.53c5.96,19.51,8.96,39.59,11.55,59.75
		c0.54,4.17,1.1,8.33,1.61,12.5C481.18,423.23,481.09,424.18,481.09,425.25z M418.84,324.41c-8.36-0.14-14.14,4.51-19.04,10.45
		c-5.59,6.78-5.1,13.82,0.99,20.18c6.65,6.95,15.12,10.85,24.07,13.55c7.73,2.34,15.72,3.88,23.63,5.56
		c3.41,0.72,3.94-0.02,3.35-3.38c-0.28-1.58-0.51-3.16-0.83-4.73c-2.34-11.48-5.79-22.51-13.46-31.7
		C432.69,328.51,426.74,324.58,418.84,324.41z"/>
	<linearGradient id="SVGID_4_" gradientUnits="userSpaceOnUse" x1="353.1009" y1="305.4211" x2="438.2447" y2="305.4211">
		<stop  offset="0" style="stop-color:#FFE45C"/>
		<stop  offset="0.9867" style="stop-color:#CF4E27"/>
	</linearGradient>
	<path class="st3" d="M353.1,288.32c4.63-0.93,9.08-1.91,13.56-2.69c13.4-2.34,26.83-2.99,40.27-0.36
		c10.56,2.07,20.27,6.12,28.85,12.71c0.84,0.65,1.62,1.36,2.47,2.53c-24.21-1.73-43.31,7.7-58.86,26.77
		c-0.46-3.07-0.69-5.28-1.15-7.43c-0.79-3.71-1.42-7.49-2.64-11.06c-3.17-9.23-9.69-15.2-18.86-18.36
		c-1.04-0.36-2.06-0.76-3.07-1.17C353.52,289.19,353.46,288.93,353.1,288.32z M401.09,294.85c0.05-2.38-1.83-4.45-3.72-4.25
		c-2.11,0.22-3.51,1.46-3.72,3.65c-0.2,2.02,1.62,3.77,3.81,3.74C399.72,297.97,400.89,296.71,401.09,294.85z"/>
	<g>
		<path class="st4" d="M43.65,544.64c0-1.63-0.42-2.75-1.25-3.38c-0.84-0.63-2.07-0.95-3.69-0.95c-2.77,0-5.34,0.68-7.71,2.03
			c-2.37,1.35-3.56,2.84-3.56,4.47c0,1.03,0.45,1.91,1.34,2.64c0.89,0.73,3.2,1.64,6.93,2.72c3.9,1.13,6.8,2.37,8.7,3.73
			c1.9,1.35,2.84,2.98,2.84,4.88c0,3.17-2.41,6.06-7.23,8.7c-4.82,2.63-9.83,3.95-15.03,3.95c-1.69,0-3.04-0.35-4.06-1.06
			c-1.02-0.71-1.53-1.57-1.53-2.61c0-0.82,0.23-1.58,0.69-2.29c0.46-0.71,1.01-1.06,1.65-1.06c0.39,0,0.75,0.07,1.08,0.2
			c1.72,0.74,3.33,1.11,4.82,1.11c2.56,0,5.43-0.72,8.62-2.15c3.19-1.43,4.79-2.84,4.79-4.22c0-0.57-0.4-1.13-1.19-1.66
			c-0.8-0.53-2.42-1.2-4.86-2.01c-3.56-1.16-6.24-2.12-8.03-2.88c-1.8-0.75-3.16-1.74-4.08-2.97c-0.93-1.22-1.39-2.69-1.39-4.42
			c0-3.07,1.79-5.92,5.36-8.56c3.58-2.64,7.78-3.96,12.6-3.96c2.77,0,4.96,0.55,6.56,1.65c1.6,1.1,2.4,2.35,2.4,3.77
			C48.4,543.2,46.81,544.64,43.65,544.64z"/>
		<path class="st4" d="M63.98,551.11c-0.15,0-0.61,1.83-1.39,5.49c-0.78,3.66-1.17,5.87-1.17,6.64c0,1.35,0.14,2.28,0.43,2.82
			c0.29,0.53,0.76,0.8,1.41,0.8c0.92,0,1.8-0.16,2.64-0.48c0.84-0.32,1.96-1.04,3.33-2.15c0.85-0.71,1.57-1.06,2.17-1.06
			c0.48,0,0.86,0.14,1.14,0.41c0.29,0.27,0.43,0.59,0.43,0.95c0,1.44-1.16,3.08-3.49,4.91c-2.33,1.83-4.79,2.74-7.38,2.74
			c-2.17,0-3.82-0.64-4.96-1.92c-1.14-1.28-1.71-3.12-1.71-5.51c0-2.21,0.83-6.63,2.49-13.26c-1.05,0.12-1.78,0.17-2.19,0.17h-0.52
			c-0.75,0-1.52-0.25-2.3-0.74c-0.78-0.49-1.17-1.28-1.17-2.36c0-1.38,0.78-2.07,2.34-2.07l5.27-0.2c0.69-1.98,1.42-4.58,2.19-7.8
			c0.46-2,1.5-3,3.12-3c0.9,0,1.61,0.27,2.12,0.82c0.51,0.55,0.76,1.16,0.76,1.83c0,0.26-0.7,2.8-2.09,7.6
			c5.22-0.46,8.08-0.69,8.59-0.69c0.87,0,1.44,0.13,1.72,0.38c0.28,0.25,0.42,0.74,0.42,1.47c0,1.46-1.24,2.39-3.72,2.78
			L63.98,551.11z"/>
		<path class="st4" d="M79.72,554.75v0.03c0.52-2.99,0.79-4.69,0.79-5.12c0-1.21,0.27-2.23,0.8-3.05c0.53-0.82,1.28-1.23,2.23-1.23
			c1.12,0,1.98,0.26,2.61,0.79c0.62,0.53,0.94,1.12,0.94,1.77c0,0.66-0.3,2.01-0.91,4.06l-0.15,0.54c-0.9,3.17-1.44,5.75-1.62,7.75
			c-0.18,2-0.27,3.62-0.27,4.85c0,1,0.17,2.34,0.52,4.01c0.05,0.3,0.07,0.54,0.07,0.74c0,0.38-0.36,0.89-1.07,1.53
			c-0.71,0.64-1.48,0.96-2.3,0.96c-2.17,0-3.25-1.64-3.25-4.92c0-2.79,0.39-6.18,1.18-10.19C79.44,556.38,79.59,555.54,79.72,554.75
			z M91.6,534.52c0,1.16-0.52,2.19-1.57,3.06c-1.05,0.88-1.96,1.32-2.73,1.32c-0.98,0-1.86-0.41-2.62-1.23
			c-0.76-0.82-1.14-1.64-1.14-2.46c0-1.18,0.38-2.14,1.13-2.87c0.75-0.73,1.84-1.09,3.25-1.09c1.1,0,1.99,0.32,2.67,0.97
			C91.26,532.87,91.6,533.64,91.6,534.52z"/>
		<path class="st4" d="M100.2,572.44c-2.71,0-4.77-0.74-6.18-2.21c-1.41-1.48-2.12-3.53-2.12-6.15c0-4.13,1.68-8.6,5.04-13.41
			c3.36-4.81,6.66-7.21,9.89-7.21c1.56,0,2.89,0.77,3.99,2.32c1.1,1.55,1.65,3.16,1.65,4.84c0,1.57-0.29,2.64-0.87,3.19
			c-0.58,0.55-1.14,0.82-1.69,0.82c-1.59,0-2.52-1.1-2.78-3.3c-0.2-1.61-0.6-2.41-1.21-2.41c-1.28,0-2.97,1.82-5.07,5.46
			s-3.15,6.83-3.15,9.57c0,2.21,1.2,3.32,3.59,3.32c2.64,0,5.31-0.94,8-2.81c1.26-0.9,2.26-1.35,3-1.35c0.9,0,1.35,0.45,1.35,1.35
			c0,1.26-1.45,2.91-4.34,4.93C106.42,571.43,103.38,572.44,100.2,572.44z"/>
		<path class="st4" d="M124.48,559.75c2.72-5.1,5.07-8.57,7.05-10.42c1.98-1.84,3.97-2.77,5.99-2.77c1.39,0,2.55,0.48,3.48,1.44
			c0.93,0.96,1.6,3.46,2.03,7.49c0.18,1.92,0.41,3.47,0.69,4.65c0.28,1.18,0.59,2.23,0.94,3.14c0.34,0.91,0.84,1.77,1.48,2.57
			c0.49,0.64,0.74,1.26,0.74,1.85c0,0.59-0.28,1.13-0.85,1.62c-0.57,0.49-1.22,0.74-1.96,0.74c-1.46,0-2.76-0.79-3.89-2.39
			c-1.13-1.59-1.8-3.79-2.02-6.59c-0.26-3.43-0.55-5.62-0.85-6.57c-0.3-0.95-0.81-1.43-1.51-1.43c-0.95,0-2.8,1.9-5.55,5.7
			c-2.75,3.8-4.73,6.84-5.94,9.12c-0.75,1.72-1.34,2.84-1.75,3.35c-0.41,0.51-0.92,0.76-1.53,0.76c-1,0-1.81-0.25-2.44-0.74
			s-0.94-1.19-0.94-2.09c0-0.44,0.22-1.83,0.66-4.16c1.67-8.81,3.04-18.18,4.11-28.13c0.26-2.4,0.77-4.05,1.51-4.96
			c0.75-0.91,1.43-1.37,2.05-1.37c0.87,0,1.62,0.34,2.26,1.01c0.64,0.67,0.96,1.61,0.96,2.81c0,1.84-0.22,3.95-0.66,6.35
			s-1.27,6.22-2.49,11.47C125.34,555.36,124.8,557.88,124.48,559.75z"/>
		<path class="st4" d="M160.88,551.11c-0.15,0-0.61,1.83-1.39,5.49c-0.78,3.66-1.17,5.87-1.17,6.64c0,1.35,0.14,2.28,0.43,2.82
			c0.29,0.53,0.76,0.8,1.41,0.8c0.92,0,1.8-0.16,2.64-0.48c0.84-0.32,1.96-1.04,3.33-2.15c0.85-0.71,1.57-1.06,2.17-1.06
			c0.48,0,0.86,0.14,1.14,0.41c0.29,0.27,0.43,0.59,0.43,0.95c0,1.44-1.16,3.08-3.49,4.91c-2.33,1.83-4.79,2.74-7.38,2.74
			c-2.17,0-3.82-0.64-4.96-1.92c-1.14-1.28-1.71-3.12-1.71-5.51c0-2.21,0.83-6.63,2.49-13.26c-1.05,0.12-1.78,0.17-2.19,0.17h-0.52
			c-0.75,0-1.52-0.25-2.3-0.74c-0.78-0.49-1.17-1.28-1.17-2.36c0-1.38,0.78-2.07,2.34-2.07l5.27-0.2c0.69-1.98,1.42-4.58,2.19-7.8
			c0.46-2,1.5-3,3.12-3c0.9,0,1.61,0.27,2.12,0.82c0.51,0.55,0.76,1.16,0.76,1.83c0,0.26-0.7,2.8-2.09,7.6
			c5.22-0.46,8.08-0.69,8.59-0.69c0.87,0,1.44,0.13,1.72,0.38c0.28,0.25,0.42,0.74,0.42,1.47c0,1.46-1.24,2.39-3.72,2.78
			L160.88,551.11z"/>
		<path class="st4" d="M176.62,554.75v0.03c0.52-2.99,0.79-4.69,0.79-5.12c0-1.21,0.27-2.23,0.8-3.05c0.53-0.82,1.28-1.23,2.23-1.23
			c1.12,0,1.98,0.26,2.61,0.79c0.62,0.53,0.94,1.12,0.94,1.77c0,0.66-0.3,2.01-0.91,4.06l-0.15,0.54c-0.9,3.17-1.44,5.75-1.62,7.75
			c-0.18,2-0.27,3.62-0.27,4.85c0,1,0.17,2.34,0.52,4.01c0.05,0.3,0.07,0.54,0.07,0.74c0,0.38-0.36,0.89-1.07,1.53
			c-0.71,0.64-1.48,0.96-2.3,0.96c-2.17,0-3.25-1.64-3.25-4.92c0-2.79,0.39-6.18,1.18-10.19
			C176.34,556.38,176.48,555.54,176.62,554.75z M188.5,534.52c0,1.16-0.52,2.19-1.57,3.06c-1.05,0.88-1.96,1.32-2.73,1.32
			c-0.98,0-1.86-0.41-2.62-1.23c-0.76-0.82-1.14-1.64-1.14-2.46c0-1.18,0.38-2.14,1.13-2.87c0.75-0.73,1.84-1.09,3.25-1.09
			c1.1,0,1.99,0.32,2.67,0.97C188.16,532.87,188.5,533.64,188.5,534.52z"/>
		<path class="st4" d="M210.51,567.5c-0.79-1.48-1.36-4.23-1.72-8.27c-0.36-4.2-1.16-6.3-2.41-6.3c-1.18,0-3.22,2.19-6.13,6.56
			c-2.9,4.37-4.69,7.6-5.36,9.68c-0.15,0.62-0.42,1.14-0.82,1.55c-0.4,0.41-0.8,0.61-1.19,0.61c-2.49,0-3.74-1.14-3.74-3.42
			c0-0.77,0.25-2.52,0.74-5.26c0.64-3.54,0.96-7.87,0.96-12.99c0-0.77,0.34-1.6,1.01-2.47c0.67-0.88,1.39-1.32,2.14-1.32
			c0.95,0,1.68,0.24,2.19,0.71c0.51,0.48,0.76,1.74,0.76,3.79c0,1.56-0.47,4.58-1.4,9.06c3.56-8.33,7.53-12.5,11.91-12.5
			c3.81,0,6.04,2.99,6.69,8.98c0.66,6.1,1.41,9.15,2.26,9.15c0.38,0,0.81-0.08,1.3-0.24c0.59-0.2,1.06-0.3,1.4-0.3
			c0.79,0,1.18,0.46,1.18,1.38c0,0.84-0.54,1.73-1.62,2.67c-1.08,0.94-2.44,1.41-4.08,1.41c-1.9,0-3.26-0.83-4.08-2.48H210.51z"/>
		<path class="st4" d="M240.52,563.56c-1.82,2.05-3.94,3.74-6.36,5.06c-2.42,1.32-4.51,1.98-6.26,1.98c-1.74,0-3.09-0.51-4.05-1.53
			c-0.96-1.02-1.44-2.42-1.44-4.21c0-2.54,0.96-5.37,2.89-8.49s4.6-5.83,8.02-8.13c3.42-2.3,6.5-3.46,9.24-3.46
			c1.51,0,2.81,0.41,3.91,1.23c0.26,0.2,0.49,0.36,0.69,0.49c0.39,0.28,0.76,0.79,1.1,1.54c0.34,0.75,0.5,1.35,0.5,1.81
			c0,0.3-0.31,1.29-0.94,2.98c-0.64,1.76-1.09,3.46-1.34,5.11c-0.25,1.65-0.76,5.76-1.51,12.34c-0.67,5.73-2.27,9.91-4.8,12.55
			c-2.53,2.64-5.33,3.96-8.42,3.96c-3.23,0-6.37-1.09-9.41-3.26c-3.04-2.17-4.56-3.97-4.56-5.38c0-1.25,0.61-1.87,1.82-1.87
			c0.48,0,1.44,0.48,2.9,1.43c3.74,2.46,6.95,3.69,9.62,3.69c2.03,0,3.74-1.27,5.12-3.83C238.62,575.02,239.71,570.35,240.52,563.56
			z M241.11,549.88c-1.21,0-2.81,0.73-4.77,2.18c-1.97,1.45-3.79,3.41-5.46,5.87s-2.51,4.5-2.51,6.13c0,0.85,0.31,1.28,0.94,1.28
			c2.12,0,4.22-0.86,6.3-2.57c2.08-1.71,3.77-3.69,5.06-5.92c1.29-2.23,1.93-3.92,1.93-5.07c0-0.57-0.15-1.03-0.44-1.38
			C241.85,550.05,241.5,549.88,241.11,549.88z"/>
		<path class="st4" d="M310.74,537.3c0.03,0.17-0.57,1.13-1.82,2.9c-1.9,2.67-3.42,4.92-4.54,6.74c-1.12,1.82-3.22,5.3-6.29,10.43
			c-1.87,3.12-3.08,5.1-3.64,5.96c-1.54,2.28-2.47,4.04-2.78,5.26c-0.25,0.79-0.82,1.43-1.71,1.92c-0.89,0.49-1.96,0.74-3.19,0.74
			c-0.54,0-1.05-0.41-1.54-1.23c-0.48-0.82-1.14-2.37-1.96-4.65c-1.02-2.74-2.44-6.4-4.26-10.97c-3.79-9.47-5.68-14.36-5.68-14.69
			c0-0.59,0.28-1.39,0.85-2.39c0.57-1,1.37-1.5,2.4-1.5c0.82,0,1.55,0.3,2.19,0.9c0.64,0.6,1.22,2.23,1.75,4.88
			c0.36,1.89,1.53,5.36,3.51,10.42c1.98,5.06,3.52,8.81,4.64,11.23c0.25-0.36,0.8-1.33,1.67-2.9c0.2-0.34,0.33-0.57,0.39-0.66
			c2.26-3.63,4.15-6.88,5.66-9.77c2.76-5.28,5.07-9.22,6.95-11.81c1.88-2.59,3.44-3.89,4.69-3.89c1.82,0,2.73,0.9,2.73,2.71v0.2
			C310.77,537.2,310.76,537.26,310.74,537.3z"/>
		<path class="st4" d="M316,558.89l0.42-0.79c1.98-3.99,4.12-7.22,6.41-9.71c2.29-2.48,4.52-3.73,6.71-3.73
			c1.67,0,3.04,0.46,4.1,1.38c1.06,0.92,1.59,2.01,1.59,3.27c0,0.79-0.18,1.47-0.54,2.03c-0.36,0.57-0.86,0.85-1.5,0.85
			c-1.02,0-1.94-0.42-2.78-1.25c-0.59-0.54-1.06-0.81-1.4-0.81c-1.23,0-3.29,1.91-6.18,5.73c-2.89,3.82-4.63,8.12-5.22,12.89
			c-0.18,1.38-0.58,2.34-1.21,2.89c-0.62,0.55-1.47,0.82-2.53,0.82c-1.13,0-1.94-0.64-2.41-1.93c-0.48-1.29-0.71-3.39-0.71-6.31
			c0-1.2,0.03-2.81,0.1-4.85c0.06-1.92,0.25-4.27,0.57-7.04c0.08-0.72,0.14-1.29,0.17-1.7c0.15-1.61,0.32-2.71,0.5-3.31
			c0.19-0.6,0.63-1.16,1.32-1.69c0.69-0.52,1.45-0.79,2.29-0.79c0.89,0,1.56,0.25,2.02,0.76s0.69,1.07,0.69,1.67
			c0,0.77-0.37,2.37-1.11,4.8c-0.26,0.84-0.48,1.84-0.66,3L316,558.89z"/>
		<path class="st4" d="M359.17,558.61c-1.1,3.84-3.19,7.07-6.26,9.71c-3.08,2.63-6.15,3.95-9.21,3.95c-2.43,0-4.43-0.89-6-2.67
			c-1.57-1.78-2.36-3.96-2.36-6.56c0-4.23,1.44-8.4,4.33-12.5c2.89-4.1,6.39-6.15,10.51-6.15c2.81,0,5.08,1.04,6.82,3.11
			c1.74,2.08,2.61,4.55,2.61,7.42c0,1.25-0.14,2.47-0.42,3.67V558.61z M346.37,550.84c-1.15,1.02-2.27,2.64-3.37,4.87
			c-1.1,2.23-1.65,4.47-1.65,6.72c0,1.36,0.25,2.49,0.75,3.37c0.5,0.89,1.16,1.33,1.98,1.33c2.03,0,4.15-1.21,6.35-3.62
			c2.2-2.41,3.3-5.12,3.3-8.12c0-1.69-0.36-3.08-1.07-4.17c-0.71-1.09-1.71-1.64-2.99-1.64c-1.21,0-2.31,0.42-3.27,1.26H346.37z"/>
		<path class="st4" d="M386.84,562.63c0,1.71-1.44,3.74-4.31,6.11c-2.87,2.37-6.11,3.56-9.72,3.56c-2.77,0-4.95-0.87-6.55-2.62
			c-1.59-1.75-2.39-4.18-2.39-7.3c0-4.59,1.63-8.9,4.87-12.92c3.25-4.02,6.72-6.03,10.41-6.03c1.84,0,3.31,0.58,4.43,1.75
			c1.12,1.17,1.67,2.55,1.67,4.16c0,2.85-1.37,5.57-4.11,8.16c-2.74,2.58-6.25,4.37-10.53,5.35c-0.49,0.11-0.74,0.41-0.74,0.89
			c0,0.79,0.35,1.54,1.05,2.25c0.7,0.71,1.63,1.07,2.79,1.07c3.3,0,6.57-1.7,9.82-5.09c0.62-0.66,1.23-0.98,1.82-0.98
			C386.35,560.98,386.84,561.53,386.84,562.63z M370.33,558.27c2.59-0.52,4.88-1.63,6.85-3.32c1.98-1.69,2.97-3.22,2.97-4.6
			c0-0.54-0.15-1-0.46-1.37c-0.3-0.37-0.69-0.55-1.17-0.55c-1.43,0-3.01,1.05-4.75,3.15C372.03,553.68,370.88,555.91,370.33,558.27z
			"/>
		<path class="st4" d="M408.28,563.56c-1.82,2.05-3.94,3.74-6.36,5.06c-2.42,1.32-4.51,1.98-6.26,1.98c-1.74,0-3.09-0.51-4.05-1.53
			c-0.96-1.02-1.44-2.42-1.44-4.21c0-2.54,0.96-5.37,2.89-8.49c1.93-3.12,4.6-5.83,8.02-8.13c3.42-2.3,6.5-3.46,9.24-3.46
			c1.51,0,2.81,0.41,3.91,1.23c0.26,0.2,0.49,0.36,0.69,0.49c0.39,0.28,0.76,0.79,1.1,1.54c0.34,0.75,0.5,1.35,0.5,1.81
			c0,0.3-0.31,1.29-0.94,2.98c-0.64,1.76-1.09,3.46-1.34,5.11c-0.25,1.65-0.76,5.76-1.51,12.34c-0.67,5.73-2.27,9.91-4.8,12.55
			c-2.53,2.64-5.33,3.96-8.42,3.96c-3.23,0-6.37-1.09-9.41-3.26c-3.04-2.17-4.56-3.97-4.56-5.38c0-1.25,0.61-1.87,1.82-1.87
			c0.48,0,1.44,0.48,2.9,1.43c3.74,2.46,6.95,3.69,9.62,3.69c2.03,0,3.74-1.27,5.12-3.83C406.39,575.02,407.48,570.35,408.28,563.56
			z M408.87,549.88c-1.21,0-2.81,0.73-4.77,2.18c-1.97,1.45-3.79,3.41-5.46,5.87c-1.67,2.46-2.51,4.5-2.51,6.13
			c0,0.85,0.31,1.28,0.94,1.28c2.12,0,4.22-0.86,6.3-2.57c2.08-1.71,3.77-3.69,5.06-5.92c1.29-2.23,1.93-3.92,1.93-5.07
			c0-0.57-0.15-1.03-0.44-1.38C409.61,550.05,409.27,549.88,408.87,549.88z"/>
		<path class="st4" d="M442.79,562.63c0,1.71-1.44,3.74-4.31,6.11c-2.87,2.37-6.11,3.56-9.72,3.56c-2.77,0-4.95-0.87-6.55-2.62
			c-1.59-1.75-2.39-4.18-2.39-7.3c0-4.59,1.63-8.9,4.87-12.92c3.25-4.02,6.72-6.03,10.41-6.03c1.84,0,3.31,0.58,4.43,1.75
			c1.12,1.17,1.67,2.55,1.67,4.16c0,2.85-1.37,5.57-4.11,8.16c-2.74,2.58-6.25,4.37-10.53,5.35c-0.49,0.11-0.74,0.41-0.74,0.89
			c0,0.79,0.35,1.54,1.05,2.25c0.7,0.71,1.63,1.07,2.79,1.07c3.3,0,6.57-1.7,9.82-5.09c0.62-0.66,1.23-0.98,1.82-0.98
			C442.3,560.98,442.79,561.53,442.79,562.63z M426.28,558.27c2.59-0.52,4.88-1.63,6.85-3.32c1.98-1.69,2.97-3.22,2.97-4.6
			c0-0.54-0.15-1-0.46-1.37c-0.3-0.37-0.69-0.55-1.17-0.55c-1.43,0-3.01,1.05-4.75,3.15C427.99,553.68,426.84,555.91,426.28,558.27z
			"/>
		<path class="st4" d="M451.91,570.84c0.02-1.08-0.63-3.41-1.94-6.99c-2.64-7.07-3.96-12.11-3.96-15.11c0-2.69,1.06-4.04,3.17-4.04
			c2.07,0,3.1,1.23,3.1,3.69c0,1.57,0.04,2.69,0.11,3.36c0.07,0.66,0.33,1.87,0.76,3.62c0.44,1.75,0.87,3.2,1.29,4.37
			c0.25,0.71,0.54,1.63,0.89,2.76c0.2,0.71,0.37,1.2,0.52,1.48c0.1-0.15,0.44-0.79,1.03-1.92c0.35-0.69,1.51-2.65,3.5-5.87
			c1.98-3.22,3.73-5.8,5.23-7.71c1.5-1.92,2.62-3.09,3.36-3.52s1.52-0.64,2.34-0.64c0.85,0,1.55,0.28,2.1,0.84
			c0.55,0.56,0.82,1.24,0.82,2.04c0,0.95-0.69,1.89-2.07,2.8c-1.35,0.92-3.18,3.02-5.5,6.3c-2.32,3.28-4.82,7.41-7.49,12.38
			c-1.51,2.84-2.86,4.26-4.06,4.26C454.07,572.93,453.01,572.24,451.91,570.84z"/>
		<path class="st4" d="M498.55,558.61c-1.1,3.84-3.19,7.07-6.26,9.71c-3.08,2.63-6.15,3.95-9.21,3.95c-2.43,0-4.43-0.89-6-2.67
			c-1.57-1.78-2.36-3.96-2.36-6.56c0-4.23,1.44-8.4,4.33-12.5c2.89-4.1,6.39-6.15,10.51-6.15c2.81,0,5.08,1.04,6.82,3.11
			c1.74,2.08,2.61,4.55,2.61,7.42c0,1.25-0.14,2.47-0.42,3.67V558.61z M485.75,550.84c-1.15,1.02-2.27,2.64-3.37,4.87
			c-1.1,2.23-1.65,4.47-1.65,6.72c0,1.36,0.25,2.49,0.75,3.37c0.5,0.89,1.16,1.33,1.98,1.33c2.03,0,4.15-1.21,6.35-3.62
			c2.2-2.41,3.3-5.12,3.3-8.12c0-1.69-0.36-3.08-1.07-4.17c-0.71-1.09-1.71-1.64-2.99-1.64c-1.21,0-2.31,0.42-3.27,1.26H485.75z"/>
		<path class="st4" d="M521.05,563.56c-1.82,2.05-3.94,3.74-6.36,5.06c-2.42,1.32-4.51,1.98-6.26,1.98c-1.74,0-3.09-0.51-4.05-1.53
			c-0.96-1.02-1.44-2.42-1.44-4.21c0-2.54,0.96-5.37,2.89-8.49c1.93-3.12,4.6-5.83,8.02-8.13c3.42-2.3,6.5-3.46,9.24-3.46
			c1.51,0,2.81,0.41,3.91,1.23c0.26,0.2,0.49,0.36,0.69,0.49c0.39,0.28,0.76,0.79,1.1,1.54c0.34,0.75,0.5,1.35,0.5,1.81
			c0,0.3-0.31,1.29-0.94,2.98c-0.64,1.76-1.09,3.46-1.34,5.11c-0.25,1.65-0.76,5.76-1.51,12.34c-0.67,5.73-2.27,9.91-4.8,12.55
			c-2.53,2.64-5.33,3.96-8.42,3.96c-3.23,0-6.37-1.09-9.41-3.26c-3.04-2.17-4.56-3.97-4.56-5.38c0-1.25,0.61-1.87,1.82-1.87
			c0.48,0,1.44,0.48,2.9,1.43c3.74,2.46,6.95,3.69,9.62,3.69c2.03,0,3.74-1.27,5.12-3.83C519.15,575.02,520.25,570.35,521.05,563.56
			z M521.64,549.88c-1.21,0-2.81,0.73-4.77,2.18c-1.97,1.45-3.79,3.41-5.46,5.87s-2.51,4.5-2.51,6.13c0,0.85,0.31,1.28,0.94,1.28
			c2.12,0,4.22-0.86,6.3-2.57c2.08-1.71,3.77-3.69,5.06-5.92c1.29-2.23,1.93-3.92,1.93-5.07c0-0.57-0.15-1.03-0.44-1.38
			C522.38,550.05,522.03,549.88,521.64,549.88z"/>
		<path class="st4" d="M555.56,562.63c0,1.71-1.44,3.74-4.31,6.11c-2.87,2.37-6.11,3.56-9.72,3.56c-2.77,0-4.95-0.87-6.55-2.62
			c-1.59-1.75-2.39-4.18-2.39-7.3c0-4.59,1.63-8.9,4.87-12.92c3.25-4.02,6.72-6.03,10.41-6.03c1.84,0,3.31,0.58,4.43,1.75
			c1.12,1.17,1.67,2.55,1.67,4.16c0,2.85-1.37,5.57-4.11,8.16c-2.74,2.58-6.25,4.37-10.53,5.35c-0.49,0.11-0.74,0.41-0.74,0.89
			c0,0.79,0.35,1.54,1.05,2.25c0.7,0.71,1.63,1.07,2.79,1.07c3.3,0,6.57-1.7,9.82-5.09c0.62-0.66,1.23-0.98,1.82-0.98
			C555.07,560.98,555.56,561.53,555.56,562.63z M539.05,558.27c2.59-0.52,4.88-1.63,6.85-3.32c1.98-1.69,2.97-3.22,2.97-4.6
			c0-0.54-0.15-1-0.46-1.37c-0.3-0.37-0.69-0.55-1.17-0.55c-1.43,0-3.01,1.05-4.75,3.15C540.75,553.68,539.61,555.91,539.05,558.27z
			"/>
		<path class="st4" d="M569.15,529.43c1.77,0,2.66,0.97,2.66,2.9c0,0.89-0.12,1.84-0.37,2.87c-0.25,1.03-0.92,3.56-2.02,7.62
			c-0.8,2.94-1.41,6.14-1.83,9.61c-0.42,3.47-0.63,6.18-0.63,8.13c0,2.08,0.16,4.56,0.47,7.43c0.08,0.77,0.12,1.26,0.12,1.45
			c0,0.98-0.36,1.83-1.08,2.53c-0.72,0.71-1.51,1.06-2.36,1.06c-1.16,0-1.98-0.55-2.46-1.65c-0.48-1.1-0.71-2.99-0.71-5.66
			c0-5.76,0.68-12.54,2.03-20.35c1.35-7.81,2.46-12.42,3.32-13.83C567.15,530.14,568.1,529.43,569.15,529.43z"/>
		<path class="st4" d="M586.56,564.84c-0.07-0.89-1.48-1.97-4.23-3.25c-3.38-1.62-5.54-3.02-6.47-4.2c-0.94-1.17-1.4-2.45-1.4-3.83
			c0-2.9,1.63-5.44,4.88-7.62c3.26-2.17,6.29-3.26,9.12-3.26c2.77,0,4.16,1.21,4.16,3.62c0,0.64-0.32,1.21-0.95,1.72
			c-0.63,0.51-1.17,0.76-1.61,0.76c-0.18,0-0.5-0.11-0.96-0.34c-0.46-0.23-0.81-0.34-1.06-0.34c-1.46,0-3.07,0.49-4.82,1.48
			s-2.63,2.13-2.63,3.44c0,0.64,0.31,1.26,0.93,1.86c0.62,0.6,1.9,1.35,3.81,2.25c2.84,1.35,4.71,2.56,5.61,3.64
			c0.9,1.08,1.35,2.28,1.35,3.59c0,2.4-1.62,4.39-4.86,5.99c-3.24,1.6-6.88,2.4-10.91,2.4c-2.97,0-4.45-1.08-4.45-3.22
			c0-0.79,0.31-1.46,0.94-2.02c0.62-0.56,1.32-0.84,2.09-0.84c0.31,0,0.79,0.11,1.45,0.34c0.65,0.25,1.26,0.37,1.82,0.37
			c1.54,0,3.16-0.25,4.85-0.74S586.02,565.56,586.56,564.84z"/>
	</g>
</g>
</svg>
