<?xml version="1.0" encoding="utf-8"?>
<!-- Generator: Adobe Illustrator 25.2.0, SVG Export Plug-In . SVG Version: 6.00 Build 0)  -->
<svg version="1.1" id="Layer_1" xmlns="http://www.w3.org/2000/svg" xmlns:xlink="http://www.w3.org/1999/xlink" x="0px" y="0px"
	 viewBox="0 0 612 792" style="enable-background:new 0 0 612 792;" xml:space="preserve">
<style type="text/css">
	.st0{opacity:0.75;}
	.st1{fill:#FFFFFF;}
	.st2{enable-background:new    ;}
	.st3{opacity:0.75;fill:#FFFFFF;}
</style>
<g id="Layer_2_1_">
</g>
<g id="Layer_3">
	<g class="st0">
		<path class="st1" d="M320,289.4c-4.1-2.4-8.1-4.7-12-7c-13.6-7.9-27.3-15.7-40.9-23.6c-13-7.5-26-15.1-39.1-22.6
			c-1.1-0.6-1.6-1.3-1.6-2.7c0-34.8,0-69.6,0-104.4c0-0.6,0.1-1.1,0.1-2c2.3,1.3,4.4,2.5,6.6,3.7c20.4,11.8,40.8,23.5,61.2,35.3
			c8.1,4.7,16.3,9.4,24.4,14.1c1.3,0.8,1.4,1.8,1.4,3c0,34.4,0,68.9,0,103.3C320,287.4,320,288.2,320,289.4c2.5-1.4,4.7-2.6,6.8-3.8
			c15.7-9.1,31.5-18.1,47.2-27.2c12.8-7.4,25.6-14.8,38.4-22.3c1-0.6,1.8-0.6,2.9,0c21,12.2,42,24.3,63,36.4
			c9.2,5.3,18.5,10.6,27.7,16c0.4,0.2,0.9,0.5,1.5,1c-3.1,1.8-6.1,3.6-9.2,5.4c-13.8,8-27.6,15.9-41.4,23.9
			c-13.9,8-27.8,16.1-41.8,24.1c-0.7,0.4-1.9,0.4-2.6,0c-27.4-15.8-54.7-31.6-82-47.4c-3.3-1.9-6.7-3.8-10.4-5.9
			c-0.1,1.1-0.2,2-0.2,2.8c0,34.3,0,68.6,0,102.9c0,1.9-0.5,2.9-2.2,3.9c-15.2,8.7-30.4,17.5-45.6,26.3
			c-14.9,8.6-29.8,17.2-44.7,25.8c-0.3,0.1-0.6,0.2-1.1,0.5c-0.1-0.8-0.1-1.5-0.1-2.1c0-34.7,0-69.4-0.1-104.1
			c0-2.2,1.4-2.6,2.7-3.4c14.4-8.3,28.7-16.6,43-24.9c15.5-8.9,30.9-17.9,46.4-26.8C318.8,290.2,319.3,289.9,320,289.4z"/>
	</g>
	<path class="st1" d="M280,312.4c4.1,2.4,8.1,4.7,12,7c13.6,7.9,27.3,15.7,40.9,23.6c13,7.5,26,15.1,39.1,22.6
		c1.1,0.6,1.6,1.3,1.6,2.7c0,34.8,0,69.6,0,104.4c0,0.6,0,1.1-0.1,2c-2.3-1.3-4.5-2.5-6.6-3.7c-20.4-11.8-40.8-23.5-61.2-35.3
		c-8.1-4.7-16.3-9.4-24.4-14.1c-1.3-0.8-1.4-1.8-1.4-3c0-34.4,0-68.9,0-103.3C280,314.5,280,313.7,280,312.4
		c-2.5,1.4-4.7,2.6-6.8,3.8c-15.7,9.1-31.5,18.1-47.2,27.2c-12.8,7.4-25.6,14.8-38.4,22.3c-1.1,0.6-1.8,0.6-2.9,0
		c-21-12.2-42-24.3-63-36.4c-9.2-5.3-18.5-10.6-27.7-16c-0.4-0.2-0.8-0.5-1.5-1c3.1-1.8,6.2-3.6,9.2-5.4c13.8-8,27.6-15.9,41.4-23.9
		c13.9-8,27.8-16.1,41.8-24.1c0.7-0.4,1.9-0.4,2.6,0c27.4,15.8,54.7,31.6,82,47.4c3.3,1.9,6.7,3.8,10.4,5.9c0.1-1.1,0.2-2,0.2-2.8
		c0-34.3,0-68.6,0-102.9c0-1.9,0.5-2.9,2.2-3.9c15.2-8.7,30.4-17.5,45.6-26.3c14.9-8.6,29.8-17.2,44.7-25.8c0.3-0.1,0.6-0.2,1.1-0.5
		c0,0.8,0.1,1.5,0.1,2.1c0,34.7,0,69.4,0.1,104.1c0,2.2-1.4,2.6-2.7,3.4c-14.4,8.3-28.7,16.6-43,24.9c-15.5,8.9-30.9,17.9-46.4,26.8
		C281.2,311.7,280.7,312,280,312.4z"/>
	<g class="st2">
		<path class="st1" d="M186.3,593.5v-43.4h13.1v33.2h15v10.2H186.3z"/>
		<path class="st1" d="M286,571.6c0,4.4-0.9,8.3-2.8,11.7s-4.5,6.1-7.9,8c-3.4,1.9-7.1,2.9-11.3,2.9c-4.1,0-7.8-0.9-11.1-2.8
			c-3.3-1.8-5.9-4.4-7.8-7.8s-2.8-7.1-2.8-11.3c0-4.4,0.9-8.4,2.8-11.9s4.5-6.3,7.9-8.2c3.4-1.9,7.2-2.9,11.6-2.9
			c4.2,0,7.9,0.9,11.2,2.8c3.3,1.8,5.8,4.5,7.6,7.9C285.1,563.4,286,567.3,286,571.6z M272.1,572c0-3.6-0.7-6.4-2.1-8.5
			s-3.2-3.1-5.6-3.1c-2.6,0-4.6,1-6.1,3s-2.2,4.8-2.2,8.4c0,3.5,0.7,6.3,2.2,8.3c1.4,2,3.4,3,5.9,3c1.5,0,2.9-0.4,4.1-1.3
			s2.1-2.2,2.8-3.8S272.1,574.3,272.1,572z"/>
		<path class="st1" d="M354.9,590.6c-1.6,0.9-4.1,1.8-7.3,2.5s-6.4,1.1-9.3,1.1c-7.6,0-13.5-1.9-17.6-5.7c-4.1-3.8-6.2-9.1-6.2-16
			c0-4.6,1-8.7,3.1-12.3s5-6.3,8.8-8.1s8.3-2.8,13.4-2.8c3.8,0,7.8,0.5,12.1,1.6v11.4c-2-0.9-3.9-1.5-5.8-1.9s-3.8-0.5-6-0.5
			c-3.6,0-6.5,1.1-8.6,3.2c-2.1,2.2-3.2,5.1-3.2,8.9c0,3.6,0.9,6.4,2.7,8.5c1.8,2,4.3,3.1,7.5,3.1c1.5,0,2.6-0.1,3.3-0.2v-6.2h-8.3
			v-9.9h21.4L354.9,590.6L354.9,590.6z"/>
		<path class="st1" d="M428.1,571.6c0,4.4-0.9,8.3-2.8,11.7s-4.5,6.1-7.9,8c-3.4,1.9-7.1,2.9-11.3,2.9c-4.1,0-7.8-0.9-11.1-2.8
			c-3.3-1.8-5.9-4.4-7.8-7.8s-2.8-7.1-2.8-11.3c0-4.4,0.9-8.4,2.8-11.9s4.5-6.3,7.9-8.2s7.2-2.9,11.6-2.9c4.2,0,7.9,0.9,11.2,2.8
			c3.3,1.8,5.8,4.5,7.6,7.9C427.2,563.4,428.1,567.3,428.1,571.6z M414.2,572c0-3.6-0.7-6.4-2.1-8.5s-3.2-3.1-5.6-3.1
			c-2.6,0-4.6,1-6.1,3s-2.2,4.8-2.2,8.4c0,3.5,0.7,6.3,2.2,8.3c1.4,2,3.4,3,5.9,3c1.5,0,2.9-0.4,4.1-1.3s2.1-2.2,2.8-3.8
			S414.2,574.3,414.2,572z"/>
		<path class="st3" d="M145.7,640.3V613H159v2.3h-10.8v10h10v2.3h-10V638h11.4v2.3H145.7z"/>
		<path class="st3" d="M166.1,631c0,1.2,0.2,2.3,0.5,3.2c0.3,1,0.7,1.8,1.3,2.4c0.6,0.7,1.3,1.2,2.1,1.5c0.8,0.3,1.7,0.5,2.8,0.5
			c2.2,0,4.3-0.8,6.2-2.3v2.4c-1.9,1.3-4.1,2-6.8,2c-1.3,0-2.5-0.2-3.6-0.7s-2-1.1-2.7-2s-1.3-1.9-1.7-3.2c-0.4-1.3-0.6-2.7-0.6-4.3
			c0-1.5,0.2-2.8,0.7-4s1.1-2.3,1.9-3.2s1.7-1.6,2.8-2.1s2.3-0.8,3.5-0.8c1.3,0,2.4,0.2,3.3,0.7s1.8,1.1,2.4,1.9
			c0.6,0.8,1.1,1.8,1.5,3s0.5,2.5,0.5,3.9v1.2L166.1,631L166.1,631z M177.6,628.8c0-2-0.5-3.6-1.4-4.7s-2.2-1.7-3.9-1.7
			c-0.8,0-1.6,0.2-2.3,0.4c-0.7,0.3-1.3,0.7-1.9,1.3s-1,1.2-1.3,2c-0.4,0.8-0.6,1.7-0.7,2.7L177.6,628.8L177.6,628.8z"/>
		<path class="st3" d="M198.1,640.3V629c0-4.4-1.6-6.6-4.8-6.6c-0.9,0-1.6,0.2-2.4,0.5s-1.4,0.8-1.9,1.4c-0.5,0.6-0.9,1.3-1.2,2.1
			s-0.4,1.7-0.4,2.7v11.2h-2.4v-19.5h2.4v3.4h0.1c1.4-2.6,3.6-3.8,6.5-3.8c2.1,0,3.8,0.7,4.9,2.1c1.1,1.4,1.7,3.4,1.7,6v11.9
			L198.1,640.3L198.1,640.3z"/>
		<path class="st3" d="M224,640.3h-2.3l-7.5-19.5h2.7l5.4,14.8c0.3,0.9,0.5,1.7,0.6,2.4h0.1c0.1-0.9,0.4-1.7,0.6-2.3l5.6-14.9h2.6
			L224,640.3z"/>
		<path class="st3" d="M243,640.7c-1.4,0-2.8-0.2-3.9-0.7s-2.1-1.2-2.9-2s-1.4-1.9-1.9-3.2c-0.4-1.2-0.6-2.6-0.6-4.1
			c0-1.6,0.2-3.1,0.7-4.4c0.5-1.3,1.1-2.4,1.9-3.3s1.9-1.6,3.1-2c1.2-0.5,2.5-0.7,4-0.7c1.4,0,2.7,0.2,3.8,0.7s2.1,1.1,2.9,2
			c0.8,0.9,1.4,1.9,1.8,3.2s0.6,2.7,0.6,4.3c0,1.5-0.2,2.9-0.7,4.2s-1.1,2.3-1.9,3.2c-0.8,0.9-1.8,1.6-3,2.1
			C245.8,640.5,244.5,640.7,243,640.7z M243.2,622.4c-1.1,0-2,0.2-2.9,0.5c-0.9,0.4-1.6,0.9-2.2,1.6s-1.1,1.6-1.4,2.6
			s-0.5,2.2-0.5,3.5c0,1.2,0.2,2.3,0.5,3.3c0.3,1,0.8,1.8,1.4,2.5c0.6,0.7,1.3,1.2,2.2,1.6s1.8,0.6,2.9,0.6c1.1,0,2.1-0.2,2.9-0.5
			s1.6-0.9,2.1-1.6s1-1.5,1.3-2.5s0.4-2.1,0.4-3.4c0-2.6-0.6-4.6-1.8-6S245.4,622.4,243.2,622.4z"/>
		<path class="st3" d="M265.3,640.7c-1.5,0-2.8-0.2-3.9-0.7s-2.1-1.2-2.9-2s-1.4-1.9-1.9-3.2c-0.4-1.2-0.6-2.6-0.6-4.1
			c0-1.6,0.2-3.1,0.7-4.4c0.5-1.3,1.1-2.4,2-3.3s1.9-1.6,3.1-2c1.2-0.5,2.5-0.7,4-0.7c1.4,0,2.7,0.2,3.8,0.7s2.1,1.1,2.9,2
			s1.4,1.9,1.8,3.2c0.4,1.3,0.6,2.7,0.6,4.3c0,1.5-0.2,2.9-0.7,4.2s-1.1,2.3-1.9,3.2c-0.8,0.9-1.8,1.6-3,2.1
			C268.1,640.5,266.8,640.7,265.3,640.7z M265.5,622.4c-1.1,0-2,0.2-2.9,0.5c-0.9,0.4-1.6,0.9-2.2,1.6s-1.1,1.6-1.4,2.6
			s-0.5,2.2-0.5,3.5c0,1.2,0.2,2.3,0.5,3.3c0.3,1,0.8,1.8,1.4,2.5c0.6,0.7,1.3,1.2,2.2,1.6s1.8,0.6,2.9,0.6c1.1,0,2.1-0.2,2.9-0.5
			s1.5-0.9,2.1-1.6c0.6-0.7,1-1.5,1.3-2.5c0.3-1,0.5-2.1,0.5-3.4c0-2.6-0.6-4.6-1.8-6S267.7,622.4,265.5,622.4z"/>
		<path class="st3" d="M289.4,623.2c-0.6-0.4-1.3-0.6-2.2-0.6c-0.6,0-1.2,0.1-1.7,0.4s-0.9,0.6-1.3,1c-0.4,0.4-0.7,0.9-1,1.5
			c-0.3,0.5-0.5,1.1-0.6,1.7c-0.2,0.6-0.3,1.2-0.3,1.8s-0.1,1.2-0.1,1.7v9.5h-2.4v-19.5h2.4v4.2h0.1c0.2-0.7,0.5-1.3,0.9-1.9
			c0.4-0.6,0.8-1,1.2-1.4s1-0.7,1.5-0.9s1.1-0.3,1.7-0.3c0.4,0,0.8,0,1.1,0.1s0.6,0.1,0.9,0.2L289.4,623.2L289.4,623.2z"/>
		<path class="st3" d="M295.4,637.1v3.1h-2.4v-28.9h2.4v13.1h0.1c0.7-1.4,1.7-2.4,2.9-3.1s2.6-1.1,4.1-1.1c1.2,0,2.4,0.2,3.3,0.7
			s1.8,1.1,2.5,1.9c0.7,0.8,1.2,1.8,1.6,3c0.4,1.2,0.5,2.5,0.5,3.9c0,1.6-0.2,3.1-0.6,4.4c-0.4,1.3-1,2.5-1.8,3.4
			c-0.8,1-1.7,1.7-2.8,2.2c-1.1,0.5-2.3,0.8-3.6,0.8C298.8,640.7,296.8,639.5,295.4,637.1L295.4,637.1L295.4,637.1z M295.4,632.2
			c0,0.9,0.1,1.7,0.5,2.5c0.3,0.8,0.7,1.5,1.2,2.1s1.2,1.1,1.9,1.4c0.8,0.3,1.6,0.5,2.5,0.5c1,0,1.9-0.2,2.6-0.6s1.5-1,2-1.8
			c0.5-0.8,1-1.7,1.3-2.8s0.5-2.3,0.5-3.6c0-1.1-0.1-2.2-0.4-3.1c-0.3-0.9-0.7-1.7-1.2-2.3c-0.5-0.7-1.1-1.1-1.9-1.5
			c-0.7-0.3-1.5-0.5-2.5-0.5c-1,0-1.9,0.2-2.7,0.6s-1.5,0.9-2.1,1.5c-0.6,0.7-1,1.4-1.3,2.3s-0.5,1.8-0.5,2.8L295.4,632.2
			L295.4,632.2z"/>
		<path class="st3" d="M316.5,631c0,1.2,0.2,2.3,0.5,3.2c0.3,1,0.7,1.8,1.3,2.4s1.3,1.2,2.1,1.5c0.8,0.3,1.7,0.5,2.8,0.5
			c2.2,0,4.3-0.8,6.2-2.3v2.4c-1.9,1.3-4.1,2-6.8,2c-1.3,0-2.5-0.2-3.6-0.7s-2-1.1-2.7-2s-1.3-1.9-1.7-3.2c-0.4-1.3-0.6-2.7-0.6-4.3
			c0-1.5,0.2-2.8,0.7-4s1.1-2.3,1.9-3.2s1.7-1.6,2.8-2.1s2.3-0.8,3.5-0.8c1.3,0,2.4,0.2,3.3,0.7s1.8,1.1,2.4,1.9
			c0.6,0.8,1.1,1.8,1.5,3s0.5,2.5,0.5,3.9v1.2L316.5,631L316.5,631z M328,628.8c0-2-0.5-3.6-1.5-4.7c-0.9-1.1-2.2-1.7-3.9-1.7
			c-0.8,0-1.6,0.2-2.3,0.4c-0.7,0.3-1.3,0.7-1.9,1.3s-1,1.2-1.3,2c-0.4,0.8-0.6,1.7-0.7,2.7L328,628.8L328,628.8z"/>
		<path class="st3" d="M336.5,631c0,1.2,0.2,2.3,0.5,3.2c0.3,1,0.7,1.8,1.3,2.4s1.3,1.2,2.1,1.5c0.8,0.3,1.7,0.5,2.8,0.5
			c2.2,0,4.3-0.8,6.2-2.3v2.4c-1.9,1.3-4.1,2-6.8,2c-1.3,0-2.5-0.2-3.6-0.7s-2-1.1-2.7-2s-1.3-1.9-1.7-3.2c-0.4-1.3-0.6-2.7-0.6-4.3
			c0-1.5,0.2-2.8,0.7-4s1.1-2.3,1.9-3.2s1.7-1.6,2.8-2.1s2.3-0.8,3.5-0.8c1.3,0,2.4,0.2,3.3,0.7s1.8,1.1,2.4,1.9
			c0.6,0.8,1.1,1.8,1.5,3s0.5,2.5,0.5,3.9v1.2L336.5,631L336.5,631z M348.1,628.8c0-2-0.5-3.6-1.5-4.7c-0.9-1.1-2.2-1.7-3.9-1.7
			c-0.8,0-1.6,0.2-2.3,0.4c-0.7,0.3-1.3,0.7-1.9,1.3s-1,1.2-1.3,2c-0.4,0.8-0.6,1.7-0.7,2.7L348.1,628.8L348.1,628.8z"/>
		<path class="st3" d="M355.4,640.3v-28.9h2.4v28.9H355.4z"/>
		<path class="st3" d="M377.8,640.3v-3.4h-0.1c-0.6,1.2-1.6,2.2-2.8,2.9c-1.2,0.7-2.6,1-4.1,1c-1.2,0-2.3-0.2-3.3-0.7
			c-1-0.5-1.9-1.1-2.6-2c-0.7-0.8-1.3-1.9-1.6-3.1c-0.4-1.2-0.6-2.6-0.6-4.1c0-1.6,0.2-3,0.6-4.3c0.4-1.3,1-2.4,1.8-3.3
			s1.7-1.7,2.8-2.2s2.3-0.8,3.7-0.8c2.8,0,4.8,1.1,6,3.4h0.1v-12.3h2.4v28.9L377.8,640.3L377.8,640.3z M377.8,628.5
			c0-0.8-0.1-1.6-0.4-2.4s-0.7-1.4-1.2-1.9s-1.1-1-1.9-1.3c-0.7-0.3-1.5-0.5-2.4-0.5c-1,0-1.9,0.2-2.7,0.6s-1.5,0.9-2.1,1.7
			c-0.6,0.7-1,1.6-1.4,2.6c-0.3,1-0.5,2.2-0.5,3.5c0,1.2,0.1,2.3,0.4,3.3c0.3,1,0.7,1.8,1.2,2.5c0.5,0.7,1.2,1.2,1.9,1.5
			s1.6,0.5,2.5,0.5c1,0,1.9-0.2,2.7-0.5c0.8-0.4,1.5-0.8,2-1.5c0.5-0.6,1-1.3,1.3-2.2s0.5-1.7,0.5-2.7L377.8,628.5L377.8,628.5z"/>
		<path class="st3" d="M397.2,640.3v-28.9h2.4v28.9H397.2z"/>
		<path class="st3" d="M413.9,640.7c-1.5,0-2.8-0.2-3.9-0.7c-1.1-0.5-2.1-1.2-2.9-2s-1.4-1.9-1.9-3.2c-0.4-1.2-0.6-2.6-0.6-4.1
			c0-1.6,0.2-3.1,0.7-4.4c0.5-1.3,1.1-2.4,2-3.3c0.8-0.9,1.9-1.6,3.1-2c1.2-0.5,2.5-0.7,4-0.7c1.4,0,2.7,0.2,3.8,0.7s2.1,1.1,2.9,2
			s1.4,1.9,1.8,3.2c0.4,1.3,0.6,2.7,0.6,4.3c0,1.5-0.2,2.9-0.7,4.2s-1.1,2.3-1.9,3.2c-0.8,0.9-1.8,1.6-3,2.1
			C416.7,640.5,415.4,640.7,413.9,640.7z M414.1,622.4c-1.1,0-2,0.2-2.9,0.5c-0.9,0.4-1.6,0.9-2.2,1.6c-0.6,0.7-1.1,1.6-1.4,2.6
			s-0.5,2.2-0.5,3.5c0,1.2,0.2,2.3,0.5,3.3c0.3,1,0.8,1.8,1.4,2.5c0.6,0.7,1.3,1.2,2.2,1.6s1.8,0.6,2.9,0.6c1.1,0,2.1-0.2,2.9-0.5
			s1.5-0.9,2.1-1.6c0.6-0.7,1-1.5,1.3-2.5c0.3-1,0.5-2.1,0.5-3.4c0-2.6-0.6-4.6-1.8-6S416.2,622.4,414.1,622.4z"/>
		<path class="st3" d="M444.4,638.8c0,3.6-0.8,6.3-2.5,8c-1.6,1.8-4.2,2.6-7.6,2.6c-2.1,0-4.1-0.5-6.1-1.4v-2.5
			c2.1,1.2,4.1,1.8,6.1,1.8c5.1,0,7.6-2.7,7.6-8.1v-2.3h-0.1c-1.5,2.6-3.8,3.8-6.9,3.8c-1.2,0-2.3-0.2-3.3-0.7
			c-1-0.4-1.9-1.1-2.6-1.9s-1.3-1.9-1.7-3.1c-0.4-1.2-0.6-2.5-0.6-4.1c0-1.6,0.2-3.1,0.6-4.4s1-2.4,1.8-3.4c0.8-0.9,1.7-1.7,2.8-2.2
			s2.3-0.8,3.7-0.8c2.8,0,4.8,1.1,6,3.3h0.1v-2.9h2.4L444.4,638.8L444.4,638.8z M441.9,628.4c0-0.8-0.1-1.6-0.4-2.3
			s-0.7-1.4-1.2-1.9c-0.5-0.5-1.1-1-1.9-1.3c-0.7-0.3-1.5-0.5-2.4-0.5c-1,0-1.9,0.2-2.8,0.6s-1.5,1-2.1,1.7c-0.6,0.7-1,1.6-1.3,2.6
			c-0.3,1-0.5,2.2-0.5,3.5c0,1.2,0.1,2.3,0.4,3.2s0.7,1.8,1.2,2.5c0.5,0.7,1.2,1.2,1.9,1.6c0.8,0.4,1.6,0.5,2.5,0.5
			c1,0,1.8-0.2,2.6-0.5c0.8-0.3,1.5-0.8,2-1.5s1-1.3,1.3-2.2s0.5-1.7,0.5-2.7V628.4z"/>
		<path class="st3" d="M458.6,640.7c-1.5,0-2.8-0.2-3.9-0.7c-1.1-0.5-2.1-1.2-2.9-2s-1.4-1.9-1.9-3.2c-0.4-1.2-0.6-2.6-0.6-4.1
			c0-1.6,0.2-3.1,0.7-4.4c0.5-1.3,1.1-2.4,2-3.3c0.8-0.9,1.9-1.6,3.1-2c1.2-0.5,2.5-0.7,4-0.7c1.4,0,2.7,0.2,3.8,0.7s2.1,1.1,2.9,2
			s1.4,1.9,1.8,3.2c0.4,1.3,0.6,2.7,0.6,4.3c0,1.5-0.2,2.9-0.7,4.2s-1.1,2.3-1.9,3.2c-0.8,0.9-1.8,1.6-3,2.1
			C461.4,640.5,460.1,640.7,458.6,640.7z M458.8,622.4c-1.1,0-2,0.2-2.9,0.5c-0.9,0.4-1.6,0.9-2.2,1.6c-0.6,0.7-1.1,1.6-1.4,2.6
			s-0.5,2.2-0.5,3.5c0,1.2,0.2,2.3,0.5,3.3c0.3,1,0.8,1.8,1.4,2.5c0.6,0.7,1.3,1.2,2.2,1.6s1.8,0.6,2.9,0.6c1.1,0,2.1-0.2,2.9-0.5
			s1.5-0.9,2.1-1.6c0.6-0.7,1-1.5,1.3-2.5c0.3-1,0.5-2.1,0.5-3.4c0-2.6-0.6-4.6-1.8-6S461,622.4,458.8,622.4z"/>
	</g>
</g>
</svg>
