<?xml version="1.0" encoding="utf-8"?>
<!-- Generator: Adobe Illustrator 25.2.0, SVG Export Plug-In . SVG Version: 6.00 Build 0)  -->
<svg version="1.1" id="Layer_1" xmlns="http://www.w3.org/2000/svg" xmlns:xlink="http://www.w3.org/1999/xlink" x="0px" y="0px"
	 viewBox="0 0 612 792" style="enable-background:new 0 0 612 792;" xml:space="preserve">
<style type="text/css">
	.st0{fill:url(#SVGID_1_);}
	.st1{fill:url(#SVGID_2_);}
	.st2{fill:url(#SVGID_3_);}
</style>
<g id="Layer_2_1_">
	<g>
		<g>
			
				<linearGradient id="SVGID_1_" gradientUnits="userSpaceOnUse" x1="116.1911" y1="555.7721" x2="280.9111" y2="310.0787" gradientTransform="matrix(1 0 0 -1 0 792)">
				<stop  offset="0" style="stop-color:#E34F84"/>
				<stop  offset="1" style="stop-color:#3A2969"/>
			</linearGradient>
			<path class="st0" d="M177.7,327.3c0-43.3,22.4-81.4,56.2-103.3C130.1,246.4,53.6,316.8,53.6,327.3c0,17.2,77.1,83.5,181.5,104
				C200.6,409.6,177.7,371.1,177.7,327.3z"/>
			
				<linearGradient id="SVGID_2_" gradientUnits="userSpaceOnUse" x1="286.9476" y1="670.2522" x2="451.6676" y2="424.5588" gradientTransform="matrix(1 0 0 -1 0 792)">
				<stop  offset="0" style="stop-color:#E34F84"/>
				<stop  offset="1" style="stop-color:#3A2969"/>
			</linearGradient>
			<path class="st1" d="M370.7,226.2c32,22.2,52.9,59.2,52.9,101.1c0,42.5-21.6,80-54.4,102.1c103.3-22.5,178.4-85.4,178.4-102.1
				C547.7,317.1,473.3,250.7,370.7,226.2z"/>
		</g>
		<linearGradient id="SVGID_3_" gradientUnits="userSpaceOnUse" x1="201.3436" y1="475.4608" x2="366.0636" y2="229.7674">
			<stop  offset="0" style="stop-color:#E34F84"/>
			<stop  offset="1" style="stop-color:#3A2969"/>
		</linearGradient>
		<path class="st2" d="M300.7,266.8c-6.4,0-12.6,1-18.4,2.9c4.1,3.7,6.7,9.1,6.7,14.9c0,11.3-9.1,20.4-20.5,20.5
			c-8.1,0-15-4.5-18.3-11.2c-6.4,9.6-10.1,21.1-10.1,33.5c0,33.4,27.1,60.5,60.6,60.5c33.4,0,60.5-27.1,60.5-60.5
			S334.1,266.8,300.7,266.8z"/>
	</g>
</g>
<g id="Layer_3">
	<g>
		<path d="M117,560l-19.8-60.7h8.5l9.4,29.9c2.6,8.2,4.9,15.6,6.5,22.7h0.2c1.7-7,4.2-14.7,6.9-22.6l10.3-30h8.4L125.6,560L117,560
			L117,560z"/>
		<path d="M179.7,499.3V560h-7.8v-60.7L179.7,499.3L179.7,499.3z"/>
		<path d="M210.3,550.4c3.5,2.2,8.6,4,14,4c8,0,12.7-4.2,12.7-10.3c0-5.7-3.2-8.9-11.4-12.1c-9.9-3.5-16-8.6-16-17.2
			c0-9.5,7.8-16.5,19.6-16.5c6.2,0,10.7,1.4,13.4,3l-2.2,6.4c-2-1.1-6-2.9-11.5-2.9c-8.3,0-11.4,5-11.4,9.1c0,5.7,3.7,8.5,12.1,11.7
			c10.3,4,15.5,8.9,15.5,17.8c0,9.4-6.9,17.5-21.2,17.5c-5.9,0-12.2-1.7-15.5-3.9L210.3,550.4z"/>
		<path d="M281.6,499.3V560h-7.8v-60.7L281.6,499.3L281.6,499.3z"/>
		<path d="M365.1,529c0,20.9-12.7,32-28.2,32c-16,0-27.3-12.4-27.3-30.8c0-19.3,12-31.9,28.2-31.9C354.4,498.3,365.1,511,365.1,529z
			 M318,530c0,13,7,24.6,19.4,24.6c12.4,0,19.4-11.4,19.4-25.2c0-12.1-6.3-24.7-19.4-24.7C324.5,504.7,318,516.7,318,530z"/>
		<path d="M393.3,560v-60.7h8.5l19.4,30.7c4.5,7.1,8,13.5,10.9,19.7l0.2-0.1c-0.7-8.1-0.9-15.5-0.9-24.9v-25.4h7.4V560h-7.9
			l-19.3-30.8c-4.2-6.8-8.3-13.7-11.3-20.2L400,509c0.5,7.6,0.6,14.9,0.6,25V560L393.3,560L393.3,560z"/>
		<path d="M469.4,550.4c3.5,2.2,8.6,4,14,4c8,0,12.7-4.2,12.7-10.3c0-5.7-3.2-8.9-11.4-12.1c-9.9-3.5-16-8.6-16-17.2
			c0-9.5,7.8-16.5,19.6-16.5c6.2,0,10.7,1.4,13.4,3l-2.2,6.4c-2-1.1-6-2.9-11.5-2.9c-8.3,0-11.4,5-11.4,9.1c0,5.7,3.7,8.5,12.1,11.7
			c10.3,4,15.5,8.9,15.5,17.8c0,9.4-6.9,17.5-21.2,17.5c-5.9,0-12.2-1.7-15.5-3.9L469.4,550.4z"/>
	</g>
	<path d="M337.4,536.3c-3.7,0-6.7-2.9-6.7-6.7c0-3.7,3-6.7,6.7-6.7c3.6,0,6.6,3,6.6,6.6C344.1,533.3,341.1,536.3,337.4,536.3z"/>
</g>
</svg>
