<?xml version="1.0" encoding="utf-8"?>
<!-- Generator: Adobe Illustrator 25.2.0, SVG Export Plug-In . SVG Version: 6.00 Build 0)  -->
<svg version="1.1" xmlns="http://www.w3.org/2000/svg" xmlns:xlink="http://www.w3.org/1999/xlink" x="0px" y="0px"
	 viewBox="0 0 612 792" style="enable-background:new 0 0 612 792;" xml:space="preserve">
<style type="text/css">
	.st0{fill:#FFFFFF;}
	.st1{opacity:0.64;fill:#FFFFFF;}
	.st2{opacity:0.63;fill:#FFFFFF;}
</style>
<g id="Layer_1">
	<g id="Layer_2_1_">
	</g>
	<g id="Layer_3">
		<g>
			<path class="st0" d="M396.9,238.5c-4.9,1.6-11.1,3.6-17.3,5.8c-76,26.2-151.9,52.5-227.9,78.6c-5.5,1.9-7.9,4.3-7.8,10.3
				c0.2,11.8-0.4,23.6-0.8,35.4c-0.2,7.3-0.7,14.6-1.1,22.1c2.2,0,3.1,0.2,3.9,0c81.4-18.9,162.8-37.8,244.1-57
				c2.2-0.5,5-4.3,5.2-6.8c1-10.9,1.5-21.8,1.6-32.7C397,275.7,396.9,257.3,396.9,238.5z"/>
			<path class="st1" d="M249.8,500.7c0-16-0.2-32,0.1-47.9c0.3-15.8,1.1-31.5,1.6-47.3c0.5-14.3,0.4-14.5,14.4-16.8
				c26.5-4.5,53-8.7,80.8-13.3c0,11.8,0.2,22.6-0.1,33.4c-0.2,8.6-0.7,17.2-1.6,25.8c-0.3,2.8-1.7,6.5-3.8,7.9
				c-29.8,19.5-59.7,38.7-89.7,57.9C250.9,500.8,250,500.7,249.8,500.7z"/>
		</g>
		<g>
			<path class="st0" d="M114.8,589.3c-1.6,1.8-3.8,3.2-6.8,4.2s-6.2,1.5-9.8,1.4c-3.4,0-6.4-0.9-8.7-2.6c-2.4-1.7-4.1-4.1-5.1-7.1
				c-1-3-1.3-6.5-0.8-10.3l0.2-1.7c0.9-6.4,3.1-11.5,6.7-15.2s8.1-5.5,13.3-5.5c4.6,0.1,8.1,1.3,10.6,3.7s3.8,5.8,4.1,10.4l-9.3,0
				c-0.1-2.2-0.7-3.8-1.6-4.8c-0.9-1-2.3-1.5-4.1-1.6c-2.6-0.1-4.8,0.9-6.4,3.1s-2.9,5.2-3.5,9.2c-0.5,3.4-0.7,6-0.6,7.9
				c0.3,4.5,2.3,6.8,6.1,6.9c2.3,0,4.3-0.5,6.1-1.7l1.3-6.4h-6.7l1.2-6.8h16.4L114.8,589.3z"/>
			<path class="st0" d="M152.5,572.4c-1-0.2-2-0.2-2.9-0.3c-2.8-0.1-4.9,0.9-6.4,2.9l-3.4,19.4h-9.3l5.3-30.6l8.7,0l-0.7,4
				c2-3.1,4.4-4.6,7.1-4.6c0.8,0,1.7,0.1,2.9,0.4L152.5,572.4z"/>
			<path class="st0" d="M178.2,594.9c-2.7,0-5.2-0.7-7.3-1.9c-2.1-1.3-3.8-3-4.9-5.3c-1.1-2.3-1.5-4.8-1.3-7.5l0.1-0.8
				c0.5-5,2.3-9,5.2-12s6.6-4.3,11-4.2c2.6,0,4.9,0.7,6.7,2c1.9,1.3,3.2,3.1,4.1,5.3c0.9,2.3,1.1,4.8,0.9,7.7l-0.5,3.9H174
				c0,1.6,0.5,2.9,1.4,3.9s2.1,1.5,3.8,1.6c2.7,0.1,5.1-1,7.3-3.1l3.9,5.2c-1.1,1.6-2.8,2.9-4.8,3.8c-2.1,0.9-4.3,1.4-6.8,1.5
				L178.2,594.9L178.2,594.9z M180.5,570.5c-1.3,0-2.5,0.4-3.4,1.2c-1,0.9-1.8,2.3-2.5,4.3h9.3l0.2-0.8c0.1-0.7,0.1-1.3,0.1-1.9
				C183.7,571.5,182.5,570.6,180.5,570.5z"/>
			<path class="st0" d="M220.7,594.9c-2.7,0-5.2-0.7-7.3-1.9c-2.1-1.3-3.8-3-4.9-5.3c-1.1-2.3-1.5-4.8-1.3-7.5l0.1-0.8
				c0.5-5,2.3-9,5.2-12s6.6-4.3,11-4.2c2.6,0,4.9,0.7,6.7,2c1.9,1.3,3.2,3.1,4.1,5.3c0.9,2.3,1.1,4.8,0.9,7.7l-0.5,3.9h-18.2
				c0,1.6,0.5,2.9,1.4,3.9s2.1,1.5,3.8,1.6c2.7,0.1,5.1-1,7.3-3.1l3.9,5.2c-1.1,1.6-2.8,2.9-4.8,3.8c-2.1,0.9-4.3,1.4-6.8,1.5
				L220.7,594.9L220.7,594.9z M222.9,570.5c-1.3,0-2.5,0.4-3.4,1.2c-1,0.9-1.8,2.3-2.5,4.3h9.3l0.2-0.8c0.1-0.7,0.1-1.3,0.1-1.9
				C226.2,571.5,225,570.6,222.9,570.5z"/>
			<path class="st0" d="M261.7,563.7l-0.6,3.7c2.5-2.9,5.4-4.3,8.9-4.2c2.8,0.1,4.9,1.1,6.3,3.2c1.4,2,1.9,5,1.5,8.8l-3.2,19.3h-9.3
				l3.2-19.3c0.1-0.7,0.1-1.3,0.1-1.8c-0.1-1.8-1.2-2.7-3.2-2.7c-1.6,0-3.1,0.7-4.5,2.2l-3.8,21.7h-9.3l5.3-30.6L261.7,563.7z"/>
			<path class="st0" d="M345.8,577.9h-15.5l-2.9,16.4h-9.7l7.1-41.2h26.8l-1.3,7.7h-17.1l-1.6,9.5h15.5L345.8,577.9z"/>
			<path class="st0" d="M369.7,594.3h-9.3l5.3-30.6h9.3L369.7,594.3z M366.5,556c0-1.4,0.5-2.5,1.5-3.5c1-0.9,2.2-1.4,3.7-1.4
				c1.5,0,2.7,0.4,3.6,1.2c1,0.8,1.5,1.9,1.5,3.2c0,1.4-0.4,2.5-1.4,3.5c-1,0.9-2.2,1.4-3.7,1.4c-1.4,0-2.6-0.4-3.6-1.2
				C367.1,558.5,366.5,557.4,366.5,556z"/>
			<path class="st0" d="M402.4,594.9c-2.7,0-5.2-0.7-7.3-1.9c-2.1-1.3-3.8-3-4.9-5.3c-1.1-2.3-1.5-4.8-1.3-7.5l0.1-0.8
				c0.5-5,2.3-9,5.2-12c3-2.9,6.6-4.3,11-4.2c2.6,0,4.9,0.7,6.7,2c1.9,1.3,3.2,3.1,4.1,5.3c0.9,2.3,1.1,4.8,0.9,7.7l-0.5,3.9h-18.2
				c0,1.6,0.5,2.9,1.4,3.9s2.1,1.5,3.8,1.6c2.7,0.1,5.1-1,7.3-3.1l3.9,5.2c-1.1,1.6-2.8,2.9-4.8,3.8s-4.3,1.4-6.8,1.5L402.4,594.9
				L402.4,594.9z M404.7,570.5c-1.3,0-2.5,0.4-3.4,1.2c-1,0.9-1.8,2.3-2.5,4.3h9.3l0.2-0.8c0.1-0.7,0.1-1.3,0.1-1.9
				C407.9,571.5,406.7,570.6,404.7,570.5z"/>
			<path class="st0" d="M439.5,594.3h-9.3l7.5-43.4h9.3L439.5,594.3z"/>
			<path class="st0" d="M458.5,579c0.6-4.8,2-8.7,4.4-11.6c2.4-2.9,5.4-4.3,9.2-4.2c2.6,0.1,4.8,1.2,6.5,3.3l3-15.5h9.3l-7.5,43.4
				h-8.3l0.4-3.3c-2.3,2.7-4.8,4-7.6,3.9c-2.9,0-5.2-1.1-6.9-3.3c-1.7-2.1-2.6-5-2.7-8.6c0-1.2,0-2.3,0.1-3.5L458.5,579z
				 M467.8,579.6c-0.1,1.2-0.2,2.3-0.2,3.2c0,3.1,1.1,4.7,3.2,4.8c1.8,0.1,3.5-0.8,4.9-2.6l2.1-11.7c-0.6-1.7-1.9-2.6-3.7-2.7
				c-1.7,0-3.1,0.7-4.2,2.2C468.7,574.3,468,576.6,467.8,579.6z"/>
			<path class="st0" d="M517.7,585.6c0.2-1.2-0.7-2.2-2.9-2.8l-2-0.5c-3.3-0.9-5.7-2.1-7.2-3.7c-1.5-1.6-2.2-3.4-2.1-5.6
				c0.1-2.9,1.4-5.3,3.9-7.2c2.5-1.8,5.6-2.7,9.2-2.7c3.6,0,6.5,1,8.8,2.7s3.4,4.2,3.4,7.2l-9.3,0c0.1-2.4-1-3.6-3.2-3.6
				c-0.9,0-1.8,0.3-2.6,0.8c-0.8,0.6-1.3,1.3-1.4,2.2c-0.3,1.5,1,2.6,4,3.1c2.6,0.6,4.7,1.3,6.1,2.2c1.4,0.8,2.5,1.8,3.3,3
				c0.8,1.2,1.1,2.7,1,4.3c-0.1,1.8-0.7,3.5-1.8,5s-2.8,2.6-5,3.5s-4.5,1.3-7.1,1.2c-2.2,0-4.3-0.5-6.1-1.4
				c-1.9-0.9-3.4-2.1-4.4-3.7c-1.1-1.6-1.6-3.3-1.6-5.4l8.6,0.1c0,2.7,1.4,4,4.1,4c1.2,0,2.1-0.3,2.9-0.8
				C516.9,587.2,517.5,586.5,517.7,585.6z"/>
		</g>
	</g>
</g>
<g id="Layer_3_1_">
	<path class="st2" d="M203.6,270.2c2.9-0.5,4.4-0.5,5.7-0.9c87.5-27.1,174.9-54.2,262.4-81.2c4.7-1.4,6.2-3.9,6.3-8.6
		c0.4-18.7,1.1-37.4,1.6-56.1c0-1-0.7-2-1.2-3.5C388,136.3,298,152.6,207.6,169C206.2,202.5,204.9,235.8,203.6,270.2z"/>
</g>
</svg>
