<?xml version="1.0" encoding="utf-8"?>
<!-- Generator: Adobe Illustrator 25.2.0, SVG Export Plug-In . SVG Version: 6.00 Build 0)  -->
<svg version="1.1" xmlns="http://www.w3.org/2000/svg" xmlns:xlink="http://www.w3.org/1999/xlink" x="0px" y="0px"
	 viewBox="0 0 2423.5 567.3" style="enable-background:new 0 0 2423.5 567.3;" xml:space="preserve">
<style type="text/css">
	.st0{fill:#00A6C4;}
	.st1{fill:#2D3638;}
</style>
<g id="Layer_1">
</g>
<g id="Layer_2">
	<g>
		<path class="st0" d="M102.2,533.2c-4.4-5.7-3.7-11.4-0.9-17.7c5.4-12.1,10.1-24.6,6.9-38.1c-1.1-4.8-3.6-9.9-7-13.4
			c-18.3-18.9-21.7-45.7-9-69.6c18.4-34.5,66-51.9,102.7-32.7c4.4,2.3,8.4,5.3,12.9,8.2c10.4-12.7,20.8-25.2,31-37.8
			c16.5-20.2,33.1-40.5,49.3-60.9c1.8-2.2,2.6-5.9,2.4-8.8c-0.5-7.9-1.5-15.8-3-23.6c-0.8-4.5,0.7-6.4,4.5-8.4
			c64.5-33.1,128.9-66.4,193.3-99.7c23.2-12,46.2-24.2,69.6-35.8c8.2-4.1,17.3-6.5,26.6-8.4c-1.4,1.1-2.8,2.3-4.3,3.4
			c-80.6,58.7-161.2,117.4-241.7,176.3c-5,3.7-9.3,8.7-13.2,13.6c-31.9,39.4-63.6,79-95.3,118.6c-1.2,1.5-1.9,3.9-1.7,5.7
			c4.6,39-28.3,72.1-64.8,76.4c-15.6,1.8-25.2,10.1-32.1,22.6c-5.4,9.8-9.6,20.2-14.6,30.2c-1,1.9-3.4,3.1-5.1,4.6
			C106.6,536.3,104.4,534.7,102.2,533.2z M115.9,393.2c-19.8,26.9-13,54.2,12,65.4c23.6,10.6,58.6-0.6,71.6-23
			c15.9-27.3,4.3-54.9-26.6-61.3C148.2,369.2,128.3,378.5,115.9,393.2z M323,238.4c-4.3-3.2-10.8-2-13.9,2.4
			c-3,4.3-2.1,10.3,2.1,13.5c4.4,3.3,10.7,2.5,14-1.9C328.3,248.2,327.3,241.5,323,238.4z"/>
		<path class="st1" d="M55,87.9c3.7-3,7.3-6.3,11.2-9c34.5-24.2,85.1-14.9,108.1,20.2c4.5,6.9,6.5,15.6,8.6,23.7
			c1,3.9,2.2,6.4,5.6,8.6c38.1,24.9,76,49.9,114,74.8c1.4,0.9,2.8,2,5,3.6c-8.4,4.4-16.8,7.9-24.2,12.7c-7.5,4.9-12.6,4-19.6-1.6
			c-27.3-21.6-55.3-42.3-83.1-63.3c-0.8-0.6-1.5-1.1-2.6-1.8c-3.9,4.7-7.3,9.6-11.4,13.8c-12.1,12.4-27,19-44.1,20.8
			c-4.2,0.4-7.2,1.1-9.3,5.7c-2.7,6-9.7,8.7-16.2,7.5c-6.6-1.2-12.2-6.1-12.6-12.6c-0.3-5-3-6.3-6.6-8.1
			c-18.9-9.5-32.2-23.7-36.8-45c-2.5-11.5-1-22.7,3.5-33.5c0.6-1.4,1.1-2.9,1.6-4.3C49.1,96.1,52.1,92,55,87.9z M66.8,105
			c-10,13.6-10.2,30.5-0.3,44.3c16,22.4,50.8,29.6,75.1,15.6c15.1-8.7,24.3-21.2,22.4-39.3c-1.7-16.4-12-27.2-26.2-34.5
			C113.4,78.6,81.7,84.8,66.8,105z"/>
		<path class="st1" d="M620.1,316.9c-6.4,0.3-13.1,1.7-19.3,0.7c-83.8-13.3-167.5-27-251.3-40.6c-1.7-0.3-3.3-0.7-6-1.2
			c9-6.6,17.2-12.5,25.4-18.5c3.7-2.7,7.8-5.1,11.1-8.3c5.8-5.5,11.5-5.9,19.3-3.4c71.8,22.9,143.7,45.4,215.6,68
			c1.8,0.6,3.5,1.3,5.3,1.9C620.1,315.9,620.1,316.4,620.1,316.9z"/>
	</g>
	<g>
		<path d="M294.3,472.2c5,2.8,10.1,5.4,15.3,7.7s10.5,4.2,16.1,5.8c5.6,1.6,11.4,2.8,17.5,3.6c6.1,0.8,12.6,1.2,19.5,1.2
			c8.3,0,15.4-0.5,21.3-1.6c5.8-1.1,10.6-2.6,14.3-4.5s6.4-4.2,8.1-6.9s2.5-5.6,2.5-8.7c0-5-2.1-9-6.3-11.9s-10.7-4.4-19.4-4.4
			c-3.8,0-7.9,0.3-12.1,0.8c-4.3,0.5-8.5,1-12.9,1.6c-4.3,0.6-8.6,1.1-12.8,1.6c-4.2,0.5-8.2,0.8-11.9,0.8c-6.2,0-12.1-0.8-17.8-2.4
			c-5.7-1.6-10.7-4-15.1-7.2c-4.4-3.2-7.9-7.2-10.5-12c-2.6-4.8-3.9-10.4-3.9-16.7c0-3.8,0.5-7.5,1.6-11.2c1-3.7,2.7-7.3,5-10.7
			c2.3-3.4,5.2-6.6,8.8-9.5c3.6-2.9,8-5.4,13.1-7.6s11-3.8,17.7-5c6.7-1.2,14.3-1.8,22.9-1.8c6.2,0,12.4,0.3,18.7,1
			c6.3,0.7,12.4,1.6,18.3,2.9c5.9,1.2,11.6,2.7,17.1,4.5s10.6,3.7,15.3,5.8L412.1,410c-3.9-1.7-8.1-3.3-12.6-4.7
			c-4.5-1.4-9.2-2.7-14.1-3.8c-4.9-1.1-10-1.9-15.2-2.5c-5.2-0.6-10.6-0.9-16-0.9c-7.7,0-14.1,0.6-19.1,1.7s-9,2.6-11.9,4.3
			c-3,1.7-5,3.7-6.2,5.8c-1.2,2.2-1.7,4.3-1.7,6.4c0,4.1,1.9,7.5,5.6,10.1c3.7,2.6,9.4,3.9,17,3.9c3.1,0,6.6-0.2,10.6-0.7
			c4-0.4,8.2-0.9,12.6-1.5c4.4-0.5,8.9-1,13.5-1.5s9-0.7,13.3-0.7c8.1,0,15.4,0.9,21.7,2.7s11.6,4.4,15.8,7.8s7.5,7.5,9.7,12.3
			c2.2,4.8,3.3,10.2,3.3,16.2c0,8-1.8,15.1-5.5,21.3c-3.7,6.2-8.9,11.5-15.8,15.8c-6.8,4.3-15,7.5-24.7,9.7
			c-9.6,2.2-20.3,3.3-32.2,3.3c-7.8,0-15.4-0.5-22.9-1.5c-7.4-1-14.6-2.4-21.4-4.2s-13.3-4-19.5-6.5c-6.2-2.5-11.9-5.3-17.1-8.3
			L294.3,472.2z"/>
		<path d="M481.8,428.5h-25.2v-19.7h25.2v-32.5H508v32.5h25.2v19.7H508v84.9h-26.2V428.5z"/>
		<path d="M556.5,408.7h26.1v51c0,4.8,0.5,9.3,1.6,13.2c1.1,4,2.9,7.4,5.4,10.2c2.6,2.8,6,5,10.3,6.6c4.3,1.6,9.6,2.3,16,2.3
			c3,0,6.1-0.3,9.2-1c3.1-0.6,6.1-1.6,8.9-2.7s5.5-2.5,7.9-4.1c2.5-1.6,4.6-3.3,6.3-5.2v-70.4h26.2v104.6h-26.2v-8.9
			c-6.4,3.8-12.9,6.6-19.4,8.2c-6.5,1.7-12.7,2.5-18.5,2.5c-9.6,0-17.8-1.2-24.6-3.5c-6.8-2.3-12.4-5.7-16.7-10.1s-7.5-9.8-9.5-16.2
			c-2-6.4-3-13.7-3-21.9V408.7z"/>
		<path d="M699.7,461.5c0-8.3,1.6-15.8,4.7-22.5c3.1-6.7,7.5-12.4,13-17.2c5.5-4.8,12.1-8.4,19.7-11c7.6-2.6,15.8-3.9,24.7-3.9
			c3.8,0,7.5,0.2,11.2,0.7c3.7,0.5,7.2,1.1,10.6,1.9s6.6,1.8,9.6,3c3,1.2,5.6,2.4,7.9,3.8v-50h26.2v146.9h-26.2v-9.8
			c-2.3,1.6-5,3.1-8.1,4.5s-6.5,2.7-10.1,3.7c-3.6,1.1-7.3,1.9-11.2,2.5c-3.9,0.6-7.7,0.9-11.5,0.9c-8.9,0-17-1.3-24.4-3.9
			s-13.8-6.3-19.1-11c-5.3-4.7-9.5-10.4-12.4-17C701.2,476.8,699.7,469.5,699.7,461.5z M727.3,461.5c0,4.2,0.8,8.1,2.5,11.9
			c1.7,3.7,4.1,7,7.3,9.8c3.2,2.8,7,5,11.4,6.6c4.5,1.6,9.5,2.4,15,2.4c3.5,0,7.1-0.3,10.6-1c3.5-0.7,7-1.6,10.2-2.9
			c3.3-1.2,6.3-2.7,9.2-4.5c2.9-1.8,5.4-3.7,7.5-5.9v-36.2c-2.7-2.1-5.5-3.9-8.4-5.4c-3-1.5-6-2.7-9-3.6c-3.1-0.9-6.2-1.6-9.3-2.1
			s-6.2-0.7-9.1-0.7c-6,0-11.4,0.8-16.1,2.4s-8.7,3.9-11.9,6.7s-5.7,6.2-7.4,10C728.1,452.9,727.3,457,727.3,461.5z"/>
		<path d="M873.2,394.6c-2.6,0-4.9-0.4-7-1.1c-2.1-0.7-3.9-1.7-5.4-3c-1.5-1.3-2.6-2.7-3.4-4.4c-0.8-1.7-1.2-3.5-1.2-5.4
			c0-1.9,0.4-3.8,1.2-5.4c0.8-1.7,1.9-3.1,3.4-4.4c1.5-1.2,3.3-2.2,5.4-3c2.1-0.7,4.4-1.1,7-1.1c2.7,0,5,0.4,7.1,1.1
			c2.1,0.7,3.9,1.7,5.4,3c1.5,1.2,2.6,2.7,3.4,4.4c0.8,1.7,1.2,3.5,1.2,5.4c0,1.9-0.4,3.7-1.2,5.4c-0.8,1.7-1.9,3.2-3.4,4.4
			c-1.5,1.3-3.3,2.3-5.4,3C878.2,394.2,875.8,394.6,873.2,394.6z M860,408.8h26.2v104.5H860V408.8z"/>
		<path d="M913.5,461.1c0-7.5,1.5-14.5,4.6-21.1s7.4-12.3,13-17.2c5.6-4.9,12.5-8.8,20.5-11.6c8-2.8,17-4.3,27-4.3
			c10,0,19,1.4,27,4.3c8,2.8,14.8,6.7,20.5,11.6s10,10.6,13,17.2c3,6.6,4.6,13.6,4.6,21.1s-1.5,14.5-4.6,21.1
			c-3,6.6-7.4,12.3-13,17.2s-12.5,8.8-20.5,11.6c-8,2.8-17,4.3-27,4.3c-10,0-19-1.4-27-4.3c-8-2.8-14.8-6.7-20.5-11.6
			c-5.6-4.9-10-10.6-13-17.2S913.5,468.6,913.5,461.1z M941.1,461.1c0,4.2,0.8,8.2,2.5,11.9c1.7,3.7,4.1,7.1,7.4,9.9
			c3.2,2.9,7.1,5.1,11.8,6.8s9.9,2.5,15.8,2.5s11.2-0.8,15.8-2.5c4.6-1.7,8.6-4,11.8-6.8c3.2-2.9,5.7-6.2,7.4-9.9
			c1.7-3.7,2.5-7.7,2.5-11.9s-0.8-8.2-2.5-12c-1.7-3.8-4.1-7.1-7.4-10c-3.2-2.9-7.1-5.1-11.8-6.8c-4.6-1.7-9.9-2.5-15.8-2.5
			s-11.2,0.8-15.8,2.5s-8.6,4-11.8,6.8c-3.2,2.9-5.7,6.2-7.4,10C941.9,452.9,941.1,456.9,941.1,461.1z"/>
		<path d="M1133.5,374.9h28.1v36.1h86.1v-36.1h28.2v138.4h-28.2v-78.3h-86.1v78.3h-28.1V374.9z"/>
		<path d="M1306.9,480.4c0-5,1.1-9.6,3.3-13.7s5.5-7.7,9.8-10.7c4.4-3,9.8-5.3,16.3-6.9c6.5-1.6,14.1-2.4,22.8-2.4
			c6.4,0,13.2,0.5,20.3,1.4c7.1,0.9,14.5,2.4,22,4.3c-0.3-3.3-1.3-6.4-3-9.2c-1.7-2.8-4.1-5.2-7.1-7.3c-3-2-6.7-3.6-11-4.7
			c-4.3-1.1-9.1-1.7-14.6-1.7c-3,0-6.2,0.2-9.7,0.5c-3.5,0.4-7.2,0.9-11,1.6c-3.8,0.7-7.5,1.6-11.2,2.7c-3.7,1.1-7.1,2.3-10.3,3.8
			l-8-21.5c4-1.4,8.2-2.7,12.7-3.9s9.1-2.2,13.9-3.1s9.4-1.5,14.2-2c4.7-0.5,9.3-0.7,13.7-0.7c19.5,0,34.1,5,43.6,15
			s14.3,25.3,14.3,45.9v45.5h-26.2v-9.8c-2.7,1.6-5.7,3.1-8.9,4.5s-6.7,2.7-10.5,3.7c-3.8,1.1-7.8,1.9-12.2,2.5s-8.9,0.9-13.8,0.9
			c-8.1,0-15.3-0.9-21.5-2.7c-6.2-1.8-11.3-4.2-15.5-7.4c-4.1-3.1-7.2-6.8-9.3-11C1308,490,1306.9,485.4,1306.9,480.4z
			 M1334.5,479.5c0,1.7,0.4,3.4,1.3,4.9c0.9,1.6,2.3,3,4.3,4.2c1.9,1.2,4.4,2.2,7.5,2.9c3,0.7,6.7,1.1,11,1.1
			c4.6,0,9.1-0.4,13.4-1.2s8.3-1.9,12-3.3s7.1-2.9,10.1-4.7c3-1.8,5.5-3.6,7.5-5.5v-4.6c-4-1.1-8-2.1-11.9-2.8s-7.7-1.4-11.2-1.8
			c-3.6-0.4-6.9-0.8-10.1-0.9c-3.2-0.2-5.9-0.3-8.3-0.3c-4.9,0-9,0.3-12.2,1s-5.9,1.5-7.9,2.6s-3.4,2.4-4.3,3.9
			C1335,476.4,1334.5,477.9,1334.5,479.5z"/>
		<path d="M1476.3,394.6c-2.6,0-4.9-0.4-7-1.1c-2.1-0.7-3.9-1.7-5.4-3s-2.6-2.7-3.4-4.4s-1.2-3.5-1.2-5.4c0-1.9,0.4-3.8,1.2-5.4
			s1.9-3.1,3.4-4.4s3.3-2.2,5.4-3c2.1-0.7,4.4-1.1,7-1.1c2.7,0,5,0.4,7.1,1.1c2.1,0.7,3.9,1.7,5.4,3s2.6,2.7,3.4,4.4
			c0.8,1.7,1.2,3.5,1.2,5.4c0,1.9-0.4,3.7-1.2,5.4c-0.8,1.7-1.9,3.2-3.4,4.4s-3.3,2.3-5.4,3C1481.4,394.2,1479,394.6,1476.3,394.6z
			 M1463.2,408.8h26.2v104.5h-26.2V408.8z"/>
		<path d="M1523,408.8h26.2v15.1c5.8-4.3,11.9-8,18.3-11.2c6.4-3.1,12.8-5.5,19.2-7.2l7.7,24c-10.1,1-19,3.3-26.6,6.8
			c-7.6,3.5-13.9,8.5-18.6,14.8v62.2H1523V408.8z"/>
		<path d="M1605.9,461.5c0-8.3,1.6-15.8,4.7-22.5s7.5-12.4,13-17.2c5.5-4.8,12.1-8.4,19.7-11s15.8-3.9,24.7-3.9
			c3.8,0,7.5,0.2,11.2,0.7c3.7,0.5,7.2,1.1,10.6,1.9c3.4,0.8,6.6,1.8,9.6,3c3,1.2,5.6,2.4,7.9,3.8v-50h26.2v146.9h-26.2v-9.8
			c-2.3,1.6-5,3.1-8.1,4.5s-6.5,2.7-10.1,3.7c-3.6,1.1-7.3,1.9-11.2,2.5c-3.9,0.6-7.7,0.9-11.5,0.9c-8.9,0-17-1.3-24.4-3.9
			s-13.8-6.3-19.1-11c-5.3-4.7-9.5-10.4-12.4-17S1605.9,469.5,1605.9,461.5z M1633.5,461.5c0,4.2,0.8,8.1,2.5,11.9
			c1.7,3.7,4.1,7,7.3,9.8c3.2,2.8,7,5,11.4,6.6c4.5,1.6,9.5,2.4,15,2.4c3.5,0,7.1-0.3,10.6-1c3.5-0.7,7-1.6,10.2-2.9
			c3.3-1.2,6.3-2.7,9.2-4.5c2.9-1.8,5.4-3.7,7.5-5.9v-36.2c-2.7-2.1-5.5-3.9-8.4-5.4c-3-1.5-6-2.7-9-3.6c-3.1-0.9-6.2-1.6-9.3-2.1
			c-3.1-0.4-6.2-0.7-9.1-0.7c-6,0-11.4,0.8-16.1,2.4c-4.7,1.6-8.7,3.9-11.9,6.7c-3.2,2.8-5.7,6.2-7.4,10
			C1634.3,452.9,1633.5,457,1633.5,461.5z"/>
		<path d="M1760.6,460.7c0-7.1,1.4-13.9,4.3-20.3s7.1-12.2,12.5-17.1c5.4-5,12.1-8.9,20-11.9c7.9-3,16.8-4.4,26.9-4.4
			c10,0,19,1.5,27,4.5c8,3,14.8,7.1,20.4,12.3c5.6,5.2,9.9,11.3,12.8,18.3c3,7,4.5,14.6,4.5,22.6c0,1,0,2.1,0,3.2s-0.1,2.2-0.2,3.1
			h-98.8c1.1,3.1,2.9,6,5.4,8.6c2.5,2.6,5.7,4.8,9.4,6.7c3.8,1.9,8.1,3.4,13.1,4.4s10.5,1.6,16.5,1.6c6,0,12-0.6,18-1.9
			c6-1.3,11.7-2.9,17.1-4.8l8.9,20c-3.4,1.6-6.9,3-10.4,4.2c-3.5,1.2-7.2,2.2-11,3c-3.8,0.8-7.8,1.4-12,1.8s-8.5,0.6-13.2,0.6
			c-11.8,0-22.1-1.4-30.9-4.3c-8.9-2.8-16.3-6.7-22.2-11.6c-6-4.9-10.5-10.7-13.5-17.3C1762.1,475.5,1760.6,468.4,1760.6,460.7z
			 M1861.1,450.6c-0.9-2.9-2.4-5.6-4.4-8.1c-2-2.5-4.4-4.7-7.4-6.6c-3-1.9-6.4-3.3-10.3-4.4c-3.9-1.1-8.2-1.6-12.8-1.6
			c-5,0-9.5,0.6-13.6,1.7c-4.1,1.1-7.6,2.6-10.7,4.5c-3.1,1.9-5.6,4.1-7.7,6.6c-2,2.5-3.5,5.1-4.5,7.9H1861.1z"/>
		<path d="M1921.2,481.3c7.1,4.3,14.9,7.4,23.4,9.4s17.2,3,26.1,3c6,0,11-0.4,15.1-1.2c4-0.8,7.2-1.9,9.7-3.2s4.1-2.8,5.1-4.4
			c1-1.7,1.5-3.3,1.5-5c0-2.5-1.1-4.6-3.2-6.4c-2.2-1.8-5.7-2.7-10.7-2.7c-2.3,0-4.8,0.1-7.4,0.4c-2.7,0.3-5.4,0.6-8.4,0.9
			c-2.9,0.3-6,0.6-9.1,0.9c-3.2,0.3-6.4,0.4-9.6,0.4c-7.1,0-13.1-0.8-18.1-2.3s-9-3.6-12.2-6.3c-3.1-2.7-5.4-5.8-6.8-9.4
			c-1.4-3.6-2.1-7.5-2.1-11.7c0-5.3,1.2-10.2,3.7-14.7c2.5-4.5,6-8.4,10.6-11.6c4.6-3.3,10.2-5.8,16.7-7.7
			c6.5-1.8,13.8-2.7,21.8-2.7c4.2,0,8.6,0.3,13.2,0.8s9.1,1.2,13.5,2c4.4,0.8,8.7,1.8,12.8,2.9s7.7,2.3,10.8,3.5l-8.2,20.4
			c-6.7-2.5-13.3-4.4-20-5.9c-6.6-1.4-13.5-2.2-20.5-2.2c-4.9,0-9,0.4-12.4,1.1c-3.4,0.7-6.2,1.7-8.3,2.9s-3.7,2.6-4.7,4.2
			c-1,1.6-1.5,3.2-1.5,4.9c0,1.2,0.3,2.4,0.8,3.4c0.5,1,1.3,1.9,2.5,2.6c1.2,0.7,2.7,1.3,4.5,1.7c1.9,0.4,4.1,0.6,6.9,0.6
			c2.5,0,5.1-0.1,7.9-0.4c2.8-0.3,5.7-0.6,8.7-0.9s6.1-0.6,9.3-0.9c3.2-0.3,6.5-0.4,9.9-0.4c6.3,0,11.7,0.7,16.4,2.2
			c4.7,1.5,8.6,3.5,11.6,6.2s5.4,5.8,6.9,9.4s2.3,7.5,2.3,11.8c0,5.5-1.3,10.6-3.8,15.3c-2.5,4.7-6.3,8.8-11.3,12.3
			s-11.3,6.2-18.7,8.1s-16.1,2.9-25.9,2.9c-6,0-11.8-0.4-17.4-1.1c-5.6-0.7-11-1.7-16-3c-5.1-1.3-9.8-2.8-14.3-4.5
			c-4.5-1.7-8.5-3.5-12.2-5.5L1921.2,481.3z"/>
		<path d="M2067,394.6c-2.6,0-4.9-0.4-7-1.1c-2.1-0.7-3.9-1.7-5.4-3c-1.5-1.3-2.6-2.7-3.4-4.4s-1.2-3.5-1.2-5.4
			c0-1.9,0.4-3.8,1.2-5.4s1.9-3.1,3.4-4.4c1.5-1.2,3.3-2.2,5.4-3c2.1-0.7,4.4-1.1,7-1.1c2.7,0,5,0.4,7.1,1.1c2.1,0.7,3.9,1.7,5.4,3
			c1.5,1.2,2.6,2.7,3.4,4.4s1.2,3.5,1.2,5.4c0,1.9-0.4,3.7-1.2,5.4s-1.9,3.2-3.4,4.4c-1.5,1.3-3.3,2.3-5.4,3
			C2072.1,394.2,2069.7,394.6,2067,394.6z M2053.9,408.8h26.2v104.5h-26.2V408.8z"/>
		<path d="M2130.1,531.1c3.3,1.2,6.7,2.2,10.1,3c3.4,0.8,6.7,1.4,10,1.9c3.2,0.5,6.3,0.9,9.3,1.1s5.6,0.3,7.9,0.3
			c7,0,13-0.8,18.2-2.5c5.2-1.7,9.5-3.9,12.9-6.8s6-6.1,7.8-9.9s2.6-7.7,2.6-11.9v-4.5c-2.2,1.5-4.9,3-7.9,4.4s-6.3,2.7-9.9,3.7
			c-3.6,1.1-7.4,1.9-11.5,2.6c-4,0.6-8.2,1-12.5,1c-8.6,0-16.5-1.3-23.7-3.9c-7.3-2.6-13.6-6.2-18.9-10.8
			c-5.3-4.6-9.5-10.2-12.4-16.7c-3-6.5-4.5-13.7-4.5-21.6c0-8.1,1.6-15.4,4.7-22c3.1-6.6,7.5-12.2,13-16.9
			c5.5-4.7,12.1-8.3,19.6-10.8c7.6-2.5,15.8-3.8,24.6-3.8c3.8,0,7.5,0.2,11.2,0.7c3.7,0.5,7.3,1.1,10.7,1.9c3.4,0.8,6.6,1.8,9.6,3
			c3,1.2,5.6,2.4,7.9,3.8v-7.5h26.2v92.6c0,9.5-1.4,17.9-4.3,25.2c-2.9,7.3-7.1,13.5-12.7,18.5c-5.6,5-12.5,8.8-20.8,11.3
			c-8.3,2.6-17.7,3.9-28.4,3.9c-3.8,0-7.8-0.2-12-0.5c-4.1-0.3-8.3-0.8-12.4-1.4c-4.2-0.6-8.3-1.4-12.3-2.2c-4-0.9-7.9-1.8-11.6-3
			L2130.1,531.1z M2135,460.2c0,4.2,0.8,8.1,2.5,11.8c1.7,3.7,4.1,6.9,7.2,9.7s6.9,4.9,11.3,6.5c4.4,1.6,9.4,2.3,15,2.3
			c3.6,0,7.2-0.3,10.8-1c3.6-0.7,7-1.6,10.3-2.9c3.3-1.2,6.3-2.7,9.2-4.5c2.9-1.8,5.4-3.7,7.5-5.9v-34.5c-2.7-2.1-5.5-3.9-8.4-5.4
			c-3-1.5-6-2.7-9-3.6s-6.2-1.6-9.3-2.1s-6.2-0.7-9.1-0.7c-6,0-11.4,0.8-16.1,2.4c-4.7,1.6-8.7,3.8-11.9,6.5
			c-3.2,2.7-5.7,5.9-7.4,9.6C2135.8,452.1,2135,456,2135,460.2z"/>
		<path d="M2264.8,408.8h26.2v8.9c7-4,13.6-6.7,20-8.3c6.3-1.6,12.6-2.4,18.6-2.4c8,0,15.4,1.2,22.1,3.5c6.8,2.3,12.7,5.8,17.6,10.4
			c5,4.6,8.8,10.3,11.6,17.2c2.8,6.9,4.2,14.8,4.2,23.9v51.4h-26.1v-47.1c0-5.7-0.8-10.9-2.4-15.4s-4-8.3-7-11.4s-6.7-5.5-11.1-7.1
			s-9.2-2.4-14.6-2.4c-2.8,0-5.7,0.3-8.7,0.9s-5.9,1.4-8.8,2.5c-2.9,1.1-5.6,2.5-8.3,4.1s-5.1,3.5-7.3,5.5v70.4h-26.2V408.8z"/>
	</g>
</g>
</svg>
