<?xml version="1.0" encoding="utf-8"?>
<!-- Generator: Adobe Illustrator 25.2.0, SVG Export Plug-In . SVG Version: 6.00 Build 0)  -->
<svg version="1.1" xmlns="http://www.w3.org/2000/svg" xmlns:xlink="http://www.w3.org/1999/xlink" x="0px" y="0px"
	 viewBox="0 0 612 792" style="enable-background:new 0 0 612 792;" xml:space="preserve">
<style type="text/css">
	.st0{fill:#FFFFFF;stroke:#FFFFFF;stroke-miterlimit:10;}
	.st1{fill:none;stroke:#FFFFFF;stroke-width:4;stroke-miterlimit:10;}
	.st2{fill:none;stroke:#FFFFFF;stroke-width:5;stroke-miterlimit:10;}
	.st3{fill:none;stroke:#FFFFFF;stroke-width:5;stroke-linecap:round;stroke-miterlimit:10;}
</style>
<g id="Layer_2">
</g>
<g id="Layer_1">
	<g id="Layer_2_1_">
	</g>
	<g>
		<path class="st0" d="M194.4,342.1c1.9,1.5,3.8,2.9,5.6,4.4c1.1,0.9,2.2,1.8,3.3,2.6c0.9,0.7,2,1,3.1,0.6c1.5-0.5,3.1-1.1,4.6-1.7
			c1.2-0.5,1.8-1.5,2-2.7c0.5-2.8,0.9-5.7,1.3-8.5c0.1-0.8,0.4-1.7,0.7-2.4c0.9-2.1,2.8-2.6,4.7-2.7c2,0,4,0.1,5.9,0.4
			c2.1,0.3,3.4,1.6,3.8,3.6c0.4,1.8,0.6,3.7,0.8,5.6c0.2,1.7,0.4,3.5,0.6,5.2c0.2,1.1,0.8,2,1.8,2.5c1.3,0.7,2.7,1.3,4.1,1.9
			c1.3,0.6,2.5,0.4,3.7-0.4c1.8-1.3,3.5-2.7,5.4-3.9c1-0.7,2.1-1.4,3.2-2c2-1,3.9-0.7,5.5,0.7c1.3,1.2,2.6,2.6,3.7,4
			c1.9,2.6,1.9,4.5-0.1,7.2c-1.6,2.2-3.3,4.2-5,6.3c-1.5,1.7-1.9,3.6-1,5.7c0.3,0.7,0.6,1.3,0.7,2c0.6,2.2,2.1,3.2,4.3,3.5
			c2.5,0.3,5,0.7,7.5,1.1c3.7,0.7,5.1,2.5,5.1,6.2c0,1.6-0.1,3.2-0.4,4.8c-0.3,2.1-1.5,3.6-3.6,4c-2.2,0.5-4.4,0.7-6.6,1
			c-1.5,0.2-2.9,0.3-4.4,0.5c-1.2,0.2-2.1,0.9-2.6,2c-0.5,1.2-1,2.3-1.6,3.5c-0.9,1.7-0.6,3.2,0.5,4.6c1.5,2,3,4,4.5,6.1
			c0.3,0.4,0.5,0.8,0.7,1.2c1.5,2.9,1.3,4.5-0.9,6.9c-0.9,1-1.8,1.9-2.8,2.7c-2.6,2.3-4.8,2.5-7.6,0.5c-2.1-1.5-4-3.1-6-4.7
			c-0.2-0.2-0.4-0.3-0.6-0.5c-1.6-1.5-3.4-1.9-5.5-0.9c-0.8,0.4-1.6,0.7-2.4,0.9c-1.9,0.6-2.8,1.9-3,3.8c-0.3,2.5-0.7,5-1.2,7.5
			c-0.1,0.8-0.4,1.6-0.7,2.3c-0.6,1.6-1.8,2.7-3.6,2.8c-2.1,0.1-4.3,0.2-6.4,0c-2.4-0.2-4.1-1.7-4.5-4.1c-0.5-2.6-0.8-5.2-1-7.7
			c-0.5-4.5-0.5-4.5-4.6-6.6c-2.5-1.3-4.6-1.2-6.8,0.7c-2,1.7-4.1,3.2-6.4,4.6c-2.6,1.6-4.7,1.3-6.9-0.9c-1.3-1.3-2.6-2.7-3.7-4.2
			c-1.2-1.5-1.3-3.3-0.3-5c1.5-2.3,3.3-4.5,4.9-6.7c0.6-0.8,1.2-1.5,1.7-2.2c0.8-1.1,1-2.3,0.5-3.5c-0.3-1-0.7-2-1-3.1
			c-0.6-2.2-2.1-3.2-4.3-3.4c-2.5-0.3-5-0.7-7.5-1.2c-0.7-0.1-1.4-0.4-2.1-0.6c-2-0.8-3-2.3-3.1-4.4c0-2.1,0.1-4.2,0.3-6.3
			c0.2-1.9,1.4-3.2,3.2-3.6c1.5-0.4,3.1-0.6,4.6-0.8c2.1-0.3,4.3-0.4,6.4-0.7c1.3-0.2,2.2-0.9,2.8-2c0.7-1.4,1.4-2.8,2-4.3
			c0.5-1.1,0.4-2.1-0.3-3.1c-1.2-1.7-2.5-3.3-3.6-5c-0.9-1.3-1.7-2.5-2.4-3.9c-0.9-1.7-0.9-3.5,0.4-5c1.4-1.6,2.9-3.2,4.5-4.6
			C190.5,341.5,192.3,341.3,194.4,342.1z M254,376.6c-1.4-0.7-2.5-1.6-3.1-3c-0.7-1.5-1.3-3.1-1.9-4.6c-1.1-2.9-0.6-5.6,1.4-8
			c1.8-2.2,3.7-4.5,5.4-6.8c0.9-1.1,0.8-2-0.1-3.1c-0.7-0.9-1.5-1.7-2.3-2.5c-1.6-1.6-2.1-1.7-4.1-0.4c-0.1,0.1-0.3,0.2-0.4,0.3
			c-2,1.5-4.1,3-6.1,4.5c-2,1.4-4.1,2.2-6.5,1.3c-1.7-0.7-3.4-1.5-5.1-2.3c-2.4-1.2-3.4-3.2-3.7-5.7c-0.3-2.2-0.5-4.4-0.7-6.6
			c-0.1-1-0.3-1.9-0.5-2.9c-0.2-1-0.8-1.6-1.8-1.6c-1-0.1-2-0.2-3-0.2c-3.2-0.1-3.7,0.4-4.2,3.6c-0.4,2.6-0.8,5.3-1.3,7.9
			c-0.4,1.9-1.4,3.4-3.2,4.3c-1.8,0.8-3.6,1.5-5.4,2.2c-2.5,0.9-4.7,0.2-6.7-1.4c-1.6-1.2-3.1-2.6-4.7-3.8c-1.1-0.8-2.2-1.6-3.3-2.3
			c-0.6-0.4-1.3-0.3-1.8,0.1c-0.8,0.7-1.7,1.4-2.4,2.1c-2.2,2.2-2.3,3-0.4,5.5c1.5,2,3,4,4.4,6c1.5,2.2,1.9,4.5,0.7,6.9
			c-0.8,1.6-1.5,3.3-2.4,4.8c-0.9,1.5-2.2,2.6-4,2.9c-1.3,0.3-2.6,0.4-4,0.6c-2.1,0.3-4.3,0.4-6.4,0.7c-1.6,0.2-2.1,0.8-2.2,2.4
			c-0.1,1.1-0.1,2.3-0.1,3.4c0,2,0.4,2.5,2.3,2.9c0.1,0,0.3,0,0.4,0.1c2.5,0.4,5,0.8,7.4,1.1c2.9,0.4,5.1,1.7,6.1,4.5
			c0.7,1.7,1.3,3.5,1.8,5.3c0.5,1.7,0.1,3.4-0.9,4.9c-1,1.4-2.1,2.8-3.1,4.1c-1.1,1.4-2.3,2.8-3.3,4.2c-0.8,1.2-0.7,1.9,0.2,3
			c0.7,0.9,1.5,1.7,2.3,2.5c1.6,1.6,2.1,1.6,4,0.4c0.2-0.1,0.3-0.2,0.5-0.3c2-1.5,4-2.9,5.9-4.4c2.3-1.8,4.8-2.3,7.5-1
			c1.4,0.6,2.8,1.3,4.1,2c2.4,1.2,3.5,3.1,3.8,5.7c0.2,2.2,0.4,4.4,0.7,6.5c0.1,1.1,0.3,2.1,0.6,3.2c0.2,0.9,0.8,1.4,1.6,1.5
			c0.8,0.1,1.7,0.2,2.5,0.2c3.7,0.1,4.3-0.4,4.8-4c0.3-2.3,0.6-4.5,1-6.8c0.4-2.5,1.7-4.5,4.1-5.4c1.8-0.7,3.6-1.4,5.4-1.9
			c1.5-0.5,3-0.2,4.3,0.6c1,0.6,2,1.3,3,2.1c2.1,1.6,4.2,3.2,6.3,4.8c0.7,0.6,1.5,0.5,2.3-0.1c0.8-0.6,1.6-1.3,2.3-2
			c2.3-2.2,2.4-3,0.4-5.5c-1.5-2-3-4-4.4-6c-1.2-1.7-1.9-3.6-1.1-5.5c0.8-2.2,1.9-4.4,3-6.5c0.7-1.4,2.1-2.2,3.6-2.5
			c1.3-0.3,2.6-0.5,4-0.7c2.2-0.3,4.4-0.5,6.6-0.8c1.1-0.2,2-0.8,2.1-2c0.1-1.7,0.1-3.4,0.1-5.1c0-0.8-0.4-1.2-1.1-1.4
			c-1.4-0.3-2.7-0.6-4.1-0.8C258.9,377.4,256.5,377,254,376.6z"/>
		<path class="st1" d="M230,384.9c-2.1,5.2-8.2,7.8-13.4,5.7c-5.2-2.1-7.8-8.2-5.7-13.4c2.1-5.2,8.2-7.8,13.4-5.7
			C229.5,373.6,232.1,379.7,230,384.9z"/>
	</g>
	<circle class="st2" cx="220.3" cy="381" r="65.1"/>
	<path class="st3" d="M77.8,315.3V437c0,5.4,4.4,9.8,9.8,9.8h59.3l232.4-0.8"/>
	<path class="st3" d="M344.2,390.5l38.4-0.4c4.8,0,8.8,3.9,8.8,8.7V437c0,4.9-3.9,8.9-8.8,9c-35.6,0.8-83.3,3.1-83.3-65.2
		c0-35.9,29.1-65.1,65.1-65.1l114.8,0.2"/>
	<circle class="st2" cx="485.3" cy="381" r="65.1"/>
</g>
</svg>
