<?xml version="1.0" encoding="utf-8"?>
<!-- Generator: Adobe Illustrator 25.2.0, SVG Export Plug-In . SVG Version: 6.00 Build 0)  -->
<svg version="1.1" id="Layer_1" xmlns="http://www.w3.org/2000/svg" xmlns:xlink="http://www.w3.org/1999/xlink" x="0px" y="0px"
	 viewBox="0 0 612 792" style="enable-background:new 0 0 612 792;" xml:space="preserve">
<style type="text/css">
	.st0{fill:#FFFFFF;}
	.st1{fill:url(#SVGID_1_);}
</style>
<g id="Layer_2_1_">
</g>
<g>
	<path class="st0" d="M212.7,338.3c-0.1,0.9-1.2,0.9-2.3,0c-0.6-0.5-1.1-1.2-1.5-1.8l-36.2,64.7c7-0.4,10.6-0.6,10.7-0.6
		c0.7-0.1,2.1,0.9,2.8,2c0.7,1.2,0.6,2.2-0.2,2.3c0,0-5.6,0.4-15.9,0.9l-29.5,52.6c-2.3,4.8-5,9.5-7.9,14.3
		c-0.4,0.6-1.5,0.2-2.6-0.6c-1-1.1-1.6-2.3-1.2-2.9c2.7-4.8,5.2-9.5,7.9-14.3c8.8-17.4,13.2-33.9,13.3-48.2
		c-11.6,0.5-25.6,1-41.7,1.2l-15.5,24.6c-0.4,0.5-1.6,0.2-2.6-0.7c-1.1-1.1-1.6-2.3-1.2-2.9l13.2-20.9c-9.8,0.2-20.1,0.4-31.2,0.4
		c-19.3,0.1-31.4-4.4-37-10.7c-3.2-3.5-4.4-7.4-3.9-11.3c0.5-3.4,2.2-7.1,5.2-10.4c8.9-10,28.7-18.9,55.9-19.9
		c15.9-0.5,28.8,2.4,38.7,8.1l16.6-26.1c0.4-0.6,1.5-0.2,2.6,0.7c1,1,1.6,2.3,1.2,2.9l-16.1,25.3c6,4.3,10.5,9.6,13.9,16
		c3,5.7,4.9,12.3,5.6,19.4c4.9-0.2,9.1-0.5,12.9-0.6l43.9-78.4c0.2-0.6,1.2-0.6,2.2,0.2c1.1,0.7,2,2.1,1.8,2.9L212.7,338.3z
		 M105,403.6l23.4-37.1c-8.8-4.5-20.3-6.8-34.5-6.3c-26.7,1-46.1,9.6-54.8,19.4c-2.8,3.2-4.5,6.5-4.9,9.5c-0.4,2.6,0.2,5,1.8,6.8
		c4.3,4.9,14.6,8.2,32.6,8.2C81.7,404,93.9,403.8,105,403.6z M132.8,369.1l-21.7,34.4c15.1-0.4,28.2-0.9,38.9-1.2
		c-0.5-7.4-2.2-14.2-5.2-19.9C141.9,377.1,138,372.6,132.8,369.1z M151.8,428l12.3-22c-3,0.1-6.5,0.2-10.1,0.4
		C154.3,413.1,153.5,420.4,151.8,428z"/>
	<path class="st0" d="M214.5,410.4c0.5,1.2,0.1,2-0.9,1.7c-1-0.2-2.2-1.3-2.7-2.4c-2.4-2.3-8.4,0.5-10.6,2.3
		c-4.5,3.7-7.1,8.1-8.4,13.7c4.3-1.2,15.4-14.2,15.4-14.2c0.5-0.5,1.6-0.1,2.7,1c0.9,1,1.3,2.1,1,2.7c-0.2,0.6-1.7,3.8-1,7.2
		c0.5,2.9,16.3-10.4,16.6-10.5c0.5-0.5,1.5-1.1,2.4-0.1c1,1.1,0.9,2.1,0.4,2.6c-8.1,7.2-12.8,11.5-16.1,13.2
		c-5.6,2.9-9.9,1.2-9.8-4.8c-4.4,4.1-8.9,7.9-11.6,6.7c-1-0.4-1.7-1.1-2.4-1.8c-1.2-1.6-1.7-3.3-1.5-5.1c0.1-1.5,0.6-3,1.3-4.6
		c1.6-3.4,4.4-7.2,7.6-9.8C202.5,403.6,212.5,403.3,214.5,410.4z"/>
	<path class="st0" d="M229.8,405.7c0.4-0.6,1.6-0.4,2.6,0.6c1.1,1,1.6,2.3,1.2,2.9l-3,5.5c6.6-5.5,13.8-10.9,16.5-10.1h0.2
		c3.7,1.1,4.3,3.4,3.4,6.5c-0.4,1.3-1.2,2.9-2.1,4.8c-1.6,3.2-3.4,6.7-3.4,6.7c3.9,2.6,17.1-9,17.2-9c0.4-0.5,1.7-2.1,2.7-1
		c1.1,1,0.4,1.2-0.1,1.8c0,0-13.3,15.7-19.6,11.6c-5.5-3.5-2.8-8.9-0.5-13.7c0.5-1,1-2,1.3-2.9c-7,3.7-23.2,19.2-23.7,19.6
		c-0.4,0.5-1.5,0.1-2.4-0.7c-1-1.1-1.6-2.3-1.2-2.9L229.8,405.7z"/>
	<path class="st0" d="M280.7,417.6c-0.1,0.6-0.9,0.7-1.7,0.2l-0.1,0.2c-4.4,3.8-8.3,6.8-11.3,8.8c-4.1,2.6-11.1,3.2-10.7-3.8
		c0.1-1.8,1-4.1,2.3-6.5c2.4-4,7.7-10.7,12.8-10.5c4.8-0.1,6.2,2.3,7.4,4.1c4.5-4.3,9.2-9.3,13.5-14.5c10-12,16.8-21.8,20.1-27
		l2.6-3.9c0.4-0.6,1.5-0.4,2.6,0.7c1,1,1.6,2.2,1.2,2.9c0,0-1,1.6-2.9,4.5c-12,18.8-57.2,90.2-55.5,94.2c0.5,1.2,0,1.8-1,1.6
		c-1-0.2-2.2-1.3-2.6-2.6c-1.5-3.4,14.8-31.2,30.4-57c-2.3,2.4-4.6,4.8-7,6.8C280.8,417,280.7,417.5,280.7,417.6z M276.6,412.9
		c-0.2-0.9-0.9-1.8-2.4-1.8c-4.4-0.2-9.3,5.7-11.3,9.1c-1,1.7-1.7,3.3-2,4.5c0.7-0.4,1.8-1,3.2-1.8c3-1.8,7-4.9,11.2-8.7
		L276.6,412.9z"/>
	<path class="st0" d="M334.8,357.8c0.4-0.5,1.6-0.2,2.6,0.9c1,1,1.5,2.3,1.1,2.8c0,0.1-8.9,12.4-18.4,26.7h31.1c0.9,0,2.2,1,2.8,2.1
		c0.7,1.2,0.6,2.2-0.2,2.2h-36.5c-2.6,3.9-5.1,7.9-7.6,11.8v0.1c0,0.5-0.2,0.7-0.5,0.7c-7.4,12.1-11.5,19-10.1,21.5
		c2.2,4.1,27-15.6,27-15.7c0.5-0.4,1.2-0.6,2.2,0.5c1,1.1,0.2,1.7-0.2,2.1c-0.1,0.1-27.8,27.4-33.8,16.5
		c-1.8-3.4,3.8-15.1,11.6-28.1c-0.1,0,0.7-1.3,0.7-1.3c0.2-9.3-31-8.1-31-8.1c-0.9,0-2.2-1-2.8-2.2c-0.7-1.1-0.6-2.1,0.2-2.1h41.2
		C324.5,372.2,334.7,358,334.8,357.8z M307.9,398.3c1.2-2,2.4-3.9,3.7-5.9l-15.2-0.6C299.9,393.3,305.9,395.8,307.9,398.3z"/>
	<path class="st0" d="M339,413.7c-5.7,2.9-12.2,3.7-12.6,3.7c-8.3,17.8,24.6,2.7,28.4-4.1c0.4-0.7,1.6-1.6,2.7-0.6
		c1,1,1,1.5,0.6,2.2c-3.4,6-22.4,19.2-30.9,14.4c-4.1-2.3-6.7-7.2-5.7-12c0.6-3,2.4-6.2,4.9-9c2.4-2.7,5.2-5.2,7.9-7.2
		c3.5-2.4,6.8-3.9,8.2-3.7c1.1,0.2,2.1,0.9,2.9,1.8c1.2,1.3,1.7,2.9,1.5,4.4c-0.1,1.1-0.6,2.2-1.2,3.4
		C344.3,409.6,341.9,412.2,339,413.7z M330.3,411.8c1.7-0.5,3.5-1.2,5.5-2.1c2.6-1.3,4.8-3.9,6.1-6.2c0.2-0.5,0.4-0.9,0.6-1.3
		c-1.3,0.6-2.9,1.6-4.8,2.9C335.3,406.9,332.5,409.2,330.3,411.8z"/>
	<path class="st0" d="M383.3,365.2c0.5-0.6,1.6-0.2,2.7,0.7c1,1,1.5,2.3,1.1,2.9l-23.3,36.4c5.4-4.6,11.3-8.8,17.6-11.1
		c0.7-0.2,2,0.5,2.8,1.6c0.9,1.1,1,2.3,0.4,2.6c-7.1,2.7-13.8,7.7-19.8,13.1c-0.4,1.7-3,13.2,1.2,15c6.7,2.9,26.1-13.7,26.2-13.7
		c0.5-0.5,2-2.1,2.9-1c1,1.1,1,1.7,0.5,2.2c-0.1,0.1-20.3,20-28.7,16.3c-5.7-2.6-7.1-8.8-7.1-14.2c-9.1,9.5-15.2,18.9-15.2,19
		c-0.4,0.5-1.6,0.2-2.6-0.9c-1.1-1-1.6-2.2-1.2-2.8l0.2-0.4L383.3,365.2z"/>
	<path class="st0" d="M406.2,413.7c-5.7,2.9-12.2,3.7-12.6,3.7c-8.3,17.8,24.6,2.7,28.4-4.1c0.4-0.7,1.6-1.6,2.7-0.6
		c1,1,1,1.5,0.6,2.2c-3.4,6-22.4,19.2-30.9,14.4c-4.1-2.3-6.7-7.2-5.7-12c0.6-3,2.4-6.2,4.9-9c2.4-2.7,5.2-5.2,7.9-7.2
		c3.5-2.4,6.8-3.9,8.2-3.7c1.1,0.2,2.1,0.9,2.9,1.8c1.2,1.3,1.7,2.9,1.5,4.4c-0.1,1.1-0.6,2.2-1.2,3.4
		C411.6,409.6,409.1,412.2,406.2,413.7z M397.5,411.8c1.7-0.5,3.5-1.2,5.5-2.1c2.6-1.3,4.8-3.9,6.1-6.2c0.2-0.5,0.4-0.9,0.6-1.3
		c-1.3,0.6-2.9,1.6-4.8,2.9C402.5,406.9,399.7,409.2,397.5,411.8z"/>
	<path class="st0" d="M426,405.7c0.4-0.6,1.6-0.4,2.6,0.6c1.1,1,1.6,2.3,1.2,2.9l-3,5.5c6.6-5.5,13.8-10.9,16.5-10.1h0.2
		c3.7,1.1,4.3,3.4,3.4,6.5c-0.4,1.3-1.2,2.9-2.1,4.8c-1.6,3.2-3.4,6.7-3.4,6.7c3.9,2.6,17.1-9,17.2-9c0.4-0.5,1.7-2.1,2.7-1
		c1.1,1,0.4,1.2-0.1,1.8c0,0-13.3,15.7-19.6,11.6c-5.5-3.5-2.8-8.9-0.5-13.7c0.5-1,1-2,1.3-2.9c-7,3.7-23.2,19.2-23.7,19.6
		c-0.4,0.5-1.5,0.1-2.4-0.7c-1-1.1-1.6-2.3-1.2-2.9L426,405.7z"/>
	<path class="st0" d="M466.7,403c0.6-0.5,1.8,0,2.8,1.1c1,1.1,1.3,2.3,0.7,2.8c-2.7,2.3-7.1,7.6-9.8,12.7c-1.7,3.4-1.6,5.4-0.4,6
		c5,0.7,18.5-12.4,18.5-12.6c0.5-0.5,1.3-1.5,2.3-0.4c1.1,1.1,0.6,1.5,0.1,2c-0.1,0-20.4,22-25.6,12.8c-1.7-3-0.9-7.2,1.2-11.3
		C459.4,410.8,463.9,405.3,466.7,403z M474.3,399.4c-0.5,0.6-1.7,0.1-2.7-0.9c-1-1.1-1.5-2.3-1-2.9l6.8-7.8c0.5-0.6,1.6-0.1,2.7,0.9
		c1,1.1,1.3,2.3,1,2.9L474.3,399.4z"/>
	<path class="st0" d="M482.6,405.7c0.4-0.6,1.6-0.4,2.6,0.6c1.1,1,1.6,2.3,1.2,2.9l-3,5.5c6.6-5.5,13.8-10.9,16.5-10.1h0.2
		c3.7,1.1,4.3,3.4,3.4,6.5c-0.4,1.3-1.2,2.9-2.1,4.8c-1.6,3.2-3.4,6.7-3.4,6.7c3.9,2.6,17.1-9,17.2-9c0.4-0.5,1.7-2.1,2.7-1
		c1.1,1,0.4,1.2-0.1,1.8c0,0-13.3,15.7-19.6,11.6c-5.5-3.5-2.8-8.9-0.5-13.7c0.5-1,1-2,1.3-2.9c-7,3.7-23.2,19.2-23.7,19.6
		c-0.4,0.5-1.5,0.1-2.4-0.7c-1-1.1-1.6-2.3-1.2-2.9L482.6,405.7z"/>
	<path class="st0" d="M579.4,436.5c1,0.1,2.2,1.1,2.8,2.3c0.6,1.1,0.5,2-0.5,2c-25.9-2.2-44.9-1.7-58.7,0.2
		c-8.2,13.8-17.3,27.1-21.5,27.1c-5.6-0.1-10.5-3.2-12.9-7.4c-1.3-2.4-1.8-5.2-1-7.9c0.9-2.4,2.7-4.9,6-7.2c5-3.5,13.3-6.7,26-8.7
		c2.7-4.5,7-12.3,9.3-16.5c-3.8,3.9-11.6,7.6-14.3,7c-4.4-1-5.2-3-4.5-6.8c1.6-8.4,14.9-19.5,22.7-9.9c2.7-3.2,4.5-5.6,4.5-5.6
		c0.4-0.6,1.5-0.2,2.4,0.6c1.1,1,1.6,2.3,1.3,2.9l-1.3,2.3l-0.1,0.1c0,0.1-6.2,12.1-13.7,25.1C539.3,434.7,556.9,434.6,579.4,436.5z
		 M516.6,442.1c-9.1,2-15.5,4.5-19.5,7.4c-3,2.1-4.8,4.4-5.5,6.5c-0.6,2-0.4,3.5,0.2,4.8c1.1,1.7,3.8,2.9,7.2,3
		C502.3,463.9,509.5,453.8,516.6,442.1z M531.1,412.7c-5.5-7.2-21.6,11.7-15.5,12.1C518.9,425.1,528.1,419.1,531.1,412.7z"/>
</g>
<radialGradient id="SVGID_1_" cx="283.952" cy="519.5622" r="233.5086" gradientTransform="matrix(1.0953 0 0 0.1543 -4.6712 455.5862)" gradientUnits="userSpaceOnUse">
	<stop  offset="0" style="stop-color:#2A2627;stop-opacity:0.2"/>
	<stop  offset="1" style="stop-color:#000000;stop-opacity:0"/>
</radialGradient>
<ellipse class="st1" cx="306.4" cy="535.8" rx="281.5" ry="50.2"/>
</svg>
