<?xml version="1.0" encoding="utf-8"?>
<!-- Generator: Adobe Illustrator 25.2.0, SVG Export Plug-In . SVG Version: 6.00 Build 0)  -->
<svg version="1.1" id="Layer_1" xmlns="http://www.w3.org/2000/svg" xmlns:xlink="http://www.w3.org/1999/xlink" x="0px" y="0px"
	 viewBox="0 0 612 792" style="enable-background:new 0 0 612 792;" xml:space="preserve">
<style type="text/css">
	.st0{fill:#FFFFFF;}
	.st1{opacity:0.75;fill:#FFFFFF;}
</style>
<g id="Layer_2_1_">
</g>
<g id="Layer_3">
	<path class="st0" d="M311.8,117.5c8.4,14,16.3,26.5,23.3,39.4c1.3,2.5-0.3,7.6-2.1,10.6c-29.5,49.6-59.3,99-88.8,148.6
		c-28,47.2-4.5,105.4,48.1,118.6c32.6,8.2,60.7-1.6,81.3-27.7c20.8-26.5,23.8-56.3,7.6-86.3c-12.7-23.5-26.9-46.1-40.8-68.9
		c-3.1-5.1-3.5-9-0.2-14.2c7.3-11.3,14-23,21.8-35.9c7.1,11.7,13.5,22.3,19.8,32.9c13.2,22.2,27.2,43.9,39.2,66.6
		c43.6,82.2-18.8,183.1-111.2,180.4C214,478.9,157.3,378,205.6,294.9c33.1-57.1,67.5-113.4,101.3-170
		C308.1,122.8,309.5,120.9,311.8,117.5z"/>
	<path class="st1" d="M311.6,421.5c-35.7,0-63.7-27.9-63.6-63.5c0-35.4,28.7-64,63.9-63.7c34.7,0.3,63.5,29,63.5,63.5
		C375.4,393.1,347,421.5,311.6,421.5z"/>
	<g>
		<path class="st0" d="M228.4,574.4l-8.9-32h5.1l6.2,24.8h0.3l6.5-24.8h5l6.5,24.8h0.3l6.2-24.8h5.1l-8.9,32H247l-6.7-24H240
			l-6.7,24H228.4z"/>
		<path class="st0" d="M274,574.4h-5.1l11.5-32h5.6l11.5,32h-5.1l-9-26.2H283L274,574.4z M274.8,561.8h16.6v4.1h-16.6V561.8z"/>
		<path class="st0" d="M305.5,546.5v-4.2h24.8v4.2h-10v27.8h-4.8v-27.8H305.5z"/>
		<path class="st0" d="M344.5,574.4v-32h20.1v4.2h-15.2v9.8h14.2v4.1h-14.2v9.8h15.4v4.2L344.5,574.4L344.5,574.4z"/>
		<path class="st0" d="M379.8,574.4v-32h11.4c2.5,0,4.5,0.4,6.2,1.3c1.6,0.8,2.9,2,3.7,3.5c0.8,1.5,1.2,3.2,1.2,5.2
			c0,2-0.4,3.7-1.2,5.2s-2,2.6-3.7,3.5s-3.7,1.2-6.2,1.2h-8.6v-4.2h8.2c1.6,0,2.8-0.2,3.8-0.7s1.7-1.1,2.2-2
			c0.5-0.8,0.7-1.9,0.7-3.1c0-1.2-0.2-2.2-0.7-3.1c-0.5-0.9-1.2-1.6-2.2-2c-1-0.5-2.3-0.7-3.9-0.7h-6.1v27.9L379.8,574.4
			L379.8,574.4z M395.6,559.9l7.9,14.4H398l-7.8-14.4H395.6z"/>
		<path class="st0" d="M170.2,603.6c-0.2-1.5-0.9-2.6-2.1-3.5c-1.2-0.8-2.7-1.2-4.6-1.2c-1.3,0-2.4,0.2-3.4,0.6s-1.7,1-2.2,1.7
			c-0.5,0.7-0.8,1.5-0.8,2.4c0,0.8,0.2,1.4,0.5,2s0.8,1,1.4,1.4s1.2,0.7,1.9,0.9c0.7,0.2,1.3,0.5,1.9,0.6l3.1,0.8
			c1,0.2,2.1,0.6,3.1,1c1.1,0.4,2.1,1,3,1.7c0.9,0.7,1.7,1.6,2.2,2.6c0.6,1,0.9,2.3,0.9,3.7c0,1.8-0.5,3.4-1.4,4.8
			c-0.9,1.4-2.3,2.5-4.1,3.3s-3.9,1.2-6.4,1.2c-2.4,0-4.5-0.4-6.2-1.1s-3.1-1.8-4.1-3.2c-1-1.4-1.5-3.1-1.6-5h4.8
			c0.1,1.2,0.5,2.1,1.1,2.9c0.7,0.8,1.5,1.3,2.6,1.7c1,0.4,2.2,0.5,3.4,0.5c1.4,0,2.6-0.2,3.6-0.7c1.1-0.4,1.9-1,2.5-1.8
			c0.6-0.8,0.9-1.7,0.9-2.7c0-1-0.3-1.7-0.8-2.3c-0.5-0.6-1.3-1.1-2.2-1.5s-1.9-0.7-3.1-1l-3.8-1c-2.6-0.7-4.6-1.7-6.1-3.1
			c-1.5-1.3-2.2-3.2-2.2-5.4c0-1.8,0.5-3.5,1.5-4.8s2.4-2.5,4.1-3.2c1.7-0.8,3.6-1.2,5.8-1.2c2.2,0,4.1,0.4,5.7,1.1s3,1.8,3.9,3.1
			c1,1.3,1.5,2.8,1.5,4.6L170.2,603.6L170.2,603.6z"/>
		<path class="st0" d="M217.6,611.2c0,3.4-0.6,6.3-1.9,8.8s-3,4.3-5.1,5.7c-2.2,1.3-4.6,2-7.4,2c-2.8,0-5.2-0.7-7.4-2
			s-3.9-3.2-5.1-5.7c-1.2-2.5-1.9-5.4-1.9-8.8c0-3.4,0.6-6.3,1.9-8.8s3-4.3,5.1-5.7c2.2-1.3,4.6-2,7.4-2c2.8,0,5.2,0.7,7.4,2
			s3.9,3.2,5.1,5.7S217.6,607.7,217.6,611.2z M212.8,611.2c0-2.6-0.4-4.8-1.3-6.6c-0.8-1.8-2-3.1-3.4-4.1s-3.1-1.4-4.9-1.4
			c-1.8,0-3.5,0.5-4.9,1.4s-2.6,2.3-3.4,4.1c-0.8,1.8-1.3,4-1.3,6.6c0,2.6,0.4,4.8,1.3,6.6c0.8,1.8,2,3.1,3.4,4.1s3.1,1.4,4.9,1.4
			c1.8,0,3.5-0.5,4.9-1.4s2.6-2.3,3.4-4.1C212.4,616,212.8,613.8,212.8,611.2z"/>
		<path class="st0" d="M232.4,627.2v-32h4.8V623h14.5v4.2H232.4z"/>
		<path class="st0" d="M286.6,595.2h4.8v21c0,2.2-0.5,4.2-1.6,6c-1,1.7-2.5,3.1-4.4,4.1s-4.1,1.5-6.7,1.5c-2.5,0-4.8-0.5-6.7-1.5
			s-3.4-2.3-4.4-4.1s-1.6-3.7-1.6-6v-21h4.8v20.7c0,1.5,0.3,2.7,1,3.9s1.5,2,2.7,2.7c1.2,0.6,2.6,1,4.2,1s3-0.3,4.2-1
			s2.1-1.5,2.7-2.7c0.6-1.1,1-2.4,1-3.9V595.2z"/>
		<path class="st0" d="M324.8,603.6c-0.2-1.5-0.9-2.6-2.1-3.5s-2.7-1.2-4.6-1.2c-1.3,0-2.5,0.2-3.4,0.6s-1.7,1-2.2,1.7
			c-0.5,0.7-0.8,1.5-0.8,2.4c0,0.8,0.2,1.4,0.5,2c0.4,0.5,0.8,1,1.4,1.4c0.6,0.4,1.2,0.7,1.9,0.9c0.7,0.2,1.3,0.5,2,0.6l3.1,0.8
			c1,0.2,2.1,0.6,3.1,1s2.1,1,3,1.7c0.9,0.7,1.7,1.6,2.2,2.6s0.9,2.3,0.9,3.7c0,1.8-0.5,3.4-1.4,4.8c-0.9,1.4-2.3,2.5-4,3.3
			s-3.9,1.2-6.4,1.2c-2.4,0-4.5-0.4-6.2-1.1s-3.1-1.8-4.1-3.2c-1-1.4-1.5-3.1-1.6-5h4.8c0.1,1.2,0.5,2.1,1.1,2.9
			c0.7,0.8,1.5,1.3,2.5,1.7c1,0.4,2.2,0.5,3.4,0.5c1.4,0,2.6-0.2,3.6-0.7c1.1-0.4,1.9-1,2.5-1.8c0.6-0.8,0.9-1.7,0.9-2.7
			c0-1-0.3-1.7-0.8-2.3c-0.5-0.6-1.3-1.1-2.2-1.5s-1.9-0.7-3.1-1l-3.8-1c-2.6-0.7-4.6-1.7-6.1-3.1c-1.5-1.3-2.2-3.2-2.2-5.4
			c0-1.8,0.5-3.5,1.5-4.8s2.4-2.5,4.1-3.2c1.7-0.8,3.6-1.2,5.8-1.2c2.2,0,4.1,0.4,5.7,1.1s3,1.8,3.9,3.1s1.5,2.8,1.5,4.6
			L324.8,603.6L324.8,603.6z"/>
		<path class="st0" d="M349.2,595.2v32h-4.8v-32H349.2z"/>
		<path class="st0" d="M392.9,611.2c0,3.4-0.6,6.3-1.9,8.8s-3,4.3-5.1,5.7c-2.2,1.3-4.6,2-7.4,2c-2.8,0-5.2-0.7-7.4-2
			s-3.9-3.2-5.1-5.7c-1.2-2.5-1.9-5.4-1.9-8.8c0-3.4,0.6-6.3,1.9-8.8s3-4.3,5.1-5.7c2.2-1.3,4.6-2,7.4-2c2.8,0,5.2,0.7,7.4,2
			c2.2,1.3,3.9,3.2,5.1,5.7S392.9,607.7,392.9,611.2z M388.1,611.2c0-2.6-0.4-4.8-1.3-6.6c-0.8-1.8-2-3.1-3.4-4.1s-3.1-1.4-4.9-1.4
			c-1.8,0-3.5,0.5-4.9,1.4s-2.6,2.3-3.4,4.1c-0.8,1.8-1.3,4-1.3,6.6c0,2.6,0.4,4.8,1.3,6.6c0.8,1.8,2,3.1,3.4,4.1
			c1.5,0.9,3.1,1.4,4.9,1.4c1.8,0,3.5-0.5,4.9-1.4s2.6-2.3,3.4-4.1C387.7,616,388.1,613.8,388.1,611.2z"/>
		<path class="st0" d="M433.5,595.2v32h-4.4l-16.3-23.5h-0.3v23.5h-4.8v-32h4.5l16.3,23.5h0.3v-23.5H433.5z"/>
		<path class="st0" d="M466.8,603.6c-0.2-1.5-0.9-2.6-2.1-3.5s-2.7-1.2-4.6-1.2c-1.3,0-2.5,0.2-3.4,0.6s-1.7,1-2.2,1.7
			c-0.5,0.7-0.8,1.5-0.8,2.4c0,0.8,0.2,1.4,0.5,2c0.4,0.5,0.8,1,1.4,1.4c0.6,0.4,1.2,0.7,1.9,0.9c0.7,0.2,1.3,0.5,2,0.6l3.1,0.8
			c1,0.2,2.1,0.6,3.1,1s2.1,1,3,1.7c0.9,0.7,1.7,1.6,2.2,2.6s0.9,2.3,0.9,3.7c0,1.8-0.5,3.4-1.4,4.8c-0.9,1.4-2.3,2.5-4,3.3
			s-3.9,1.2-6.4,1.2c-2.4,0-4.5-0.4-6.2-1.1s-3.1-1.8-4.1-3.2c-1-1.4-1.5-3.1-1.6-5h4.8c0.1,1.2,0.5,2.1,1.1,2.9
			c0.7,0.8,1.5,1.3,2.5,1.7c1,0.4,2.2,0.5,3.4,0.5c1.4,0,2.6-0.2,3.6-0.7c1.1-0.4,1.9-1,2.5-1.8c0.6-0.8,0.9-1.7,0.9-2.7
			c0-1-0.3-1.7-0.8-2.3c-0.5-0.6-1.3-1.1-2.2-1.5s-1.9-0.7-3.1-1l-3.8-1c-2.6-0.7-4.6-1.7-6.1-3.1c-1.5-1.3-2.2-3.2-2.2-5.4
			c0-1.8,0.5-3.5,1.5-4.8s2.4-2.5,4.1-3.2c1.7-0.8,3.6-1.2,5.8-1.2c2.2,0,4.1,0.4,5.7,1.1s3,1.8,3.9,3.1s1.5,2.8,1.5,4.6
			L466.8,603.6L466.8,603.6z"/>
	</g>
</g>
</svg>
