<?xml version="1.0" encoding="utf-8"?>
<!-- Generator: Adobe Illustrator 25.2.0, SVG Export Plug-In . SVG Version: 6.00 Build 0)  -->
<svg version="1.1" id="Layer_2" xmlns="http://www.w3.org/2000/svg" xmlns:xlink="http://www.w3.org/1999/xlink" x="0px" y="0px"
	 viewBox="0 0 1300.45 402.33" style="enable-background:new 0 0 1300.45 402.33;" xml:space="preserve">
<style type="text/css">
	.st0{fill:#FFFFFF;}
</style>
<g>
	<path class="st0" d="M343.87,274.23c4.37-7.46,7.77-16.02,10.19-25.68c0.42-1.92,0.75-4.21,1-6.87c0.25-2.67,0.38-5.21,0.38-7.62
		c0-4.5-0.5-8.77-1.5-12.81c-1-4.04-2.31-7.83-3.94-11.37c-1.62-3.54-3.5-6.81-5.62-9.81s-4.35-5.71-6.69-8.12
		c-6.25-6.41-12.81-11.54-19.68-15.37c-6.87-3.83-14.21-6.79-22-8.87c-3.43-0.92-6.97-1.68-10.63-2.32c1.36-1.4,2.7-2.82,3.95-4.34
		c5.73-6.94,10.43-15.09,13.67-23.49c11.76-30.47,0.85-67.33-25.04-87.26c-13.57-10.44-29.68-14.32-46.48-15.06
		c-0.31-0.07-0.64-0.09-1.03-0.05c-0.34-0.01-0.67,0.03-0.99,0.11c-9.16,1-17.71,2.58-26.29,6.21c-7.74,3.28-14.82,7.72-21.24,13.14
		c-1.66,1.4-3.16,2.98-4.82,4.38c-2.77,2.35-4.35,2.36-7.78,1.82c-5.22-0.83-10.36-1.66-15.65-1.76
		c-9.54-0.18-18.97,1.49-27.93,4.74c-13.6,4.94-25.51,13.21-34.41,24.66c-4.66,6-8.34,12.82-11.11,19.88
		c-1.54,3.91-2.72,7.91-3.7,11.99c-1.12,4.7-3.34,5.2-7.6,7.01c-28.27,11.98-47.89,39.03-48.81,69.96
		c-1.01,33.82,20.21,65.29,52.78,75.47c9.5,2.97,19.53,3.88,29.42,2.82c5.37-0.58,10.63-1.61,15.78-3.28
		c3.84-1.24,9.58-5.08,13.71-4.26c4.2,0.83,8.32,7.08,11.07,9.93c4.29,4.44,8.57,8.89,12.86,13.33c3.96,4.1,7.85,8.33,11.79,12.5
		c-1.45,2.69-2.77,5.44-3.93,8.28l-6.4,15.75c-0.16,0.4-0.54,0.68-0.97,0.72c-4.16,0.41-8.11,0.95-11.86,1.62
		c-3.96,0.71-7.85,2.44-11.69,5.19c-2.17,1.58-3.73,3.27-4.69,5.06c-0.96,1.79-1.44,3.52-1.44,5.19c0,1.17,0.33,2.25,1,3.25
		c0.67,1,1.77,1.9,3.31,2.69c1.54,0.79,3.56,1.42,6.06,1.87c2.5,0.46,5.58,0.69,9.25,0.69c3.33,0,6.89-0.14,10.69-0.44
		c3.79-0.29,7.6-0.69,11.44-1.19c3.83-0.5,7.62-1.12,11.37-1.87c3.75-0.75,7.25-1.62,10.5-2.62h-0.13
		c7.25-1.83,46.24-10.03,53.85-12.54c24.54-8.09,36.75-12.03,44.16-15.2c7.41-3.17,14.58-6.87,21.5-11.12
		c6.91-4.25,13.27-9.27,19.06-15.06C334.42,288.32,339.5,281.69,343.87,274.23z M221.28,315.57c-0.58,0.14-1.15,0.28-1.72,0.42
		c-2.85,0.7-5.61,1.38-8.05,1.99c-4.41,1.1-7.81,1.96-8.96,2.31c-1.02,0.31-2.01,0.61-2.97,0.9c-2.88,0.86-5.49,1.6-7.84,2.23
		c-0.78,0.21-1.52,0.4-2.22,0.59c-2.1,0.55-3.84,0.98-5.21,1.29l-2.07,0.45c-0.62-0.01-0.63-0.52-0.52-1.04
		c0.04-0.19,0.09-0.38,0.13-0.58c0.91-3.98,3.85-8.13,7.81-14.06c6.34-9.51,7.24-8.89,13.88-15.27c5.14-4.93,10.28-9.96,15.71-14.56
		c3.1-2.54,6.29-4.96,9.56-7.28c2.54-1.71,5.17-3.29,7.92-4.69c0.24-0.12,0.48-0.24,0.72-0.37c0.6-0.3,1.2-0.6,1.8-0.9
		c0.75-0.37,1.49-0.74,2.24-1.11c0.61-0.3,1.23-0.6,1.85-0.9c0.75-0.36,1.5-0.72,2.25-1.08c0.63-0.3,1.27-0.6,1.91-0.9
		c0.74-0.35,1.49-0.7,2.24-1.05c0.64-0.3,1.29-0.59,1.93-0.89c0.75-0.34,1.5-0.68,2.25-1.02c0.65-0.29,1.29-0.58,1.94-0.87
		c0.75-0.33,1.49-0.66,2.24-0.98c0.65-0.28,1.3-0.56,1.95-0.84c0.75-0.32,1.5-0.64,2.24-0.95c0.64-0.27,1.29-0.54,1.93-0.8
		c0.75-0.31,1.5-0.61,2.24-0.91c0.64-0.26,1.27-0.51,1.91-0.76c0.74-0.29,1.48-0.58,2.22-0.87c0.63-0.24,1.26-0.49,1.89-0.72
		c0.74-0.28,1.46-0.55,2.19-0.81c0.62-0.23,1.23-0.45,1.84-0.67c0.73-0.26,1.45-0.51,2.18-0.76c0.6-0.21,1.19-0.42,1.78-0.62
		c0.73-0.25,1.45-0.48,2.16-0.71c0.57-0.18,1.14-0.37,1.7-0.55c0.73-0.23,1.45-0.44,2.16-0.66c0.53-0.16,1.07-0.33,1.59-0.48
		c0.74-0.21,1.47-0.41,2.19-0.6c0.48-0.13,0.97-0.27,1.44-0.39c0.8-0.21,1.57-0.39,2.34-0.57c0.38-0.09,0.77-0.19,1.15-0.28
		c1.14-0.26,2.25-0.49,3.33-0.69c0,0,0,0,0,0c0.22-0.04,0.41-0.13,0.57-0.26c0.03-0.02,0.05-0.05,0.08-0.08
		c0.04-0.04,0.09-0.08,0.13-0.13c0.08-0.11,0.15-0.23,0.22-0.37c2.2-1.14,3.73-4.35,2.92-6.67c-5.93-17.04-13.03-33.78-19.77-50.55
		c4.82,1.55,11.22,4.51,15.5,6.43c0,0,0.01,0,0.01,0.01c4.83,2.17,9.48,4.77,13.94,7.81c4.46,3.04,8.37,6.5,11.75,10.37
		c3.37,3.87,6.06,8.08,8.06,12.62c2,4.54,3,9.35,3,14.44c0,5-1.02,9.81-3.06,14.44c-2.04,4.62-4.77,9.04-8.19,13.25
		c-3.42,4.21-7.37,8.15-11.87,11.81c-4.5,3.67-9.21,7.06-14.12,10.19c-4.92,3.12-9.9,5.92-14.94,8.37
		c-5.04,2.46-20.13,8.45-38.85,13.72c-1.31,0.37-4.83,1.25-9.3,2.35c-0.5,0.12-1.01,0.25-1.53,0.38
		C229.44,313.57,225.31,314.58,221.28,315.57z M133.8,243.86c-3.05-0.03-5.88,1.6-8.49,2.98c-4.6,2.45-9.23,4.62-14.25,6.06
		c-18.15,5.21-37.21-0.35-51.41-12.36c-1.7-1.44-3.31-2.95-4.81-4.52c-1.53-1.66-2.97-3.39-4.31-5.2
		c-14.55-19.63-12.5-50.24,3.04-68.92c3.18-3.57,6.89-6.73,11.18-9.32c3.49-2.11,7.18-3.86,11.01-5.27
		c3.68-1.36,7.78-2.1,11.15-4.17c1.68-1.03,2.99-2.25,4.04-3.61c6.03-6.22,5.38-16.37,8.35-24.5c3.33-9.12,8.99-17.08,16.19-23.15
		c0.62-0.47,1.25-0.93,1.89-1.37c14.76-10.04,32-12.05,49.08-7.62c8.06,2.09,13.99,1.13,19.85-4.52c2.09-1.87,3.99-3.9,5.92-5.89
		c4.11-3.87,8.46-7.28,13.71-9.9c23.06-11.52,50.65-4.8,67.2,13.36c0.51,0.6,1.02,1.22,1.51,1.84
		c14.81,18.93,16.15,45.99,3.17,66.21c-1.81,2.81-3.94,5.76-6.4,8.35c-1.2,1.11-2.45,2.14-3.75,3.04
		c-7.28,5.02-16.56,4.07-24.95,5.11c-31.58,3.9-60.35,18.49-82.43,41.37c-0.07,0.08-0.15,0.15-0.22,0.23
		c-0.81,0.81-1.62,1.62-2.41,2.45c-4.68,4.91-7.55,8.94-5.69,15.88c0.24,0.9,0.78,1.5,1.48,1.84c0.55,0.79,1.29,1.11,2.08,1.09
		c0.7,0.11,1.46-0.04,2.18-0.54c15.67-10.98,31.42-22.42,49.02-30.13c8.65-3.79,17.72-6.58,26.95-8.52
		c3.96-0.83,7.94-1.54,11.92-2.23c9.38,4.46,20.96,34.66,24.89,45.1c0.2,0.52,0,1.1-0.47,1.4c-0.12,0.08-0.27,0.16-0.43,0.25
		c-3.77,1.27-7.53,2.88-11.14,4.48l-11.63,4.79c-13.8,5.36-35.22,18.24-46.15,28.22l-15.96,15.21c-0.02,0.02-0.03,0.03-0.05,0.05
		c-1.48,1.6-3.33,3.59-5.29,5.75c-0.3-0.19-0.62-0.43-0.94-0.74c-1.52-1.73-2.97-3.7-3.66-4.42c-2.66-2.8-5.32-5.59-7.98-8.39
		c-5.32-5.59-10.64-11.19-15.96-16.78c-2.8-2.94-5.66-6.87-9.16-9.42C139.44,245.45,136.95,243.89,133.8,243.86z"/>
	<path class="st0" d="M381.71,335.58c-1.41,0-3.03,0.46-4.86,1.39c-1.83,0.93-3.76,2.07-5.79,3.42c-1.58,1.07-3.32,2.15-5.24,3.25
		c-1.92,1.1-3.96,2.11-6.12,3.04c-2.17,0.93-4.46,1.69-6.88,2.28c-2.42,0.59-4.96,0.89-7.6,0.89c-4.56,0-8.14-0.9-10.73-2.7
		c-2.59-1.8-3.89-4.33-3.89-7.6c0-1.46,0.18-2.97,0.55-4.52c0.37-1.55,0.8-2.83,1.31-3.84c2.31-0.22,5.04-0.55,8.19-0.97
		c3.15-0.42,6.43-1.03,9.84-1.82c3.41-0.79,6.81-1.77,10.22-2.96c3.41-1.18,6.56-2.66,9.46-4.43c2.9-1.77,5.42-3.84,7.56-6.21
		c2.14-2.37,3.6-5.12,4.39-8.28c0.51-1.75,0.76-3.58,0.76-5.49c0-2.25-0.39-4.35-1.18-6.29c-0.79-1.94-1.97-3.62-3.55-5.03
		c-1.58-1.41-3.58-2.5-6-3.29c-2.42-0.79-5.27-1.18-8.53-1.18c-3.83,0-7.45,0.65-10.85,1.94c-3.41,1.3-6.59,2.97-9.55,5.03
		c-2.96,2.06-5.66,4.34-8.11,6.84c-2.45,2.51-4.63,5-6.55,7.48c-1.92,2.48-3.52,4.77-4.81,6.88c-1.3,2.11-2.25,3.79-2.87,5.03
		c-2.14,0.56-3.86,1.69-5.15,3.38c-1.3,1.69-1.94,3.75-1.94,6.17c0,1.24,0.32,2.18,0.97,2.83c0.65,0.65,1.34,1.03,2.07,1.14
		c-0.73,3.27-1.1,6.22-1.1,8.87c0,3.27,0.46,6.05,1.39,8.36c0.93,2.31,2.14,4.25,3.63,5.83c1.49,1.58,3.2,2.84,5.11,3.8
		c1.91,0.96,3.86,1.69,5.83,2.2c1.97,0.51,3.87,0.85,5.7,1.01c1.83,0.17,3.42,0.25,4.77,0.25c6.98,0,13.56-0.99,19.72-2.96
		c6.17-1.97,12.18-5.26,18.03-9.88c1.29-1.07,2.37-2.34,3.21-3.8c0.84-1.46,1.41-2.93,1.69-4.39c0.05-0.28,0.1-0.63,0.13-1.06
		c0.03-0.42,0.04-0.86,0.04-1.31c0-0.79-0.2-1.53-0.59-2.24C384.01,335.93,383.11,335.58,381.71,335.58z M341.41,311.54
		c1.63-2.22,3.51-4.31,5.62-6.25c2.11-1.94,4.36-3.56,6.76-4.86c2.39-1.29,4.83-1.94,7.31-1.94c1.58,0,2.93,0.38,4.05,1.14
		c1.13,0.76,1.69,1.9,1.69,3.42c0,0.28,0,0.54,0,0.76c0,0.23-0.06,0.48-0.17,0.76c-0.45,1.63-1.45,3.17-3,4.6
		c-1.55,1.44-3.58,2.73-6.08,3.89s-5.45,2.11-8.83,2.87c-3.38,0.76-7.1,1.31-11.15,1.65C338.51,315.78,339.78,313.77,341.41,311.54z
		"/>
	<path class="st0" d="M428.92,240.25c0.17-0.59,0.25-1.11,0.25-1.56c0-1.01-0.34-1.94-1.01-2.79s-1.51-1.56-2.49-2.15
		c-0.99-0.59-2.03-1.06-3.12-1.39c-1.1-0.34-2.1-0.51-3-0.51c-1.63,0-2.97,0.63-4.01,1.9c-1.04,1.27-1.87,2.86-2.49,4.77
		c-0.62,1.92-1.07,4-1.35,6.25c-0.28,2.25-0.51,4.34-0.68,6.25l-21.79,86.5c-0.28,1.07-0.56,2.32-0.85,3.76
		c-0.28,1.44-0.55,2.87-0.8,4.31c-0.25,1.44-0.46,2.82-0.63,4.14s-0.25,2.44-0.25,3.34c0,1.01,0.17,2.1,0.51,3.25
		s0.87,2.24,1.6,3.25c0.73,1.01,1.66,1.84,2.79,2.49c1.12,0.65,2.45,0.97,3.97,0.97c1.75,0,3.17-0.58,4.27-1.73
		c1.1-1.15,1.96-2.59,2.58-4.31c0.62-1.72,1.04-3.58,1.27-5.58c0.22-2,0.34-3.84,0.34-5.53v-2.03c0.28-1.97,0.7-4.49,1.27-7.56
		c0.56-3.07,1.27-6.29,2.11-9.67l21.12-84.64C428.61,241.42,428.75,240.84,428.92,240.25z"/>
	<path class="st0" d="M437.62,263.94c1.07,1.46,1.96,2.42,2.66,2.87c0.7,0.45,1.7,0.68,3,0.68c1.01,0,2.2-0.2,3.55-0.59
		c1.35-0.39,2.65-0.94,3.89-1.65c1.24-0.7,2.34-1.55,3.29-2.53c0.96-0.99,1.6-2.07,1.94-3.25c0.11-0.45,0.25-1.04,0.42-1.77
		c0.17-0.73,0.25-1.55,0.25-2.45c0-1.24-0.21-2.31-0.63-3.21c-0.42-0.9-1.34-1.41-2.75-1.52c-0.51-0.68-1.04-1.29-1.6-1.86
		c-0.45-0.45-0.97-0.87-1.56-1.27c-0.59-0.39-1.17-0.59-1.73-0.59c-0.56,0-1.49,0.21-2.79,0.63c-1.3,0.42-2.39,0.89-3.29,1.39
		c-1.86,1.35-3.16,2.87-3.89,4.56c-0.73,1.69-1.24,3.12-1.52,4.31c-0.11,0.45-0.21,0.92-0.3,1.39c-0.08,0.48-0.13,1.03-0.13,1.65
		c0,0.34,0.04,0.75,0.13,1.22C436.65,262.44,437,263.1,437.62,263.94z"/>
	<path class="st0" d="M444.63,291.65c0.05-0.17,0.08-0.35,0.08-0.55s0-0.38,0-0.55c0-0.85-0.21-1.59-0.63-2.24
		c-0.42-0.65-0.99-1.17-1.69-1.56c-0.7-0.39-1.51-0.69-2.41-0.89c-0.9-0.2-1.83-0.3-2.79-0.3c-1.3,0-2.42,0.2-3.38,0.59
		c-0.96,0.39-1.75,0.86-2.37,1.39c-0.62,0.54-1.1,1.07-1.44,1.6c-0.34,0.54-0.54,0.92-0.59,1.14c-1.18,4.79-2.45,9.71-3.8,14.78
		s-2.69,10.02-4.01,14.87c-1.32,4.84-2.58,9.43-3.76,13.77c-1.18,4.34-2.2,8.14-3.04,11.4l-2.45,9.88
		c-0.11,0.28-0.17,0.54-0.17,0.76c0,0.23,0,0.48,0,0.76c0,0.96,0.2,1.97,0.59,3.04c0.39,1.07,0.98,2.05,1.77,2.96
		c0.79,0.9,1.74,1.65,2.87,2.24c1.13,0.59,2.42,0.89,3.89,0.89c0.79,0,1.46-0.17,2.03-0.51c0.56-0.34,1.04-0.76,1.44-1.27
		c0.39-0.51,0.7-1.01,0.93-1.52c0.22-0.51,0.39-0.93,0.51-1.27c2.59-10.14,5.25-20.24,7.98-30.33c2.73-10.08,5.42-20.13,8.07-30.16
		L444.63,291.65z"/>
	<path class="st0" d="M547.09,291.1c0-0.2,0-0.38,0-0.55c0-0.85-0.21-1.59-0.63-2.24c-0.42-0.65-0.99-1.17-1.69-1.56
		c-0.7-0.39-1.51-0.69-2.41-0.89c-0.9-0.2-1.83-0.3-2.79-0.3c-1.3,0-2.42,0.2-3.38,0.59c-0.96,0.39-1.75,0.86-2.37,1.39
		c-0.62,0.54-1.1,1.07-1.44,1.6c-0.34,0.54-0.54,0.92-0.59,1.14c-1.18,4.79-2.45,9.71-3.8,14.78s-2.69,10.02-4.01,14.87
		c-1.32,4.84-2.58,9.43-3.76,13.77c-0.79,2.89-1.49,5.51-2.13,7.92c-0.37-0.41-0.79-0.76-1.29-1.04c-0.76-0.42-1.73-0.63-2.92-0.63
		c-0.73,0-1.37,0.07-1.9,0.21c-0.54,0.14-1.11,0.34-1.73,0.59c-0.62,0.25-1.34,0.54-2.15,0.84s-1.84,0.61-3.08,0.89l-2.53,0.59
		c-1.41,0.34-2.89,0.73-4.43,1.18c-1.55,0.45-2.72,0.9-3.51,1.35l-22.89,3.21c-2.2,0.28-4.41,0.62-6.63,1.01
		c-2.22,0.4-4.21,0.59-5.96,0.59c-0.45,0-0.93-0.01-1.44-0.04c-0.51-0.03-0.9-0.1-1.18-0.21c0.96-1.07,2.32-2.52,4.1-4.35
		c1.77-1.83,3.74-3.86,5.91-6.08c2.17-2.22,4.42-4.53,6.76-6.93c2.34-2.39,4.57-4.66,6.72-6.8c2.14-2.14,4.07-4.04,5.79-5.7
		c1.72-1.66,3-2.89,3.84-3.67l0.85-0.76c0.79-0.73,1.83-1.72,3.12-2.96c1.29-1.24,2.73-2.58,4.31-4.01c1.58-1.44,3.2-2.9,4.86-4.39
		c1.66-1.49,3.25-2.84,4.77-4.05c1.52-1.21,2.87-2.22,4.05-3.04c1.18-0.82,2.08-1.28,2.7-1.39c1.07-1.13,1.89-2.24,2.45-3.34
		c0.56-1.1,0.84-2.29,0.84-3.59c0-0.28-0.03-0.58-0.08-0.89c-0.06-0.31-0.23-0.69-0.51-1.14c-0.62-1.01-1.18-1.86-1.69-2.53
		c-0.51-0.68-1.06-1.22-1.65-1.65c-0.59-0.42-1.27-0.73-2.03-0.93c-0.76-0.2-1.7-0.3-2.83-0.3c-2.87,0-6.08,0.21-9.63,0.63
		c-3.55,0.42-7.19,0.89-10.94,1.39s-7.5,0.97-11.28,1.39c-3.77,0.42-7.32,0.63-10.64,0.63c-1.13,0-2.18-0.03-3.17-0.08
		c-0.99-0.05-1.96-0.14-2.92-0.25c-1.3,0.23-2.37,0.93-3.21,2.11c-0.85,1.18-1.27,2.48-1.27,3.88c0,1.41,0.24,2.61,0.72,3.59
		s1.11,1.8,1.9,2.45c0.79,0.65,1.7,1.11,2.75,1.39c1.04,0.28,2.15,0.42,3.34,0.42c1.01,0,2.53-0.03,4.56-0.08
		c2.03-0.05,4.21-0.11,6.55-0.17c2.34-0.06,4.67-0.11,7.01-0.17c2.34-0.05,4.35-0.11,6.04-0.17c-2.37,2.93-5.25,6.2-8.66,9.8
		c-3.41,3.6-6.97,7.24-10.69,10.9c-3.72,3.66-7.38,7.19-10.98,10.6c-3.6,3.41-6.76,6.38-9.46,8.91c-0.79,0.62-1.76,1.41-2.91,2.37
		c-1.16,0.96-2.31,2.03-3.46,3.21c-1.15,1.18-2.21,2.41-3.17,3.67c-0.96,1.27-1.6,2.52-1.94,3.76c-0.17,0.79-0.25,1.47-0.25,2.03
		c0,1.8,0.53,3.37,1.6,4.69c1.07,1.32,2.44,2.41,4.1,3.25c1.66,0.84,3.46,1.46,5.41,1.86c1.94,0.39,3.79,0.59,5.53,0.59
		c0.62,0,1.76-0.07,3.42-0.21c1.66-0.14,3.42-0.31,5.28-0.51c1.86-0.2,3.62-0.39,5.28-0.59c1.66-0.2,2.8-0.35,3.42-0.46
		c6.48-1.07,12.04-2.01,16.68-2.83c4.65-0.82,8.56-1.52,11.74-2.11c3.18-0.59,5.72-1.07,7.6-1.44s3.31-0.63,4.27-0.8
		c0.68,0.28,1.27,0.42,1.77,0.42c0.5,0,0.98-0.09,1.46-0.24c-0.01,0.08-0.03,0.17-0.03,0.24c0,0.23,0,0.48,0,0.76
		c0,0.96,0.2,1.97,0.59,3.04c0.39,1.07,0.98,2.05,1.77,2.96c0.79,0.9,1.74,1.65,2.87,2.24c1.13,0.59,2.42,0.89,3.89,0.89
		c0.79,0,1.46-0.17,2.03-0.51c0.56-0.34,1.04-0.76,1.44-1.27c0.39-0.51,0.7-1.01,0.93-1.52c0.22-0.51,0.39-0.93,0.51-1.27
		c2.59-10.14,5.25-20.24,7.98-30.33c2.73-10.08,5.42-20.13,8.07-30.16l2.37-8.95C547.06,291.48,547.09,291.3,547.09,291.1z"/>
	<path class="st0" d="M540,263.94c1.07,1.46,1.96,2.42,2.66,2.87c0.7,0.45,1.7,0.68,3,0.68c1.01,0,2.2-0.2,3.55-0.59
		c1.35-0.39,2.65-0.94,3.89-1.65c1.24-0.7,2.34-1.55,3.29-2.53c0.96-0.99,1.6-2.07,1.94-3.25c0.11-0.45,0.25-1.04,0.42-1.77
		c0.17-0.73,0.25-1.55,0.25-2.45c0-1.24-0.21-2.31-0.63-3.21c-0.42-0.9-1.34-1.41-2.75-1.52c-0.51-0.68-1.04-1.29-1.6-1.86
		c-0.45-0.45-0.97-0.87-1.56-1.27c-0.59-0.39-1.17-0.59-1.73-0.59c-0.56,0-1.49,0.21-2.79,0.63c-1.3,0.42-2.39,0.89-3.29,1.39
		c-1.86,1.35-3.16,2.87-3.89,4.56c-0.73,1.69-1.24,3.12-1.52,4.31c-0.11,0.45-0.21,0.92-0.3,1.39c-0.08,0.48-0.13,1.03-0.13,1.65
		c0,0.34,0.04,0.75,0.13,1.22C539.03,262.44,539.38,263.1,540,263.94z"/>
	<path class="st0" d="M623.71,306.43c0-1.91-0.11-3.63-0.34-5.15c-0.23-1.52-0.52-2.94-0.89-4.27s-0.82-2.58-1.35-3.76
		c-0.54-1.18-1.11-2.39-1.73-3.63c-1.97-3.83-4.46-6.86-7.48-9.08c-3.01-2.22-6.72-3.34-11.11-3.34c-3.72,0-6.67,1.18-8.87,3.55
		c-1.86,0.11-3.66,0.46-5.41,1.06c-1.75,0.59-3.04,1.14-3.88,1.65c-5.29,3.27-9.96,6.79-13.98,10.56
		c-4.03,3.77-7.48,7.63-10.35,11.57c-2.87,3.94-5.2,7.84-6.97,11.7c-1.77,3.86-3.08,7.5-3.93,10.94c-1.01,4.05-1.52,7.86-1.52,11.4
		c0,3.66,0.52,6.98,1.56,9.97c1.04,2.99,2.62,5.55,4.73,7.69c2.11,2.14,4.76,3.79,7.94,4.94c3.18,1.15,6.94,1.73,11.28,1.73
		c4.56,0,8.69-0.61,12.38-1.82s7.05-2.91,10.09-5.11c4.5-3.21,8.6-6.83,12.29-10.85c3.69-4.03,6.83-8.24,9.42-12.63
		c2.59-4.39,4.59-8.9,6-13.52C623,315.42,623.71,310.88,623.71,306.43z M607.87,311.5c-0.37,1.75-0.8,3.6-1.31,5.57
		c-0.79,3.16-2.15,6.6-4.1,10.35c-1.94,3.75-4.35,7.25-7.22,10.52c-2.87,3.27-6.15,5.98-9.84,8.15c-3.69,2.17-7.67,3.25-11.95,3.25
		c-2.31,0-4.27-0.32-5.87-0.97c-1.6-0.65-2.94-1.55-4.01-2.7c-1.07-1.15-1.84-2.53-2.32-4.14c-0.48-1.6-0.72-3.34-0.72-5.2
		c0-1.07,0.07-2.18,0.21-3.34c0.14-1.15,0.38-2.38,0.72-3.67c0.39-1.69,1.08-3.55,2.07-5.58s2.14-4.1,3.46-6.21
		c1.32-2.11,2.82-4.18,4.48-6.21s3.41-3.91,5.24-5.66c1.83-1.75,3.7-3.27,5.62-4.56c1.91-1.29,3.8-2.25,5.66-2.87
		c2.82-0.28,5.1-0.62,6.84-1.01c1.74-0.39,3.12-0.83,4.14-1.31c1.01-0.48,1.77-1.01,2.28-1.6c0.51-0.59,0.98-1.28,1.44-2.07
		c0.39,1.01,0.84,2.04,1.35,3.08s1.01,2.04,1.52,3c0.84,1.58,1.53,3,2.07,4.27c0.54,1.27,0.8,2.63,0.8,4.1
		C608.42,308.15,608.23,309.76,607.87,311.5z"/>
	<path class="st0" d="M681.4,295.37c0.56-0.73,1.04-1.61,1.44-2.62c0.39-1.01,0.68-2.03,0.84-3.04s0.25-1.83,0.25-2.45
		c0-2.03-0.55-3.65-1.65-4.86c-1.1-1.21-2.46-2.12-4.1-2.75c-1.63-0.62-3.44-1.01-5.41-1.18c-1.97-0.17-3.8-0.25-5.49-0.25
		c-1.86,0-3.62,0.2-5.28,0.59c-1.66,0.39-3.29,0.93-4.9,1.61c-1.61,0.68-3.2,1.49-4.77,2.45c-1.58,0.96-3.21,2.03-4.9,3.21
		c-2.31,1.13-4.52,2.53-6.63,4.22c-2.11,1.69-4,3.46-5.66,5.32c-1.66,1.86-2.99,3.73-3.97,5.62s-1.48,3.56-1.48,5.03
		c0,0.9,0.07,1.75,0.21,2.54c0.14,0.79,0.32,1.58,0.55,2.37c0.45,1.86,1.14,3.5,2.07,4.94c0.93,1.44,2,2.69,3.21,3.76
		c1.21,1.07,2.52,2.01,3.93,2.83c1.41,0.82,2.84,1.51,4.31,2.07l2.87,1.18c1.41,0.56,2.93,1.18,4.56,1.86
		c1.63,0.68,3.15,1.41,4.56,2.2c1.41,0.79,2.58,1.62,3.51,2.49c0.93,0.87,1.39,1.79,1.39,2.75c0,0.51-0.08,1.1-0.25,1.77
		c-0.28,1.24-1.45,2.44-3.51,3.59c-2.06,1.15-4.52,2.18-7.39,3.08c-2.87,0.9-5.93,1.63-9.17,2.2c-3.24,0.56-6.18,0.84-8.83,0.84
		c-0.9,0-1.63-0.06-2.2-0.17c-0.56-0.11-1.07-0.24-1.52-0.38c-0.45-0.14-0.86-0.27-1.22-0.38c-0.37-0.11-0.77-0.17-1.22-0.17
		c-0.51,0-1.06,0.21-1.65,0.63c-0.59,0.42-1.14,0.93-1.65,1.52c-0.51,0.59-0.93,1.24-1.27,1.94s-0.51,1.34-0.51,1.9
		c0,1.13,0.46,2.25,1.39,3.38c0.93,1.13,2.08,2.13,3.46,3c1.38,0.87,2.88,1.58,4.52,2.11c1.63,0.54,3.12,0.8,4.48,0.8
		c2.7,0,5.67-0.39,8.91-1.18c3.24-0.79,6.48-1.84,9.71-3.17c3.24-1.32,6.35-2.87,9.33-4.65c2.98-1.77,5.57-3.67,7.77-5.7
		c0.34-0.28,0.76-0.86,1.27-1.73s1-1.86,1.48-2.96c0.48-1.1,0.93-2.21,1.35-3.34c0.42-1.13,0.72-2.11,0.89-2.96
		c0.22-0.96,0.39-1.8,0.51-2.53c0.11-0.73,0.17-1.46,0.17-2.2c0-1.52-0.23-2.84-0.68-3.97c-0.45-1.12-1.1-2.14-1.94-3.04
		c-0.85-0.9-1.87-1.73-3.08-2.49c-1.21-0.76-2.58-1.53-4.1-2.32c-1.13-0.56-2.46-1.18-4.01-1.86s-3.14-1.35-4.77-2.03
		c-1.63-0.68-3.25-1.35-4.86-2.03c-1.6-0.68-3.03-1.35-4.27-2.03c-0.96-0.45-1.75-0.98-2.37-1.6c-0.62-0.62-0.93-1.41-0.93-2.37
		c0-0.9,0.42-1.9,1.27-3c0.84-1.1,1.96-2.21,3.34-3.34c1.38-1.13,2.93-2.22,4.65-3.29c1.72-1.07,3.48-2.01,5.28-2.83
		c1.8-0.82,3.56-1.46,5.28-1.94c1.72-0.48,3.22-0.72,4.52-0.72c1.07,0,1.97,0.25,2.7,0.76c0.73,0.51,1.44,1.06,2.11,1.65
		c0.68,0.59,1.44,1.14,2.28,1.65c0.84,0.51,1.91,0.76,3.21,0.76C680.16,296.46,680.83,296.1,681.4,295.37z"/>
	<path class="st0" d="M756.45,297.01c-0.37-1.32-0.82-2.58-1.35-3.76c-0.54-1.18-1.11-2.39-1.73-3.63
		c-1.97-3.83-4.46-6.86-7.48-9.08c-3.01-2.22-6.72-3.34-11.11-3.34c-3.72,0-6.67,1.18-8.87,3.55c-1.86,0.11-3.66,0.46-5.41,1.06
		c-1.75,0.59-3.04,1.14-3.88,1.65c-5.29,3.27-9.96,6.79-13.98,10.56c-4.03,3.77-7.48,7.63-10.35,11.57
		c-2.87,3.94-5.2,7.84-6.97,11.7c-1.77,3.86-3.08,7.5-3.93,10.94c-1.01,4.05-1.52,7.86-1.52,11.4c0,3.66,0.52,6.98,1.56,9.97
		c1.04,2.99,2.62,5.55,4.73,7.69c2.11,2.14,4.76,3.79,7.94,4.94c3.18,1.15,6.94,1.73,11.28,1.73c4.56,0,8.69-0.61,12.38-1.82
		s7.05-2.91,10.09-5.11c4.5-3.21,8.6-6.83,12.29-10.85c3.69-4.03,6.83-8.24,9.42-12.63c2.59-4.39,4.59-8.9,6-13.52
		c1.41-4.62,2.11-9.15,2.11-13.6c0-1.91-0.11-3.63-0.34-5.15C757.11,299.76,756.82,298.34,756.45,297.01z M741.84,311.5
		c-0.37,1.75-0.8,3.6-1.31,5.57c-0.79,3.16-2.15,6.6-4.1,10.35c-1.94,3.75-4.35,7.25-7.22,10.52c-2.87,3.27-6.15,5.98-9.84,8.15
		c-3.69,2.17-7.67,3.25-11.95,3.25c-2.31,0-4.27-0.32-5.87-0.97c-1.6-0.65-2.94-1.55-4.01-2.7c-1.07-1.15-1.84-2.53-2.32-4.14
		c-0.48-1.6-0.72-3.34-0.72-5.2c0-1.07,0.07-2.18,0.21-3.34c0.14-1.15,0.38-2.38,0.72-3.67c0.39-1.69,1.08-3.55,2.07-5.58
		s2.14-4.1,3.46-6.21c1.32-2.11,2.82-4.18,4.48-6.21s3.41-3.91,5.24-5.66c1.83-1.75,3.7-3.27,5.62-4.56
		c1.91-1.29,3.8-2.25,5.66-2.87c2.82-0.28,5.1-0.62,6.84-1.01c1.74-0.39,3.12-0.83,4.14-1.31c1.01-0.48,1.77-1.01,2.28-1.6
		c0.51-0.59,0.98-1.28,1.44-2.07c0.39,1.01,0.84,2.04,1.35,3.08s1.01,2.04,1.52,3c0.84,1.58,1.53,3,2.07,4.27
		c0.54,1.27,0.8,2.63,0.8,4.1C742.39,308.15,742.2,309.76,741.84,311.5z"/>
	<path class="st0" d="M937.81,282.61c1.44-2.03,2.38-4.22,2.83-6.59l0.59-2.96c0.51-2.42,0.76-4.76,0.76-7.01
		c0-4.39-1.08-8.29-3.25-11.7c-2.17-3.41-4.96-6.36-8.36-8.87s-7.24-4.55-11.49-6.12c-4.25-1.58-8.49-2.76-12.71-3.55
		c-2.14-0.39-5.34-0.85-9.59-1.35c-4.25-0.51-9.28-0.85-15.08-1.01c-0.39-0.96-0.84-2.01-1.35-3.17s-1.11-2.24-1.82-3.25
		s-1.54-1.86-2.49-2.54c-0.96-0.68-2.06-1.01-3.29-1.01c-1.75,0-3.15,0.37-4.22,1.1c-1.07,0.73-1.97,1.66-2.7,2.79
		c-0.73,1.13-1.34,2.35-1.82,3.67c-0.48,1.32-1,2.58-1.56,3.76c-0.34,0.68-0.9,1.14-1.69,1.39c-0.79,0.25-1.7,0.49-2.75,0.72
		c-1.04,0.23-2.11,0.52-3.21,0.89c-1.1,0.37-2.11,0.96-3.04,1.77c-0.93,0.82-1.69,1.97-2.28,3.46c-0.59,1.49-0.89,3.48-0.89,5.96
		c0,0.96,0.11,1.87,0.34,2.75c0.22,0.87,0.6,1.65,1.14,2.32c0.53,0.68,1.27,1.22,2.2,1.65c0.93,0.42,2.1,0.63,3.5,0.63
		c0.45,0,0.82,0.06,1.1,0.17c0.28,0.11,0.42,0.39,0.42,0.84c0,0.28-0.03,0.51-0.08,0.68c-1.13,4.51-2.39,8.87-3.8,13.09
		c-1.41,4.22-2.8,8.34-4.18,12.33c-1.38,4-2.7,7.87-3.97,11.61c-1.27,3.75-2.35,7.34-3.25,10.77c-1.13,4.28-2.11,8.12-2.96,11.53
		c-0.85,3.41-1.66,6.75-2.45,10.01l-3.29,13.52c-0.56,2.31-1.13,4.24-1.69,5.79c-0.56,1.55-1.1,2.89-1.61,4.01
		c-0.51,1.13-0.97,2.14-1.39,3.04c-0.42,0.9-0.75,1.86-0.97,2.87c-0.11,0.28-0.17,0.58-0.17,0.89s0,0.63,0,0.97
		c0,0.9,0.13,1.86,0.38,2.87c0.25,1.01,0.62,1.96,1.1,2.83c0.48,0.87,1.08,1.59,1.82,2.15c0.73,0.56,1.61,0.84,2.62,0.84
		c1.46,0,2.86-0.46,4.18-1.39c1.32-0.93,2.49-2.04,3.51-3.34c1.01-1.3,1.89-2.67,2.62-4.14c0.73-1.46,1.24-2.73,1.52-3.8
		c0.84-3.27,1.55-6.24,2.11-8.91c0.56-2.67,1.13-5.35,1.69-8.02c0.56-2.67,1.17-5.48,1.82-8.41c0.65-2.93,1.53-6.34,2.66-10.22
		c0.22-0.79,0.98-1.27,2.28-1.44l2.37-0.34c6.59-1.29,13.26-2.67,20.02-4.14c6.76-1.46,13.37-3.26,19.85-5.41
		c6.48-2.14,12.7-4.77,18.67-7.9c5.97-3.13,11.46-7,16.47-11.62C934.75,286.47,936.37,284.64,937.81,282.61z M926.78,275.26
		c-1.86,2.08-4.34,4.17-7.43,6.25c-2.93,1.97-6.28,3.83-10.05,5.58c-3.77,1.75-7.73,3.38-11.87,4.9c-4.14,1.52-8.29,2.89-12.46,4.1
		c-4.17,1.21-8.08,2.21-11.74,3c-1.35,0.28-2.76,0.56-4.22,0.84c-1.46,0.28-2.83,0.54-4.1,0.76c-1.27,0.23-2.35,0.41-3.25,0.55
		c-0.9,0.14-1.44,0.21-1.6,0.21c-0.28,0-0.46-0.1-0.55-0.3c-0.08-0.2-0.13-0.44-0.13-0.72c0-0.22,0.06-0.6,0.17-1.14
		c0.11-0.53,0.25-1.13,0.42-1.77c0.17-0.65,0.35-1.27,0.55-1.86c0.2-0.59,0.35-1.08,0.46-1.48c0.39-1.46,0.97-3.34,1.73-5.62
		c0.76-2.28,1.59-4.73,2.49-7.35c0.9-2.62,1.84-5.31,2.83-8.07c0.99-2.76,1.93-5.38,2.83-7.86c0.9-2.48,1.75-4.72,2.53-6.72
		c0.79-2,1.41-3.56,1.86-4.69c0.11-0.28,0.27-0.62,0.46-1.01c0.2-0.39,0.44-0.68,0.72-0.84c0.56-0.34,1.65-0.63,3.25-0.89
		c1.61-0.25,3.35-0.46,5.24-0.63c1.89-0.17,3.69-0.31,5.41-0.42c1.72-0.11,3-0.17,3.84-0.17c3.15,0,6.36,0.11,9.63,0.34
		c3.27,0.23,6.39,0.73,9.38,1.52c2.98,0.79,5.74,1.97,8.28,3.55c2.54,1.58,4.65,3.75,6.34,6.5c0.45,0.9,0.86,1.9,1.22,3
		c0.37,1.1,0.55,2.35,0.55,3.76C929.57,270.95,928.64,273.18,926.78,275.26z"/>
	<path class="st0" d="M949.33,263.94c1.07,1.46,1.96,2.42,2.66,2.87c0.7,0.45,1.7,0.68,3,0.68c1.01,0,2.2-0.2,3.55-0.59
		c1.35-0.39,2.65-0.94,3.89-1.65c1.24-0.7,2.34-1.55,3.29-2.53c0.96-0.99,1.6-2.07,1.94-3.25c0.11-0.45,0.25-1.04,0.42-1.77
		c0.17-0.73,0.25-1.55,0.25-2.45c0-1.24-0.21-2.31-0.63-3.21c-0.42-0.9-1.34-1.41-2.75-1.52c-0.51-0.68-1.04-1.29-1.6-1.86
		c-0.45-0.45-0.97-0.87-1.56-1.27c-0.59-0.39-1.17-0.59-1.73-0.59c-0.56,0-1.49,0.21-2.79,0.63c-1.3,0.42-2.39,0.89-3.29,1.39
		c-1.86,1.35-3.16,2.87-3.89,4.56c-0.73,1.69-1.24,3.12-1.52,4.31c-0.11,0.45-0.21,0.92-0.3,1.39c-0.08,0.48-0.13,1.03-0.13,1.65
		c0,0.34,0.04,0.75,0.13,1.22C948.36,262.44,948.71,263.1,949.33,263.94z"/>
	<path class="st0" d="M956.35,291.65c0.05-0.17,0.08-0.35,0.08-0.55s0-0.38,0-0.55c0-0.85-0.21-1.59-0.63-2.24
		c-0.42-0.65-0.99-1.17-1.69-1.56c-0.7-0.39-1.51-0.69-2.41-0.89c-0.9-0.2-1.83-0.3-2.79-0.3c-1.3,0-2.42,0.2-3.38,0.59
		c-0.96,0.39-1.75,0.86-2.37,1.39c-0.62,0.54-1.1,1.07-1.44,1.6c-0.34,0.54-0.54,0.92-0.59,1.14c-1.18,4.79-2.45,9.71-3.8,14.78
		s-2.69,10.02-4.01,14.87c-1.32,4.84-2.58,9.43-3.76,13.77c-1.18,4.34-2.2,8.14-3.04,11.4l-2.45,9.88
		c-0.11,0.28-0.17,0.54-0.17,0.76c0,0.23,0,0.48,0,0.76c0,0.96,0.2,1.97,0.59,3.04c0.39,1.07,0.98,2.05,1.77,2.96
		c0.79,0.9,1.74,1.65,2.87,2.24c1.13,0.59,2.42,0.89,3.89,0.89c0.79,0,1.46-0.17,2.03-0.51c0.56-0.34,1.04-0.76,1.44-1.27
		c0.39-0.51,0.7-1.01,0.93-1.52c0.22-0.51,0.39-0.93,0.51-1.27c2.59-10.14,5.25-20.24,7.98-30.33c2.73-10.08,5.42-20.13,8.07-30.16
		L956.35,291.65z"/>
	<path class="st0" d="M1171.32,284.43c-0.68-0.76-1.58-1.36-2.7-1.82c-1.13-0.45-2.53-0.68-4.22-0.68c-0.9,0-1.76,0.06-2.58,0.17
		c-0.82,0.11-1.87,0.31-3.17,0.59c-1.3-0.17-2.75-0.34-4.35-0.51c-1.6-0.17-3.06-0.25-4.35-0.25c-2.93,0-5.88,0.3-8.87,0.89
		c-2.99,0.59-5.97,1.93-8.95,4.01c-7.72,5.35-14.18,11.81-19.39,19.39c-5.21,7.58-8.88,15.81-11.02,24.71
		c-0.51,1.97-0.89,3.72-1.14,5.24c-0.23,1.36-0.34,2.67-0.36,3.93c-0.44-0.08-0.92-0.13-1.45-0.13c-0.73,0-1.37,0.07-1.9,0.21
		c-0.54,0.14-1.11,0.34-1.73,0.59c-0.62,0.25-1.34,0.54-2.15,0.84s-1.84,0.61-3.08,0.89l-2.53,0.59c-1.41,0.34-2.89,0.73-4.43,1.18
		c-1.55,0.45-2.72,0.9-3.51,1.35l-22.89,3.21c-2.2,0.28-4.41,0.62-6.63,1.01c-2.22,0.4-4.21,0.59-5.96,0.59
		c-0.45,0-0.93-0.01-1.44-0.04c-0.51-0.03-0.9-0.1-1.18-0.21c0.96-1.07,2.32-2.52,4.1-4.35c1.77-1.83,3.74-3.86,5.91-6.08
		c2.17-2.22,4.42-4.53,6.76-6.93c2.34-2.39,4.57-4.66,6.72-6.8c2.14-2.14,4.07-4.04,5.79-5.7c1.72-1.66,3-2.89,3.84-3.67l0.85-0.76
		c0.79-0.73,1.83-1.72,3.12-2.96c1.29-1.24,2.73-2.58,4.31-4.01c1.58-1.44,3.2-2.9,4.86-4.39c1.66-1.49,3.25-2.84,4.77-4.05
		c1.52-1.21,2.87-2.22,4.05-3.04c1.18-0.82,2.08-1.28,2.7-1.39c1.07-1.13,1.89-2.24,2.45-3.34c0.56-1.1,0.84-2.29,0.84-3.59
		c0-0.28-0.03-0.58-0.08-0.89c-0.06-0.31-0.23-0.69-0.51-1.14c-0.62-1.01-1.18-1.86-1.69-2.53c-0.51-0.68-1.06-1.22-1.65-1.65
		c-0.59-0.42-1.27-0.73-2.03-0.93c-0.76-0.2-1.7-0.3-2.83-0.3c-2.87,0-6.08,0.21-9.63,0.63c-3.55,0.42-7.19,0.89-10.94,1.39
		s-7.5,0.97-11.28,1.39c-3.77,0.42-7.32,0.63-10.64,0.63c-1.13,0-2.18-0.03-3.17-0.08c-0.99-0.05-1.96-0.14-2.92-0.25
		c-1.3,0.23-2.37,0.93-3.21,2.11c-0.85,1.18-1.27,2.48-1.27,3.88c0,1.41,0.24,2.61,0.72,3.59s1.11,1.8,1.9,2.45
		c0.79,0.65,1.7,1.11,2.75,1.39c1.04,0.28,2.15,0.42,3.34,0.42c1.01,0,2.53-0.03,4.56-0.08c2.03-0.05,4.21-0.11,6.55-0.17
		c2.34-0.06,4.67-0.11,7.01-0.17c2.34-0.05,4.35-0.11,6.04-0.17c-2.37,2.93-5.25,6.2-8.66,9.8c-3.41,3.6-6.97,7.24-10.69,10.9
		c-3.72,3.66-7.38,7.19-10.98,10.6c-3.6,3.41-6.76,6.38-9.46,8.91c-0.79,0.62-1.76,1.41-2.91,2.37c-0.24,0.2-0.47,0.42-0.71,0.62
		c-0.4-0.51-0.89-0.93-1.48-1.26c-0.76-0.42-1.73-0.63-2.92-0.63c-0.73,0-1.37,0.07-1.9,0.21c-0.54,0.14-1.11,0.34-1.73,0.59
		c-0.62,0.25-1.34,0.54-2.15,0.84s-1.84,0.61-3.08,0.89l-2.53,0.59c-1.41,0.34-2.89,0.73-4.43,1.18c-1.55,0.45-2.72,0.9-3.51,1.35
		l-22.89,3.21c-2.2,0.28-4.41,0.62-6.63,1.01c-2.22,0.4-4.21,0.59-5.96,0.59c-0.45,0-0.93-0.01-1.44-0.04
		c-0.51-0.03-0.9-0.1-1.18-0.21c0.96-1.07,2.32-2.52,4.1-4.35c1.77-1.83,3.74-3.86,5.91-6.08c2.17-2.22,4.42-4.53,6.76-6.93
		c2.34-2.39,4.57-4.66,6.72-6.8c2.14-2.14,4.07-4.04,5.79-5.7c1.72-1.66,3-2.89,3.84-3.67l0.85-0.76c0.79-0.73,1.83-1.72,3.12-2.96
		c1.29-1.24,2.73-2.58,4.31-4.01c1.58-1.44,3.2-2.9,4.86-4.39c1.66-1.49,3.25-2.84,4.77-4.05c1.52-1.21,2.87-2.22,4.05-3.04
		c1.18-0.82,2.08-1.28,2.7-1.39c1.07-1.13,1.89-2.24,2.45-3.34c0.56-1.1,0.84-2.29,0.84-3.59c0-0.28-0.03-0.58-0.08-0.89
		c-0.06-0.31-0.23-0.69-0.51-1.14c-0.62-1.01-1.18-1.86-1.69-2.53c-0.51-0.68-1.06-1.22-1.65-1.65c-0.59-0.42-1.27-0.73-2.03-0.93
		c-0.76-0.2-1.7-0.3-2.83-0.3c-2.87,0-6.08,0.21-9.63,0.63c-3.55,0.42-7.19,0.89-10.94,1.39s-7.5,0.97-11.28,1.39
		c-3.77,0.42-7.32,0.63-10.64,0.63c-1.13,0-2.18-0.03-3.17-0.08c-0.99-0.05-1.96-0.14-2.92-0.25c-1.3,0.23-2.37,0.93-3.21,2.11
		c-0.85,1.18-1.27,2.48-1.27,3.88c0,1.41,0.24,2.61,0.72,3.59s1.11,1.8,1.9,2.45c0.79,0.65,1.7,1.11,2.75,1.39
		c1.04,0.28,2.15,0.42,3.34,0.42c1.01,0,2.53-0.03,4.56-0.08c2.03-0.05,4.21-0.11,6.55-0.17c2.34-0.06,4.67-0.11,7.01-0.17
		c2.34-0.05,4.35-0.11,6.04-0.17c-2.37,2.93-5.25,6.2-8.66,9.8c-3.41,3.6-6.97,7.24-10.69,10.9c-3.72,3.66-7.38,7.19-10.98,10.6
		c-3.6,3.41-6.76,6.38-9.46,8.91c-0.79,0.62-1.76,1.41-2.91,2.37c-1.16,0.96-2.31,2.03-3.46,3.21c-1.15,1.18-2.21,2.41-3.17,3.67
		c-0.96,1.27-1.6,2.52-1.94,3.76c-0.17,0.79-0.25,1.47-0.25,2.03c0,1.8,0.53,3.37,1.6,4.69c1.07,1.32,2.44,2.41,4.1,3.25
		c1.66,0.84,3.46,1.46,5.41,1.86c1.94,0.39,3.79,0.59,5.53,0.59c0.62,0,1.76-0.07,3.42-0.21c1.66-0.14,3.42-0.31,5.28-0.51
		c1.86-0.2,3.62-0.39,5.28-0.59c1.66-0.2,2.8-0.35,3.42-0.46c6.48-1.07,12.04-2.01,16.68-2.83c4.65-0.82,8.56-1.52,11.74-2.11
		c3.18-0.59,5.72-1.07,7.6-1.44c1.32-0.26,2.39-0.46,3.26-0.62c0.23,1.13,0.69,2.16,1.43,3.07c1.07,1.32,2.44,2.41,4.1,3.25
		c1.66,0.84,3.46,1.46,5.41,1.86c1.94,0.39,3.79,0.59,5.53,0.59c0.62,0,1.76-0.07,3.42-0.21c1.66-0.14,3.42-0.31,5.28-0.51
		c1.86-0.2,3.62-0.39,5.28-0.59c1.66-0.2,2.8-0.35,3.42-0.46c6.48-1.07,12.04-2.01,16.68-2.83c4.65-0.82,8.56-1.52,11.74-2.11
		c3.18-0.59,5.72-1.07,7.6-1.44s3.31-0.63,4.27-0.8c0.68,0.28,1.27,0.42,1.77,0.42c0.84,0,1.66-0.22,2.45-0.68
		c0.79-0.45,1.52-1.03,2.2-1.73c0.52-0.54,0.97-1.18,1.37-1.86c1.22,1.48,2.76,2.96,4.62,4.43c1.07,0.85,2.37,1.52,3.89,2.03
		c1.52,0.51,3.13,0.76,4.82,0.76c2.08,0,4.32-0.58,6.71-1.73s4.8-2.58,7.22-4.27c2.42-1.69,4.76-3.46,7.01-5.32
		c2.25-1.86,4.31-3.46,6.17-4.81c0,3.38-0.2,6.21-0.59,8.49c-0.39,2.28-0.59,4.24-0.59,5.87c0,0.79,0.08,1.48,0.25,2.07
		c0.17,0.59,0.54,1.1,1.1,1.52c0.56,0.42,1.37,0.75,2.41,0.97c1.04,0.22,2.44,0.34,4.18,0.34c1.35,0,2.45-0.25,3.29-0.76
		c0.84-0.51,1.55-1.11,2.11-1.82c0.56-0.7,0.97-1.44,1.22-2.2c0.25-0.76,0.46-1.39,0.63-1.9c0.51-1.75,0.84-3.63,1.01-5.66
		s0.37-4.25,0.59-6.67l11.15-44.52c0.45-1.35,0.9-2.69,1.35-4.01c0.45-1.32,0.68-2.72,0.68-4.18c0-1.07-0.16-2.1-0.46-3.08
		C1172.49,286.06,1172,285.19,1171.32,284.43z M1155.48,302.97c-0.31,2.14-0.69,4.03-1.14,5.66c-0.79,2.82-2.04,5.65-3.76,8.49
		s-3.69,5.62-5.91,8.32s-4.59,5.28-7.1,7.73c-2.51,2.45-4.97,4.66-7.39,6.63c-1.8,1.46-3.73,2.72-5.79,3.76
		c-2.06,1.04-4.27,1.56-6.63,1.56c-1.52,0-2.51-0.6-2.96-1.82c-0.45-1.21-0.68-2.58-0.68-4.1c0-1.46,0.13-2.93,0.38-4.39
		c0.25-1.46,0.49-2.59,0.72-3.38c0.73-2.82,1.79-5.7,3.17-8.66c1.38-2.96,3.03-5.83,4.94-8.62c1.91-2.79,4.04-5.41,6.38-7.86
		c2.34-2.45,4.8-4.58,7.39-6.38c2.59-1.8,5.28-3.24,8.07-4.31c2.79-1.07,5.56-1.61,8.32-1.61c0.96,0,1.6,0.35,1.94,1.06
		c0.34,0.71,0.51,1.42,0.51,2.15C1155.95,298.91,1155.79,300.83,1155.48,302.97z"/>
	<path class="st0" d="M1214.23,240.25c-1.8-2.22-4.31-3.34-7.52-3.34c-3.77,0-7.22,1.46-10.35,4.39c-3.13,2.93-4.69,6.36-4.69,10.31
		c0,2.7,0.9,5.05,2.7,7.05c1.8,2,4.14,3.17,7.01,3.51c-1.41,4-3.83,7.21-7.26,9.63c-2.03,1.47-3.49,2.72-4.39,3.76
		c-0.9,1.04-1.35,2.52-1.35,4.43c0,1.18,0.53,2.28,1.6,3.29c1.07,1.01,2.28,1.52,3.63,1.52c4.11,0,9.02-4.24,14.74-12.71
		c5.71-8.47,8.57-15.95,8.57-22.43C1216.93,245.61,1216.03,242.47,1214.23,240.25z"/>
	<path class="st0" d="M1278.72,282.4c-1.1-1.21-2.46-2.12-4.1-2.75c-1.63-0.62-3.44-1.01-5.41-1.18c-1.97-0.17-3.8-0.25-5.49-0.25
		c-1.86,0-3.62,0.2-5.28,0.59c-1.66,0.39-3.29,0.93-4.9,1.61c-1.61,0.68-3.2,1.49-4.77,2.45c-1.58,0.96-3.21,2.03-4.9,3.21
		c-2.31,1.13-4.52,2.53-6.63,4.22c-2.11,1.69-4,3.46-5.66,5.32c-1.66,1.86-2.99,3.73-3.97,5.62s-1.48,3.56-1.48,5.03
		c0,0.9,0.07,1.75,0.21,2.54c0.14,0.79,0.32,1.58,0.55,2.37c0.45,1.86,1.14,3.5,2.07,4.94c0.93,1.44,2,2.69,3.21,3.76
		c1.21,1.07,2.52,2.01,3.93,2.83c1.41,0.82,2.84,1.51,4.31,2.07l2.87,1.18c1.41,0.56,2.93,1.18,4.56,1.86
		c1.63,0.68,3.15,1.41,4.56,2.2c1.41,0.79,2.58,1.62,3.51,2.49c0.93,0.87,1.39,1.79,1.39,2.75c0,0.51-0.08,1.1-0.25,1.77
		c-0.28,1.24-1.45,2.44-3.51,3.59c-2.06,1.15-4.52,2.18-7.39,3.08c-2.87,0.9-5.93,1.63-9.17,2.2c-3.24,0.56-6.18,0.84-8.83,0.84
		c-0.9,0-1.63-0.06-2.2-0.17c-0.56-0.11-1.07-0.24-1.52-0.38c-0.45-0.14-0.86-0.27-1.22-0.38c-0.37-0.11-0.77-0.17-1.22-0.17
		c-0.51,0-1.06,0.21-1.65,0.63c-0.59,0.42-1.14,0.93-1.65,1.52c-0.51,0.59-0.93,1.24-1.27,1.94s-0.51,1.34-0.51,1.9
		c0,1.13,0.46,2.25,1.39,3.38c0.93,1.13,2.08,2.13,3.46,3c1.38,0.87,2.88,1.58,4.52,2.11c1.63,0.54,3.12,0.8,4.48,0.8
		c2.7,0,5.67-0.39,8.91-1.18c3.24-0.79,6.48-1.84,9.71-3.17c3.24-1.32,6.35-2.87,9.33-4.65c2.98-1.77,5.57-3.67,7.77-5.7
		c0.34-0.28,0.76-0.86,1.27-1.73s1-1.86,1.48-2.96c0.48-1.1,0.93-2.21,1.35-3.34c0.42-1.13,0.72-2.11,0.89-2.96
		c0.22-0.96,0.39-1.8,0.51-2.53c0.11-0.73,0.17-1.46,0.17-2.2c0-1.52-0.23-2.84-0.68-3.97c-0.45-1.12-1.1-2.14-1.94-3.04
		c-0.85-0.9-1.87-1.73-3.08-2.49c-1.21-0.76-2.58-1.53-4.1-2.32c-1.13-0.56-2.46-1.18-4.01-1.86s-3.14-1.35-4.77-2.03
		c-1.63-0.68-3.25-1.35-4.86-2.03c-1.6-0.68-3.03-1.35-4.27-2.03c-0.96-0.45-1.75-0.98-2.37-1.6c-0.62-0.62-0.93-1.41-0.93-2.37
		c0-0.9,0.42-1.9,1.27-3c0.84-1.1,1.96-2.21,3.34-3.34c1.38-1.13,2.93-2.22,4.65-3.29c1.72-1.07,3.48-2.01,5.28-2.83
		c1.8-0.82,3.56-1.46,5.28-1.94c1.72-0.48,3.22-0.72,4.52-0.72c1.07,0,1.97,0.25,2.7,0.76c0.73,0.51,1.44,1.06,2.11,1.65
		c0.68,0.59,1.44,1.14,2.28,1.65c0.84,0.51,1.91,0.76,3.21,0.76c0.79,0,1.46-0.37,2.03-1.1c0.56-0.73,1.04-1.61,1.44-2.62
		c0.39-1.01,0.68-2.03,0.84-3.04s0.25-1.83,0.25-2.45C1280.37,285.23,1279.82,283.61,1278.72,282.4z"/>
</g>
</svg>
