<?xml version="1.0" encoding="utf-8"?>
<!-- Generator: Adobe Illustrator 25.2.0, SVG Export Plug-In . SVG Version: 6.00 Build 0)  -->
<svg version="1.1" id="Layer_1" xmlns="http://www.w3.org/2000/svg" xmlns:xlink="http://www.w3.org/1999/xlink" x="0px" y="0px"
	 viewBox="0 0 300 200" style="enable-background:new 0 0 300 200;" xml:space="preserve">
<style type="text/css">
	.st0{fill:#FFFFFF;}
</style>
<g>
	<path class="st0" d="M157.4,55.6c0-4-2.9-6.2-7.8-6.2h-9.1c0,0,0,13,0,12.9h7.7C154.2,62.3,157.4,59.9,157.4,55.6z"/>
	<path class="st0" d="M149.5,67.5h-9v14.2h9.4c6.3,0,9.5-2.5,9.5-7.1C159.4,69.9,156,67.5,149.5,67.5z"/>
	<path class="st0" d="M190.8,53.4c-1.7-5.6-2-12.5-1.8-17.8c0.2-5.5-4.1-10.7-9.9-10.7h-59.7c-5.8,0-10.1,5.1-9.9,10.7
		c0.2,5.3-0.1,12.2-1.8,17.9c-1.7,5.6-4.7,9.1-9.4,9.6v5.1c4.8,0.5,7.7,4,9.4,9.6c1.7,5.6,2,12.5,1.8,17.8
		c-0.2,5.5,4.1,10.7,9.9,10.7H179c5.8,0,10.1-5.1,9.9-10.7c-0.2-5.3,0.1-12.2,1.8-17.8c1.7-5.6,4.7-9.1,9.4-9.6V63
		C195.4,62.5,192.5,59,190.8,53.4z M151.4,87.3h-17.8V44h17.7c7.9,0,13,4.2,13,10.8c0,4.6-3.5,8.7-7.9,9.4v0.3
		c6,0.7,10.1,4.9,10.1,10.6C166.6,82.7,160.9,87.3,151.4,87.3z"/>
</g>
<g>
	<path class="st0" d="M45.5,125c0.8,0,1.6,0.1,2.4,0.1c2.8,0,5.6,0,8.4,0.1c2.3,0,4.4,0.8,6.2,2.2c1.5,1.1,2.3,2.8,2.6,4.7
		c0.5,2.6,0,5-1.7,7c-0.7,0.9-1.4,1.4-2.4,1.9c-0.2,0.1-0.5,0.3-0.8,0.4c0.4,0.2,0.7,0.3,0.9,0.4c4.5,1.5,5.8,5.7,5.7,9
		c-0.1,2.5-0.8,4.8-2.7,6.6c-1.4,1.3-3.1,2.1-5,2.6c-2.1,0.6-4.3,0.6-6.4,0.6c-4.9,0-9.8,0-14.7,0c-0.5,0-0.6-0.1-0.6-0.6
		c0-11.4,0-22.8,0-34.2c0-0.3,0-0.5,0.3-0.7C40.4,125,42.9,125,45.5,125z M50.2,155.2L50.2,155.2c2,0,3.9,0,5.9,0c1,0,1.8-0.4,2.6-1
		c2-1.7,2.6-4.8,1.3-7.3c-0.9-1.6-2.1-2.5-3.9-2.6c-4-0.1-7.9-0.1-11.9-0.2c-0.4,0-0.6,0.1-0.6,0.6c0,3.3,0,6.7,0,10
		c0,0.4,0.1,0.5,0.5,0.5C46.2,155.2,48.2,155.2,50.2,155.2z M43.7,139.6c0.1,0,0.2,0,0.2,0c3.7,0,7.3,0,11,0c1.6,0,2.9-0.9,3.6-2.3
		c0.6-1,0.7-2.2,0.6-3.3c-0.2-2.4-1.8-3.9-4.1-4c-3.5-0.1-7.1-0.1-10.7-0.1c-0.6,0-0.7,0.1-0.7,0.7c0,2.9,0,5.7,0,8.5
		C43.6,139.3,43.7,139.5,43.7,139.6z"/>
	<path class="st0" d="M240.8,157.1c0,4.2,0,8.5,0,12.7c-1.8,0-3.6,0-5.4,0c0-11.6,0-23.2,0-35c1.6,0,3.3,0,5,0c0,0.9,0,1.7,0,2.7
		c0.2-0.1,0.3-0.1,0.4-0.2c0.4-0.3,0.8-0.6,1.1-0.9c2-1.8,4.5-2.5,7.1-2.4c3.5,0.1,6.6,1.2,8.8,4.1c1.4,1.8,2.1,3.9,2.6,6.1
		c1.1,4.9,0.1,9.3-2.9,13.3c-1.4,1.9-3.4,3-5.7,3.3c-2.1,0.3-4.2,0.2-6.3-0.5c-1.7-0.6-3.1-1.6-4.3-3c-0.1-0.1-0.2-0.3-0.3-0.4
		C240.9,157.1,240.9,157.1,240.8,157.1z M255.2,147.6c0-2.4-0.7-4.5-1.9-6.4c-2.5-3.8-8.2-4-10.8-0.3c-1.5,2.1-2.2,4.6-1.9,7.2
		c0.2,1.2,0.4,2.6,0.8,3.7c0.9,2.6,3.5,5,7.2,4.6c2.4-0.3,4.1-1.3,5.1-3.4C254.7,151.4,255.2,149.6,255.2,147.6z"/>
	<path class="st0" d="M207.1,142.4c0.1-2.7,1.2-4.8,3.3-6.3c1.3-1,3-1.5,4.7-1.8c1.8-0.3,3.6-0.4,5.3-0.2c1.7,0.2,3.4,0.6,5,1.4
		c2.4,1.2,3.4,3.3,3.4,5.9c0.1,4.3,0,8.6,0,12.9c0,0.4,0,0.8,0.1,1.1c0.1,0.6,0.4,0.9,0.9,1c0.5,0.1,1,0.2,1.3,0.2
		c0.3,0,0.5,0.1,0.4,0.5c0,0.9,0,1.8-0.1,2.7c0,0.4-0.2,0.8-0.6,0.8c-1.5,0.1-3,0.2-4.6,0.2c-1.1,0-1.9-0.7-2.4-1.7
		c-0.2-0.3-0.3-0.7-0.5-1c-0.6,0.4-1,0.8-1.6,1c-2.6,1.5-5.4,2-8.5,1.8c-1.6-0.1-3.1-0.5-4.4-1.3c-2.3-1.6-3.4-3.8-3.1-6.7
		c0.1-0.9,0.3-1.8,0.6-2.6c0.8-2.1,2.4-3.1,4.5-3.6c2-0.5,3.9-0.8,5.9-1.1c1.4-0.3,2.9-0.5,4.3-0.8c1-0.2,2-0.8,2.2-1.9
		c0.4-1.6-0.2-3.1-1.9-3.8c-1.9-0.8-3.8-0.9-5.8-0.3c-1.6,0.5-2.7,1.4-3.2,3c-0.2,0.6-0.5,0.7-1,0.7c-1.3-0.1-2.8,0-4.1,0
		C207.4,142.4,207.3,142.4,207.1,142.4z M223.4,147.8c-0.3,0-0.5,0-0.7,0.1c-0.9,0.1-1.7,0.3-2.5,0.5c-2.2,0.5-4.3,1-6.5,1.5
		c-1.4,0.4-2.1,1.5-2.2,3.2c-0.1,1.3,0.6,2.3,1.8,2.9c2.8,1.1,5.4,1,7.9-0.6c1-0.6,1.7-1.4,1.8-2.6
		C223.4,151.2,223.4,149.6,223.4,147.8z"/>
	<path class="st0" d="M126.1,147.4c-0.1,2.3-0.4,4.6-1.4,6.7c-2,4.1-5.2,6.4-9.8,6.9c-2.4,0.2-4.8,0-7-0.9c-3.4-1.2-5.6-3.5-6.8-6.9
		c-1.3-3.8-1.3-7.5,0-11.3c1.2-3.4,3.5-5.7,7-7c3.3-1.2,6.8-1.2,10.2,0c4.2,1.5,6.6,4.6,7.5,8.9C125.9,145,125.9,146.2,126.1,147.4z
		 M105.6,147.6c0,2.2,0.6,4.3,1.8,6.1c1.3,2,3.3,3,5.7,3c3-0.1,5-1.6,6.2-4.2c1.4-3.1,1.3-6.5,0.1-9.6c-1.1-2.8-3.2-4.3-6.3-4.4
		c-3-0.1-5.2,1.4-6.5,4.1C106,144.1,105.6,145.8,105.6,147.6z"/>
	<path class="st0" d="M70.6,147.5c0-2.5,0.5-4.8,1.6-7c1.4-2.8,3.6-4.7,6.6-5.6c3-1,6.1-1,9.1-0.2c3.4,1,5.9,3.1,7.3,6.4
		c1.9,4.4,1.9,8.8,0,13c-1.7,3.9-5,6.1-9.1,6.7c-2.3,0.3-4.7,0.3-6.9-0.4c-4.3-1.4-7-4.4-8-8.8C71,150.3,70.8,148.9,70.6,147.5
		C70.5,147.6,70.5,147.6,70.6,147.5z M91,147.6c0-1.9-0.4-3.6-1.2-5.2c-1.8-3.6-6-5-9.5-3.1c-1.4,0.8-2.5,1.9-3.1,3.3
		c-0.8,1.7-1.1,3.4-1,5.3c0.1,1,0.3,2,0.5,3c0.8,3.2,3.2,5.5,6.2,5.7c2.8,0.2,5.3-0.8,6.8-3.6C90.5,151.3,90.9,149.5,91,147.6z"/>
	<path class="st0" d="M146,152.4c0.2,0,0.3,0,0.5,0c1.5,0,3,0,4.5,0c0.3,0,0.5,0.1,0.6,0.4c1.9,4.2,6.7,5.2,10.4,3
		c1-0.6,1.3-1.6,1.2-2.8c-0.1-1-0.8-1.8-1.8-2.1c-2.9-0.9-5.7-1.6-8.5-2.5c-0.8-0.2-1.4-0.5-2.2-0.8c-2.6-1-4-2.9-4.2-5.6
		c-0.2-2.6,0.7-4.7,3-6.1c1-0.6,2-1,3-1.2c3.5-1,7-1,10.4,0.4c2.7,1,4.2,3,4.9,5.8c0.1,0.3,0,0.6,0,1c-0.3,0-0.6,0-0.8,0
		c-1.3,0-2.8,0-4.1,0c-0.4,0-0.7-0.1-0.9-0.5c-0.8-1.9-2.2-2.7-4.1-2.9c-1.4-0.1-2.9-0.1-4.2,0.5c-1.1,0.5-1.7,1.2-1.7,2.2
		c0,0.9,0.5,1.5,1.1,1.8c1,0.5,2,1,3,1.2c2.2,0.7,4.5,1.1,6.7,1.7c2,0.5,3.6,1.5,4.8,3.2c1.7,2.6,1.4,6-0.8,8.5
		c-1.4,1.6-3.2,2.4-5.2,2.9c-3.3,0.8-6.6,0.9-9.8-0.3c-3.6-1.2-5.5-3.8-5.9-7.6C146,152.5,146,152.5,146,152.4z"/>
	<path class="st0" d="M143.2,156.2c0,1.4,0,2.7,0,4.1c-0.8,0.1-1.6,0.3-2.4,0.3c-1.5,0.1-3,0-4.6-0.4c-2-0.5-3.2-1.8-3.5-3.9
		c-0.1-0.8-0.2-1.5-0.2-2.3c0-4.9,0-9.7,0-14.5c0-0.2,0-0.4,0-0.7c-1.4,0-2.8,0-4.2,0c0-1.3,0-2.7,0-4.1c0.2,0,0.3,0,0.5,0
		c1,0,2.1,0,3,0c0.4,0,0.6-0.1,0.6-0.6c0-2.2,0-4.4,0-6.6c0-0.2,0-0.4,0-0.6c1.9,0,3.7,0,5.6,0c0,2.5,0,5,0,7.6c1.7,0,3.4,0,5,0
		c0,1.3,0,2.7,0,4.1c-0.2,0-0.3,0-0.5,0c-1.2,0-2.6,0-3.8,0c-0.7,0-0.7,0-0.7,0.7c0,2,0,4,0,5.9c0,2.7,0,5.2,0,7.9
		c0,0.5,0.1,1,0.2,1.4c0.2,0.8,0.8,1.2,1.6,1.3c0.9,0,1.7,0,2.5,0.1C142.7,156.2,142.9,156.2,143.2,156.2z"/>
	<path class="st0" d="M170.8,138.9c0-1.3,0-2.7,0-4c1.3,0,2.7,0,4.1,0c0-2.6,0-5.1,0-7.7c1.9,0,3.7,0,5.6,0c0,2.5,0,5,0,7.5
		c1.7,0,3.3,0,5,0c0,1.3,0,2.7,0,4.1c-0.2,0-0.3,0-0.5,0c-1.3,0-2.6,0-3.9,0c-0.4,0-0.5,0.1-0.6,0.5c0,0.2,0,0.5,0,0.7
		c0,4.6,0,9.1,0,13.7c0,0.2,0,0.3,0,0.5c0.1,1.4,0.8,2.1,2.4,2.1c0.9,0,1.7,0,2.6,0c0,1.3,0,2.8,0,4.2c-0.2,0-0.5,0-0.7,0
		c-1.8,0-3.6,0-5.4,0c-2.1,0-3.7-1.3-4.1-3.4c-0.2-1.2-0.4-2.4-0.4-3.6c0-4.6,0-9.2,0-13.8c0-0.7,0-0.7-0.7-0.7
		C173.2,138.9,172,138.9,170.8,138.9z"/>
	<path class="st0" d="M190,160.2c0-8.5,0-17,0-25.4c1.7,0,3.3,0,5,0c0,1.4,0,2.8,0,4.2h0.1c0.1-0.2,0.2-0.3,0.3-0.5
		c1.3-2,2.9-3.5,5.2-4.2c1.2-0.4,2.5-0.4,3.7-0.2c0.1,0,0.3,0.2,0.3,0.3c0,1.7,0,3.3,0,5c-0.4,0-0.8-0.1-1-0.1
		c-4.4-0.6-7.1,2.4-7.8,5.5c-0.3,1-0.3,2.2-0.4,3.3c0,3.8,0,7.6,0,11.4c0,0.5-0.1,0.6-0.6,0.6c-1.4,0-3,0-4.4,0
		C190.4,160.3,190.2,160.3,190,160.2z"/>
</g>
</svg>
