<?xml version="1.0" encoding="utf-8"?>
<!-- Generator: Adobe Illustrator 25.2.0, SVG Export Plug-In . SVG Version: 6.00 Build 0)  -->
<svg version="1.1" id="Layer_1" xmlns="http://www.w3.org/2000/svg" xmlns:xlink="http://www.w3.org/1999/xlink" x="0px" y="0px"
	 viewBox="0 0 300 200" style="enable-background:new 0 0 300 200;" xml:space="preserve">
<style type="text/css">
	.st0{fill:#FFFFFF;}
</style>
<g id="Layer_2_1_">
	<g>
		<path class="st0" d="M226.3,83.5c0-10.2-12.8-19.9-32.3-25.8c4.5-19.9,2.5-35.8-6.3-40.9c-2-1.2-4.4-1.8-7-1.8v7
			c1.4,0,2.6,0.3,3.6,0.8c4.3,2.4,6.1,11.8,4.7,23.7c-0.3,2.9-0.9,6.1-1.6,9.2c-6.1-1.5-12.9-2.7-19.9-3.4
			c-4.2-5.8-8.6-11.1-13-15.7c10.2-9.5,19.8-14.7,26.3-14.7v-7c-8.6,0-19.9,6.1-31.3,16.8C138.1,21.1,126.8,15,118.2,15v7
			c6.5,0,16.1,5.2,26.3,14.6c-4.4,4.6-8.8,9.8-13,15.7c-7.1,0.8-13.8,1.9-19.9,3.4c-0.7-3.1-1.3-6.2-1.6-9.1
			c-1.5-12,0.3-21.3,4.6-23.8c0.9-0.6,2.2-0.8,3.6-0.8v-7c-2.6,0-5,0.6-7.1,1.8c-8.8,5.1-10.8,20.9-6.2,40.8
			c-19.5,6-32.2,15.7-32.2,25.8c0,10.2,12.8,19.9,32.3,25.8c-4.5,19.9-2.5,35.8,6.3,40.9c2,1.2,4.4,1.8,7.1,1.8
			c8.6,0,19.9-6.1,31.3-16.8c11.4,10.6,22.7,16.7,31.3,16.7c2.6,0,5-0.6,7.1-1.8c8.8-5.1,10.8-20.9,6.2-40.8
			C213.6,103.3,226.3,93.6,226.3,83.5L226.3,83.5z M185.5,62.5c-1.2,4-2.6,8.2-4.2,12.4c-1.3-2.5-2.6-5-4.1-7.5
			c-1.4-2.5-3-5-4.5-7.3C177,60.7,181.3,61.5,185.5,62.5L185.5,62.5z M171.1,95.9c-2.4,4.2-5,8.2-7.6,12c-4.7,0.4-9.4,0.6-14.2,0.6
			c-4.7,0-9.5-0.2-14.1-0.6c-2.6-3.7-5.1-7.7-7.6-11.9c-2.4-4.1-4.5-8.3-6.5-12.5c1.9-4.2,4.1-8.4,6.5-12.5c2.4-4.2,5-8.2,7.6-12
			c4.7-0.4,9.4-0.6,14.2-0.6c4.7,0,9.5,0.2,14.1,0.6c2.6,3.7,5.1,7.7,7.6,11.9c2.4,4.1,4.5,8.3,6.5,12.5
			C175.6,87.6,173.4,91.8,171.1,95.9z M181.2,91.9c1.6,4.1,3.1,8.3,4.3,12.5c-4.1,1-8.4,1.9-12.9,2.5c1.5-2.4,3.1-4.9,4.5-7.4
			C178.6,96.9,179.9,94.4,181.2,91.9L181.2,91.9z M149.4,125.3c-2.9-3-5.8-6.4-8.7-10c2.8,0.1,5.7,0.2,8.6,0.2
			c2.9,0,5.9-0.1,8.7-0.2C155.4,118.8,152.5,122.1,149.4,125.3z M126.1,106.9c-4.5-0.7-8.8-1.5-12.9-2.5c1.2-4,2.6-8.2,4.2-12.4
			c1.3,2.5,2.6,5,4.1,7.5C123,102,124.5,104.5,126.1,106.9z M149.3,41.6c2.9,3,5.8,6.4,8.7,10c-2.8-0.1-5.7-0.2-8.6-0.2
			c-2.9,0-5.9,0.1-8.7,0.2C143.3,48.1,146.2,44.8,149.3,41.6z M126.1,60.1c-1.5,2.4-3.1,4.9-4.5,7.4s-2.8,5-4.1,7.5
			c-1.6-4.1-3.1-8.3-4.3-12.5C117.2,61.6,121.6,60.7,126.1,60.1z M97.7,99.3c-11.1-4.7-18.3-10.9-18.3-15.9
			c0-4.9,7.2-11.2,18.3-15.9c2.7-1.2,5.6-2.2,8.7-3.2c1.8,6.1,4.1,12.5,7.1,19.1c-2.9,6.5-5.2,12.9-7,19
			C103.3,101.6,100.4,100.5,97.7,99.3L97.7,99.3z M114.5,144.2c-4.3-2.4-6.1-11.8-4.7-23.7c0.3-2.9,0.9-6.1,1.6-9.2
			c6.1,1.5,12.9,2.7,19.9,3.4c4.2,5.8,8.6,11.1,13,15.7c-10.2,9.5-19.8,14.7-26.3,14.7C116.7,145,115.5,144.7,114.5,144.2z
			 M188.9,120.3c1.5,12-0.3,21.3-4.6,23.8c-0.9,0.6-2.2,0.8-3.6,0.8c-6.5,0-16.1-5.2-26.3-14.6c4.4-4.6,8.8-9.8,13-15.7
			c7.1-0.8,13.8-1.9,19.9-3.4C188,114.3,188.6,117.3,188.9,120.3L188.9,120.3z M201,99.3c-2.7,1.2-5.6,2.2-8.7,3.2
			c-1.8-6.1-4.1-12.5-7.1-19.1c2.9-6.5,5.2-12.9,7-19c3.1,1,6.1,2,8.8,3.2c11.1,4.7,18.3,10.9,18.3,15.9
			C219.3,88.4,212.1,94.6,201,99.3L201,99.3z"/>
		<path class="st0" d="M149.3,97.8c7.9,0,14.3-6.4,14.3-14.3s-6.4-14.3-14.3-14.3c-7.9,0-14.3,6.4-14.3,14.3S141.4,97.8,149.3,97.8z
			 M79.4,176.6h-4.7v8.1H72v-20.1h6.7c2.3,0,4,0.5,5.2,1.5s1.8,2.5,1.8,4.5c0,1.3-0.3,2.3-1,3.3c-0.7,0.9-1.6,1.6-2.8,2.1l4.7,8.5
			v0.2h-2.8L79.4,176.6z M74.7,174.5h4.1c1.3,0,2.4-0.3,3.1-1c0.8-0.7,1.2-1.6,1.2-2.7c0-1.2-0.4-2.2-1.1-2.9s-1.8-1-3.2-1h-4.1
			V174.5z M95.3,185.1c-2,0-3.7-0.7-5-2s-1.9-3.1-1.9-5.4v-0.5c0-1.5,0.3-2.8,0.8-4c0.6-1.2,1.4-2.1,2.4-2.7c1-0.7,2.1-1,3.3-1
			c1.9,0,3.5,0.6,4.5,1.9c1.1,1.3,1.6,3.1,1.6,5.5v1.1H91c0,1.5,0.5,2.7,1.3,3.6c0.8,0.9,1.9,1.4,3.2,1.4c0.9,0,1.7-0.2,2.3-0.6
			c0.6-0.4,1.2-0.9,1.6-1.5l1.6,1.2C99.7,184.1,97.8,185.1,95.3,185.1L95.3,185.1z M95,171.6c-1,0-1.9,0.4-2.6,1.1
			c-0.7,0.7-1.1,1.8-1.3,3.2h7.5v-0.2c-0.1-1.3-0.4-2.3-1.1-3C96.9,172,96,171.6,95,171.6L95,171.6z M113.3,184.8
			c-0.1-0.3-0.3-0.8-0.4-1.6c-1.2,1.2-2.6,1.9-4.3,1.9c-1.5,0-2.7-0.4-3.6-1.2s-1.4-1.9-1.4-3.2c0-1.6,0.6-2.8,1.8-3.6
			c1.2-0.9,2.9-1.3,5-1.3h2.5v-1.2c0-0.9-0.3-1.6-0.8-2.1s-1.3-0.8-2.4-0.8c-0.9,0-1.7,0.2-2.3,0.7c-0.6,0.5-0.9,1-0.9,1.7H104
			c0-0.7,0.3-1.5,0.8-2.2s1.3-1.3,2.2-1.7c0.9-0.4,1.9-0.6,3-0.6c1.7,0,3.1,0.4,4.1,1.3c1,0.9,1.5,2,1.5,3.6v6.9
			c0,1.4,0.2,2.5,0.5,3.3v0.2L113.3,184.8z M109.1,182.8c0.8,0,1.6-0.2,2.3-0.6c0.7-0.4,1.2-1,1.6-1.6v-3.1h-2
			c-3.1,0-4.7,0.9-4.7,2.8c0,0.8,0.3,1.4,0.8,1.9C107.6,182.6,108.3,182.8,109.1,182.8L109.1,182.8z M125.5,183
			c0.9,0,1.7-0.3,2.4-0.8c0.7-0.6,1.1-1.2,1.1-2.1h2.4c0,0.9-0.3,1.7-0.9,2.4s-1.3,1.4-2.2,1.9c-0.9,0.5-1.9,0.7-2.9,0.7
			c-2,0-3.7-0.7-4.9-2c-1.2-1.4-1.8-3.2-1.8-5.6V177c0-1.5,0.3-2.8,0.8-3.9c0.5-1.1,1.3-2,2.3-2.6s2.2-0.9,3.6-0.9
			c1.7,0,3.1,0.5,4.2,1.5s1.7,2.3,1.8,3.9H129c-0.1-1-0.4-1.8-1.1-2.4c-0.7-0.6-1.5-0.9-2.4-0.9c-1.3,0-2.3,0.5-3,1.4
			s-1.1,2.3-1.1,4.1v0.5c0,1.7,0.4,3.1,1.1,4C123.2,182.5,124.2,183,125.5,183L125.5,183z M137.8,166.2v3.6h2.8v2h-2.8v9.3
			c0,0.6,0.1,1.1,0.4,1.4c0.2,0.3,0.7,0.4,1.3,0.4c0.3,0,0.7-0.1,1.2-0.2v2.1c-0.7,0.2-1.3,0.3-2,0.3c-1.1,0-2-0.3-2.6-1
			s-0.9-1.7-0.9-2.9v-9.3h-2.7v-2h2.7v-3.6h2.6V166.2z M166.5,184.8h-2.7l-10.1-15.5v15.5H151v-20.1h2.7l10.2,15.6v-15.6h2.6V184.8z
			 M180.1,184.8c-0.1-0.3-0.3-0.8-0.4-1.6c-1.2,1.2-2.6,1.9-4.3,1.9c-1.5,0-2.7-0.4-3.6-1.2c-0.9-0.8-1.4-1.9-1.4-3.2
			c0-1.6,0.6-2.8,1.8-3.6c1.2-0.9,2.9-1.3,5-1.3h2.5v-1.2c0-0.9-0.3-1.6-0.8-2.1s-1.3-0.8-2.4-0.8c-0.9,0-1.7,0.2-2.3,0.7
			s-0.9,1-0.9,1.7h-2.6c0-0.7,0.3-1.5,0.8-2.2s1.3-1.3,2.2-1.7s1.9-0.6,3-0.6c1.7,0,3.1,0.4,4.1,1.3c1,0.9,1.5,2,1.5,3.6v6.9
			c0,1.4,0.2,2.5,0.5,3.3v0.2L180.1,184.8z M175.8,182.8c0.8,0,1.6-0.2,2.3-0.6c0.7-0.4,1.2-1,1.6-1.6v-3.1h-2
			c-3.1,0-4.7,0.9-4.7,2.8c0,0.8,0.3,1.4,0.8,1.9C174.3,182.6,175,182.8,175.8,182.8L175.8,182.8z M189.7,166.2v3.6h2.8v2h-2.8v9.3
			c0,0.6,0.1,1.1,0.4,1.4c0.2,0.3,0.7,0.4,1.3,0.4c0.3,0,0.7-0.1,1.2-0.2v2.1c-0.7,0.2-1.3,0.3-2,0.3c-1.1,0-2-0.3-2.6-1
			s-0.9-1.7-0.9-2.9v-9.3h-2.7v-2h2.7v-3.6h2.6V166.2z M198.3,184.8h-2.6v-15h2.6V184.8z M195.5,165.8c0-0.4,0.1-0.8,0.4-1.1
			c0.3-0.3,0.6-0.4,1.1-0.4s0.9,0.1,1.1,0.4c0.3,0.3,0.4,0.6,0.4,1.1c0,0.4-0.1,0.8-0.4,1c-0.3,0.3-0.6,0.4-1.1,0.4
			s-0.9-0.1-1.1-0.4C195.7,166.6,195.5,166.3,195.5,165.8z M207.4,181.3l3.7-11.5h2.6l-5.4,15h-2l-5.4-15h2.6L207.4,181.3z
			 M222.2,185.1c-2,0-3.7-0.7-5-2s-1.9-3.1-1.9-5.4v-0.5c0-1.5,0.3-2.8,0.8-4c0.6-1.2,1.4-2.1,2.4-2.7c1-0.7,2.1-1,3.3-1
			c1.9,0,3.5,0.6,4.5,1.9c1.1,1.3,1.6,3.1,1.6,5.5v1.1h-10.1c0,1.5,0.5,2.7,1.3,3.6c0.8,0.9,1.9,1.4,3.2,1.4c0.9,0,1.7-0.2,2.3-0.6
			c0.6-0.4,1.2-0.9,1.6-1.5l1.6,1.2C226.5,184.1,224.7,185.1,222.2,185.1L222.2,185.1z M221.8,171.6c-1,0-1.9,0.4-2.6,1.1
			c-0.7,0.7-1.1,1.8-1.3,3.2h7.5v-0.2c-0.1-1.3-0.4-2.3-1.1-3C223.8,172,222.9,171.6,221.8,171.6L221.8,171.6z"/>
	</g>
</g>
<g id="Layer_3">
</g>
</svg>
