<?xml version="1.0" encoding="utf-8"?>
<!-- Generator: Adobe Illustrator 25.2.0, SVG Export Plug-In . SVG Version: 6.00 Build 0)  -->
<svg version="1.1" id="Layer_1" xmlns="http://www.w3.org/2000/svg" xmlns:xlink="http://www.w3.org/1999/xlink" x="0px" y="0px"
	 viewBox="0 0 300 200" style="enable-background:new 0 0 300 200;" xml:space="preserve">
<style type="text/css">
	.st0{fill-rule:evenodd;clip-rule:evenodd;fill:#FFFFFF;}
</style>
<g id="Layer_2_1_">
	<g>
		<g>
			<path class="st0" d="M87.1,87.4c-1.6,0.6-2.6,2.2-3.5,3.6c-1.8,3.2-2.3,7.4-0.6,10.9c0.4,1,1.3,1.9,2.4,1.9
				c1.2,0,2.3-0.7,3.1-1.5c1.9-1.8,2.7-4.4,3-7c0.3-2.4-0.1-4.9-1.5-6.9C89.4,87.4,88.2,87,87.1,87.4z"/>
			<path class="st0" d="M62,87.4c-1.5,0.5-2.5,1.9-3.3,3.1c-2,3.3-2.6,7.6-1,11.1c0.4,0.9,1.1,1.9,2.2,2.1c1.2,0.2,2.2-0.5,3-1.2
				c1.8-1.6,2.7-4,3.2-6.3c0.5-2.7,0.2-5.6-1.3-7.9C64.3,87.4,63.1,87,62,87.4z"/>
			<path class="st0" d="M100.4,73.3c-1.7-1.6-4-2.4-6.3-2.4c-26.7,0-53.2,0-79.8,0c-3.5,0-6.8,2.3-8.2,5.5c-0.6,1.4-0.8,2.9-0.7,4.5
				c0,9.9,0,19.9,0,29.9c0,4.6,4,8.7,8.6,8.8c12.8,0,25.6-0.1,38.3,0c5.8,3.1,11.5,6.4,17.3,9.6c-1.3-3.2-2.6-6.4-3.9-9.6
				c9.7,0,19.4,0,29.1,0c4.5-0.1,8.6-4.2,8.6-8.8c0-10.2,0-20.4,0-30.6C103.4,77.6,102.3,75,100.4,73.3z M45.4,111.3
				c0.1,1.5-0.6,3.3-2.2,3.7c-1.5,0.3-2.9-0.7-3.9-1.7c-4.3-4.7-6.8-10.7-8.6-16.7c-1.8,3.5-3.6,7.1-5.3,10.6
				c-1.2,2.4-2.5,4.9-4.4,6.8c-0.8,0.8-2.2,1.5-3.3,0.7c-1.6-1.4-2-3.6-2.7-5.5c-2.6-8.8-4-17.9-5.5-27c-0.3-1.5,0.3-3.3,1.8-3.9
				c1.2-0.4,2.8-0.5,3.8,0.4c0.7,0.6,0.9,1.6,1.1,2.6c1.1,7,2.3,14,4,20.9c2.9-5.5,5.8-11,8.7-16.5c0.4-0.8,1-1.6,1.7-2.1
				c1.1-0.7,2.6-0.6,3.5,0.3c0.7,0.8,1,1.9,1.2,2.9c0.9,4.5,2,9.1,3.7,13.4c0.7-6.5,1.6-13.1,4-19.2c0.7-1.5,1.2-2.8,2-3.9
				c1.4-1.5,4.2-1.1,5.4,0.7C51,78.7,51,80,50.5,81c-2,4.1-2.9,8.5-3.7,12.9C45.9,99.6,45.1,105.5,45.4,111.3z M70.6,103.6
				c-1.2,2.2-2.7,4.4-5,5.7c-3.2,2-7.6,1.7-10.7-0.3c-2.5-1.7-3.9-4.6-4.5-7.5c-1.2-6.6,0.8-13.9,5.8-18.5c1.5-1.3,3.3-2.1,5.2-2.4
				c3.1-0.4,6.5,0.7,8.6,3c1.7,2,2.7,4.5,3,7.1C73.5,95.1,72.7,99.7,70.6,103.6z M95.7,103.4c-1.2,2.3-2.8,4.5-5.1,5.8
				c-3.1,1.9-7.2,1.7-10.3-0.1c-2.1-1.3-3.5-3.4-4.3-5.6c-2.2-6.9-0.3-15,4.7-20.2c1.7-1.4,3.6-2.4,5.7-2.7c3-0.4,6.4,0.6,8.5,2.8
				c1.9,2.1,2.9,4.8,3.2,7.6C98.5,95.2,97.8,99.7,95.7,103.4z"/>
		</g>
		<path class="st0" d="M119.9,81.5c2.7-0.6,5.4-0.5,8.1,0.1c0,2.2,0,4.3,0,6.5c-2.2-0.5-4.6-1-6.7,0c-2.5,1.3-3.9,4.1-3.9,6.8
			c-0.1,2.7,0.8,5.7,3.2,7.3c2.2,1.4,5.1,1.2,7.5,0.5c0,2.2,0,4.3,0,6.5c-3.2,0.9-6.8,0.8-9.9-0.3c-3.8-1.4-6.8-4.7-7.9-8.5
			c-0.9-2.9-1-6.1-0.3-9.1C111.1,86.5,115.1,82.6,119.9,81.5 M139.5,81.2c3.3-0.4,6.8,0.1,9.5,2.2c2.6,2,3.8,5.2,4.3,8.3
			c0.4,3.4,0.3,7-0.7,10.3c-0.9,2.8-2.8,5.4-5.5,6.7c-2.7,1.3-6,1.4-8.9,0.7c-2.7-0.6-5.1-2.4-6.5-4.9c-1.9-3.3-2.2-7.2-2.1-10.9
			c0.1-3.2,1-6.5,3.1-9C134.4,82.7,136.9,81.5,139.5,81.2 M140.5,87.4c-1.4,0.3-2.2,1.7-2.6,3c-0.7,2.6-0.6,5.3-0.4,8
			c0.2,1.4,0.3,3,1.4,4.1c1.4,1.5,4.1,1.4,5.3-0.2c0.8-1,1.1-2.3,1.2-3.6c0.3-2.2,0.3-4.5,0-6.7c-0.2-1.4-0.6-2.7-1.6-3.8
			C142.9,87.4,141.6,87.1,140.5,87.4 M269.1,81.6c2.8-0.7,5.7-0.6,8.5,0c0,2.2,0,4.3,0,6.6c-2.1-0.5-4.5-1-6.6-0.1
			c-2.4,1.1-3.9,3.7-4.1,6.2c-0.3,2.9,0.5,6.2,3,7.9c2.2,1.5,5.1,1.3,7.6,0.5c0,2.2,0,4.4,0,6.6c-3.4,0.9-7.2,0.8-10.4-0.6
			c-3.6-1.5-6.4-4.8-7.4-8.6c-0.8-2.9-0.9-6-0.1-8.9C260.7,86.5,264.6,82.8,269.1,81.6 M157.5,81.8c3.1,0,6.2,0,9.3,0
			c1.1,5,2.2,10.1,3.1,15.1c0.9-5.1,2.1-10.1,3.3-15.1c3.2,0,6.4,0,9.5,0c1.3,9.1,2.5,18.2,3.7,27.3c-2.4,0-4.9,0-7.3,0
			c-0.7-6.2-1.3-12.5-2-18.7c-1.5,6.2-3,12.5-4.5,18.7c-1.6,0-3.3,0-5,0c-1.6-6.2-3.1-12.5-4.8-18.8c-0.6,6.2-1.3,12.5-1.9,18.8
			c-2.3,0-4.6,0-7,0C155.2,100,156.4,90.9,157.5,81.8 M190.9,81.8c3.1,0,6.2,0,9.3,0c1.1,5,2.2,10.1,3.1,15.1
			c0.9-5.1,2.1-10.1,3.3-15.1h9.5c1.3,9.1,2.5,18.2,3.7,27.3c-2.4,0-4.9,0-7.3,0c-0.7-6.2-1.3-12.5-2-18.7c-1.5,6.2-3,12.5-4.5,18.7
			c-1.6,0-3.3,0-5,0c-1.6-6.3-3.2-12.5-4.8-18.8c-0.6,6.3-1.3,12.5-1.9,18.8c-2.3,0-4.6,0-7,0C188.6,100,189.8,90.9,190.9,81.8
			 M221.9,81.9c5-0.1,10,0,14.9,0c0,1.9,0,3.9,0,5.8c-2.5,0-5,0-7.5,0c0,1.7,0,3.3,0,5c2.2,0,4.3,0,6.5,0c0,1.9,0,3.8,0,5.6
			c-2.2,0-4.3,0-6.5,0c0,1.6,0,3.3,0,5c2.5,0,5.1,0,7.6,0c0,1.9,0,3.9,0,5.8c-5,0-10,0-14.9,0C221.9,100.1,222,91,221.9,81.9
			 M239,81.8c3.1,0,6.2,0,9.4,0c2.9,0.1,6.1,0.8,8.2,2.9c2,1.8,2.7,4.9,1.9,7.4c-0.6,2.1-2.2,3.8-4.1,4.7c1.9,4.1,3.9,8.2,5.9,12.3
			c-2.6,0-5.2,0-7.8,0c-2-4.2-4-8.4-6.1-12.5c0,4.2,0,8.4,0,12.5c-2.5,0-4.9,0-7.4,0C239,100,239,90.9,239,81.8 M246.4,87.1
			c0,2.2,0,4.3,0,6.5c1.4-0.1,2.8-0.1,3.9-1c1.3-1,1.2-2.9,0.3-4.2C249.6,87.2,247.8,87.2,246.4,87.1 M279.7,81.9c5,0,9.9,0,14.9,0
			c0,1.9,0,3.9,0,5.8c-2.5,0-5.1,0-7.6,0c0,1.7,0,3.3,0,5c2.2,0,4.3,0,6.5,0c0,1.9,0,3.8,0,5.6H287c0,1.7,0,3.3,0,5
			c2.6,0,5.1,0,7.6,0c0,1.9,0,3.9,0,5.8c-5,0-10,0-14.9,0C279.7,100,279.7,90.9,279.7,81.9"/>
	</g>
</g>
<g id="Layer_3">
</g>
</svg>
