<?xml version="1.0" encoding="utf-8"?>
<!-- Generator: Adobe Illustrator 25.2.0, SVG Export Plug-In . SVG Version: 6.00 Build 0)  -->
<svg version="1.1" xmlns="http://www.w3.org/2000/svg" xmlns:xlink="http://www.w3.org/1999/xlink" x="0px" y="0px"
	 viewBox="0 0 300 200" style="enable-background:new 0 0 300 200;" xml:space="preserve">
<style type="text/css">
	.st0{fill:#FA0C00;}
</style>
<g id="Layer_2">
	<g>
		<path class="st0" d="M48.1,64.1H19.3V133L48.1,64.1z"/>
		<path class="st0" d="M68.4,64.1h28.8V133L68.4,64.1z"/>
		<path class="st0" d="M58.3,89.5L76.6,133h-12l-5.5-13.9H45.7L58.3,89.5z"/>
	</g>
	<g>
		<path class="st0" d="M144.2,108.9l3.4,9.7c0.1,0.2,0.3,0.4,0.6,0.4h6.5c0.4,0,0.4-0.2,0.4-0.5L141.6,81c-0.1-0.3-0.1-0.4-0.4-0.4
			h-8.1c-0.2,0-0.4,0.2-0.4,0.4c-0.1,2-0.3,2.6-0.5,3.2l-12,34.2c-0.1,0.4,0.1,0.6,0.4,0.6h5.8c0.4,0,0.5-0.1,0.7-0.5l3.2-9.6H144.2
			z M132.1,102.6c1.8-5.3,4.1-12.2,5-16.1h0.1c1.2,4.1,3.9,12.2,5.1,16.1H132.1z"/>
		<path class="st0" d="M172.4,119.6c3.5,0,7.2-0.6,11-2.3c0.3-0.1,0.4-0.2,0.4-0.5c-0.1-1.1-0.2-2.6-0.2-3.7V77.8
			c0-0.2,0-0.3-0.3-0.3h-6.4c-0.2,0-0.4,0.1-0.4,0.4v12c-1-0.1-1.7-0.2-2.5-0.2c-10.3,0-16.6,6.8-16.6,15.2
			C157.5,114.7,164,119.6,172.4,119.6z M176.6,113.1c-1.1,0.3-2.2,0.5-3.4,0.5c-4.7,0-8.5-2.6-8.5-9c0-5.7,3.9-9,9.1-9
			c1.1,0,2,0.1,2.7,0.4V113.1z"/>
		<path class="st0" d="M204.1,89.7c-8.8,0-14.2,6.7-14.2,15c0,7.4,4.3,14.9,14.1,14.9c8.2,0,14-6.1,14-15.1
			C218,96.5,213.1,89.7,204.1,89.7z M203.8,95.6c5,0,7.1,4.3,7.1,9.1c0,6-3.1,9-6.7,9c-4.4,0-7.1-3.7-7.1-9.1
			C197.1,99,199.9,95.6,203.8,95.6z"/>
		<path class="st0" d="M224.6,77.5c-0.2,0-0.4,0.1-0.4,0.4v40c0,0.2,0.2,0.5,0.4,0.5c2.8,0.9,5.7,1.3,8.7,1.3
			c8.7,0,17.1-5.4,17.1-16.2c0-7.8-5.4-13.8-13.8-13.8c-1.9,0-3.7,0.3-5.3,0.8l-0.1-12.6c0-0.4-0.1-0.5-0.5-0.5H224.6z M243.2,104.2
			c0,6.5-4.4,9.5-9.2,9.5c-1,0-1.9-0.1-2.7-0.3v-17c0.9-0.4,2-0.7,4.1-0.7C240,95.7,243.2,98.6,243.2,104.2z"/>
		<path class="st0" d="M274.2,106.3c2.9,0,5.2-0.1,6-0.2c0.3-0.1,0.4-0.2,0.5-0.4c0.2-0.6,0.2-2,0.2-3.6c0-5.6-3.3-12.3-12-12.3
			c-8.8,0-13.7,7.2-13.7,15.3c0,7.2,3.8,14.7,14.4,14.7c4,0,6.6-0.6,8.8-1.7c0.2-0.1,0.3-0.3,0.3-0.6v-4.9c0-0.3-0.2-0.3-0.3-0.2
			c-2.2,0.9-4.6,1.4-7.2,1.4c-6,0-8.7-3.3-8.8-7.4H274.2z M262.3,101.2c0.5-2.9,2.3-6,6.3-6c4.4,0,5.6,3.7,5.6,5.4
			c0,0.1,0,0.3,0,0.5c-0.2,0.1-1,0.1-3.2,0.1H262.3z"/>
	</g>
</g>
<g id="Layer_3">
</g>
</svg>
