<?xml version="1.0" encoding="utf-8"?>
<!-- Generator: Adobe Illustrator 25.2.0, SVG Export Plug-In . SVG Version: 6.00 Build 0)  -->
<svg version="1.1" id="Layer_1" xmlns="http://www.w3.org/2000/svg" xmlns:xlink="http://www.w3.org/1999/xlink" x="0px" y="0px"
	 viewBox="0 0 300 200" style="enable-background:new 0 0 300 200;" xml:space="preserve">
<style type="text/css">
	.st0{fill:url(#SVGID_1_);}
	.st1{fill:url(#SVGID_2_);stroke:#FFFFFF;}
	.st2{fill:url(#SVGID_3_);}
	.st3{fill:url(#SVGID_4_);}
	.st4{fill:url(#SVGID_5_);}
	.st5{fill:url(#SVGID_6_);}
	.st6{fill:url(#SVGID_7_);}
	.st7{fill:url(#SVGID_8_);}
	.st8{fill:url(#SVGID_9_);}
	.st9{fill:url(#SVGID_10_);}
	.st10{fill:url(#SVGID_11_);}
</style>
<linearGradient id="SVGID_1_" gradientUnits="userSpaceOnUse" x1="104.3545" y1="171.7111" x2="197.9897" y2="97.3834" gradientTransform="matrix(1 0 0 -1 0 202)">
	<stop  offset="0" style="stop-color:#9013FE"/>
	<stop  offset="1" style="stop-color:#6610F2"/>
</linearGradient>
<path class="st0" d="M105.4,32.7c-0.2-5.8,4.3-11.2,10.4-11.2h62.7c6.1,0,10.6,5.4,10.4,11.2c-0.2,5.6,0.1,12.8,1.9,18.7
	c1.8,5.9,4.9,9.6,9.9,10.1V67c-5,0.5-8.1,4.2-9.9,10.1c-1.8,5.9-2.1,13.1-1.9,18.7c0.2,5.8-4.3,11.2-10.4,11.2h-62.7
	c-6.1,0-10.6-5.4-10.4-11.2c0.2-5.6-0.1-12.8-1.9-18.7c-1.8-5.9-4.9-9.6-9.9-10.1v-5.4c5-0.5,8.1-4.2,9.9-10.1
	C105.3,45.5,105.6,38.3,105.4,32.7z"/>
<linearGradient id="SVGID_2_" gradientUnits="userSpaceOnUse" x1="133.1512" y1="156.9216" x2="154.0811" y2="121.5244" gradientTransform="matrix(1 0 0 -1 0 202)">
	<stop  offset="0" style="stop-color:#FFFFFF"/>
	<stop  offset="1" style="stop-color:#F1E5FC"/>
</linearGradient>
<path class="st1" d="M149.5,87c9.9,0,15.9-4.8,15.9-12.8c0-6-4.3-10.4-10.6-11.1v-0.3c4.6-0.8,8.3-5.1,8.3-9.9
	c0-6.9-5.4-11.3-13.7-11.3h-18.6V87H149.5z M138,47.3h9.6c5.2,0,8.2,2.3,8.2,6.5c0,4.5-3.4,7-9.7,7H138C138,60.9,138,47.3,138,47.3z
	 M138,81.2V66.3h9.5c6.8,0,10.4,2.5,10.4,7.4c0,4.9-3.4,7.5-10,7.5H138z"/>
<g>
	<linearGradient id="SVGID_3_" gradientUnits="userSpaceOnUse" x1="20.3169" y1="136.8067" x2="186.7767" y2="196.5364">
		<stop  offset="0" style="stop-color:#9013FE"/>
		<stop  offset="1" style="stop-color:#6610F2"/>
	</linearGradient>
	<path class="st2" d="M41.2,126.6c0.8,0,1.7,0.1,2.5,0.1c2.9,0,5.9,0,8.8,0.1c2.4,0,4.6,0.8,6.5,2.3c1.6,1.2,2.4,2.9,2.7,4.9
		c0.5,2.7,0,5.2-1.8,7.4c-0.7,0.9-1.5,1.5-2.5,2c-0.2,0.1-0.5,0.3-0.8,0.4c0.4,0.2,0.7,0.3,0.9,0.4c4.7,1.6,6.1,6,6,9.4
		c-0.1,2.6-0.8,5-2.8,6.9c-1.5,1.4-3.3,2.2-5.2,2.7c-2.2,0.6-4.5,0.6-6.7,0.6c-5.1,0-10.3,0-15.4,0c-0.5,0-0.6-0.1-0.6-0.6
		c0-12,0-23.9,0-35.9c0-0.3,0-0.5,0.3-0.7C35.8,126.6,38.5,126.6,41.2,126.6z M46.1,158.3C46.1,158.3,46.1,158.3,46.1,158.3
		c2.1,0,4.1,0,6.2,0c1,0,1.9-0.4,2.7-1c2.1-1.8,2.7-5,1.4-7.7c-0.9-1.7-2.2-2.6-4.1-2.7c-4.2-0.1-8.3-0.1-12.5-0.2
		c-0.4,0-0.6,0.1-0.6,0.6c0,3.5,0,7,0,10.5c0,0.4,0.1,0.5,0.5,0.5C41.9,158.3,44,158.3,46.1,158.3z M39.3,142c0.1,0,0.2,0,0.2,0
		c3.9,0,7.7,0,11.6,0c1.7,0,3-0.9,3.8-2.4c0.6-1.1,0.7-2.3,0.6-3.5c-0.2-2.5-1.9-4.1-4.3-4.2c-3.7-0.1-7.5-0.1-11.2-0.1
		c-0.6,0-0.7,0.1-0.7,0.7c0,3,0,6,0,8.9C39.2,141.6,39.3,141.8,39.3,142z"/>
	<linearGradient id="SVGID_4_" gradientUnits="userSpaceOnUse" x1="40.6303" y1="80.1958" x2="207.09" y2="139.9254">
		<stop  offset="0" style="stop-color:#9013FE"/>
		<stop  offset="1" style="stop-color:#6610F2"/>
	</linearGradient>
	<path class="st3" d="M246.2,160.3c0,4.4,0,8.9,0,13.3c-1.9,0-3.8,0-5.7,0c0-12.2,0-24.4,0-36.7c1.7,0,3.5,0,5.3,0
		c0,0.9,0,1.8,0,2.8c0.2-0.1,0.3-0.1,0.4-0.2c0.4-0.3,0.8-0.6,1.2-0.9c2.1-1.9,4.7-2.6,7.5-2.5c3.7,0.1,6.9,1.3,9.2,4.3
		c1.5,1.9,2.2,4.1,2.7,6.4c1.2,5.1,0.1,9.8-3,14c-1.5,2-3.6,3.2-6,3.5c-2.2,0.3-4.4,0.2-6.6-0.5c-1.8-0.6-3.3-1.7-4.5-3.1
		c-0.1-0.1-0.2-0.3-0.3-0.4C246.3,160.3,246.3,160.3,246.2,160.3z M261.3,150.4c0-2.5-0.7-4.7-2-6.7c-2.6-4-8.6-4.2-11.3-0.3
		c-1.6,2.2-2.3,4.8-2,7.6c0.2,1.3,0.4,2.7,0.8,3.9c0.9,2.7,3.7,5.3,7.6,4.8c2.5-0.3,4.3-1.4,5.4-3.6
		C260.8,154.3,261.3,152.4,261.3,150.4z"/>
	<linearGradient id="SVGID_5_" gradientUnits="userSpaceOnUse" x1="38.9482" y1="84.8836" x2="205.4079" y2="144.6132">
		<stop  offset="0" style="stop-color:#9013FE"/>
		<stop  offset="1" style="stop-color:#6610F2"/>
	</linearGradient>
	<path class="st4" d="M210.8,144.9c0.1-2.8,1.3-5,3.5-6.6c1.4-1.1,3.1-1.6,4.9-1.9c1.9-0.3,3.8-0.4,5.6-0.2c1.8,0.2,3.6,0.6,5.3,1.5
		c2.5,1.3,3.6,3.5,3.6,6.2c0.1,4.5,0,9,0,13.5c0,0.4,0,0.8,0.1,1.2c0.1,0.6,0.4,0.9,0.9,1c0.5,0.1,1,0.2,1.4,0.2
		c0.3,0,0.5,0.1,0.4,0.5c0,0.9,0,1.9-0.1,2.8c0,0.4-0.2,0.8-0.6,0.8c-1.6,0.1-3.2,0.2-4.8,0.2c-1.2,0-2-0.7-2.5-1.8
		c-0.2-0.3-0.3-0.7-0.5-1c-0.6,0.4-1.1,0.8-1.7,1.1c-2.7,1.6-5.7,2.1-8.9,1.9c-1.7-0.1-3.3-0.5-4.6-1.4c-2.4-1.7-3.6-4-3.3-7
		c0.1-0.9,0.3-1.9,0.6-2.7c0.8-2.2,2.5-3.3,4.7-3.8c2.1-0.5,4.1-0.8,6.2-1.2c1.5-0.3,3-0.5,4.5-0.8c1.1-0.2,2.1-0.8,2.3-2
		c0.4-1.7-0.2-3.3-2-4c-2-0.8-4-0.9-6.1-0.3c-1.7,0.5-2.8,1.5-3.4,3.1c-0.2,0.6-0.5,0.7-1,0.7c-1.4-0.1-2.9,0-4.3,0
		C211.2,144.9,211,144.9,210.8,144.9z M227.9,150.6c-0.3,0-0.5,0-0.7,0.1c-0.9,0.1-1.8,0.3-2.6,0.5c-2.3,0.5-4.5,1-6.8,1.6
		c-1.5,0.4-2.2,1.6-2.3,3.4c-0.1,1.4,0.6,2.4,1.9,3c2.9,1.2,5.7,1,8.3-0.6c1-0.6,1.8-1.5,1.9-2.7
		C227.9,154.1,227.9,152.4,227.9,150.6z"/>
	<linearGradient id="SVGID_6_" gradientUnits="userSpaceOnUse" x1="26.4977" y1="119.5817" x2="192.9574" y2="179.3113">
		<stop  offset="0" style="stop-color:#9013FE"/>
		<stop  offset="1" style="stop-color:#6610F2"/>
	</linearGradient>
	<path class="st5" d="M125.8,150.1c-0.1,2.4-0.4,4.8-1.5,7c-2.1,4.3-5.5,6.7-10.3,7.2c-2.5,0.2-5,0-7.3-0.9
		c-3.6-1.3-5.9-3.7-7.1-7.2c-1.4-4-1.4-7.9,0-11.9c1.3-3.6,3.7-6,7.3-7.3c3.5-1.3,7.1-1.3,10.7,0c4.4,1.6,6.9,4.8,7.9,9.3
		C125.6,147.6,125.6,148.9,125.8,150.1z M104.3,150.4c0,2.3,0.6,4.5,1.9,6.4c1.4,2.1,3.5,3.2,6,3.1c3.1-0.1,5.3-1.7,6.5-4.4
		c1.5-3.3,1.4-6.8,0.1-10.1c-1.2-2.9-3.4-4.5-6.6-4.6c-3.2-0.1-5.5,1.5-6.8,4.3C104.7,146.7,104.3,148.5,104.3,150.4z"/>
	<linearGradient id="SVGID_7_" gradientUnits="userSpaceOnUse" x1="22.9582" y1="129.4458" x2="189.418" y2="189.1754">
		<stop  offset="0" style="stop-color:#9013FE"/>
		<stop  offset="1" style="stop-color:#6610F2"/>
	</linearGradient>
	<path class="st6" d="M67.5,150.2c0-2.6,0.5-5,1.7-7.3c1.5-2.9,3.8-4.9,6.9-5.9c3.2-1,6.4-1.1,9.6-0.2c3.6,1,6.2,3.3,7.7,6.7
		c2,4.6,2,9.2,0,13.7c-1.8,4.1-5.2,6.4-9.6,7c-2.4,0.3-4.9,0.3-7.2-0.4c-4.5-1.5-7.3-4.6-8.4-9.2c-0.3-1.4-0.5-2.9-0.7-4.4
		C67.4,150.3,67.4,150.3,67.5,150.2z M88.9,150.4c0-2-0.4-3.8-1.3-5.5c-1.9-3.8-6.3-5.3-10-3.3c-1.5,0.8-2.6,2-3.3,3.5
		c-0.8,1.8-1.2,3.6-1.1,5.6c0.1,1.1,0.3,2.1,0.5,3.2c0.8,3.4,3.4,5.8,6.5,6c2.9,0.2,5.6-0.8,7.1-3.8
		C88.4,154.2,88.8,152.3,88.9,150.4z"/>
	<linearGradient id="SVGID_8_" gradientUnits="userSpaceOnUse" x1="31.7811" y1="104.8573" x2="198.2409" y2="164.587">
		<stop  offset="0" style="stop-color:#9013FE"/>
		<stop  offset="1" style="stop-color:#6610F2"/>
	</linearGradient>
	<path class="st7" d="M146.7,155.4c0.2,0,0.3,0,0.5,0c1.6,0,3.2,0,4.7,0c0.3,0,0.5,0.1,0.6,0.4c2,4.4,7,5.5,10.9,3.1
		c1.1-0.6,1.4-1.7,1.3-2.9c-0.1-1.1-0.8-1.9-1.9-2.2c-3-0.9-6-1.7-8.9-2.6c-0.8-0.2-1.5-0.5-2.3-0.8c-2.7-1.1-4.2-3-4.4-5.9
		c-0.2-2.7,0.7-4.9,3.1-6.4c1-0.6,2.1-1,3.2-1.3c3.7-1.1,7.3-1,10.9,0.4c2.8,1.1,4.4,3.2,5.1,6.1c0.1,0.3,0,0.6,0,1
		c-0.3,0-0.6,0-0.8,0c-1.4,0-2.9,0-4.3,0c-0.4,0-0.7-0.1-0.9-0.5c-0.8-2-2.3-2.8-4.3-3c-1.5-0.1-3-0.1-4.4,0.5
		c-1.2,0.5-1.8,1.3-1.8,2.3c0,0.9,0.5,1.6,1.2,1.9c1,0.5,2.1,1,3.2,1.3c2.3,0.7,4.7,1.2,7,1.8c2.1,0.5,3.8,1.6,5,3.4
		c1.8,2.7,1.5,6.3-0.8,8.9c-1.5,1.7-3.4,2.5-5.5,3c-3.5,0.8-6.9,0.9-10.3-0.3c-3.8-1.3-5.8-4-6.2-8
		C146.7,155.5,146.7,155.5,146.7,155.4z"/>
	<linearGradient id="SVGID_9_" gradientUnits="userSpaceOnUse" x1="30.6623" y1="107.9754" x2="197.122" y2="167.7051">
		<stop  offset="0" style="stop-color:#9013FE"/>
		<stop  offset="1" style="stop-color:#6610F2"/>
	</linearGradient>
	<path class="st8" d="M143.7,159.4c0,1.5,0,2.8,0,4.3c-0.8,0.1-1.7,0.3-2.5,0.3c-1.6,0.1-3.2,0-4.8-0.4c-2.1-0.5-3.4-1.9-3.7-4.1
		c-0.1-0.8-0.2-1.6-0.2-2.4c0-5.1,0-10.2,0-15.2c0-0.2,0-0.4,0-0.7c-1.5,0-2.9,0-4.4,0c0-1.4,0-2.8,0-4.3c0.2,0,0.3,0,0.5,0
		c1.1,0,2.2,0,3.2,0c0.4,0,0.6-0.1,0.6-0.6c0-2.3,0-4.6,0-6.9c0-0.2,0-0.4,0-0.6c2,0,3.9,0,5.9,0c0,2.6,0,5.3,0,8c1.8,0,3.6,0,5.3,0
		c0,1.4,0,2.8,0,4.3c-0.2,0-0.3,0-0.5,0c-1.3,0-2.7,0-4,0c-0.7,0-0.7,0-0.7,0.7c0,2.1,0,4.2,0,6.2c0,2.8,0,5.5,0,8.3
		c0,0.5,0.1,1,0.2,1.5c0.2,0.8,0.8,1.3,1.7,1.4c0.9,0,1.8,0,2.6,0.1C143.2,159.4,143.4,159.4,143.7,159.4z"/>
	<linearGradient id="SVGID_10_" gradientUnits="userSpaceOnUse" x1="35.7357" y1="93.8363" x2="202.1954" y2="153.566">
		<stop  offset="0" style="stop-color:#9013FE"/>
		<stop  offset="1" style="stop-color:#6610F2"/>
	</linearGradient>
	<path class="st9" d="M172.7,141.2c0-1.4,0-2.8,0-4.2c1.4,0,2.8,0,4.3,0c0-2.7,0-5.4,0-8.1c2,0,3.9,0,5.9,0c0,2.6,0,5.2,0,7.9
		c1.8,0,3.5,0,5.3,0c0,1.4,0,2.8,0,4.3c-0.2,0-0.3,0-0.5,0c-1.4,0-2.7,0-4.1,0c-0.4,0-0.5,0.1-0.6,0.5c0,0.2,0,0.5,0,0.7
		c0,4.8,0,9.6,0,14.4c0,0.2,0,0.3,0,0.5c0.1,1.5,0.8,2.2,2.5,2.2c0.9,0,1.8,0,2.7,0c0,1.4,0,2.9,0,4.4c-0.2,0-0.5,0-0.7,0
		c-1.9,0-3.8,0-5.7,0c-2.2,0-3.9-1.4-4.3-3.6c-0.2-1.3-0.4-2.5-0.4-3.8c0-4.8,0-9.7,0-14.5c0-0.7,0-0.7-0.7-0.7
		C175.2,141.2,174,141.2,172.7,141.2z"/>
	<linearGradient id="SVGID_11_" gradientUnits="userSpaceOnUse" x1="36.6883" y1="91.1816" x2="203.148" y2="150.9113">
		<stop  offset="0" style="stop-color:#9013FE"/>
		<stop  offset="1" style="stop-color:#6610F2"/>
	</linearGradient>
	<path class="st10" d="M192.9,163.6c0-8.9,0-17.8,0-26.7c1.8,0,3.5,0,5.3,0c0,1.5,0,2.9,0,4.4c0,0,0.1,0,0.1,0
		c0.1-0.2,0.2-0.3,0.3-0.5c1.4-2.1,3-3.7,5.5-4.4c1.3-0.4,2.6-0.4,3.9-0.2c0.1,0,0.3,0.2,0.3,0.3c0,1.8,0,3.5,0,5.3
		c-0.4,0-0.8-0.1-1.1-0.1c-4.6-0.6-7.5,2.5-8.2,5.8c-0.3,1.1-0.3,2.3-0.4,3.5c0,4,0,8,0,12c0,0.5-0.1,0.6-0.6,0.6
		c-1.5,0-3.1,0-4.6,0C193.3,163.7,193.1,163.7,192.9,163.6z"/>
</g>
</svg>
