<?xml version="1.0" encoding="utf-8"?>
<!-- Generator: Adobe Illustrator 25.2.0, SVG Export Plug-In . SVG Version: 6.00 Build 0)  -->
<svg version="1.1" id="Layer_1" xmlns="http://www.w3.org/2000/svg" xmlns:xlink="http://www.w3.org/1999/xlink" x="0px" y="0px"
	 viewBox="0 0 300 200" style="enable-background:new 0 0 300 200;" xml:space="preserve">
<style type="text/css">
	.st0{fill:#6BA0AB;}
</style>
<g id="Layer_3">
</g>
<g>
	<path class="st0" d="M97,98.2L97,98.2l-1.9,6.6L97,98.2z M106.5,112.5l-2,0L106.5,112.5z M106,122.4L106,122.4l-12.3,0L106,122.4z
		 M108.6,112.5l-2,0L108.6,112.5z M107.1,121.5l2.1-8.2L107.1,121.5L107.1,121.5L107.1,121.5z M152.3,84l-4,18.7L152.3,84z M142,84
		l-3,14L142,84L142,84z"/>
	<path class="st0" d="M151.6,83.1h-8.5c-0.5,0-0.9,0.4-1,0.8l-3,14l-3,14c-0.1,0.5-0.6,0.8-1,0.8h-6c-6,0-5.3-4.1-4.1-9.8l0-0.2
		l0.1-0.7c0,0,0-0.1,0-0.1l0.3-1.5l0.3-1.6c0.1-0.5,0.2-1.2,0.3-1.6l1.4-6.7l1.4-6.7c0.1-0.5-0.2-0.8-0.7-0.8h-8.7
		c-0.5,0-0.9,0.4-1,0.8l-1.9,8.9l-1.9,8.9c0,0,0,0,0,0l-0.2,0.8c-2.2,9.9-1.6,19.3,10.2,19.6c0.2,0,0.3,0,0.3,0h18.5
		c0.5,0,0.9-0.4,1-0.8l4-18.7l4-18.7C152.3,83.5,152,83.1,151.6,83.1L151.6,83.1z M185.5,112.9c0.5,0,0.8,0.4,0.7,0.8l-0.8,4
		 M184.6,121.8l0.8-4L184.6,121.8L184.6,121.8z M183.5,122.7L183.5,122.7c-2.5,0-10,0.1-15.7,0.1
		C174.7,122.8,183.5,122.7,183.5,122.7z M162.8,107.7c0-0.4,0.5-1.2,1-1.2l-1.1,0C162.2,111.3,162.8,107.7,162.8,107.7z"/>
	<path class="st0" d="M168.6,122.8c-0.1,0-0.1,0-0.2,0C168.5,122.8,168.6,122.8,168.6,122.8z M185.5,112.9c0.5,0,0.8,0.4,0.7,0.8
		l-0.8,4l-0.1,0.7 M172.7,122.7L172.7,122.7L172.7,122.7z M170.6,122.7h-0.1H170.6z M169.9,122.7c-0.1,0-0.1,0-0.2,0
		C169.8,122.7,169.9,122.7,169.9,122.7z M169.3,122.8h-0.2H169.3z M170.4,122.7l-0.5,0L170.4,122.7z M183.5,122.7
		c-1.8,0-6.4,0-10.9,0.1C177.2,122.7,181.7,122.7,183.5,122.7z M184.6,121.8l0.7-3.4L184.6,121.8L184.6,121.8L184.6,121.8z
		 M169.7,122.8h-0.4H169.7z M168.5,122.8h-0.6H168.5z M169.1,122.8h-0.5H169.1z M44.5,107.8l1.3-5.9l-1.5,6.7l-1.5,6.8l1.3-6
		C44.3,109,44.4,108.3,44.5,107.8L44.5,107.8z M60.4,83H51c-0.5,0-0.9,0.4-1.1,0.8l-0.9,3.9l-0.9,3.9c-0.1,0.5,0.2,0.8,0.7,0.8h9.4
		c0.5,0,0.9-0.4,1-0.8l0.9-3.9l0.9-3.9v0C61.1,83.4,60.8,83,60.4,83L60.4,83z M58.3,96.1L58.3,96.1l-2.7,12.7L58.3,96.1L58.3,96.1z
		 M31.2,138.1c0,0,4.7,0.1,7.7,0.1C36.6,138.2,32.8,138.1,31.2,138.1L31.2,138.1C31.2,138.1,31.2,138.1,31.2,138.1z M47.2,96.1
		l-1.3,5.9L47.2,96.1z"/>
	<path class="st0" d="M57.7,95.2h-9.4c-0.5,0-0.9,0.4-1,0.8l-1.3,5.9l-1.3,5.9c-0.1,0.5-0.3,1.2-0.4,1.7l-1.3,6l-1.3,6
		c-0.1,0.5-0.3,1.2-0.5,1.7c0,0-1.8,5.2-4.7,5.2c-0.1,0-0.2,0-0.4,0c-1.4,0-2.6,0-2.6,0h0c-0.5,0-0.9,0.4-1.1,0.8l-1,4.1l-1,4.1
		c-0.1,0.5,0.2,0.8,0.7,0.8c1.7,0,5.4,0.1,7.7,0.1c7.4,0,11.3-4.1,13.8-15.9l2.9-13.5l2.7-12.7C58.4,95.6,58.1,95.2,57.7,95.2
		L57.7,95.2z M191.5,122.3c-0.5,0-0.8-0.4-0.7-0.8l7.1-33.2 M201.4,121.4l2.9-14.2L201.4,121.4z"/>
	<path class="st0" d="M191,121.9c-0.1-0.2,0-0.8,0.1-1.3l3.4-15.8l-3.5,16.6c-0.1,0.5,0.2,0.8,0.7,0.8h0.9
		C191.9,122.3,191,122.1,191,121.9z M200.8,122.1c-0.3,0.1-0.9,0.2-1.3,0.2h0.9c0.5,0,0.9-0.4,1-0.8l0.2-0.8
		C201.5,121,201.1,122,200.8,122.1L200.8,122.1z M202.8,114.3l1.3-6.3c0,0,0,0,0,0L202.8,114.3L202.8,114.3z M230.8,90.4l0.4,1.6
		c0.1,0.5-0.2,0.8-0.7,0.8 M201.6,120.6l1.3-6.2L201.6,120.6z M230.4,88.8l0.4,1.7L230.4,88.8z M204.1,108.1
		c0.1-0.5,0.2-1.2,0.3-1.7l1.4-6.3l-1.5,7.2L204.1,108.1z M198.1,87.7c-0.1,0.4-0.2,1-0.3,1.4l-3.4,15.8l3.5-16.6L198.1,87.7z"/>
	<path class="st0" d="M231.2,92.1l-0.4-1.6l-0.4-1.7l-0.2-0.8c-0.8-3-3-4.7-7.9-4.7l-7.6,0l-7,0h-7.9c-0.5,0-0.9,0.4-1,0.8l-0.3,1.6
		l-0.4,1.9l-0.1,0.5l-3.5,16.6l-3.4,15.8c-0.1,0.5-0.1,1-0.1,1.3c0.1,0.2,1,0.4,1.4,0.4h7.1c0.5,0,1.1-0.1,1.3-0.2
		c0.3-0.1,0.6-1,0.7-1.5l1.3-6.2l1.3-6.2c0,0,0,0,0,0l0.2-0.8l1.5-7.2l1.4-6.3c0.1-0.5,0.6-0.8,1-0.8l22.3,0
		C231,92.9,231.3,92.5,231.2,92.1L231.2,92.1z"/>
	<path class="st0" d="M260,77.5c-0.5,0-1.2,0-1.7,0h-7.2c-0.5,0-1.1,0.3-1.3,0.7l-15.8,23.2c-0.3,0.4-0.6,0.3-0.7-0.1l-1.2-5.1
		c-0.1-0.5-0.6-0.8-1.1-0.8h-10.2c-0.5,0-0.8,0.4-0.6,0.8l4.6,16c0.1,0.5,0.1,1.2,0,1.7l-2,7.7c-0.1,0.5,0.2,0.8,0.6,0.8h10
		c0.5,0,1-0.4,1.1-0.8l2-7.7c0.1-0.5,0.4-1.1,0.7-1.5L263,78.1c0.3-0.4,0.1-0.7-0.3-0.7L260,77.5L260,77.5z M179.2,97.5L179.2,97.5
		c-0.1,0.5-0.5,0.9-1,0.9h-12.9c-0.4,0-0.7-0.3-0.6-0.7c0,0,0,0,0,0c0,0,0,0,0,0c0,0,0,0,0,0c0,0,0-0.1,0.1-0.2
		c1.2-3.3,3.7-5.4,8.5-5.4C178.5,91.9,179.5,94.5,179.2,97.5L179.2,97.5z M175.4,82.6c-16.5,0-20.5,10-22.7,20.2
		c-2.2,10.3-2,20,15.1,20h0.6c0.1,0,0.1,0,0.2,0h1.1c0.1,0,0.1,0,0.2,0l0.5,0h0.1c0.7,0,1.4,0,2.1,0h0c4.5,0,9.1-0.1,10.9-0.1
		c0.5,0,0.9-0.4,1-0.8l0.7-3.4l0.1-0.7l0.8-4c0.1-0.5-0.2-0.8-0.7-0.8h-15.4c-6.1,0-7.9-1.6-7.3-6.4h24.6l0,0c0,0,0,0,0,0
		c0.4,0,0.8-0.3,0.9-0.6c0-0.1,0-0.1,0.1-0.2l0,0C192.1,91.9,191.1,82.6,175.4,82.6L175.4,82.6z M97.2,97.4L97,98.2l0,0l-1.9,6.6
		l-1.9,6.6c-0.1,0.5-0.6,0.8-1.1,0.8h-9.8c-7.5,0-9.3-5.8-7.5-14.4C76.7,89,80.2,83.5,87.6,83C97.6,82.2,99.6,89.3,97.2,97.4
		L97.2,97.4z M103.9,111.7c0,0,4.6-11.3,5.7-17.8c1.4-8.7-2.9-21.3-19.8-21.3c-16.7,0-24,12.1-26.8,25.2
		c-2.8,13.2,0.9,24.8,17.5,24.7l13.1,0l12.3,0c0.5,0,1-0.4,1.1-0.8l2.1-8.2c0.1-0.5-0.2-0.8-0.6-0.8l-2,0l-2,0
		c-0.4,0-0.6-0.3-0.6-0.6C103.9,111.8,103.9,111.8,103.9,111.7L103.9,111.7L103.9,111.7L103.9,111.7z"/>
	<path class="st0" d="M186.8,104.2c0,0.3-0.3,0.6-0.6,0.6c-0.3,0-0.6-0.3-0.6-0.6c0-0.3,0.3-0.6,0.6-0.6
		C186.6,103.6,186.8,103.9,186.8,104.2z"/>
</g>
</svg>
