<?xml version="1.0" encoding="utf-8"?>
<!-- Generator: Adobe Illustrator 25.2.0, SVG Export Plug-In . SVG Version: 6.00 Build 0)  -->
<svg version="1.1" id="Layer_2" xmlns="http://www.w3.org/2000/svg" xmlns:xlink="http://www.w3.org/1999/xlink" x="0px" y="0px"
	 viewBox="0 0 300 200" style="enable-background:new 0 0 300 200;" xml:space="preserve">
<g id="Page-1">
	<g id="Black-Next.js" transform="translate(-247.000000, -138.000000)">
		<g id="next-black" transform="translate(247.000000, 138.000000)">
			<g id="EXT-_x2B_-Type-something">
				<path id="EXT" d="M80.9,62.4h49.4v3.9H85.4v29.4h42.2v3.9H85.4v32.3h45.3v3.9H80.9V62.4z M134.7,62.4h5.2l23.2,32.3l23.8-32.3
					l32.3-41l-53.1,76.6l27.4,37.7h-5.5l-24.9-34.3l-25,34.3h-5.3l27.6-37.7L134.7,62.4z M195.5,66.3v-3.9h56.2v3.9h-25.9v69.5h-4.5
					V66.3H195.5z"/>
				<polygon id="Type-something" points="19.1,62.4 24.8,62.4 102.8,178.6 70.6,135.8 23.9,68 23.7,135.8 19.1,135.8 				"/>
			</g>
			<path id="_x2E_JS" d="M251.2,130.7c0.9,0,1.6-0.7,1.6-1.6s-0.7-1.6-1.6-1.6c-0.9,0-1.6,0.7-1.6,1.6S250.3,130.7,251.2,130.7z
				 M255.7,126.4c0,2.7,2,4.5,4.8,4.5c3.1,0,4.9-1.8,4.9-5v-11.2H263v11.2c0,1.8-0.9,2.7-2.5,2.7c-1.4,0-2.4-0.9-2.4-2.2H255.7z
				 M268.7,126.3c0.2,2.8,2.5,4.6,6.1,4.6c3.8,0,6.1-1.9,6.1-4.9c0-2.4-1.3-3.7-4.6-4.5l-1.7-0.4c-2.1-0.5-2.9-1.1-2.9-2.3
				c0-1.4,1.3-2.4,3.2-2.4c1.8,0,3.1,0.9,3.4,2.4h2.4c-0.1-2.7-2.5-4.5-5.7-4.5c-3.5,0-5.8,1.9-5.8,4.7c0,2.3,1.3,3.7,4.2,4.4l2,0.5
				c2.1,0.5,3,1.2,3,2.4c0,1.4-1.5,2.4-3.4,2.4c-2.1,0-3.6-1-3.8-2.5H268.7z"/>
		</g>
	</g>
</g>
</svg>
