<?xml version="1.0" encoding="utf-8"?>
<!-- Generator: Adobe Illustrator 25.2.0, SVG Export Plug-In . SVG Version: 6.00 Build 0)  -->
<svg version="1.1" id="Layer_1" xmlns="http://www.w3.org/2000/svg" xmlns:xlink="http://www.w3.org/1999/xlink" x="0px" y="0px"
	 viewBox="0 0 300 200" style="enable-background:new 0 0 300 200;" xml:space="preserve">
<style type="text/css">
	.st0{fill:#CF649A;}
</style>
<g id="Layer_3">
</g>
<path class="st0" d="M226.9,111.9c-7.5,0-13.9,1.8-19.3,4.5c-2-4-4-7.4-4.3-10c-0.4-3-0.8-4.8-0.4-8.4c0.5-3.6,2.5-8.7,2.5-9.1
	c0-0.4-0.5-2.2-4.7-2.2s-8,0.8-8.4,2c-0.4,1.1-1.2,3.7-1.8,6.4c-0.7,3.9-8.6,17.8-13,25.1c-1.5-2.8-2.7-5.3-3-7.3
	c-0.4-3-0.8-4.8-0.4-8.4c0.5-3.6,2.5-8.7,2.5-9.1c0-0.4-0.5-2.2-4.7-2.2c-4.3,0-8,0.8-8.4,2s-0.9,3.8-1.8,6.4
	c-0.9,2.6-11.3,25.7-14,31.8c-1.4,3.1-2.6,5.5-3.5,7.2c-0.9,1.7,0,0.1-0.1,0.3c-0.7,1.4-1.2,2.2-1.2,2.2v0c-0.6,1-1.2,2-1.5,2
	c-0.2,0-0.6-2.8,0.1-6.6c1.5-8,5.3-20.6,5.2-21c0-0.2,0.7-2.4-2.4-3.5c-3-1.1-4.1,0.7-4.4,0.7c-0.2,0-0.5,0.7-0.5,0.7
	s3.4-14.1-6.5-14.1c-6.2,0-14.7,6.7-18.9,12.8c-2.7,1.5-8.3,4.5-14.3,7.8c-2.3,1.2-4.7,2.6-6.9,3.8l-0.5-0.5
	c-11.9-12.7-33.9-21.7-33-38.8c0.3-6.2,2.5-22.6,42.3-42.4c32.6-16.2,58.7-11.8,63.2-1.9c6.5,14.2-13.9,40.5-47.8,44.3
	c-12.9,1.5-19.7-3.5-21.4-5.4c-1.8-2-2-2-2.7-1.7c-1.1,0.6-0.4,2.3,0,3.4c1,2.6,5.2,7.3,12.2,9.6c6.2,2,21.4,3.2,39.7-3.9
	c20.5-8,36.6-30,31.8-48.5c-4.8-18.8-35.9-24.9-65.4-14.5C94,31.4,75,41.2,61.4,53.9C45.1,69.1,42.6,82.3,43.6,87.8
	c3.8,19.6,30.8,32.4,41.6,41.8c-0.5,0.3-1,0.6-1.5,0.8c-5.4,2.7-26,13.4-31.2,24.9c-5.8,12.9,0.9,22.2,5.4,23.4
	c13.9,3.9,28.1-3.1,35.8-14.5c7.7-11.4,6.7-26.3,3.2-33.1l-0.1-0.2l4.2-2.5c2.7-1.6,5.5-3.1,7.8-4.4c-1.3,3.6-2.3,7.9-2.8,14.2
	c-0.6,7.3,2.4,16.8,6.4,20.6c1.7,1.6,3.8,1.7,5.1,1.7c4.6,0,6.7-3.8,9-8.3c2.8-5.5,5.3-11.9,5.3-11.9s-3.1,17.4,5.4,17.4
	c3.1,0,6.2-4,7.7-6.1v0c0,0,0.1-0.1,0.2-0.4c0.2-0.3,0.3-0.5,0.5-0.8v-0.1c1.2-2.2,4-7.1,8.2-15.3c5.4-10.6,10.5-23.8,10.5-23.8
	s0.5,3.2,2,8.6c0.9,3.2,2.9,6.6,4.5,10c-1.2,1.7-2,2.7-2,2.7l0,0c-1,1.3-2.1,2.7-3.3,4.2c-4.2,5.1-9.3,10.9-10,12.5
	c-0.8,2-0.6,3.4,0.9,4.6c1.1,0.8,3.1,1,5.2,0.8c3.8-0.3,6.5-1.2,7.8-1.8c2.1-0.7,4.5-1.9,6.7-3.5c4.2-3.1,6.7-7.5,6.5-13.3
	c-0.1-3.2-1.2-6.4-2.5-9.4c0.4-0.5,0.7-1.1,1.1-1.7c6.6-9.6,11.7-20.2,11.7-20.2s0.5,3.2,2,8.6c0.8,2.7,2.4,5.7,3.8,8.6
	c-6.2,5-10,10.9-11.4,14.7c-2.5,7.1-0.5,10.3,3.1,11c1.6,0.3,4-0.4,5.7-1.2c2.2-0.7,4.8-1.9,7.2-3.7c4.2-3.1,8.2-7.4,8-13.2
	c-0.1-2.7-0.8-5.3-1.8-7.8c5.2-2.2,12-3.4,20.6-2.4c18.5,2.2,22.2,13.7,21.5,18.6c-0.7,4.8-4.6,7.5-5.9,8.3
	c-1.3,0.8-1.7,1.1-1.6,1.7c0.2,0.9,0.7,0.8,1.9,0.7c1.5-0.3,9.7-4,10.1-12.9C257,124.2,246.2,111.7,226.9,111.9L226.9,111.9z
	 M84,160c-6.1,6.7-14.7,9.2-18.4,7.1c-4-2.3-2.4-12.2,5.1-19.3c4.6-4.3,10.5-8.3,14.4-10.8c0.9-0.5,2.2-1.3,3.8-2.3
	c0.2-0.2,0.4-0.2,0.4-0.2c0.3-0.2,0.6-0.4,1-0.6C93.1,144.1,90.5,153,84,160L84,160z M128.8,129.6c-2.1,5.2-6.6,18.6-9.3,17.8
	c-2.3-0.6-3.7-10.7-0.5-20.7c1.7-5,5.2-11,7.3-13.4c3.4-3.7,7-5,8-3.5C135.3,111.9,130.1,126.3,128.8,129.6z M165.7,147.2
	c-0.9,0.5-1.7,0.8-2.1,0.5c-0.3-0.2,0.4-0.8,0.4-0.8s4.6-5,6.5-7.2c1-1.3,2.3-2.9,3.6-4.6v0.5C174,141.6,168.3,145.6,165.7,147.2
	L165.7,147.2z M194.2,140.8c-0.7-0.5-0.6-2,1.7-6.9c0.9-1.9,2.9-5.1,6.3-8.2c0.4,1.2,0.7,2.5,0.6,3.6
	C202.8,136.8,197.4,139.6,194.2,140.8z"/>
</svg>
