<?xml version="1.0" encoding="utf-8"?>
<!-- Generator: Adobe Illustrator 25.2.0, SVG Export Plug-In . SVG Version: 6.00 Build 0)  -->
<svg version="1.1" xmlns="http://www.w3.org/2000/svg" xmlns:xlink="http://www.w3.org/1999/xlink" x="0px" y="0px"
	 viewBox="0 0 300 200" style="enable-background:new 0 0 300 200;" xml:space="preserve">
<style type="text/css">
	.st0{fill:#00749A;}
	.st1{fill:#464342;}
</style>
<g id="Layer_2">
	<g id="Layer_2_1_">
		<g>
			<path class="st0" d="M173.4,92.9h-11.5v1.2c3.6,0,4.2,0.8,4.2,5.3v8.2c0,4.6-0.6,5.4-4.2,5.4c-2.8-0.4-4.6-1.9-7.2-4.7l-3-3.2
				c4-0.7,6.1-3.2,6.1-6c0-3.5-3-6.2-8.7-6.2h-11.3v1.2c3.6,0,4.2,0.8,4.2,5.3v8.2c0,4.6-0.6,5.4-4.2,5.4v1.2h12.8v-1.2
				c-3.6,0-4.2-0.8-4.2-5.4v-2.3h1.1l7.1,8.9h18.7c9.2,0,13.2-4.9,13.2-10.7C186.6,97.8,182.6,92.9,173.4,92.9z M146.4,103.4v-8.6
				h2.6c2.9,0,4.2,2,4.2,4.3c0,2.3-1.3,4.2-4.2,4.2L146.4,103.4L146.4,103.4z M173.6,112.4h-0.5c-2.3,0-2.6-0.6-2.6-3.5v-14
				c0,0,2.8,0,3.1,0c6.7,0,7.9,4.9,7.9,8.7C181.5,107.5,180.3,112.4,173.6,112.4z"/>
			<path class="st0" d="M102,105.8l4.4-13.1c1.3-3.8,0.7-4.9-3.4-4.9v-1.3h12.1v1.3c-4.1,0-5,1-6.6,5.7l-7.3,22h-0.8l-6.6-20.1
				L87,115.5h-0.8l-7.1-22c-1.5-4.7-2.6-5.7-6.3-5.7v-1.3H87v1.3c-3.8,0-4.8,0.9-3.5,4.9l4.3,13.1l6.5-19.3h1.2L102,105.8z"/>
			<path class="st0" d="M123.9,115.2c-7.1,0-12.9-5.2-12.9-11.6c0-6.3,5.8-11.5,12.9-11.5c7.1,0,12.9,5.2,12.9,11.5
				C136.7,110,130.9,115.2,123.9,115.2z M123.9,94.1c-5.9,0-8,5.3-8,9.5c0,4.2,2.1,9.5,8,9.5c6,0,8-5.3,8-9.5
				C131.9,99.4,129.8,94.1,123.9,94.1z"/>
			<path class="st1" d="M202.5,113.1v1.3h-14.7v-1.3c4.3,0,5.1-1.1,5.1-7.5V95.3c0-6.4-0.8-7.5-5.1-7.5v-1.3h13.3
				c6.6,0,10.3,3.4,10.3,8c0,4.4-3.7,7.9-10.3,7.9h-3.7v3.2C197.4,112,198.2,113.1,202.5,113.1z M201.1,88.8h-3.7V100h3.7
				c3.6,0,5.3-2.5,5.3-5.5C206.3,91.4,204.7,88.8,201.1,88.8z"/>
			<path class="st1" d="M255.6,108.3l-0.3,1.2c-0.6,2.1-1.3,2.9-5.9,2.9h-0.9c-3.3,0-3.9-0.8-3.9-5.3v-3c5,0,5.4,0.4,5.4,3.8h1.2
				v-9.6H250c0,3.3-0.4,3.8-5.4,3.8v-7.2h3.5c4.6,0,5.3,0.8,5.9,2.9l0.3,1.2h1l-0.4-6h-18.9v1.2c3.6,0,4.2,0.8,4.2,5.3v8.2
				c0,4.2-0.5,5.2-3.3,5.4c-2.7-0.4-4.6-1.9-7.1-4.7l-3-3.2c4-0.7,6.1-3.2,6.1-6c0-3.5-3-6.2-8.7-6.2h-11.3v1.2
				c3.6,0,4.2,0.8,4.2,5.3v8.2c0,4.6-0.6,5.4-4.2,5.4v1.2h12.8v-1.2c-3.6,0-4.2-0.8-4.2-5.4v-2.3h1.1l7.1,8.9h26.4l0.4-6
				L255.6,108.3L255.6,108.3z M221.5,103.4v-8.6h2.6c2.9,0,4.2,2,4.2,4.3c0,2.3-1.3,4.2-4.2,4.2L221.5,103.4L221.5,103.4z"/>
			<path class="st1" d="M268.6,115.2c-2.6,0-4.8-1.4-5.8-2.2c-0.3,0.3-0.9,1.3-1,2.2h-1.2v-8.9h1.3c0.5,4.2,3.5,6.8,7.3,6.8
				c2.1,0,3.7-1.2,3.7-3.1c0-1.7-1.5-3-4.1-4.2l-3.7-1.7c-2.6-1.2-4.5-3.3-4.5-6.2c0-3.1,2.9-5.7,6.9-5.7c2.1,0,3.9,0.8,5,1.7
				c0.3-0.3,0.6-1,0.8-1.7h1.2v7.6h-1.4c-0.5-3-2.1-5.5-5.5-5.5c-1.8,0-3.5,1-3.5,2.6c0,1.7,1.4,2.6,4.4,4l3.5,1.7
				c3.1,1.5,4.3,3.9,4.3,5.8C276.5,112.4,272.9,115.2,268.6,115.2z"/>
			<path class="st1" d="M288.5,115.2c-2.6,0-4.8-1.4-5.8-2.2c-0.3,0.3-0.9,1.3-1,2.2h-1.2v-8.9h1.3c0.5,4.2,3.5,6.8,7.3,6.8
				c2.1,0,3.7-1.2,3.7-3.1c0-1.7-1.5-3-4.1-4.2l-3.7-1.7c-2.6-1.2-4.5-3.3-4.5-6.2c0-3.1,2.9-5.7,6.9-5.7c2.1,0,3.9,0.8,5,1.7
				c0.3-0.3,0.6-1,0.8-1.7h1.2v7.6H293c-0.5-3-2.1-5.5-5.5-5.5c-1.8,0-3.5,1-3.5,2.6c0,1.7,1.4,2.6,4.4,4l3.5,1.7
				c3.1,1.5,4.3,3.9,4.3,5.8C296.3,112.4,292.8,115.2,288.5,115.2z"/>
			<g>
				<path class="st1" d="M8.4,100c0,11.3,6.6,21,16,25.6L10.9,88.4C9.3,92,8.4,95.9,8.4,100z"/>
				<path class="st1" d="M56.1,98.6c0-3.5-1.3-6-2.3-7.9C52.3,88.4,51,86.4,51,84c0-2.6,2-5.1,4.8-5.1c0.1,0,0.2,0,0.4,0
					c-5.1-4.6-11.8-7.5-19.2-7.5c-9.9,0-18.7,5.1-23.8,12.8c0.7,0,1.3,0,1.8,0c3,0,7.6-0.4,7.6-0.4c1.5-0.1,1.7,2.2,0.2,2.3
					c0,0-1.5,0.2-3.3,0.3l10.4,30.8L36,98.8l-4.4-12.2c-1.5-0.1-3-0.3-3-0.3c-1.5-0.1-1.4-2.4,0.2-2.3c0,0,4.7,0.4,7.5,0.4
					c3,0,7.6-0.4,7.6-0.4c1.5-0.1,1.7,2.2,0.2,2.3c0,0-1.5,0.2-3.3,0.3l10.3,30.6l2.8-9.5C55.2,103.8,56.1,101,56.1,98.6z"/>
				<path class="st1" d="M37.4,102.5l-8.5,24.8c2.6,0.7,5.2,1.2,8,1.2c3.3,0,6.5-0.6,9.5-1.6c-0.1-0.1-0.1-0.3-0.2-0.4L37.4,102.5z"
					/>
				<path class="st1" d="M61.9,86.3c0.1,0.9,0.2,1.9,0.2,2.9c0,2.9-0.5,6.1-2.2,10.2l-8.7,25.1c8.5-4.9,14.2-14.1,14.2-24.6
					C65.4,95,64.1,90.4,61.9,86.3z"/>
				<path class="st1" d="M36.9,66.8C18.6,66.8,3.7,81.7,3.7,100c0,18.3,14.9,33.2,33.2,33.2c18.3,0,33.2-14.9,33.2-33.2
					C70.1,81.7,55.2,66.8,36.9,66.8z M36.9,131.7c-17.5,0-31.7-14.2-31.7-31.7c0-17.5,14.2-31.7,31.7-31.7
					c17.5,0,31.7,14.2,31.7,31.7C68.6,117.5,54.4,131.7,36.9,131.7z"/>
			</g>
		</g>
	</g>
</g>
<g id="Layer_3">
</g>
</svg>
